<svg width="26" height="26" viewBox="0 0 26 26" fill="none" xmlns="http://www.w3.org/2000/svg">
<path fill-rule="evenodd" clip-rule="evenodd" d="M9.5393 17.7208C9.14119 18.1036 8.50815 18.0912 8.12536 17.6931L4.2792 13.6931C3.90698 13.306 3.90698 12.694 4.2792 12.3069L8.12536 8.30689C8.50815 7.90879 9.14119 7.89638 9.5393 8.27917C9.93741 8.66196 9.94982 9.29501 9.56702 9.69311L6.38732 13L9.56702 16.3069C9.94982 16.705 9.9374 17.338 9.5393 17.7208Z" fill="#34363E"/>
<path fill-rule="evenodd" clip-rule="evenodd" d="M22 13C22 13.5523 21.5523 14 21 14L5 14C4.44772 14 4 13.5523 4 13C4 12.4477 4.44772 12 5 12L21 12C21.5523 12 22 12.4477 22 13Z" fill="#34363E"/>
</svg>
