<svg width="26" height="26" viewBox="0 0 26 26" fill="none" xmlns="http://www.w3.org/2000/svg">
<path fill-rule="evenodd" clip-rule="evenodd" d="M8.90769 8.57818C9.1406 8.8139 9.13832 9.19379 8.90261 9.4267L8.46077 9.86328H14.8472C15.1785 9.86328 15.4472 10.1319 15.4472 10.4633C15.4472 10.7947 15.1785 11.0633 14.8472 11.0633H8.46074L8.90262 11.4999C9.13833 11.7328 9.14059 12.1127 8.90768 12.3484C8.67477 12.5841 8.29488 12.5864 8.05917 12.3535L6.57818 10.8901C6.4641 10.7773 6.3999 10.6236 6.3999 10.4633C6.3999 10.3029 6.46411 10.1492 6.57818 10.0365L8.05917 8.57311C8.29489 8.3402 8.67478 8.34247 8.90769 8.57818Z" fill="#34363E"/>
<path fill-rule="evenodd" clip-rule="evenodd" d="M16.9394 13.5782C17.1723 13.3425 17.5522 13.3402 17.7879 13.5731L19.2689 15.0365C19.383 15.1492 19.4472 15.3029 19.4472 15.4633C19.4472 15.6236 19.383 15.7773 19.2689 15.8901L17.7879 17.3535C17.5522 17.5864 17.1723 17.5841 16.9394 17.3484C16.7065 17.1127 16.7087 16.7328 16.9444 16.4999L17.3863 16.0633H10.9999C10.6685 16.0633 10.3999 15.7947 10.3999 15.4633C10.3999 15.1319 10.6685 14.8633 10.9999 14.8633H17.3863L16.9444 14.4267C16.7087 14.1938 16.7065 13.8139 16.9394 13.5782Z" fill="#34363E"/>
</svg>
