<svg width="26" height="26" viewBox="0 0 26 26" fill="none" xmlns="http://www.w3.org/2000/svg">
<path d="M12 14H10V16H12V14Z" fill="#34363E"/>
<path fill-rule="evenodd" clip-rule="evenodd" d="M7 9V17C7 18.1045 7.89551 19 9 19H17C18.1045 19 19 18.1045 19 17V9C19 7.89551 18.1045 7 17 7H9C7.89551 7 7 7.89551 7 9ZM8 12H18V17C18 17.5522 17.5522 18 17 18H9C8.44775 18 8 17.5522 8 17V12ZM10 9.5C10 9.62305 9.95557 9.73584 9.88208 9.82275C9.79028 9.93115 9.65308 10 9.5 10C9.22388 10 9 9.77637 9 9.5C9 9.22363 9.22388 9 9.5 9C9.77612 9 10 9.22363 10 9.5ZM16.5 10C16.7761 10 17 9.77637 17 9.5C17 9.22363 16.7761 9 16.5 9C16.2239 9 16 9.22363 16 9.5C16 9.77637 16.2239 10 16.5 10Z" fill="#34363E"/>
</svg>
