<svg width="26" height="26" viewBox="0 0 26 26" fill="none" xmlns="http://www.w3.org/2000/svg">
<path fill-rule="evenodd" clip-rule="evenodd" d="M13 8C10.2386 8 8 10.2386 8 13C8 15.7614 10.2386 18 13 18C15.7614 18 18 15.7614 18 13C18 12.4477 18.4477 12 19 12C19.5523 12 20 12.4477 20 13C20 16.866 16.866 20 13 20C9.13401 20 6 16.866 6 13C6 9.13401 9.13401 6 13 6C14.3958 6 15.6991 6.40959 16.7924 7.11545C17.2564 7.41501 17.3897 8.03398 17.0901 8.49797C16.7906 8.96196 16.1716 9.09526 15.7076 8.79571C14.9278 8.29228 13.9996 8 13 8Z" fill="#34363E"/>
<path fill-rule="evenodd" clip-rule="evenodd" d="M21.7194 6.30533C22.103 6.70261 22.092 7.33568 21.6947 7.71933L13.9284 15.2193C13.5404 15.594 12.9251 15.5935 12.5378 15.2181L10.1929 12.9453C9.79636 12.561 9.78648 11.9279 10.1709 11.5313C10.5552 11.1347 11.1883 11.1248 11.5849 11.5092L13.235 13.1086L20.3054 6.28067C20.7026 5.89702 21.3357 5.90806 21.7194 6.30533Z" fill="#34363E"/>
</svg>
