<svg width="26" height="26" viewBox="0 0 26 26" fill="none" xmlns="http://www.w3.org/2000/svg">
<path d="M9.4896 15.7472C9.84009 15.7472 10.1242 15.4628 10.1242 15.1119C10.1242 14.761 9.84009 14.4766 9.4896 14.4766C9.13911 14.4766 8.85498 14.761 8.85498 15.1119C8.85498 15.4628 9.13911 15.7472 9.4896 15.7472Z" fill="#34363E"/>
<path d="M16.5106 15.7472C16.8611 15.7472 17.1452 15.4628 17.1452 15.1119C17.1452 14.761 16.8611 14.4766 16.5106 14.4766C16.1601 14.4766 15.876 14.761 15.876 15.1119C15.876 15.4628 16.1601 15.7472 16.5106 15.7472Z" fill="#34363E"/>
<path d="M9.48943 13.0742C9.14279 13.0742 8.81688 13.2094 8.57174 13.4548C8.4393 13.5873 8.4393 13.8022 8.57174 13.9348C8.70419 14.0674 8.91885 14.0673 9.0512 13.9348C9.16826 13.8176 9.32389 13.7531 9.48943 13.7531C9.65497 13.7531 9.81059 13.8176 9.92765 13.9348C9.99385 14.0011 10.0806 14.0343 10.1674 14.0342C10.2542 14.0342 10.341 14.0011 10.4072 13.9348C10.5396 13.8023 10.5396 13.5874 10.4072 13.4548C10.162 13.2094 9.83607 13.0742 9.48943 13.0742Z" fill="#34363E"/>
<path d="M15.5927 13.4551C15.4603 13.5876 15.4603 13.8025 15.5927 13.9351C15.7251 14.0677 15.9398 14.0677 16.0722 13.9351C16.3138 13.6932 16.707 13.6932 16.9486 13.9351C17.0148 14.0014 17.1016 14.0345 17.1884 14.0345C17.2752 14.0345 17.362 14.0014 17.4282 13.9351C17.5606 13.8026 17.5606 13.5877 17.4282 13.4551C16.9222 12.9486 16.0988 12.9485 15.5927 13.4551Z" fill="#34363E"/>
<path d="M13.6531 17.8094C13.4786 17.984 13.2468 18.0802 13.0001 18.0802C12.7534 18.0802 12.5215 17.984 12.3471 17.8094C12.2147 17.6768 12 17.6768 11.8676 17.8094C11.7352 17.9419 11.7352 18.1568 11.8676 18.2894C12.1701 18.5923 12.5723 18.759 13.0001 18.759C13.4279 18.759 13.8301 18.5922 14.1326 18.2894C14.265 18.1569 14.265 17.942 14.1326 17.8094C14.0001 17.6768 13.7855 17.6768 13.6531 17.8094Z" fill="#34363E"/>
<path d="M21 14.7844C21 13.8624 20.3342 13.0936 19.4588 12.9333V7.25493C19.4588 6.51828 19.0927 5.83535 18.4796 5.42807C17.9037 5.04558 17.1887 4.95877 16.5423 5.18682L14.4136 4.4635C12.778 3.90764 11.0562 3.85062 9.43458 4.29854C7.31161 4.88494 6.0945 6.12496 5.90662 7.88762C5.74036 8.10715 5.60826 8.3537 5.51849 8.61973L5.35338 9.10897C5.26476 9.37165 5.36245 9.64769 5.59656 9.79585C5.83059 9.94401 6.12162 9.91406 6.32069 9.72122C6.38867 9.65533 6.46301 9.59983 6.54124 9.55341V12.9333C5.66581 13.0937 5 13.8624 5 14.7845C5 15.7434 5.7201 16.5366 6.64728 16.6519C6.88012 17.9391 7.49198 19.1263 8.42755 20.0765C9.64903 21.3169 11.2728 22 13 22C13.0002 22 13.0004 22 13.0006 22C14.7256 21.9998 16.3473 21.3272 17.567 20.1062C18.5198 19.1524 19.1382 17.953 19.3634 16.6506C20.2854 16.5304 21 15.7396 21 14.7844ZM18.1047 5.99378C18.5343 6.27911 18.7807 6.73878 18.7807 7.25493V11.6967C17.7283 11.533 16.9202 10.6198 16.9202 9.52104L16.8922 5.78901C17.3062 5.67976 17.7379 5.75019 18.1047 5.99378ZM6.09505 9.03222L6.16095 8.83701C6.33357 8.32553 6.71691 7.91028 7.21265 7.6978C7.70834 7.48531 8.27307 7.49414 8.76194 7.72211C9.78868 8.20083 11.0299 7.94202 11.7803 7.09276L11.8643 6.99768C11.9884 6.85728 11.9753 6.64276 11.835 6.51858C11.6947 6.39439 11.4805 6.4075 11.3564 6.54789L11.2724 6.64298C10.7194 7.2688 9.80478 7.45947 9.04823 7.10672C8.38483 6.79737 7.61845 6.78537 6.94573 7.07376C6.88449 7.10002 6.82494 7.12934 6.76633 7.16001C7.16043 6.10816 8.11427 5.36744 9.615 4.95291C11.1052 4.54127 12.6891 4.59435 14.1957 5.10629L16.2141 5.79215L16.2405 7.54603C15.3418 8.76929 14.0311 9.59737 12.5375 9.88211C11.0082 10.1736 9.44789 9.86514 8.14415 9.01342C7.50707 8.59733 6.70394 8.6151 6.09505 9.03222ZM5.6781 14.7844C5.6781 14.2387 6.04296 13.7769 6.54124 13.63V15.4698C6.54124 15.6287 6.54696 15.7867 6.55811 15.9438C6.05127 15.8024 5.6781 15.3364 5.6781 14.7844ZM17.0876 19.6261C15.9959 20.719 14.5445 21.3209 13.0006 21.3211C13.0003 21.3211 13.0003 21.3211 13 21.3211C11.4559 21.3211 10.0034 20.7097 8.91045 19.5998C7.81993 18.4923 7.21934 17.0256 7.21934 15.4697V9.39337C7.41138 9.40771 7.60192 9.46992 7.77348 9.58197C9.22488 10.5301 10.9618 10.8736 12.6643 10.549C14.0463 10.2855 15.2878 9.60441 16.2421 8.59992V9.521C16.2421 10.9946 17.3532 12.2125 18.7806 12.3811V15.5339C18.7807 17.0798 18.1794 18.5331 17.0876 19.6261ZM19.4457 15.9427C19.4541 15.8072 19.4588 15.6709 19.4588 15.534V13.63C19.957 13.7769 20.3219 14.2387 20.3219 14.7844C20.3219 15.335 19.9506 15.8 19.4457 15.9427Z" fill="#34363E"/>
</svg>
