<svg width="26" height="26" viewBox="0 0 26 26" fill="none" xmlns="http://www.w3.org/2000/svg">
<path d="M20.3614 9.88407C19.5178 7.91632 18.0843 6.48523 16.1013 5.63899C15.1101 5.21604 14.0717 5 12.9868 5C11.9022 5 10.8715 5.214 9.88139 5.63899C7.91472 6.48298 6.4749 7.91316 5.62986 9.88407C5.20641 10.8715 5 11.906 5 12.9912C5 14.0767 5.20641 15.1197 5.62986 16.1074C6.4749 18.0783 7.9149 19.517 9.88139 20.3612C10.8716 20.7862 11.9022 21 12.9868 21C14.0715 21 15.1101 20.784 16.1011 20.3612C18.0842 19.5149 19.5176 18.0749 20.3614 16.1074C20.7861 15.1166 21 14.0767 21 12.9912C21 11.906 20.7863 10.8748 20.3614 9.88407ZM19.0843 16.5275C18.4563 17.6051 17.5959 18.46 16.5124 19.092C15.4354 19.7204 14.2553 20.0372 12.987 20.0372C12.0336 20.0372 11.1238 19.8535 10.2576 19.4771C9.3915 19.1008 8.64369 18.6062 8.01812 17.9804C7.39255 17.3545 6.89464 16.599 6.52233 15.7309C6.15111 14.866 5.97122 13.9454 5.97122 12.9912C5.97122 11.722 6.28288 10.5473 6.90735 9.47273C7.53404 8.3942 8.39456 7.53841 9.47046 6.90819C10.5462 6.27798 11.7186 5.96278 12.9868 5.96278C14.2553 5.96278 15.4352 6.27984 16.5122 6.90819C17.5958 7.54027 18.4542 8.39603 19.0841 9.4727C19.714 10.5492 20.0288 11.722 20.0288 12.9912C20.0288 14.2604 19.716 15.4431 19.0843 16.5275Z" fill="#34363E"/>
<path d="M13.4944 12.9211V8.38712C13.4944 8.11581 13.2582 7.89697 12.987 7.89697C12.7334 7.89697 12.5059 8.11581 12.5059 8.38712V12.9911C12.5059 12.9999 12.5234 13.035 12.5234 13.0611C12.5059 13.2187 12.5497 13.35 12.6546 13.4551L15.2704 16.0722C15.4454 16.2473 15.769 16.2473 15.9439 16.0722C16.1451 15.8709 16.1318 15.5788 15.9439 15.3895L13.4944 12.9211Z" fill="#34363E"/>
</svg>
