<svg width="26" height="26" viewBox="0 0 26 26" fill="none" xmlns="http://www.w3.org/2000/svg">
<circle cx="13" cy="13" r="7" fill="#23242A"/>
<path d="M7.35459 10.6465C7.28174 10.8146 7.2201 10.9883 7.16406 11.162H8.11948L7.35459 10.6465Z" fill="#01247D"/>
<path d="M18.6543 15.3619C18.7243 15.1909 18.7887 15.0172 18.8448 14.8379H17.8669L18.6543 15.3619Z" fill="#01247D"/>
<path d="M8.65479 17.3148C9.35838 18.0223 10.224 18.5475 11.1764 18.8447V15.6421L8.65479 17.3148Z" fill="#01247D"/>
<path d="M11.1623 7.15527C10.2088 7.45452 9.34302 7.98264 8.64062 8.69353L11.1623 10.3747V7.15527Z" fill="#01247D"/>
<path d="M18.8421 11.162C18.7861 10.9883 18.7245 10.8146 18.6544 10.6465L17.8811 11.162H18.8421Z" fill="#01247D"/>
<path d="M14.8381 18.8419C15.7862 18.5439 16.6471 18.0187 17.3458 17.312L14.8381 15.6309V18.8419Z" fill="#01247D"/>
<path d="M7.15576 14.8379C7.21323 15.0158 7.27963 15.1906 7.35469 15.3619L8.1392 14.8379H7.15576Z" fill="#01247D"/>
<path d="M17.3544 8.69353C16.6517 7.983 15.7861 7.45493 14.8328 7.15527V10.3691L17.3544 8.69353Z" fill="#01247D"/>
<path d="M19.0299 14.0786H14.0791V19.0296C14.3361 18.984 14.5898 18.9213 14.8384 18.8419V15.6421L17.346 17.3232C17.6312 17.0373 17.8874 16.7238 18.1109 16.3874L15.7938 14.8463H17.2508L18.5116 15.6869C18.562 15.5804 18.6096 15.4768 18.6545 15.3703L17.8672 14.8463H18.8422C18.922 14.595 18.9847 14.3385 19.0299 14.0786Z" fill="white"/>
<path d="M11.1622 7.15514V10.369L8.64059 8.6878C8.36975 8.96609 8.12671 9.27014 7.91491 9.59562L10.26 11.1535H8.79188L7.50025 10.3045C7.44701 10.4166 7.39378 10.5315 7.34615 10.6463L8.11945 11.1619H7.15562C7.07789 11.4137 7.01612 11.6701 6.9707 11.9296H11.9299V6.97021C11.6704 7.01564 11.414 7.0774 11.1622 7.15514Z" fill="white"/>
<path d="M6.9707 14.0786C7.01645 14.3372 7.07821 14.5926 7.15562 14.8435H8.13346L7.35455 15.3619C7.50208 15.7179 7.68413 16.0585 7.8981 16.379L10.2152 14.8379H11.1678V15.1714L8.38282 17.0206C8.46967 17.1215 8.55933 17.2196 8.663 17.3008L11.1846 15.6197V18.8419C11.436 18.9209 11.6925 18.9827 11.9523 19.0268V14.0786H6.9707Z" fill="white"/>
<path d="M18.8422 11.1619H17.884L18.6573 10.6463C18.5046 10.2799 18.3169 9.92893 18.0969 9.59843L15.7462 11.1619H14.8384V10.7977L17.601 8.95959C17.5225 8.86992 17.4385 8.77746 17.3544 8.67939L14.8328 10.3606V7.15514C14.5856 7.07817 14.3339 7.01641 14.0791 6.97021V11.9296H19.0299C18.9849 11.6697 18.9222 11.4132 18.8422 11.1619Z" fill="white"/>
<path d="M19.0298 11.9297H14.079V6.97025C13.3701 6.84325 12.6444 6.84325 11.9356 6.97025V11.9297H6.97074C6.84309 12.6403 6.84309 13.3681 6.97074 14.0787H11.93V19.0298C12.6388 19.1567 13.3645 19.1567 14.0733 19.0298V14.0787H19.0298C19.1567 13.3699 19.1567 12.6441 19.0298 11.9353V11.9297Z" fill="#CF142B"/>
<path d="M15.7935 14.8379L18.1106 16.379C18.2582 16.1538 18.392 15.9199 18.5112 15.6785L17.2504 14.8379H15.7935Z" fill="#CF142B"/>
<path d="M14.8381 11.1622H15.7431L18.0938 9.59587C17.9439 9.3722 17.7791 9.15878 17.6007 8.95703L14.8381 10.7951V11.1622Z" fill="#CF142B"/>
<path d="M11.1623 14.8379H10.2097L7.89258 16.379C8.04068 16.6041 8.20453 16.8185 8.3829 17.0206L11.1623 15.1713V14.8379Z" fill="#CF142B"/>
<path d="M10.2491 11.162L7.91518 9.5957C7.76607 9.82046 7.63131 10.0544 7.51172 10.2962L8.80336 11.1536L10.2491 11.162Z" fill="#CF142B"/>
</svg>
