<svg width="26" height="26" viewBox="0 0 26 26" fill="none" xmlns="http://www.w3.org/2000/svg">
<path d="M10.6794 13.7632C10.7062 13.6948 10.7487 13.6348 10.8027 13.5864C10.8862 13.5122 10.9965 13.4668 11.1176 13.4668H12.9999C13.155 13.4668 13.2924 13.541 13.3784 13.6558C13.394 13.6768 13.4079 13.6992 13.4199 13.7227C13.4277 13.7378 13.4348 13.7534 13.4409 13.7695C13.447 13.7856 13.4521 13.8022 13.4562 13.8188C13.4655 13.8555 13.4704 13.894 13.4704 13.9336C13.4704 14 13.4562 14.0635 13.4309 14.1206C13.3583 14.2852 13.1926 14.3999 12.9999 14.3999H11.1176C10.8576 14.3999 10.6469 14.1914 10.6469 13.9336C10.6469 13.8735 10.6584 13.8159 10.6794 13.7632Z" fill="#34363E"/>
<path d="M10.1765 15.3335C10.0436 15.3335 9.92353 15.3882 9.83783 15.4761C9.75605 15.5601 9.70575 15.6743 9.70575 15.8003C9.70575 16.0581 9.91645 16.2666 10.1765 16.2666H13.9411C14.2009 16.2666 14.4116 16.0581 14.4116 15.8003C14.4116 15.5425 14.2009 15.3335 13.9411 15.3335H10.1765Z" fill="#34363E"/>
<path d="M11.1176 17.2002C10.8576 17.2002 10.6469 17.4092 10.6469 17.667C10.6469 17.9248 10.8576 18.1333 11.1176 18.1333H12.9999L13.0292 18.1323L13.0541 18.1304L13.0832 18.126C13.1037 18.1226 13.124 18.1177 13.1435 18.1113C13.187 18.0977 13.2277 18.0776 13.2648 18.0522C13.3889 17.9683 13.4704 17.8271 13.4704 17.667C13.4704 17.4092 13.2597 17.2002 12.9999 17.2002H11.1176Z" fill="#34363E"/>
<path fill-rule="evenodd" clip-rule="evenodd" d="M16.7941 14.897C17.8015 14.8403 18.621 14.0244 18.621 13V9.01123L21.3486 6.3584C21.4943 6.21631 21.5397 6.00049 21.4631 5.81201C21.3867 5.62354 21.2033 5.5 20.9999 5.5H10.204C9.1457 5.5 8.26459 6.3374 8.26459 7.3999V11.1001H4.99994C4.79658 11.1001 4.61323 11.2236 4.53681 11.4121C4.46015 11.6006 4.50556 11.8164 4.65131 11.9585L7.37885 14.6113V18.6001C7.37885 19.6626 8.25995 20.5 9.3183 20.5H14.8547C15.9128 20.5 16.7941 19.6626 16.7941 18.6001V14.897ZM11.7766 8.3335C11.7766 8.07568 12.0295 7.8667 12.3413 7.8667H14.6C14.9121 7.8667 15.1647 8.07568 15.1647 8.3335C15.1647 8.59131 14.9121 8.80029 14.6 8.80029H12.3413C12.0295 8.80029 11.7766 8.59131 11.7766 8.3335ZM10.7722 9.90723C10.6938 9.9873 10.6469 10.0894 10.6469 10.2002C10.6469 10.458 10.8998 10.667 11.2116 10.667H15.7292C16.0412 10.667 16.2939 10.458 16.2939 10.2002C16.2939 9.94238 16.0412 9.7334 15.7292 9.7334H11.2116C11.1242 9.7334 11.0414 9.74951 10.9677 9.7793C10.8915 9.80957 10.8247 9.85352 10.7722 9.90723ZM6.23115 12.1001L8.22748 14.0415C8.32416 14.1357 8.37885 14.2651 8.37885 14.3999V18.6001C8.37885 19.0845 8.78608 19.5 9.3183 19.5H14.8547C15.3869 19.5 15.7941 19.0845 15.7941 18.6001V13C15.7941 12.5156 15.3869 12.1001 14.8547 12.1001H6.23115Z" fill="#34363E"/>
</svg>
