<svg width="26" height="26" viewBox="0 0 26 26" fill="none" xmlns="http://www.w3.org/2000/svg">
<path d="M16.3627 12.8251V6.39359C16.3627 6.17493 16.184 6 15.9608 6C15.7375 6 15.5588 6.17493 15.5588 6.39359V12.8251C14.627 13.0087 13.9214 13.8163 13.9214 14.7843C13.9214 15.7522 14.627 16.5598 15.5588 16.7434V19.6064C15.5588 19.8251 15.7375 20 15.9608 20C16.184 20 16.3627 19.8251 16.3627 19.6064V16.7434C17.2945 16.5598 18.0001 15.7522 18.0001 14.7843C18.0001 13.8192 17.2975 13.0087 16.3627 12.8251ZM15.9608 15.9942C15.279 15.9942 14.7252 15.4519 14.7252 14.7843C14.7252 14.1166 15.279 13.5743 15.9608 13.5743C16.6425 13.5743 17.1963 14.1166 17.1963 14.7843C17.1963 15.4519 16.6425 15.9942 15.9608 15.9942Z" fill="black"/>
<path d="M10.4413 9.52478V6.39359C10.4413 6.17493 10.2627 6 10.0394 6C9.81608 6 9.63745 6.17493 9.63745 6.39359V9.52478C8.70559 9.70845 8 10.516 8 11.484C8 12.4519 8.70559 13.2595 9.63745 13.4431V19.6064C9.63745 19.8251 9.81608 20 10.0394 20C10.2627 20 10.4413 19.8251 10.4413 19.6064V13.4402C11.3731 13.2566 12.0787 12.449 12.0787 11.481C12.0787 10.5131 11.3731 9.70845 10.4413 9.52478ZM10.0394 12.6939C9.35759 12.6939 8.80384 12.1516 8.80384 11.484C8.80384 10.8163 9.35759 10.2741 10.0394 10.2741C10.7211 10.2741 11.2749 10.8163 11.2749 11.484C11.2749 12.1516 10.7182 12.6939 10.0394 12.6939Z" fill="black"/>
</svg>
