<svg width="26" height="26" viewBox="0 0 26 26" fill="none" xmlns="http://www.w3.org/2000/svg">
<path d="M7.94879 8.3192C8.04899 8.23545 8.17232 8.1978 8.27867 8.21834L8.29231 8.22168C8.32245 8.23065 9.03358 8.44436 9.3684 8.67628C9.43193 8.72022 9.47482 8.79039 9.49306 8.87576L10.0085 10.2636C10.3177 10.3258 11.4895 10.5618 12.8659 10.8437L12.2417 7.54765C12.2233 7.45074 12.2571 7.34982 12.3322 7.27782C12.4072 7.20584 12.5083 7.17715 12.6028 7.20109L13.6577 7.46763C13.7589 7.49322 13.8746 7.57905 13.9251 7.668L16.0992 11.5162C17.1211 11.7336 17.9587 11.9188 18.2938 12.0101C18.5398 12.0771 18.7753 12.2223 18.994 12.441C19.3549 12.802 19.6623 13.3778 19.5459 13.6574C19.5415 13.6682 18.9301 14.7105 16.7604 14.3915L9.06095 12.81C9.05348 12.8082 8.87116 12.7692 8.73907 12.686C8.51553 12.5452 8.30628 12.3599 8.10338 12.157L8.04457 12.0982C8.01644 12.0701 7.98878 12.0424 7.96161 12.0153L7.94328 11.9969L7.95165 11.9886C7.82038 11.8573 7.79741 11.6874 7.79579 11.658L7.77453 8.64372L7.77654 8.63453C7.78296 8.52004 7.84833 8.40338 7.94879 8.3192Z" fill="#34363E"/>
<rect x="7" y="17" width="12" height="1" fill="#34363E"/>
</svg>
