<svg width="32" height="32" viewBox="0 0 32 32" fill="none" xmlns="http://www.w3.org/2000/svg">
<path d="M27.2728 8.72705L14.5455 18.1816L14.1819 18.5452L22.1819 23.6361L27.2728 8.72705Z" fill="#7083F0"/>
<path d="M13.8182 18.5454L12.7273 22.909V23.2727L17.0909 20.3636L13.8182 18.5454Z" fill="#2E48E8"/>
<path d="M27.9937 8.46466C27.9953 8.45506 27.9981 8.44545 27.9989 8.43585C28.0017 8.40624 27.9985 8.37623 27.9949 8.34623C27.9941 8.33862 27.9953 8.33142 27.9941 8.32382C27.9869 8.28421 27.9738 8.2454 27.9542 8.20819C27.951 8.20179 27.9466 8.19579 27.943 8.18938C27.9422 8.18858 27.9422 8.18738 27.9418 8.18618C27.9414 8.18538 27.9402 8.18498 27.9398 8.18378C27.937 8.17938 27.9346 8.17458 27.9318 8.17058C27.907 8.13417 27.8771 8.10416 27.8435 8.07855C27.8359 8.07295 27.8271 8.06975 27.8191 8.06455C27.7896 8.04495 27.7584 8.02894 27.7248 8.01814C27.71 8.01334 27.6952 8.01094 27.6801 8.00814C27.6509 8.00213 27.6217 7.99933 27.5914 8.00013C27.5754 8.00053 27.5602 8.00133 27.5442 8.00373C27.5338 8.00534 27.5238 8.00374 27.5134 8.00614L4.31883 12.8058C4.1538 12.8402 4.02753 12.9743 4.00395 13.1415C3.98037 13.3087 4.06389 13.4728 4.21294 13.5516L10.8589 17.0617L12.0245 23.5383C12.0237 23.5431 12.0249 23.5483 12.0245 23.5531C12.0205 23.5851 12.0201 23.6163 12.0241 23.6479C12.0261 23.6639 12.0281 23.6791 12.0321 23.6947C12.0413 23.7327 12.0561 23.7683 12.0761 23.8019C12.0801 23.8083 12.0801 23.816 12.0845 23.8224C12.0857 23.8244 12.0877 23.826 12.0893 23.8276C12.0944 23.8352 12.1016 23.8412 12.1076 23.8488C12.1264 23.872 12.146 23.8932 12.1684 23.9112C12.172 23.914 12.1744 23.9184 12.1784 23.9212C12.1844 23.9256 12.1912 23.9268 12.1971 23.9308C12.2215 23.9468 12.2467 23.96 12.2735 23.9704C12.2843 23.9744 12.2942 23.9792 12.3054 23.9824C12.3414 23.9928 12.3786 24 12.4161 24C12.4165 24 12.4169 24 12.4173 24C12.4189 24 12.4205 23.9992 12.4221 23.9992C12.4289 23.9996 12.4357 24 12.4425 24C12.5532 24 12.6531 23.9504 12.727 23.874L17.1541 20.9188L21.7893 23.9356C21.8548 23.978 21.9308 24 22.0071 24C22.049 24 22.0918 23.9932 22.133 23.9796C22.248 23.9412 22.3399 23.8524 22.3819 23.7379L27.9746 8.53828C27.9798 8.52467 27.9841 8.51067 27.9877 8.49627C27.9893 8.49026 27.9897 8.48426 27.9909 8.47866C27.9921 8.47426 27.9929 8.46946 27.9937 8.46466ZM23.3657 11.0185L13.7783 18.0768C13.7627 18.0884 13.7504 18.1028 13.7368 18.1164C13.7316 18.1212 13.7264 18.1252 13.722 18.1304C13.7136 18.1396 13.706 18.1488 13.6984 18.1588C13.6912 18.1684 13.6856 18.1784 13.6792 18.1885C13.6644 18.2125 13.6521 18.2373 13.6425 18.2637C13.6405 18.2689 13.6373 18.2729 13.6357 18.2781C13.6353 18.2797 13.6337 18.2805 13.6333 18.2821L12.5344 21.8578L11.6637 17.0201L23.3657 11.0185ZM13.1538 22.6276L14.243 19.0251L15.9389 20.129L16.424 20.4447L14.7761 21.5445L13.1538 22.6276ZM24.7962 9.3857L11.2209 16.348L5.57074 13.364L24.7962 9.3857ZM21.8053 22.9917L15.6496 18.9859L14.7174 18.3789L26.7666 9.50774L21.8053 22.9917Z" fill="#2E48E8"/>
</svg>
