<svg width="26" height="26" viewBox="0 0 26 26" fill="none" xmlns="http://www.w3.org/2000/svg">
<path d="M14.5863 7C15.4597 7 15.8963 7.54804 15.8963 8.17468C15.8963 8.95732 15.138 9.68128 14.1497 9.68128C13.3222 9.68128 12.8394 9.23104 12.8624 8.48764C12.8624 7.86112 13.437 7 14.5863 7ZM11.8969 19C11.2073 19 10.7016 18.6086 11.1843 16.8862L11.9761 13.8314C12.114 13.3421 12.1365 13.1465 11.9761 13.1465C11.769 13.1465 10.8738 13.4844 10.3443 13.8173L10 13.2887C11.6778 11.9776 13.6081 11.2086 14.4353 11.2086C15.1247 11.2086 15.2398 11.972 14.8951 13.1464L13.9887 16.3576C13.8277 16.9251 13.897 17.1207 14.0574 17.1207C14.2643 17.1207 14.9427 16.8851 15.6091 16.3958L16 16.8852C14.368 18.412 12.5865 19 11.8969 19Z" fill="#34363E"/>
</svg>
