<svg width="26" height="26" viewBox="0 0 26 26" fill="none" xmlns="http://www.w3.org/2000/svg">
<path d="M19 14.0244C19 13.2996 18.5528 12.6708 17.9024 12.3639C18.2198 12.0114 18.3841 11.5688 18.3663 11.1031C18.3286 10.1145 17.4175 9.31018 16.3354 9.31018H14.7726V7.00237C14.7726 5.89825 13.8091 5 12.6248 5C11.4405 5 10.477 5.89825 10.477 7.00237V9.43593C8.48285 9.8971 7 11.5794 7 13.5791V16.7311C7 19.085 9.05415 21 11.579 21H15.6822C16.6065 21 17.3557 20.3378 17.388 19.4925C17.4009 19.154 17.2992 18.83 17.0991 18.5568C17.7702 18.2568 18.2348 17.6172 18.2348 16.8782C18.2348 16.4441 18.074 16.0446 17.8057 15.7277C18.5081 15.4394 19 14.7847 19 14.0244ZM11.4068 7.00237C11.4068 6.37625 11.9532 5.86685 12.6248 5.86685C13.2964 5.86685 13.8428 6.37625 13.8428 7.00237V9.31018H11.5791C11.5213 9.31018 11.4641 9.31228 11.4069 9.31427V7.00237H11.4068ZM17.0046 15.0179H16.2393H12.7802C12.5234 15.0179 12.3153 15.212 12.3153 15.4513C12.3153 15.6907 12.5234 15.8848 12.7802 15.8848H16.2393C16.8269 15.8848 17.305 16.3304 17.305 16.8783C17.305 17.4262 16.8269 17.8718 16.2393 17.8718H12.7802C12.5234 17.8718 12.3153 18.0658 12.3153 18.3052C12.3153 18.5446 12.5234 18.7386 12.7802 18.7386H15.7113C15.9161 18.7386 16.1073 18.8144 16.2496 18.9517C16.3917 19.0891 16.466 19.2702 16.4587 19.4616C16.4445 19.8319 16.0962 20.1331 15.6822 20.1331H11.579C9.56681 20.1331 7.92981 18.6069 7.92981 16.731V13.5791C7.92981 11.7031 9.56681 10.177 11.579 10.177H16.3354C16.9227 10.177 17.4169 10.6062 17.437 11.1339C17.4474 11.4066 17.3415 11.6646 17.139 11.8603C16.9362 12.0561 16.6639 12.164 16.372 12.164H12.7801C12.5233 12.164 12.3152 12.358 12.3152 12.5974C12.3152 12.8368 12.5233 13.0308 12.7801 13.0308H17.0044C17.5921 13.0308 18.0701 13.4765 18.0701 14.0243C18.0701 14.5721 17.5921 15.0179 17.0046 15.0179Z" fill="#34363E"/>
</svg>
