<svg width="30" height="24" viewBox="0 0 30 24" fill="none" xmlns="http://www.w3.org/2000/svg">
<path d="M14.6881 23.2168C15.6104 24.0279 16.965 24.2536 18.1382 23.6825L19.0949 23.2168H14.6881Z" fill="#8F969D"/>
<path d="M23.1415 21.2471L27.54 19.1061C29.0994 18.3471 29.7489 16.4674 28.9896 14.9076L22.5932 1.76683C21.8339 0.207018 19.954 -0.441575 18.3947 0.317481L14.2793 2.32065H20.2263C21.9606 2.32065 23.3671 3.72655 23.3671 5.46145V20.0761C23.3671 20.49 23.287 20.8852 23.1415 21.2471Z" fill="#8F969D"/>
<path d="M15.7206 2.32065L11.6052 0.317481C10.0459 -0.441575 8.16602 0.207018 7.40674 1.76683L1.01033 14.9076C0.251055 16.4674 0.900521 18.3471 2.45989 19.1061L6.85357 21.2448C6.70866 20.8835 6.62892 20.4891 6.62892 20.0761V5.46145C6.62892 3.72655 8.03548 2.32065 9.76972 2.32065H15.7206Z" fill="#4B4D56"/>
<path d="M10.9051 23.2168L11.8617 23.6825C13.0349 24.2536 14.3895 24.0279 15.3118 23.2168H10.9051Z" fill="#4B4D56"/>
<path d="M11.8354 12.4021C11.6913 12.2405 11.6192 12.0323 11.6192 11.7776V11.2265C11.6192 10.9521 11.6913 10.7366 11.8354 10.5798C11.9796 10.4182 12.1735 10.3373 12.4171 10.3373C12.6706 10.3373 12.867 10.4206 13.0062 10.5872C13.1454 10.7488 13.215 10.957 13.215 11.2118V11.6526C13.215 12.3091 12.954 12.6373 12.432 12.6373C12.1785 12.6373 11.9796 12.5589 11.8354 12.4021Z" fill="white"/>
<path d="M17.0107 18.4055C16.8516 18.2291 16.772 18.0258 16.772 17.7956V17.1931C16.782 16.9383 16.859 16.7375 17.0032 16.5905C17.1474 16.4387 17.3388 16.3627 17.5774 16.3627C17.826 16.3627 18.0224 16.4436 18.1665 16.6052C18.3107 16.762 18.3828 16.9702 18.3828 17.2298L18.3753 17.9866C18.3356 18.4373 18.0746 18.6627 17.5923 18.6627C17.3636 18.6627 17.1698 18.5769 17.0107 18.4055Z" fill="white"/>
<path fill-rule="evenodd" clip-rule="evenodd" d="M20.2272 2.32031H9.77068C8.03644 2.32031 6.62988 3.72621 6.62988 5.4611V20.0757C6.62988 21.8106 8.03644 23.2165 9.77068 23.2165H20.2272C21.9614 23.2165 23.368 21.8106 23.368 20.0757V5.4611C23.368 3.72621 21.9614 2.32031 20.2272 2.32031ZM14.9989 6.99996C14.0412 6.99996 13.2647 6.22344 13.2647 5.26506C13.2647 4.30735 14.0412 3.53083 14.9989 3.53083C15.9566 3.53083 16.7332 4.30735 16.7332 5.26506C16.7332 6.22344 15.9566 6.99996 14.9989 6.99996ZM10.6572 9.60989C10.2197 10.0165 10.001 10.5504 10.001 11.2118V11.7335C10.001 12.4291 10.2222 12.9777 10.6647 13.3794C11.1121 13.7762 11.7012 13.9746 12.432 13.9746C13.1678 13.9746 13.7519 13.7738 14.1844 13.3721C14.6169 12.9704 14.8332 12.4389 14.8332 11.7776V11.2485C14.8332 10.5578 14.6169 10.0116 14.1844 9.60989C13.7519 9.2033 13.1628 9 12.4171 9C11.6813 9 11.0947 9.2033 10.6572 9.60989ZM15.8175 15.6279C15.38 16.0296 15.1613 16.5636 15.1613 17.2298V17.7589C15.1613 18.4545 15.3825 19.0031 15.825 19.4048C16.2724 19.8016 16.8615 20 17.5923 20C18.3331 20 18.9197 19.7992 19.3522 19.3975C19.7847 18.9958 20.001 18.4618 20.001 17.7956V17.2812C20.001 16.5709 19.7822 16.0174 19.3448 15.6206C18.9073 15.2238 18.3182 15.0254 17.5774 15.0254C16.8466 15.0254 16.26 15.2262 15.8175 15.6279ZM11.7385 18.4716L12.9093 19.0521L18.2113 10.69L17.0405 10.1096L11.7385 18.4716Z" fill="white"/>
</svg>
