<svg width="36" height="26" viewBox="0 0 36 26" fill="none" xmlns="http://www.w3.org/2000/svg">
<path d="M24.3051 5.875C24.3051 6.90869 23.4662 7.75 22.4357 7.75C21.4054 7.75 20.5663 6.90869 20.5663 5.875C20.5663 4.84131 21.4054 4 22.4357 4C23.4662 4 24.3051 4.84131 24.3051 5.875Z" fill="#34363E"/>
<path d="M25.2965 10.3213L25.7924 14.6772C25.8341 15.042 25.7221 15.4033 25.485 15.6694C25.2809 15.8984 25.0109 16.0317 24.717 16.0483L24.3044 21.6523C24.29 21.8486 24.1271 22.0005 23.9311 22.0005H20.9401C20.7448 22.0005 20.5819 21.8486 20.5675 21.6523L20.1549 16.0483C19.861 16.0317 19.591 15.8984 19.3869 15.6694C19.2597 15.5264 19.1684 15.3564 19.1176 15.1729C19.0956 15.0938 19.0812 15.0117 19.0749 14.9287C19.0685 14.8457 19.07 14.7617 19.0795 14.6772L19.5754 10.3213C19.6928 9.28369 20.5124 8.50049 21.4814 8.50049H23.3905C24.3588 8.50049 25.1791 9.28369 25.2965 10.3213Z" fill="#34363E"/>
<path d="M17.2655 8.5C18.2961 8.5 19.1349 7.65869 19.1349 6.625C19.1349 5.59131 18.2961 4.75 17.2655 4.75C16.2353 4.75 15.3962 5.59131 15.3962 6.625C15.3962 7.65869 16.2353 8.5 17.2655 8.5Z" fill="#34363E"/>
<path d="M18.3359 14.5923C18.2709 15.1689 18.4504 15.7437 18.8285 16.1685C18.9452 16.2993 19.0851 16.416 19.246 16.5161C19.3642 16.5894 19.432 16.7222 19.4215 16.8618L19.1337 20.9019C19.1203 21.0977 18.9572 21.25 18.7614 21.25H15.7702C15.6525 21.25 15.547 21.1953 15.4784 21.1099C15.4323 21.0522 15.4027 20.9805 15.3971 20.9019L15.048 15.9971C14.7533 15.978 14.4775 15.8423 14.2807 15.6196C14.2362 15.5693 14.1967 15.5151 14.1623 15.4585C14.11 15.3716 14.0697 15.2788 14.0424 15.1821C14.0216 15.1084 14.0082 15.0327 14.0026 14.9561C13.9975 14.8833 13.9992 14.8091 14.0085 14.7354L14.4877 10.8926C14.6044 9.95557 15.4015 9.25 16.3422 9.25H18.1886C18.3381 9.25 18.4877 9.271 18.6603 9.31592C18.7568 9.34131 18.8398 9.40527 18.8893 9.49219C18.9394 9.57861 18.9528 9.68262 18.9259 9.77881C18.9067 9.84863 18.8886 9.91895 18.873 9.99072C18.8603 10.0488 18.8493 10.1079 18.8407 10.1675L18.8317 10.2363L18.3359 14.5923Z" fill="#34363E"/>
<path d="M27.7343 8.5C28.7648 8.5 29.6037 7.65869 29.6037 6.625C29.6037 5.59131 28.7648 4.75 27.7343 4.75C26.704 4.75 25.8649 5.59131 25.8649 6.625C25.8649 7.65869 26.704 8.5 27.7343 8.5Z" fill="#34363E"/>
<path d="M30.5121 10.8926L30.9914 14.7354C31.0309 15.0557 30.9323 15.3774 30.7192 15.6196C30.6501 15.6987 30.571 15.7666 30.4843 15.8223C30.3256 15.9238 30.1425 15.9849 29.9521 15.9976L29.6027 20.9019C29.5893 21.0977 29.4262 21.25 29.2304 21.25H26.2392C26.0426 21.25 25.8803 21.0977 25.8661 20.9019L25.5722 16.7764C25.5624 16.6455 25.6215 16.5195 25.7277 16.4438C25.799 16.3926 25.861 16.3438 25.9159 16.2949C25.9631 16.2529 26.005 16.2114 26.0434 16.1685C26.4218 15.7437 26.6012 15.1689 26.536 14.5923L26.0404 10.2363C26.0346 10.1855 26.0265 10.1357 26.0173 10.0864C25.9994 9.99316 25.9765 9.90137 25.9521 9.81006C25.902 9.62109 26.0053 9.42529 26.1884 9.36035C26.394 9.28662 26.6034 9.25 26.8112 9.25H28.6576C29.5983 9.25 30.3962 9.95557 30.5121 10.8926Z" fill="#34363E"/>
<path fill-rule="evenodd" clip-rule="evenodd" d="M9 12C11.2092 12 13 10.209 13 8C13 5.79102 11.2092 4 9 4C6.79077 4 5 5.79102 5 8C5 10.209 6.79077 12 9 12ZM8.49976 9.99951C8.49976 10.1182 8.54102 10.2275 8.61011 10.313C8.7019 10.4268 8.84229 10.4995 8.99976 10.4995C9.27588 10.4995 9.49976 10.2759 9.49976 9.99951V8.5H11.0005C11.2766 8.5 11.5005 8.27637 11.5005 8C11.5005 7.84424 11.429 7.70508 11.3169 7.61328C11.2358 7.54688 11.1338 7.50488 11.022 7.50049L11.0005 7.5H9.49976V5.99951C9.49976 5.72314 9.27588 5.49951 8.99976 5.49951C8.72363 5.49951 8.49976 5.72314 8.49976 5.99951V7.5H7.00024C6.72412 7.5 6.50024 7.72412 6.50024 8C6.50024 8.27637 6.72412 8.5 7.00024 8.5H8.49976V9.99951Z" fill="#8F969D"/>
</svg>
