<svg width="26" height="26" viewBox="0 0 26 26" fill="none" xmlns="http://www.w3.org/2000/svg">
<path d="M19.2573 11.3556L15.8482 11.4677L12.8255 6H11.0605C10.8671 6 10.7105 6.15404 10.7105 6.3447L11.9761 11.5946L8.50508 11.7335C8.20632 11.7338 7.92501 11.7834 7.67572 11.8697L6.36447 9.67808L5.26405 9.6778C5.1182 9.67808 5 9.79427 5 9.93788L5.95948 12.8265V13.1735L5.00007 16.0621C4.99993 16.2057 5.11813 16.3222 5.26398 16.3222L6.3646 16.3225L7.69886 14.0918C7.94234 14.1734 8.2154 14.2203 8.50515 14.2203L11.9895 14.3598L10.7103 19.6556C10.7103 19.8462 10.8669 20 11.0604 20H12.8254L15.8733 14.4874L19.2573 14.5986C20.22 14.5986 21 13.8722 21 12.9771C21.0001 12.0817 20.22 11.3556 19.2573 11.3556Z" fill="#34363E"/>
</svg>
