<svg width="26" height="26" viewBox="0 0 26 26" fill="none" xmlns="http://www.w3.org/2000/svg">
<path d="M21 8.41979C20.4111 8.66072 19.7792 8.82412 19.1153 8.89707C19.7932 8.52226 20.3121 7.92776 20.5581 7.22155C19.9222 7.56864 19.2203 7.82068 18.4724 7.95731C17.8736 7.36742 17.0217 7 16.0769 7C14.2642 7 12.7945 8.35703 12.7945 10.0298C12.7945 10.267 12.8235 10.4987 12.8795 10.7203C10.152 10.5938 7.73347 9.38726 6.11477 7.55387C5.83182 8.00069 5.67085 8.52132 5.67085 9.07707C5.67085 10.1285 6.25075 11.0563 7.13059 11.5991C6.59268 11.5825 6.08677 11.4459 5.64387 11.2188V11.2566C5.64387 12.7244 6.77566 13.9494 8.27637 14.2282C8.00142 14.2965 7.71148 14.3344 7.41153 14.3344C7.19959 14.3344 6.99462 14.315 6.79365 14.2781C7.21156 15.4828 8.42335 16.3588 9.85909 16.3829C8.73629 17.1952 7.32055 17.678 5.78285 17.678C5.51791 17.678 5.25694 17.6633 5 17.6365C6.45273 18.4978 8.17742 19 10.0311 19C16.0689 19 19.3693 14.3824 19.3693 10.3778L19.3583 9.98547C20.0032 9.5608 20.5611 9.02722 21 8.41979Z" fill="#34363E"/>
</svg>
