<svg width="32" height="32" viewBox="0 0 32 32" fill="none" xmlns="http://www.w3.org/2000/svg">
<path fill-rule="evenodd" clip-rule="evenodd" d="M11.4576 13.4112C11.4576 9.35473 14.6772 6 18.6634 6C22.6497 6 25.8692 9.3547 25.8693 13.4112C27.1543 14.5437 28 16.2004 28 18.0826C28 21.3697 25.3664 24.1199 22.1259 24.1199C21.6766 24.1199 21.3123 23.7544 21.3123 23.3036C21.3123 22.8527 21.6766 22.4872 22.1259 22.4872C24.4254 22.4872 26.3729 20.5111 26.3729 18.0826C26.3729 16.5981 25.6548 15.2904 24.5589 14.4424C24.3591 14.2878 24.2421 14.049 24.2421 13.7959V13.4112C24.2421 10.2133 21.7087 7.63265 18.6634 7.63265C15.6182 7.63265 13.0847 10.2133 13.0847 13.4112C13.0847 13.9853 13.1779 14.5733 13.3239 15.1254C13.4187 15.4842 13.2604 15.8621 12.9385 16.045C12.6166 16.228 12.2122 16.17 11.9543 15.9039C11.293 15.2216 10.3789 14.7771 9.3414 14.7771C7.30827 14.7771 5.62712 16.4785 5.62712 18.6322C5.62712 19.083 5.26288 19.4485 4.81356 19.4485C4.36424 19.4485 4 19.083 4 18.6322C4 15.6199 6.36727 13.1445 9.3414 13.1445C10.1053 13.1445 10.8196 13.3099 11.4601 13.5973C11.4585 13.5354 11.4576 13.4734 11.4576 13.4112Z" fill="#34363E"/>
<path fill-rule="evenodd" clip-rule="evenodd" d="M19.5345 15.7389C19.8566 15.4246 20.3716 15.4318 20.6849 15.755C21.258 16.3463 21.6077 17.1547 21.6077 18.0828C21.6077 19.0108 21.258 19.8193 20.6849 20.4106C20.1112 21.0024 19.3172 21.3722 18.3971 21.3722H4.81356C4.36424 21.3722 4 21.0067 4 20.5559C4 20.105 4.36424 19.7395 4.81356 19.7395H18.3971C18.862 19.7395 19.2399 19.5597 19.5185 19.2723C19.7976 18.9842 19.9806 18.5836 19.9806 18.0828C19.9806 17.5819 19.7976 17.1813 19.5185 16.8933C19.2052 16.5701 19.2124 16.0533 19.5345 15.7389Z" fill="#34363E"/>
<path fill-rule="evenodd" clip-rule="evenodd" d="M9.32642 23.5351C9.32642 23.0842 9.69066 22.7188 10.14 22.7188H18.1303C19.5064 22.7188 20.5419 23.8202 20.5419 25.1838C20.5419 25.6346 20.1777 26.0001 19.7284 26.0001C19.279 26.0001 18.9148 25.6346 18.9148 25.1838C18.9148 24.6788 18.5654 24.3514 18.1303 24.3514H10.14C9.69066 24.3514 9.32642 23.9859 9.32642 23.5351Z" fill="#34363E"/>
</svg>
