<svg width="32" height="32" viewBox="0 0 32 32" fill="none" xmlns="http://www.w3.org/2000/svg">
<path fill-rule="evenodd" clip-rule="evenodd" d="M19.6954 20.7942C20.1151 20.955 20.3251 21.4261 20.1646 21.8464L18.8962 25.1675C18.7356 25.5878 18.2653 25.7982 17.8456 25.6374C17.426 25.4767 17.2159 25.0056 17.3764 24.5853L18.6449 21.2642C18.8054 20.8438 19.2757 20.6335 19.6954 20.7942Z" fill="#34363E"/>
<path fill-rule="evenodd" clip-rule="evenodd" d="M17.3055 20.7942C17.7251 20.955 17.9352 21.4261 17.7747 21.8464L16.0065 26.4759C15.846 26.8963 15.3756 27.1066 14.956 26.9459C14.5363 26.7851 14.3262 26.314 14.4868 25.8937L16.255 21.2642C16.4155 20.8438 16.8858 20.6335 17.3055 20.7942Z" fill="#34363E"/>
<path fill-rule="evenodd" clip-rule="evenodd" d="M14.9173 20.7942C15.337 20.955 15.547 21.4261 15.3865 21.8464L14.2482 24.8267C14.0877 25.247 13.6173 25.4574 13.1977 25.2967C12.778 25.1359 12.5679 24.6648 12.7285 24.2445L13.8668 21.2642C14.0273 20.8438 14.4976 20.6335 14.9173 20.7942Z" fill="#34363E"/>
<path fill-rule="evenodd" clip-rule="evenodd" d="M12.5274 20.7942C12.9471 20.955 13.1572 21.4261 12.9966 21.8464L12.3825 23.4544C12.222 23.8747 11.7516 24.0851 11.332 23.9243C10.9123 23.7636 10.7022 23.2925 10.8628 22.8722L11.4769 21.2642C11.6374 20.8438 12.1078 20.6335 12.5274 20.7942Z" fill="#34363E"/>
<path fill-rule="evenodd" clip-rule="evenodd" d="M11.4576 12.1041C11.4576 8.18141 14.7121 5 18.6634 5C22.6055 5 25.854 8.16651 25.8692 12.0765C27.1483 13.158 28 14.745 28 16.5591C28 19.748 25.3315 22.3529 22.1259 22.3529C21.6766 22.3529 21.3123 21.9881 21.3123 21.5381C21.3123 21.0881 21.6766 20.7233 22.1259 20.7233C24.4603 20.7233 26.3729 18.8208 26.3729 16.5591C26.3729 15.1711 25.669 13.9357 24.5731 13.127C24.365 12.9734 24.2421 12.7299 24.2421 12.471V12.1041C24.2421 9.10859 21.7435 6.62961 18.6634 6.62961C15.5833 6.62961 13.0847 9.10859 13.0847 12.1041C13.0847 12.6438 13.1767 13.1982 13.3214 13.7206C13.4199 14.0759 13.2678 14.4532 12.9506 14.6405C12.6333 14.8277 12.2301 14.7782 11.9674 14.5198C11.3093 13.8723 10.3914 13.443 9.3414 13.443C7.2734 13.443 5.62712 15.0834 5.62712 17.0832C5.62712 19.0829 7.2734 20.7233 9.3414 20.7233C9.79072 20.7233 10.155 21.0881 10.155 21.5381C10.155 21.9881 9.79072 22.3529 9.3414 22.3529C6.40214 22.3529 4 20.0101 4 17.0832C4 14.1563 6.40214 11.8134 9.3414 11.8134C10.1036 11.8134 10.8178 11.9718 11.4592 12.248C11.4582 12.2001 11.4576 12.1522 11.4576 12.1041Z" fill="#34363E"/>
</svg>
