<?xml version="1.0" encoding="utf-8"?>
<!-- Generator: Adobe Illustrator 19.2.1, SVG Export Plug-In . SVG Version: 6.00 Build 0)  -->
<svg version="1.1" id="Layer_1" xmlns="http://www.w3.org/2000/svg" xmlns:xlink="http://www.w3.org/1999/xlink" x="0px" y="0px"
	 width="109px" height="109px" viewBox="0 0 109 109" enable-background="new 0 0 109 109" xml:space="preserve">
<g>
	<path fill="#231F20" d="M81.086,53.639l-5.828-13.443c-0.973-2.245-3.183-3.695-5.63-3.695H59.057v-6.083c0-0.553-0.447-1-1-1
		h-6.342c-0.553,0-1,0.447-1,1V36.5H39.912c-2.484,0-4.707,1.481-5.663,3.774L28.678,53.64c-3.228,0.65-5.667,3.506-5.667,6.923
		v17.313c0,0.553,0.447,1,1,1h3.615c0.274,4.382,2.797,7.709,5.973,7.709c3.175,0,5.699-3.327,5.973-7.709H70.2
		c0.274,4.382,2.797,7.709,5.973,7.709c3.176,0,5.699-3.327,5.973-7.709h3.615c0.553,0,1-0.447,1-1V60.563
		C86.761,57.143,84.318,54.285,81.086,53.639z M52.715,31.417h4.342V36.5h-4.342V31.417z M36.095,41.044
		c0.644-1.545,2.143-2.544,3.817-2.544h11.803h6.342h11.571c1.649,0,3.139,0.977,3.794,2.49l5.424,12.51H30.902L36.095,41.044z
		 M33.599,84.584c-2.003,0-3.716-2.543-3.966-5.709h7.931C37.315,82.041,35.602,84.584,33.599,84.584z M76.173,84.584
		c-2.003,0-3.716-2.543-3.966-5.709h7.931C79.889,82.041,78.176,84.584,76.173,84.584z M84.761,76.875h-59.75V60.563
		c0-2.791,2.271-5.063,5.063-5.063h49.625c2.791,0,5.063,2.271,5.063,5.063V76.875z"/>
	<path fill="#231F20" d="M33.648,59.288c-2.481,0-4.5,2.018-4.5,4.5c0,2.481,2.019,4.5,4.5,4.5c2.482,0,4.5-2.019,4.5-4.5
		C38.148,61.307,36.129,59.288,33.648,59.288z M33.648,66.288c-1.379,0-2.5-1.121-2.5-2.5s1.121-2.5,2.5-2.5s2.5,1.121,2.5,2.5
		S35.026,66.288,33.648,66.288z"/>
	<path fill="#231F20" d="M76.124,59.288c-2.482,0-4.5,2.018-4.5,4.5c0,2.481,2.018,4.5,4.5,4.5c2.481,0,4.5-2.019,4.5-4.5
		C80.624,61.307,78.606,59.288,76.124,59.288z M76.124,66.288c-1.379,0-2.5-1.121-2.5-2.5s1.121-2.5,2.5-2.5s2.5,1.121,2.5,2.5
		S77.503,66.288,76.124,66.288z"/>
	<path fill="#231F20" d="M51.993,26.871c0.176,0.347,0.527,0.546,0.892,0.546c0.152,0,0.308-0.035,0.453-0.109
		c0.492-0.25,0.688-0.852,0.437-1.345l-4.5-8.834c-0.249-0.492-0.852-0.689-1.345-0.437c-0.492,0.25-0.688,0.852-0.437,1.345
		L51.993,26.871z"/>
	<path fill="#231F20" d="M48.1,28.537c0.184,0.144,0.4,0.213,0.616,0.213c0.297,0,0.591-0.132,0.788-0.383
		c0.341-0.435,0.265-1.063-0.17-1.404l-7.333-5.75c-0.435-0.342-1.063-0.264-1.404,0.17c-0.341,0.435-0.265,1.063,0.17,1.404
		L48.1,28.537z"/>
	<path fill="#231F20" d="M56.434,27.308c0.146,0.074,0.301,0.109,0.453,0.109c0.364,0,0.716-0.199,0.892-0.546l4.5-8.834
		c0.251-0.492,0.056-1.095-0.437-1.345c-0.494-0.253-1.096-0.056-1.345,0.437l-4.5,8.834C55.746,26.455,55.942,27.058,56.434,27.308
		z"/>
	<path fill="#231F20" d="M60.268,28.367c0.197,0.251,0.491,0.383,0.788,0.383c0.216,0,0.433-0.069,0.616-0.213l7.333-5.75
		c0.435-0.341,0.511-0.97,0.17-1.404c-0.341-0.434-0.968-0.512-1.404-0.17l-7.333,5.75C60.003,27.304,59.927,27.933,60.268,28.367z"
		/>
</g>
</svg>
