<?xml version="1.0" encoding="utf-8"?>
<!-- Generator: Adobe Illustrator 19.2.1, SVG Export Plug-In . SVG Version: 6.00 Build 0)  -->
<svg version="1.1" id="Layer_1" xmlns="http://www.w3.org/2000/svg" xmlns:xlink="http://www.w3.org/1999/xlink" x="0px" y="0px"
	 width="109px" height="109px" viewBox="0 0 109 109" enable-background="new 0 0 109 109" xml:space="preserve">
<g>
	<path fill="#231F20" d="M27.156,68.167c0.553,0,1-0.447,1-1V35.833h54v31.334c0,0.553,0.447,1,1,1c0.553,0,1-0.447,1-1V34.833
		c0-0.553-0.447-1-1-1h-56c-0.553,0-1,0.447-1,1v32.334C26.156,67.72,26.603,68.167,27.156,68.167z"/>
	<path fill="#231F20" d="M92.405,70.256c-0.189-0.221-0.467-0.348-0.758-0.348H18.522c-0.291,0-0.568,0.127-0.758,0.348
		c-0.19,0.221-0.274,0.514-0.231,0.802l0.851,5.625c0.073,0.489,0.494,0.851,0.988,0.851h71.424c0.494,0,0.915-0.361,0.988-0.851
		l0.851-5.625C92.68,70.769,92.596,70.477,92.405,70.256z M89.936,75.533H20.233l-0.549-3.625h70.801L89.936,75.533z"/>
</g>
</svg>
