<?xml version="1.0" encoding="utf-8"?>
<!-- Generator: Adobe Illustrator 19.2.1, SVG Export Plug-In . SVG Version: 6.00 Build 0)  -->
<svg version="1.1" id="Layer_1" xmlns="http://www.w3.org/2000/svg" xmlns:xlink="http://www.w3.org/1999/xlink" x="0px" y="0px"
	 width="109px" height="109px" viewBox="0 0 109 109" enable-background="new 0 0 109 109" xml:space="preserve">
<g>
	<path fill="#231F20" d="M76.471,24h-45.75c-2.597,0-4.709,2.112-4.709,4.708v39.725c0,7.514,16.489,21.817,27.584,21.817
		c11.095,0,27.583-14.304,27.583-21.817V28.708C81.179,26.112,79.067,24,76.471,24z M54.596,88.209V83.25h-2v4.959
		c-10.384-0.828-24.584-14.061-24.584-19.776v-14.35h5v-2h-5V28.708c0-1.493,1.215-2.708,2.709-2.708h21.875v5h2v-5h21.875
		c1.493,0,2.708,1.215,2.708,2.708v23.375h-5v2h5v14.35C79.179,74.148,64.98,87.381,54.596,88.209z"/>
	<path fill="#231F20" d="M65.937,45.182l-10.316,7.252c-0.49-0.349-1.086-0.559-1.733-0.559c-0.291,0-0.567,0.055-0.833,0.132
		l-9.064-12.591c-0.322-0.448-0.947-0.548-1.396-0.227c-0.448,0.322-0.55,0.947-0.227,1.396l9.058,12.583
		c-0.337,0.485-0.538,1.073-0.538,1.708c0,1.657,1.343,3,3,3c1.657,0,3-1.343,3-3c0-0.279-0.05-0.544-0.122-0.801l10.322-7.256
		c0.452-0.318,0.561-0.941,0.243-1.394C67.011,44.974,66.389,44.863,65.937,45.182z"/>
</g>
</svg>
