<?xml version="1.0" encoding="utf-8"?>
<!-- Generator: Adobe Illustrator 19.2.1, SVG Export Plug-In . SVG Version: 6.00 Build 0)  -->
<svg version="1.1" id="Layer_1" xmlns="http://www.w3.org/2000/svg" xmlns:xlink="http://www.w3.org/1999/xlink" x="0px" y="0px"
	 width="109px" height="109px" viewBox="0 0 109 109" enable-background="new 0 0 109 109" xml:space="preserve">
<g>
	<path fill="#231F20" d="M77.715,24h-45.75c-2.597,0-4.709,2.112-4.709,4.708v39.725c0,7.514,16.489,21.817,27.584,21.817
		c11.095,0,27.583-14.304,27.583-21.817V28.708C82.423,26.112,80.31,24,77.715,24z M80.423,68.433
		c0,5.901-15.138,19.817-25.583,19.817c-10.445,0-25.584-13.916-25.584-19.817V28.708c0-1.493,1.215-2.708,2.709-2.708h45.75
		c1.493,0,2.708,1.215,2.708,2.708V68.433z"/>
	<path fill="#231F20" d="M44.182,32.567c-3.309,0-6,2.691-6,6s2.691,6,6,6s6-2.691,6-6S47.49,32.567,44.182,32.567z M44.182,42.567
		c-2.206,0-4-1.794-4-4c0-2.206,1.794-4,4-4c2.206,0,4,1.794,4,4C48.182,40.773,46.388,42.567,44.182,42.567z"/>
	<path fill="#231F20" d="M52.222,45.143c-0.485-0.267-1.093-0.088-1.357,0.396c-0.266,0.484-0.088,1.093,0.396,1.357
		c6.645,3.637,11.242,10.267,12.299,17.735c0.07,0.5,0.499,0.86,0.989,0.86c0.046,0,0.094-0.003,0.141-0.01
		c0.547-0.077,0.928-0.583,0.851-1.13C64.396,56.262,59.418,49.08,52.222,45.143z"/>
	<path fill="#231F20" d="M54.205,41.553c-0.535-0.14-1.08,0.187-1.216,0.722c-0.137,0.535,0.187,1.08,0.722,1.216
		c7.265,1.853,13.337,7.096,16.245,14.024c0.16,0.383,0.531,0.613,0.922,0.613c0.13,0,0.261-0.024,0.387-0.078
		c0.51-0.214,0.749-0.8,0.535-1.309C68.651,49.237,62.073,43.559,54.205,41.553z"/>
	<path fill="#231F20" d="M55.56,37.919c-0.536-0.018-1.025,0.387-1.059,0.938c-0.033,0.551,0.386,1.025,0.938,1.059
		c7.273,0.441,13.881,4.108,18.131,10.06c0.194,0.273,0.502,0.419,0.814,0.419c0.201,0,0.404-0.061,0.58-0.187
		c0.449-0.32,0.554-0.945,0.232-1.394C70.596,42.367,63.438,38.397,55.56,37.919z"/>
</g>
</svg>
