<?xml version="1.0" encoding="utf-8"?>
<!-- Generator: Adobe Illustrator 19.2.1, SVG Export Plug-In . SVG Version: 6.00 Build 0)  -->
<svg version="1.1" id="Layer_1" xmlns="http://www.w3.org/2000/svg" xmlns:xlink="http://www.w3.org/1999/xlink" x="0px" y="0px"
	 width="109px" height="109px" viewBox="0 0 109 109" enable-background="new 0 0 109 109" xml:space="preserve">
<g>
	<path fill="#231F20" d="M78.794,69.141c-8.613,0-20.61-8.028-23.651-12.414c-3.04,4.386-15.037,12.414-23.65,12.414
		c-9.925,0-18-6.28-18-14c0-7.72,8.075-14,18-14c8.281,0,20.491,7.572,23.651,12.318c3.159-4.746,15.369-12.318,23.65-12.318
		c9.925,0,18,6.28,18,14C96.794,62.86,88.719,69.141,78.794,69.141z M56.495,55.107l0.024,0.048
		c1.969,3.744,14.023,11.985,22.274,11.985c8.822,0,16-5.383,16-12s-7.178-12-16-12c-8.416,0-20.399,8.183-22.266,11.9
		L56.495,55.107z M31.492,43.141c-8.822,0-16,5.383-16,12s7.178,12,16,12c8.251,0,20.306-8.241,22.274-11.985l0.024-0.048
		l-0.033-0.066C51.892,51.323,39.908,43.141,31.492,43.141z"/>
</g>
</svg>
