<svg xmlns="http://www.w3.org/2000/svg" width="34" height="34" viewBox="0 0 34 34">
    <g fill="none" fill-rule="evenodd">
        <path d="M-3-3h40v40H-3z"/>
        <path fill="#007AFF" fill-rule="nonzero" d="M13.667 12C12.75 12 12 12.75 12 13.667c0 .916.75 1.666 1.667 1.666.916 0 1.666-.75 1.666-1.666 0-.917-.75-1.667-1.666-1.667zm0 6.667c-.917 0-1.667.75-1.667 1.666 0 .917.75 1.667 1.667 1.667.916 0 1.666-.75 1.666-1.667 0-.916-.75-1.666-1.666-1.666zm-5-5.834a.825.825 0 0 0-.834.834c0 .466.367.833.834.833a.825.825 0 0 0 .833-.833.825.825 0 0 0-.833-.834zm5 11.667a.825.825 0 0 0-.834.833c0 .467.367.834.834.834a.825.825 0 0 0 .833-.834.825.825 0 0 0-.833-.833zm-5-5a.825.825 0 0 0-.834.833c0 .467.367.834.834.834a.825.825 0 0 0 .833-.834.825.825 0 0 0-.833-.833zm5-10a.825.825 0 0 0 .833-.833.825.825 0 0 0-.833-.834.825.825 0 0 0-.834.834c0 .466.367.833.834.833zm6.666 2.5c-.916 0-1.666.75-1.666 1.667 0 .916.75 1.666 1.666 1.666.917 0 1.667-.75 1.667-1.666C22 12.75 21.25 12 20.333 12zm0-2.5a.825.825 0 0 0 .834-.833.825.825 0 0 0-.834-.834.825.825 0 0 0-.833.834c0 .466.367.833.833.833zm5 10a.825.825 0 0 0-.833.833c0 .467.367.834.833.834a.825.825 0 0 0 .834-.834.825.825 0 0 0-.834-.833zm0-6.667a.825.825 0 0 0-.833.834c0 .466.367.833.833.833a.825.825 0 0 0 .834-.833.825.825 0 0 0-.834-.834zM17 .333C7.8.333.333 7.8.333 17 .333 26.2 7.8 33.667 17 33.667c9.2 0 16.667-7.467 16.667-16.667C33.667 7.8 26.2.333 17 .333zm0 30C9.633 30.333 3.667 24.367 3.667 17S9.633 3.667 17 3.667 30.333 9.633 30.333 17 24.367 30.333 17 30.333zm3.333-5.833a.825.825 0 0 0-.833.833c0 .467.367.834.833.834a.825.825 0 0 0 .834-.834.825.825 0 0 0-.834-.833zm0-5.833c-.916 0-1.666.75-1.666 1.666 0 .917.75 1.667 1.666 1.667.917 0 1.667-.75 1.667-1.667 0-.916-.75-1.666-1.667-1.666z"/>
    </g>
</svg>
