<svg xmlns="http://www.w3.org/2000/svg" width="38" height="38" viewBox="0 0 38 38">
    <g fill="none" fill-rule="evenodd">
        <path d="M-1-1h40v40H-1z"/>
        <path fill="#4CD964" fill-rule="nonzero" d="M7.333 2.333c0-.916-.75-1.666-1.666-1.666C4.75.667 4 1.417 4 2.333V9H.667v10h10V9H7.333V2.333zM14 25.667c0 2.166 1.4 4 3.333 4.7v6.966h3.334v-6.966a4.985 4.985 0 0 0 3.333-4.7v-3.334H14v3.334zm-13.333 0c0 2.166 1.4 4 3.333 4.7v6.966h3.333v-6.966c1.934-.7 3.334-2.534 3.334-4.7v-3.334h-10v3.334zM34 9V2.333c0-.916-.75-1.666-1.667-1.666-.916 0-1.666.75-1.666 1.666V9h-3.334v10h10V9H34zM20.667 2.333c0-.916-.75-1.666-1.667-1.666s-1.667.75-1.667 1.666V9H14v10h10V9h-3.333V2.333zm6.666 23.334c0 2.166 1.4 4 3.334 4.7v6.966H34v-6.966a4.985 4.985 0 0 0 3.333-4.7v-3.334h-10v3.334z"/>
    </g>
</svg>
