<svg width="56" height="56" viewBox="0 0 56 56" fill="none" xmlns="http://www.w3.org/2000/svg">
<circle opacity="0.6" cx="28" cy="28" r="28" fill="#3B3D46"/>
<path d="M23.0045 20.9327C22.4224 20.3432 21.4786 20.3432 20.8965 20.9327C20.3144 21.5221 20.3144 22.4778 20.8965 23.0673L25.8926 28.1266L20.8965 33.1859C20.3144 33.7753 20.3144 34.731 20.8965 35.3205C21.4786 35.9099 22.4224 35.9099 23.0045 35.3205L28.0006 30.2612L32.9965 35.3203C33.5786 35.9098 34.5224 35.9098 35.1045 35.3203C35.6866 34.7309 35.6866 33.7752 35.1045 33.1857L30.1085 28.1266L35.1045 23.0674C35.6866 22.478 35.6866 21.5223 35.1045 20.9328C34.5224 20.3434 33.5786 20.3434 32.9965 20.9328L28.0006 25.992L23.0045 20.9327Z" fill="#FFD158"/>
</svg>
