<svg width="29" height="32" viewBox="0 0 29 32" fill="none" xmlns="http://www.w3.org/2000/svg">
<path d="M9.59356 13.4491C9.25332 13.7893 9.25332 14.335 9.59356 14.6752L14.1899 19.2716C14.3569 19.4385 14.5815 19.5284 14.7998 19.5284C15.0181 19.5284 15.2427 19.4449 15.4097 19.2716L20.006 14.6752C20.3463 14.335 20.3463 13.7893 20.006 13.4491C19.6658 13.1088 19.1201 13.1088 18.7799 13.4491L15.6664 16.5625V1.68207C15.6664 1.2006 15.2813 0.81543 14.7998 0.81543C14.3183 0.81543 13.9332 1.2006 13.9332 1.68207V16.5625L10.8197 13.4491C10.4795 13.1088 9.92737 13.1088 9.59356 13.4491Z" fill="#7E7CE0"/>

<path d="M28.968 20.5489L25.9508 9.63569C25.8802 9.38533 25.7069 9.18633 25.4758 9.07719L25.3923 9.03868C25.2768 8.98732 25.1548 8.96164 25.0328 8.96164H19.5955C19.114 8.96164 18.7289 9.34681 18.7289 9.82828C18.7289 10.3097 19.114 10.6949 19.5955 10.6949H24.4487L26.9972 19.9262H20.2567C19.7752 19.9262 19.3901 20.3114 19.3901 20.7928V21.576C19.3901 22.7251 18.4592 23.656 17.3101 23.656H12.0204C10.8714 23.656 9.94052 22.7251 9.94052 21.576V20.7928C9.94052 20.3114 9.55535 19.9262 9.07388 19.9262H2.59657L5.15797 10.6757H10.0111C10.4926 10.6757 10.8778 10.2905 10.8778 9.80902C10.8778 9.32756 10.4926 8.94238 10.0111 8.94238H4.56737C4.4454 8.94238 4.32343 8.96806 4.20788 9.01942L4.12442 9.05793C3.89332 9.16707 3.71357 9.36607 3.64938 9.61643L0.632195 20.5296C0.612937 20.6067 0.600098 20.6837 0.600098 20.7607V25.3122C0.600098 28.7595 3.40543 31.5648 6.85272 31.5648H22.7475C26.1948 31.5648 29.0001 28.7595 29.0001 25.3122V20.78C29.0001 20.6966 28.9937 20.6195 28.968 20.5489ZM27.2668 25.3122C27.2668 27.803 25.2383 29.8315 22.7475 29.8315H6.85272C4.36194 29.8315 2.33337 27.803 2.33337 25.3122V21.6595H8.22009C8.26502 23.7202 9.95978 25.3828 12.0333 25.3828H17.323C19.3965 25.3828 21.0913 23.7202 21.1362 21.6595H27.2797V25.3122H27.2668Z" fill="#3B3D46"/>
</svg>
