<svg width="19" height="20" viewBox="0 0 19 20" fill="none" xmlns="http://www.w3.org/2000/svg">
<path d="M5.82695 8.18518C5.60651 8.40562 5.60651 8.75914 5.82695 8.97958L8.80489 11.9575C8.91303 12.0657 9.0586 12.1239 9.20001 12.1239C9.34142 12.1239 9.48699 12.0698 9.59513 11.9575L12.5731 8.97958C12.7935 8.75914 12.7935 8.40562 12.5731 8.18518C12.3526 7.96475 11.9991 7.96475 11.7787 8.18518L9.76149 10.2024V0.561484C9.76149 0.249548 9.51194 0 9.20001 0C8.88807 0 8.63852 0.249548 8.63852 0.561484V10.2024L6.62134 8.18518C6.40091 7.96475 6.04322 7.96475 5.82695 8.18518Z" fill="#7E7CE0"/>
<path d="M18.3792 12.7852L16.4244 5.71469C16.3787 5.55248 16.2664 5.42355 16.1167 5.35284L16.0626 5.32789C15.9877 5.29462 15.9087 5.27798 15.8297 5.27798H12.3069C11.995 5.27798 11.7454 5.52753 11.7454 5.83946C11.7454 6.1514 11.995 6.40095 12.3069 6.40095H15.4512L17.1024 12.3818H12.7353C12.4233 12.3818 12.1738 12.6313 12.1738 12.9433V13.4507C12.1738 14.1952 11.5707 14.7982 10.8262 14.7982H7.39911C6.65462 14.7982 6.05154 14.1952 6.05154 13.4507V12.9433C6.05154 12.6313 5.802 12.3818 5.49006 12.3818H1.29349L2.95299 6.38847H6.09729C6.40923 6.38847 6.65878 6.13892 6.65878 5.82699C6.65878 5.51505 6.40923 5.2655 6.09729 5.2655H2.57035C2.49132 5.2655 2.4123 5.28214 2.33744 5.31541L2.28337 5.34037C2.13364 5.41107 2.01718 5.54001 1.97559 5.70221L0.0207957 12.7727C0.00831827 12.8227 0 12.8726 0 12.9225V15.8713C0 18.1048 1.81754 19.9223 4.051 19.9223H14.349C16.5825 19.9223 18.4 18.1048 18.4 15.8713V12.935C18.4 12.8809 18.3959 12.831 18.3792 12.7852ZM17.2771 15.8713C17.2771 17.485 15.9628 18.7993 14.349 18.7993H4.051C2.43725 18.7993 1.12297 17.485 1.12297 15.8713V13.5048H4.9369C4.96601 14.8398 6.06402 15.9171 7.40742 15.9171H10.8346C12.178 15.9171 13.276 14.8398 13.3051 13.5048H17.2854V15.8713H17.2771Z" fill="#3B3D46"/>
</svg>
