<svg width="13" height="13" viewBox="0 0 13 13" fill="none" xmlns="http://www.w3.org/2000/svg">
<circle cx="6.5" cy="6.5" r="5" stroke="#3B3D46" stroke-width="3"/>
<mask id="path-2-inside-1" fill="white">
<path d="M7.08048 4.06833C6.64442 3.96423 6.18839 3.97931 5.76016 4.11198C5.33192 4.24466 4.94724 4.49004 4.64641 4.82244C4.34558 5.15483 4.13967 5.56201 4.05024 6.00131C3.96082 6.44061 3.99116 6.89588 4.13811 7.31943L5.15665 6.96606C5.07307 6.72516 5.05581 6.46622 5.10667 6.21636C5.15753 5.9665 5.27465 5.73492 5.44575 5.54587C5.61685 5.35681 5.83564 5.21725 6.0792 5.14179C6.32277 5.06633 6.58214 5.05775 6.83016 5.11696L7.08048 4.06833Z"/>
</mask>
<path d="M7.08048 4.06833C6.64442 3.96423 6.18839 3.97931 5.76016 4.11198C5.33192 4.24466 4.94724 4.49004 4.64641 4.82244C4.34558 5.15483 4.13967 5.56201 4.05024 6.00131C3.96082 6.44061 3.99116 6.89588 4.13811 7.31943L5.15665 6.96606C5.07307 6.72516 5.05581 6.46622 5.10667 6.21636C5.15753 5.9665 5.27465 5.73492 5.44575 5.54587C5.61685 5.35681 5.83564 5.21725 6.0792 5.14179C6.32277 5.06633 6.58214 5.05775 6.83016 5.11696L7.08048 4.06833Z" stroke="#3B3D46" stroke-width="6" mask="url(#path-2-inside-1)"/>
</svg>
