<svg width="44" height="43" viewBox="0 0 44 43" fill="none" xmlns="http://www.w3.org/2000/svg">
<path fill-rule="evenodd" clip-rule="evenodd" d="M31.704 9.5415C31.704 10.0482 31.6305 10.5377 31.4935 11H38.9999C40.6568 11 41.9999 12.3431 41.9999 14V37C41.9999 38.6569 40.6568 40 38.9999 40H11.1972C11.7077 39.1175 11.9999 38.0929 11.9999 37V11H21.6645C21.5275 10.5377 21.454 10.0482 21.454 9.5415C21.454 9.35861 21.4636 9.17795 21.4823 9H11.6585C10.8348 6.66962 8.61235 5 5.99991 5C2.6862 5 -9.15527e-05 7.68629 -9.15527e-05 11V37C-9.15527e-05 40.3137 2.6862 43 5.99991 43C7.22665 43 8.3674 42.6318 9.3177 42H38.9999C41.7614 42 43.9999 39.7614 43.9999 37V14C43.9999 11.2386 41.7614 9 38.9999 9H31.6757C31.6944 9.17795 31.704 9.35861 31.704 9.5415ZM9.99991 11V32.5278C8.9384 31.5777 7.53662 31 5.99991 31C4.4632 31 3.06142 31.5777 1.99991 32.5278V11C1.99991 8.79086 3.79077 7 5.99991 7C8.20905 7 9.99991 8.79086 9.99991 11ZM5.99991 41C3.79077 41 1.99991 39.2091 1.99991 37C1.99991 34.7909 3.79077 33 5.99991 33C8.20905 33 9.99991 34.7909 9.99991 37C9.99991 39.2091 8.20905 41 5.99991 41Z" fill="#1F2023"/>
<path d="M37.9999 11.8335C37.7238 11.8335 37.4999 12.0574 37.4999 12.3335C37.4999 12.6096 37.7238 12.8335 37.9999 12.8335H39.4166C39.6927 12.8335 39.9166 13.0574 39.9166 13.3335V14.7502C39.9166 15.0263 40.1404 15.2502 40.4166 15.2502C40.6927 15.2502 40.9166 15.0263 40.9166 14.7502V13.3335C40.9166 12.5051 40.245 11.8335 39.4166 11.8335H37.9999Z" fill="#1F2023"/>
<path d="M18.9999 35.5C18.9999 35.2239 19.2238 35 19.4999 35H27.4999C27.7761 35 27.9999 35.2239 27.9999 35.5C27.9999 35.7761 27.7761 36 27.4999 36H19.4999C19.2238 36 18.9999 35.7761 18.9999 35.5Z" fill="#1F2023"/>
<path d="M19.4999 38C19.2238 38 18.9999 38.2239 18.9999 38.5C18.9999 38.7761 19.2238 39 19.4999 39H32.4999C32.7761 39 32.9999 38.7761 32.9999 38.5C32.9999 38.2239 32.7761 38 32.4999 38H19.4999Z" fill="#1F2023"/>
<path d="M40.4169 35.3335C40.693 35.3335 40.9169 35.5574 40.9169 35.8335V37.2502C40.9169 38.0786 40.2453 38.7502 39.4169 38.7502H38.0002C37.7241 38.7502 37.5002 38.5263 37.5002 38.2502C37.5002 37.974 37.7241 37.7502 38.0002 37.7502H39.4169C39.693 37.7502 39.9169 37.5263 39.9169 37.2502V35.8335C39.9169 35.5574 40.1408 35.3335 40.4169 35.3335Z" fill="#1F2023"/>
<path d="M26.5788 11.2502C27.5223 11.2502 28.2872 10.4853 28.2872 9.54183C28.2872 8.59834 27.5223 7.8335 26.5788 7.8335C25.6354 7.8335 24.8705 8.59834 24.8705 9.54183C24.8705 10.4853 25.6354 11.2502 26.5788 11.2502Z" fill="#1F2023"/>
<path fill-rule="evenodd" clip-rule="evenodd" d="M26.5787 0C28.0745 0 29.287 1.21256 29.287 2.70833V5.18956C30.7383 6.09453 31.704 7.70524 31.704 9.5415C31.704 12.372 29.4095 14.6665 26.579 14.6665C23.7486 14.6665 21.454 12.372 21.454 9.5415C21.454 7.70551 22.4194 6.09501 23.8704 5.18997V2.70833C23.8704 1.21256 25.0829 0 26.5787 0ZM25.8704 4.4651C26.102 4.43306 26.3386 4.4165 26.579 4.4165C26.8192 4.4165 27.0556 4.43303 27.287 4.46501V2.70833C27.287 2.31713 26.9699 2 26.5787 2C26.1875 2 25.8704 2.31713 25.8704 2.70833V4.4651ZM30.704 9.5415C30.704 11.8197 28.8572 13.6665 26.579 13.6665C24.3008 13.6665 22.454 11.8197 22.454 9.5415C22.454 7.26333 24.3008 5.4165 26.579 5.4165C28.8572 5.4165 30.704 7.26333 30.704 9.5415Z" fill="#1F2023"/>
<path d="M25.7075 14.5927C25.0308 14.4768 24.3993 14.2282 23.8409 13.8746L19.2647 25.7727C18.4855 25.1286 18.1768 24.0277 18.584 23.0403L22.7474 12.9452C22.4848 12.6497 22.2558 12.3238 22.0665 11.9732L17.6595 22.6591C17.0365 24.1698 17.5923 25.8675 18.8921 26.7413L17.1039 31.3907C16.9057 31.9061 17.1628 32.4847 17.6783 32.683C18.1938 32.8812 18.7724 32.6241 18.9706 32.1086L22.8367 22.0568C23.7392 23.0694 24.991 23.708 26.396 23.708C27.9359 23.708 29.2917 22.9409 30.2054 21.7552L34.1874 32.1086C34.3857 32.6241 34.9643 32.8812 35.4798 32.683C35.9952 32.4847 36.2524 31.9061 36.0541 31.3907L34.2659 26.7413C35.5658 25.8675 36.1216 24.1698 35.4985 22.6591L31.0915 11.9731C30.9023 12.3237 30.6733 12.6497 30.4107 12.9451L34.5741 23.0403C34.9813 24.0277 34.6726 25.1286 33.8934 25.7727L29.3172 13.8745C28.7588 14.2281 28.1273 14.4768 27.4506 14.5927L29.7671 20.6157C29.0377 21.8928 27.7833 22.708 26.396 22.708C25.1439 22.708 23.9999 22.0439 23.2526 20.9754L25.7075 14.5927Z" fill="#1F2023"/>
</svg>
