<svg width="34" height="35" viewBox="0 0 34 35" fill="none" xmlns="http://www.w3.org/2000/svg">
<g opacity="0.2">
<path d="M20.6899 29.5944L19.3331 29.7677C18.2938 29.8831 17.5143 30.8647 17.6586 31.904L17.7741 32.9433C17.8896 33.9826 18.8711 34.7621 19.9104 34.6177L21.2673 34.4445C22.3066 34.329 23.0861 33.3475 22.9417 32.3082L22.8263 31.2689C22.7108 30.2007 21.7581 29.4501 20.6899 29.5944Z" fill="#525357"/>
<path d="M5.41685 21.3088L4.69511 19.4035C4.37755 18.5951 3.45373 18.1621 2.61651 18.4796L1.02869 19.0859C0.220347 19.4035 -0.212694 20.3273 0.104871 21.1645L0.826607 23.0699C1.14417 23.8782 2.06799 24.3113 2.90521 23.9937L4.49303 23.3874C5.30137 23.041 5.73441 22.1172 5.41685 21.3088Z" fill="#525357"/>
<path d="M3.56971 6.55665L2.84798 7.50934C2.18398 8.4043 2.35719 9.67455 3.25215 10.3386L3.94501 10.8582C4.83997 11.5222 6.11022 11.349 6.77422 10.454L7.49596 9.50134C8.15996 8.60638 7.98674 7.33613 7.09179 6.67213L6.39892 6.15248C5.50396 5.48848 4.23371 5.6617 3.56971 6.55665Z" fill="#717275"/>
<path d="M19.3045 0.00323767L17.3414 0.0609768C16.4465 0.0898463 15.7247 0.840452 15.7536 1.76427L15.8113 3.40983C15.8402 4.30479 16.5908 5.02652 17.5146 4.99765L19.4777 4.93992C20.3727 4.91105 21.0944 4.16044 21.0656 3.23662L21.0078 1.59106C20.9501 0.667235 20.1995 -0.0545013 19.3045 0.00323767Z" fill="#717275"/>
<path d="M27.2985 9.6747L28.0202 10.5985C28.8575 11.6667 30.4164 11.8399 31.4557 11.0027C32.5239 10.1655 32.6971 8.60653 31.8599 7.56723L31.1381 6.64341C30.3009 5.57524 28.742 5.40202 27.7027 6.23924C26.6634 7.07645 26.4613 8.60653 27.2985 9.6747Z" fill="#717275"/>
<path d="M0.740421 17.5561C0.740421 26.7365 8.18874 34.1849 17.3692 34.1849C26.5497 34.1849 33.998 26.7365 33.998 17.5561C33.998 8.37557 26.5497 0.927246 17.3692 0.927246C8.18874 0.927246 0.740421 8.37557 0.740421 17.5561Z" fill="#626367"/>
<path d="M17.3692 27.2847C25.3661 27.2847 32.0638 21.6262 33.6516 14.0913C33.8826 15.2172 33.998 16.372 33.998 17.5556C33.998 26.7361 26.5497 34.1845 17.3692 34.1845C8.18874 34.1845 0.740421 26.7361 0.740421 17.5556C0.740421 16.372 0.8559 15.2172 1.08686 14.0913C2.67468 21.6551 9.37239 27.2847 17.3692 27.2847Z" fill="#4A4B4F"/>
<path d="M21.3795 7.97108C21.0908 8.63508 21.6682 9.53003 22.6786 9.96307C23.6891 10.3672 24.7284 10.1652 24.9882 9.50116C25.2769 8.83716 24.6995 7.94221 23.6891 7.50917C22.7075 7.07612 21.6682 7.30708 21.3795 7.97108Z" fill="#525357"/>
<path d="M25.6841 10.0788C26.1171 9.0684 25.2222 7.71154 23.721 7.10528C22.5951 6.64337 21.4403 6.70111 20.7474 7.16302C21.3826 6.49902 22.6817 6.35467 23.9519 6.87432C25.482 7.50945 26.3481 8.83745 25.9439 9.87675C25.8284 10.1366 25.6552 10.3675 25.3954 10.5119C25.5109 10.3964 25.5975 10.2521 25.6841 10.0788Z" fill="#525357"/>
<path d="M21.38 7.97107C21.4378 7.79785 21.5532 7.68237 21.6976 7.56689C21.4955 8.23089 22.0729 9.03924 23.0256 9.44341C23.7762 9.76097 24.5557 9.70324 25.0176 9.38567C25.0176 9.41454 24.9887 9.44341 24.9887 9.47228C24.7 10.1363 23.6607 10.3672 22.6792 9.93419C21.6976 9.53002 21.0913 8.66393 21.38 7.97107Z" fill="#2C2D32"/>
<path d="M15.6652 4.13164C15.6074 4.53582 16.1559 4.93999 16.8777 4.99773C17.5994 5.08434 18.2345 4.82451 18.2634 4.42034C18.3211 4.01617 17.7726 3.61199 17.0509 3.55425C16.3292 3.46765 15.694 3.72747 15.6652 4.13164Z" fill="#525357"/>
<path d="M12.2308 10.1074C12.5484 9.9342 12.6061 9.41455 12.4041 8.95264C12.4329 8.98151 12.4618 9.03925 12.4907 9.09698C12.7794 9.61663 12.7505 10.194 12.4041 10.3961C12.0576 10.5982 11.538 10.3384 11.2204 9.81872C11.1915 9.76098 11.1627 9.73211 11.1627 9.67437C11.4225 10.1074 11.8844 10.3095 12.2308 10.1074Z" fill="#525357"/>
<path d="M18.7555 4.62235C18.8132 3.98722 17.9471 3.35209 16.7923 3.20774C16.3016 3.15001 15.8396 3.20774 15.4643 3.32322C15.8685 3.12114 16.4459 3.03453 17.081 3.09227C18.2358 3.20774 19.1019 3.84287 19.0441 4.50687C19.0153 4.88217 18.64 5.17087 18.1492 5.34409C18.4956 5.17087 18.7266 4.93991 18.7555 4.62235Z" fill="#525357"/>
<path d="M15.6666 4.13165C15.6955 3.78522 16.1863 3.52539 16.7637 3.52539C16.4461 3.612 16.2152 3.81409 16.1863 4.04504C16.1285 4.44921 16.6771 4.85339 17.3988 4.91112C17.4854 4.91112 17.6009 4.93999 17.6875 4.91112C17.4565 4.96886 17.1678 4.99773 16.8792 4.96886C16.1574 4.93999 15.6089 4.53582 15.6666 4.13165Z" fill="#2C2D32"/>
<path d="M29.4661 14.0051C28.831 14.3804 28.8021 15.4486 29.3506 16.3436C29.928 17.2385 30.8807 17.6715 31.487 17.2674C32.1221 16.8921 32.151 15.8239 31.6025 14.9289C31.0539 14.034 30.1012 13.601 29.4661 14.0051Z" fill="#525357"/>
<path d="M29.1185 13.5432C28.4545 13.9474 28.3101 14.9578 28.7143 15.9682C28.1369 14.9867 28.2235 13.8608 28.8875 13.4277C29.234 13.1968 29.6959 13.2256 30.1289 13.3988C29.7536 13.3122 29.4072 13.3411 29.1185 13.5432Z" fill="#23242A"/>
<path d="M31.9193 17.6136C32.7853 17.0939 32.9008 15.7082 32.2368 14.4668C32.2946 14.5534 32.3812 14.6689 32.4389 14.7555C33.2761 16.0835 33.2184 17.6424 32.2946 18.2198C31.3707 18.7972 29.9561 18.191 29.1189 16.8341C29.0612 16.7475 29.0034 16.632 28.9457 16.5165C29.8118 17.6424 31.082 18.1332 31.9193 17.6136Z" fill="#525357"/>
<path d="M29.4628 14.0051C30.0979 13.6298 31.0506 14.034 31.5991 14.9289C31.6857 15.0733 31.7723 15.2176 31.8301 15.3619C31.2527 14.7268 30.5021 14.4959 29.9824 14.8134C29.4628 15.131 29.3473 15.9393 29.6649 16.7188C29.5494 16.6033 29.4628 16.4879 29.3762 16.3435C28.7988 15.4197 28.8565 14.3804 29.4628 14.0051Z" fill="#2C2D32"/>
<path d="M24.6136 20.6163C23.2567 21.4535 22.7371 23.0413 23.43 24.1383C24.1228 25.2354 25.7684 25.4375 27.1253 24.6002C28.4821 23.763 29.0018 22.1752 28.3089 21.0782C27.616 19.9811 25.9416 19.779 24.6136 20.6163Z" fill="#525357"/>
<path d="M28.2827 22.6371C27.5898 21.54 25.9443 21.3379 24.5874 22.1751C23.9234 22.5793 23.4615 23.1856 23.2305 23.8207C22.8263 22.7525 23.3749 21.3957 24.5874 20.6451C25.9443 19.8078 27.5898 20.0099 28.2827 21.107C28.6291 21.6555 28.658 22.3484 28.4559 22.9835C28.3982 22.8391 28.3693 22.7237 28.2827 22.6371Z" fill="#2C2D32"/>
<path d="M21.8133 22.9255C21.7845 23.4741 21.8999 24.0226 22.1886 24.5134C23.1125 26.13 25.4509 26.5053 27.414 25.3794C28.4822 24.7443 29.2328 23.8205 29.5215 22.8101C29.4637 24.0803 28.6554 25.4083 27.2697 26.1878C25.3065 27.3137 22.9681 26.9384 22.0443 25.3217C21.6401 24.6 21.5824 23.7339 21.8133 22.9255Z" fill="#2C2D32"/>
<path d="M23.3475 30.0851C22.8278 29.2479 21.4132 29.1612 20.2007 29.9119C19.3635 30.4315 18.8438 31.211 18.7861 31.9038C18.7284 31.1244 19.248 30.2005 20.2007 29.6232C21.4132 28.8726 22.7989 28.9592 23.3475 29.7964C23.5207 30.0562 23.5784 30.3738 23.5496 30.6913C23.5207 30.4604 23.4629 30.2583 23.3475 30.0851Z" fill="#2C2D32"/>
<path d="M19.6492 31.2687C19.6781 31.3842 19.7069 31.4997 19.7647 31.6152C20.14 32.2503 21.1793 32.2792 22.0742 31.7306C22.5073 31.4708 22.8248 31.0955 22.998 30.7202C23.1135 31.3265 22.7094 32.0482 21.9876 32.5101C21.0927 33.0586 20.0822 33.0009 19.6781 32.3946C19.476 32.0482 19.476 31.644 19.6492 31.2687Z" fill="#2C2D32"/>
<path d="M8.67795 20.8181C6.65709 22.0884 5.93535 24.5711 7.06126 26.361C8.18717 28.151 10.7277 28.6129 12.7485 27.3426C14.7694 26.0724 15.4911 23.5896 14.3652 21.7997C13.2393 20.0098 10.6988 19.5479 8.67795 20.8181Z" fill="#525357"/>
<path d="M13.2412 24.0515C12.1153 22.2616 9.57478 21.7997 7.55392 23.0699C7.17862 23.3009 6.86106 23.5607 6.60123 23.8783C6.80332 22.6946 7.52505 21.5687 8.67983 20.8181C10.7007 19.5479 13.2412 20.0098 14.3671 21.7997C15.2909 23.272 14.9734 25.2063 13.732 26.5343C13.8475 25.697 13.7031 24.8021 13.2412 24.0515Z" fill="#2C2D32"/>
<path d="M5.44525 23.3584C5.44525 24.3977 5.73395 25.4659 6.31134 26.4474C7.9569 29.0457 11.3058 29.9118 13.7885 28.3528C15.0299 27.5733 15.8094 26.3608 16.127 25.0328C16.127 26.8227 15.2609 28.526 13.673 29.5076C11.1614 31.0665 7.81255 30.2293 6.19586 27.6022C5.35864 26.2742 5.12769 24.7441 5.44525 23.3584Z" fill="#2C2D32"/>
<path d="M20.948 15.7373C21.0634 16.0837 21.5542 16.1992 22.045 16.026C22.5358 15.8528 22.8245 15.4486 22.709 15.1022C22.5935 14.7557 22.1027 14.6403 21.612 14.8135C21.1212 14.9867 20.8036 15.3909 20.948 15.7373Z" fill="#525357"/>
<path d="M20.7191 15.1885C20.6325 15.3617 20.6037 15.5638 20.6614 15.7659C20.8057 16.2278 21.4697 16.401 22.1337 16.17C22.4513 16.0546 22.6823 15.8813 22.8555 15.6793C22.7111 15.968 22.3936 16.2278 22.0183 16.3433C21.3543 16.5742 20.6903 16.401 20.5459 15.9391C20.4304 15.6793 20.517 15.4194 20.7191 15.1885Z" fill="#2C2D32"/>
<path d="M22.4782 15.3619C22.3628 15.0154 21.872 14.9 21.3812 15.0732C21.2369 15.1309 21.1214 15.1887 21.0348 15.2464C21.1502 15.0732 21.3523 14.9 21.6122 14.8134C22.1029 14.6401 22.5937 14.7845 22.7092 15.1021C22.7958 15.333 22.6515 15.6217 22.3916 15.8238C22.4782 15.6794 22.536 15.5062 22.4782 15.3619Z" fill="#2C2D32"/>
<path d="M13.5308 14.5534C13.8773 14.4379 14.2237 14.5245 14.4258 14.7555C14.2814 14.7266 14.1082 14.7555 13.9639 14.7843C13.5308 14.9287 13.271 15.3617 13.4153 15.7081C13.4442 15.7659 13.4731 15.8525 13.5308 15.9102C13.271 15.8525 13.0689 15.7081 12.9823 15.4772C12.8668 15.1308 13.0978 14.6977 13.5308 14.5534Z" fill="#23242A"/>
<path d="M13.7898 16.17C14.6848 15.9391 15.2333 15.1307 15.0312 14.3801C15.0023 14.2358 14.9446 14.1203 14.858 14.0337C15.0889 14.2069 15.291 14.4379 15.3488 14.7266C15.5509 15.4772 15.0023 16.2566 14.1074 16.5165C13.3857 16.7186 12.6639 16.4876 12.3175 15.9679C12.6928 16.2278 13.2413 16.3144 13.7898 16.17Z" fill="#525357"/>
<path d="M4.89997 15.8237C4.89997 15.9681 4.92884 16.0836 5.01545 16.2279C5.18866 16.4589 5.50623 16.5166 5.70831 16.3722C5.73718 16.3434 5.76605 16.3145 5.79492 16.2568C5.79492 16.3723 5.73718 16.4877 5.65057 16.5455C5.44849 16.6898 5.15979 16.6321 4.9577 16.4011C4.81336 16.2279 4.81336 15.9969 4.89997 15.8237Z" fill="#525357"/>
<path d="M12.0846 9.01064C11.8248 8.83743 11.5072 8.89517 11.3629 9.09725C11.3051 9.21273 11.2763 9.32821 11.334 9.47256C11.1896 9.29934 11.1608 9.09725 11.2763 8.92404C11.4206 8.69308 11.7382 8.66421 11.998 8.83743C12.1423 8.92404 12.2289 9.03952 12.2578 9.18386C12.2001 9.09725 12.1423 9.03951 12.0846 9.01064Z" fill="#2C2D32"/>
<path d="M5.01301 11.1467C5.09961 10.8869 5.38831 10.7714 5.70587 10.858C5.82135 10.8869 5.93683 10.9735 6.02344 11.0601C5.9657 11.0312 5.90796 11.0024 5.85022 10.9735C5.56152 10.8869 5.24396 11.0024 5.15735 11.2622C5.09961 11.4065 5.15735 11.5509 5.24396 11.6664C5.04187 11.5509 4.95527 11.3488 5.01301 11.1467Z" fill="#525357"/>
<path d="M11.5362 5.83466C11.4785 5.48822 10.9299 5.31501 10.3237 5.45935C10.1505 5.48822 10.0061 5.54596 9.89064 5.6037C10.0639 5.40162 10.3526 5.2284 10.7279 5.17066C11.3341 5.05518 11.8826 5.2284 11.9404 5.54596C11.9981 5.80579 11.7672 6.06561 11.4207 6.23883C11.5073 6.12335 11.5651 5.979 11.5362 5.83466Z" fill="#525357"/>
<path d="M31.283 24.3982C31.7449 23.4455 32.4378 22.8392 32.842 23.0413C32.9286 23.0702 32.9575 23.1568 32.9863 23.1568C32.7265 23.2434 32.1491 23.7919 31.7449 24.6291C31.3696 25.4375 31.3985 26.1881 31.4851 26.4768C31.3408 26.5345 31.2253 26.4479 31.1964 26.4479C30.7922 26.3035 30.8211 25.3508 31.283 24.3982Z" fill="#2C2D32"/>
<path d="M31.7473 24.6292C31.3143 25.553 31.1411 26.3902 31.372 26.5057C31.603 26.6212 32.1515 25.9572 32.5846 25.0333C33.0176 24.1095 33.1908 23.2723 32.9599 23.1568C32.7289 23.0702 32.2093 23.7053 31.7473 24.6292Z" fill="#525357"/>
<path d="M31.7489 24.629C31.7778 24.5424 31.8355 24.4557 31.8933 24.3691C31.5468 25.1775 31.4313 25.8704 31.6334 25.9858C31.8355 26.0724 32.2974 25.5528 32.7305 24.7733C32.7016 24.8599 32.6439 24.9465 32.615 25.0331C32.1819 25.957 31.6334 26.621 31.4025 26.5055C31.1426 26.39 31.3159 25.5528 31.7489 24.629Z" fill="#393A3F"/>
<path d="M5.27467 11.8973C5.73659 12.0416 6.1985 11.8395 6.31398 11.4642C6.37172 11.2621 6.34284 11.0312 6.1985 10.8291C6.45832 11.0312 6.5738 11.3488 6.48719 11.6374C6.37171 12.0128 5.88093 12.2148 5.44789 12.0705C5.24581 12.0128 5.10146 11.8973 4.98598 11.7241C5.07259 11.8107 5.1592 11.8684 5.27467 11.8973Z" fill="#2C2D32"/>
</g>
</svg>
