<svg width="47" height="48" viewBox="0 0 47 48" fill="none" xmlns="http://www.w3.org/2000/svg">
<g opacity="0.4">
<path d="M28.6013 40.914L26.7255 41.1535C25.2886 41.3131 24.211 42.6701 24.4106 44.1069L24.5702 45.5437C24.7299 46.9806 26.0869 48.0582 27.5237 47.8586L29.3996 47.6192C30.8364 47.4595 31.914 46.1025 31.7144 44.6657L31.5548 43.2289C31.3951 41.7521 30.0781 40.7144 28.6013 40.914Z" fill="#525357"/>
<path d="M7.48816 29.4593L6.49036 26.8252C6.05133 25.7076 4.77416 25.1089 3.61672 25.548L1.42157 26.3861C0.304042 26.8252 -0.294632 28.1023 0.144397 29.2598L1.14219 31.8939C1.58122 33.0115 2.85839 33.6102 4.01584 33.1711L6.21098 32.333C7.32851 31.854 7.92719 30.5769 7.48816 29.4593Z" fill="#525357"/>
<path d="M4.93355 9.0644L3.93576 10.3815C3.01779 11.6188 3.25726 13.3749 4.49452 14.2928L5.4524 15.0113C6.68966 15.9292 8.44578 15.6898 9.36375 14.4525L10.3615 13.1354C11.2795 11.8981 11.04 10.142 9.80278 9.22405L8.8449 8.50564C7.60763 7.58767 5.85152 7.82714 4.93355 9.0644Z" fill="#717275"/>
<path d="M26.6853 0.00447605L23.9713 0.0842998C22.7341 0.124212 21.7363 1.16192 21.7762 2.43909L21.856 4.71406C21.8959 5.95133 22.9336 6.94912 24.2108 6.90921L26.9248 6.82938C28.1621 6.78947 29.1598 5.75177 29.1199 4.47459L29.0401 2.19962C28.9603 0.922446 27.9226 -0.0753474 26.6853 0.00447605Z" fill="#717275"/>
<path d="M37.7402 13.3748L38.738 14.652C39.8955 16.1287 42.0507 16.3682 43.4875 15.2108C44.9643 14.0533 45.2037 11.8981 44.0463 10.4613L43.0485 9.18409C41.8911 7.70736 39.7358 7.46789 38.299 8.62533C36.8622 9.78277 36.5828 11.8981 37.7402 13.3748Z" fill="#717275"/>
<path d="M1.02166 24.2709C1.02166 36.9628 11.3189 47.2601 24.0108 47.2601C36.7028 47.2601 47 36.9628 47 24.2709C47 11.579 36.7028 1.28174 24.0108 1.28174C11.3189 1.28174 1.02166 11.579 1.02166 24.2709Z" fill="#626367"/>
<path d="M24.0108 37.7211C35.0664 37.7211 44.3259 29.8984 46.5211 19.4814C46.8404 21.038 47 22.6345 47 24.2709C47 36.9628 36.7028 47.26 24.0108 47.26C11.3189 47.26 1.02166 36.9628 1.02166 24.2709C1.02166 22.6345 1.18131 21.038 1.5006 19.4814C3.69575 29.9383 12.9553 37.7211 24.0108 37.7211Z" fill="#4A4B4F"/>
<path d="M29.5587 11.0202C29.1596 11.9382 29.9578 13.1755 31.3547 13.7741C32.7516 14.3329 34.1884 14.0535 34.5477 13.1355C34.9468 12.2176 34.1485 10.9803 32.7516 10.3816C31.3946 9.78295 29.9578 10.1022 29.5587 11.0202Z" fill="#525357"/>
<path d="M35.5058 13.9338C36.1045 12.5369 34.8672 10.661 32.7918 9.82285C31.2353 9.18426 29.6388 9.26409 28.6809 9.90268C29.559 8.98471 31.355 8.78515 33.1111 9.50356C35.2264 10.3816 36.4238 12.2176 35.865 13.6544C35.7054 14.0136 35.4659 14.3329 35.1067 14.5324C35.2664 14.3728 35.3861 14.1732 35.5058 13.9338Z" fill="#525357"/>
<path d="M29.559 11.0202C29.6388 10.7807 29.7985 10.6211 29.998 10.4614C29.7187 11.3794 30.5169 12.4969 31.834 13.0557C32.8717 13.4947 33.9493 13.4149 34.5879 12.9759C34.5879 13.0158 34.548 13.0557 34.548 13.0956C34.1489 14.0136 32.712 14.3329 31.355 13.7342C29.998 13.1754 29.1599 11.9781 29.559 11.0202Z" fill="#2C2D32"/>
<path d="M21.6541 5.71189C21.5743 6.27065 22.3326 6.82942 23.3304 6.90924C24.3282 7.02898 25.2063 6.66977 25.2462 6.11101C25.326 5.55224 24.5677 4.99348 23.5699 4.91365C22.5721 4.79392 21.694 5.15312 21.6541 5.71189Z" fill="#525357"/>
<path d="M16.9058 13.9737C17.3448 13.7342 17.4246 13.0158 17.1452 12.3772C17.1852 12.4171 17.2251 12.4969 17.265 12.5768C17.6641 13.2952 17.6242 14.0934 17.1452 14.3728C16.6663 14.6522 15.9479 14.293 15.5089 13.5745C15.469 13.4947 15.429 13.4548 15.429 13.375C15.7883 13.9737 16.4268 14.253 16.9058 13.9737Z" fill="#525357"/>
<path d="M25.9272 6.39033C26.007 5.51227 24.8097 4.63421 23.2132 4.43465C22.5347 4.35483 21.8961 4.43466 21.3773 4.5943C21.936 4.31492 22.7343 4.19519 23.6123 4.27501C25.2088 4.43466 26.4061 5.31271 26.3263 6.23068C26.2864 6.74954 25.7675 7.14865 25.089 7.38813C25.568 7.14865 25.8873 6.82936 25.9272 6.39033Z" fill="#525357"/>
<path d="M21.6573 5.71193C21.6973 5.23298 22.3758 4.87378 23.174 4.87378C22.735 4.99351 22.4157 5.2729 22.3758 5.59219C22.2959 6.15095 23.0543 6.70972 24.0521 6.78954C24.1718 6.78954 24.3314 6.82945 24.4512 6.78954C24.1319 6.86937 23.7328 6.90928 23.3336 6.86937C22.3358 6.82946 21.5775 6.27069 21.6573 5.71193Z" fill="#2C2D32"/>
<path d="M40.735 19.3616C39.857 19.8805 39.8171 21.3572 40.5754 22.5945C41.3736 23.8318 42.6907 24.4304 43.5289 23.8717C44.4069 23.3528 44.4468 21.8761 43.6885 20.6388C42.9302 19.4016 41.6131 18.8029 40.735 19.3616Z" fill="#525357"/>
<path d="M40.2535 18.7231C39.3355 19.2819 39.1359 20.6788 39.6947 22.0757C38.8965 20.7187 39.0162 19.1622 39.9342 18.5635C40.4131 18.2442 41.0517 18.2841 41.6504 18.5236C41.1315 18.4038 40.6526 18.4437 40.2535 18.7231Z" fill="#23242A"/>
<path d="M44.1255 24.3506C45.3229 23.6322 45.4825 21.7164 44.5646 20.0002C44.6444 20.12 44.7641 20.2796 44.8439 20.3994C46.0014 22.2353 45.9216 24.3905 44.6444 25.1888C43.3672 25.987 41.4115 25.1489 40.2541 23.273C40.1743 23.1533 40.0945 22.9936 40.0146 22.834C41.212 24.3905 42.9681 25.069 44.1255 24.3506Z" fill="#525357"/>
<path d="M40.7331 19.3618C41.6112 18.8429 42.9282 19.4017 43.6866 20.639C43.8063 20.8385 43.926 21.0381 44.0059 21.2376C43.2076 20.3596 42.1699 20.0403 41.4515 20.4793C40.7331 20.9184 40.5734 22.0359 41.0125 23.1135C40.8528 22.9539 40.7331 22.7942 40.6134 22.5947C39.8151 21.3175 39.895 19.8807 40.7331 19.3618Z" fill="#2C2D32"/>
<path d="M34.0283 28.5015C32.1525 29.6589 31.4341 31.8541 32.392 33.3707C33.3498 34.8874 35.6248 35.1667 37.5007 34.0093C39.3765 32.8519 40.0949 30.6567 39.137 29.1401C38.1792 27.6234 35.8643 27.344 34.0283 28.5015Z" fill="#525357"/>
<path d="M39.0979 31.2952C38.14 29.7785 35.865 29.4992 33.9892 30.6566C33.0712 31.2154 32.4326 32.0535 32.1133 32.9316C31.5545 31.4548 32.3129 29.579 33.9892 28.5413C35.865 27.3838 38.14 27.6632 39.0979 29.1799C39.5768 29.9382 39.6167 30.8961 39.3373 31.7741C39.2575 31.5746 39.2176 31.4149 39.0979 31.2952Z" fill="#2C2D32"/>
<path d="M30.1561 31.6943C30.1162 32.4526 30.2758 33.211 30.6749 33.8895C31.9521 36.1245 35.1849 36.6434 37.8989 35.0868C39.3757 34.2088 40.4134 32.9316 40.8125 31.5347C40.7327 33.2908 39.6151 35.1267 37.6994 36.2043C34.9854 37.7609 31.7525 37.242 30.4754 35.007C29.9166 34.0092 29.8368 32.8118 30.1561 31.6943Z" fill="#2C2D32"/>
<path d="M32.2733 41.5924C31.5549 40.435 29.5992 40.3152 27.9229 41.3529C26.7655 42.0714 26.0471 43.149 25.9673 44.1068C25.8874 43.0292 26.6058 41.7521 27.9229 40.9538C29.5992 39.9161 31.515 40.0358 32.2733 41.1933C32.5128 41.5525 32.5926 41.9915 32.5527 42.4306C32.5128 42.1113 32.433 41.8319 32.2733 41.5924Z" fill="#2C2D32"/>
<path d="M27.1635 43.2288C27.2035 43.3884 27.2434 43.5481 27.3232 43.7077C27.842 44.5858 29.2789 44.6257 30.5161 43.8674C31.1148 43.5082 31.5538 42.9893 31.7933 42.4705C31.953 43.3086 31.3942 44.3064 30.3964 44.945C29.1591 45.7033 27.7622 45.6235 27.2035 44.7853C26.9241 44.3064 26.9241 43.7476 27.1635 43.2288Z" fill="#2C2D32"/>
<path d="M11.9967 28.7807C9.20286 30.5369 8.20507 33.9693 9.76163 36.4438C11.3182 38.9183 14.8304 39.5569 17.6242 37.8008C20.4181 36.0447 21.4159 32.6123 19.8593 30.1377C18.3027 27.6632 14.7905 27.0246 11.9967 28.7807Z" fill="#525357"/>
<path d="M18.3038 33.2509C16.7473 30.7763 13.2351 30.1377 10.4412 31.8939C9.92238 32.2132 9.48336 32.5724 9.12415 33.0114C9.40353 31.375 10.4013 29.8185 11.9978 28.7807C14.7916 27.0246 18.3038 27.6632 19.8604 30.1377C21.1376 32.1732 20.6986 34.8473 18.9824 36.6833C19.142 35.5258 18.9424 34.2886 18.3038 33.2509Z" fill="#2C2D32"/>
<path d="M7.52562 32.293C7.52562 33.7298 7.92474 35.2065 8.72298 36.5635C10.9979 40.1556 15.6277 41.3529 19.0601 39.1977C20.7763 38.1201 21.8539 36.4438 22.293 34.6078C22.293 37.0824 21.0956 39.4372 18.9005 40.7942C15.4281 42.9494 10.7984 41.792 8.56333 38.16C7.40589 36.3241 7.08659 34.2087 7.52562 32.293Z" fill="#2C2D32"/>
<path d="M28.96 21.7563C29.1196 22.2353 29.7981 22.3949 30.4766 22.1555C31.1551 21.916 31.5543 21.3572 31.3946 20.8783C31.235 20.3993 30.5565 20.2397 29.878 20.4792C29.1995 20.7186 28.7604 21.2774 28.96 21.7563Z" fill="#525357"/>
<path d="M28.6422 20.998C28.5225 21.2375 28.4826 21.5169 28.5624 21.7963C28.762 22.4349 29.6799 22.6743 30.5979 22.355C31.0369 22.1954 31.3562 21.9559 31.5957 21.6765C31.3961 22.0757 30.9571 22.4349 30.4383 22.5945C29.5203 22.9138 28.6023 22.6743 28.4028 22.0358C28.2431 21.6765 28.3629 21.3173 28.6422 20.998Z" fill="#2C2D32"/>
<path d="M31.0756 21.2375C30.9159 20.7585 30.2374 20.5989 29.5589 20.8384C29.3594 20.9182 29.1997 20.998 29.08 21.0778C29.2396 20.8384 29.519 20.5989 29.8782 20.4792C30.5567 20.2397 31.2352 20.4392 31.3949 20.8783C31.5146 21.1976 31.3151 21.5967 30.9558 21.8761C31.0756 21.6765 31.1554 21.437 31.0756 21.2375Z" fill="#2C2D32"/>
<path d="M18.7022 20.12C19.1811 19.9603 19.6601 20.0801 19.9395 20.3993C19.7399 20.3594 19.5004 20.3993 19.3009 20.4393C18.7022 20.6388 18.343 21.2375 18.5425 21.7164C18.5825 21.7963 18.6224 21.916 18.7022 21.9958C18.343 21.916 18.0636 21.7164 17.9439 21.3971C17.7842 20.9182 18.1035 20.3195 18.7022 20.12Z" fill="#23242A"/>
<path d="M19.0623 22.3551C20.2996 22.0358 21.0579 20.9183 20.7785 19.8806C20.7386 19.681 20.6588 19.5213 20.539 19.4016C20.8583 19.6411 21.1377 19.9604 21.2175 20.3595C21.4969 21.3972 20.7386 22.4748 19.5013 22.834C18.5035 23.1134 17.5057 22.7941 17.0268 22.0757C17.5457 22.4349 18.304 22.5546 19.0623 22.3551Z" fill="#525357"/>
<path d="M6.76859 21.8762C6.76859 22.0758 6.80851 22.2354 6.92824 22.435C7.16771 22.7543 7.60674 22.8341 7.88612 22.6345C7.92603 22.5946 7.96595 22.5547 8.00586 22.4749C8.00586 22.6345 7.92604 22.7942 7.8063 22.874C7.52692 23.0736 7.1278 22.9937 6.84841 22.6745C6.64886 22.435 6.64886 22.1157 6.76859 21.8762Z" fill="#525357"/>
<path d="M16.7058 12.4569C16.3466 12.2174 15.9076 12.2972 15.708 12.5766C15.6282 12.7363 15.5883 12.8959 15.6681 13.0955C15.4686 12.856 15.4287 12.5766 15.5883 12.3372C15.7879 12.0179 16.2269 11.978 16.5861 12.2174C16.7857 12.3372 16.9054 12.4968 16.9453 12.6964C16.8655 12.5766 16.7857 12.4968 16.7058 12.4569Z" fill="#2C2D32"/>
<path d="M6.92731 15.4104C7.04704 15.0511 7.44616 14.8915 7.88519 15.0112C8.04483 15.0511 8.20448 15.1709 8.32422 15.2906C8.2444 15.2507 8.16457 15.2108 8.08475 15.1709C7.68563 15.0511 7.2466 15.2108 7.12687 15.57C7.04704 15.7696 7.12686 15.9691 7.2466 16.1288C6.96721 15.9691 6.84748 15.6897 6.92731 15.4104Z" fill="#525357"/>
<path d="M15.9485 8.06671C15.8687 7.58777 15.1104 7.3483 14.2722 7.54786C14.0328 7.58777 13.8332 7.6676 13.6736 7.74742C13.913 7.46804 14.3122 7.22857 14.831 7.14875C15.6692 6.9891 16.4275 7.22857 16.5073 7.6676C16.5871 8.0268 16.2678 8.38601 15.7889 8.62548C15.9086 8.46583 15.9885 8.26627 15.9485 8.06671Z" fill="#525357"/>
<path d="M43.2487 33.7298C43.8873 32.4128 44.8452 31.5746 45.404 31.854C45.5237 31.8939 45.5636 32.0136 45.6035 32.0136C45.2443 32.1334 44.4461 32.8917 43.8873 34.0491C43.3685 35.1667 43.4084 36.2044 43.5281 36.6035C43.3285 36.6833 43.1689 36.5636 43.129 36.5636C42.5702 36.364 42.6101 35.0469 43.2487 33.7298Z" fill="#2C2D32"/>
<path d="M43.8869 34.0491C43.2882 35.3263 43.0487 36.4837 43.368 36.6434C43.6873 36.803 44.4457 35.885 45.0443 34.6079C45.643 33.3307 45.8825 32.1732 45.5632 32.0136C45.2439 31.8939 44.5255 32.7719 43.8869 34.0491Z" fill="#525357"/>
<path d="M43.8871 34.0492C43.9271 33.9294 44.0069 33.8097 44.0867 33.6899C43.6078 34.8075 43.4481 35.7654 43.7275 35.925C44.0069 36.0447 44.6455 35.3263 45.2441 34.2487C45.2042 34.3684 45.1244 34.4882 45.0845 34.6079C44.4858 35.8851 43.7275 36.8031 43.4082 36.6434C43.049 36.4838 43.2885 35.3263 43.8871 34.0492Z" fill="#393A3F"/>
<path d="M7.2883 16.4482C7.92689 16.6477 8.56548 16.3683 8.72513 15.8495C8.80495 15.5701 8.76504 15.2508 8.56548 14.9714C8.92468 15.2508 9.08433 15.6898 8.9646 16.089C8.80495 16.6078 8.12645 16.8872 7.52778 16.6876C7.24839 16.6078 7.04883 16.4482 6.88919 16.2087C7.00892 16.3284 7.12866 16.4083 7.2883 16.4482Z" fill="#2C2D32"/>
</g>
</svg>
