<svg width="117" height="136" viewBox="0 0 117 136" fill="none" xmlns="http://www.w3.org/2000/svg">
<path fill-rule="evenodd" clip-rule="evenodd" d="M114.447 88.9139C111.765 76.5891 111.701 69.0537 105.251 60.4327C103.527 58.1337 99.4397 57.3674 98.9926 56.8565C95.672 52.6418 92.0958 48.3632 83.6026 45.8727C85.4545 43.3184 86.1569 42.552 85.0713 39.8061C84.9436 39.4229 85.5183 38.6566 84.4966 37.5072C83.6026 36.5493 81.9422 36.2938 80.8566 36.2938C80.4096 35.783 79.3878 35.3359 78.43 35.2082C77.7914 34.0588 77.2166 32.8454 76.578 31.696C75.9394 28.7584 73.6405 26.0125 72.8742 22.7557C72.044 19.1157 70.703 17.5192 68.5956 16.8167C68.5956 16.689 69.9367 15.4118 70.0005 15.1564C67.1907 11.3887 58.889 1.04349 52.056 0.915771C50.7789 1.8098 48.8631 4.36417 48.6715 4.61961C47.075 3.59786 45.7978 2.95927 45.2231 3.02313C43.9459 3.27857 40.1782 6.21609 36.7937 10.8778C36.7937 10.8778 37.1768 11.4526 37.0491 11.5803C36.5382 12.0273 34.9417 13.1768 34.6863 13.8154C33.9839 15.795 34.367 20.2013 33.8561 22.5002C32.579 25.1823 31.0463 28.2476 29.1306 32.2707C29.0028 32.3346 26.9593 32.3346 25.3629 32.9732C22.7446 34.0588 21.0204 36.1023 16.8057 43.5099C12.2078 42.8713 10.2282 47.0861 8.75943 51.4924C8.31241 52.6418 -0.500175 82.975 0.840871 91.0851C2.62893 98.9398 9.14258 101.494 14.6345 105.645C18.0829 108.263 21.212 111.584 24.5965 114.202C29.1944 117.778 46.3087 135.276 51.8645 135.212C53.2055 135.212 53.7164 133.935 54.6104 133.552C62.3374 132.658 95.0972 119.63 99.5035 117.778C103.527 116.182 113.808 112.989 115.596 109.987C118.15 105.773 115.404 93.4479 114.447 88.9139ZM103.08 69.1175C103.846 71.9912 104.485 76.4613 105.57 80.5483C106.975 85.7848 110.232 94.4697 110.296 100.153C106.72 105.581 100.078 105.837 96.5021 106.922C96.5021 93.6395 96.7576 80.1652 96.1828 67.9681C97.907 71.4165 98.7372 73.8431 99.8867 76.5252C103.144 84.1883 105.826 90.6381 106.911 101.047H107.231C107.358 99.6423 107.422 98.1735 107.55 96.7686H107.678C107.869 97.3433 108.572 98.6844 108.763 98.7482L108.891 98.4289C108.699 96.1939 107.741 94.8528 107.231 93.0648C105.123 86.4234 102.696 80.9315 100.334 74.9926C100.206 71.8635 100.014 68.7344 99.8867 65.6691C99.2481 64.839 98.5456 64.0088 97.907 63.2425C97.013 61.4544 96.0551 59.6663 95.1611 57.8783C94.2671 56.665 92.1597 55.3878 91.6488 54.9408C90.8825 54.2383 88.392 51.1731 86.6678 49.7682C86.1569 49.385 83.7941 50.0236 83.2194 49.7682C78.0468 47.9162 72.8742 46.0643 67.7654 44.2762C88.9667 44.0847 98.6734 52.578 103.08 69.1175ZM89.9246 78.3771C91.7765 77.994 95.672 77.6747 95.7358 77.6747C95.7997 77.6747 95.7358 78.5687 95.7997 79.2712C93.8839 79.7182 92.032 80.1013 90.1162 80.5483H89.9885V78.3771H89.9246ZM89.733 76.2059C91.7127 75.9505 93.6923 75.695 95.7358 75.4396V76.9722C94.4586 77.3554 91.138 77.1638 89.9246 77.8662C89.8608 77.547 89.733 76.3975 89.733 76.2059ZM95.672 74.7371C94.0116 74.8649 91.4572 75.1842 89.5415 75.3757C89.4776 74.0347 89.286 73.0129 89.286 71.6719C91.2018 71.4803 93.373 71.3526 95.2888 71.161C95.2249 69.373 95.1611 67.5849 95.1611 65.7968C96.119 67.7765 95.7358 72.3105 95.672 74.7371ZM87.1148 51.3646C87.4341 51.4924 87.6257 51.7478 87.945 52.0032C85.7738 52.1948 84.1134 52.3864 82.0061 52.6418C81.9422 52.5141 81.2398 52.2587 81.1759 52.1309C82.8363 52.0032 85.4545 51.5562 87.1148 51.3646ZM80.7289 51.8116C80.4096 51.8116 79.6433 51.3646 79.0047 50.9176C80.7289 50.726 85.5822 50.0874 86.2846 50.1513C86.4124 50.279 86.8594 50.9176 86.9871 51.0453C85.2629 51.1092 81.8784 51.8116 80.7289 51.8116ZM86.2208 52.6418H88.6474C86.6039 52.9611 84.5604 53.2804 82.5169 53.5359C82.3892 53.4081 82.3254 53.2166 82.1976 53.0888C83.6026 52.8973 84.8797 52.7695 86.2208 52.6418ZM88.2004 53.4081C88.9029 53.4081 89.0945 53.4081 89.4137 53.7274L83.6026 54.6215H83.4748C83.3471 54.4937 83.2832 54.3022 83.1555 54.1744C84.8797 53.919 86.5401 53.6636 88.2004 53.4081ZM88.2004 54.4299C89.0945 54.366 89.9246 54.366 90.3716 54.7492V54.8769C88.3281 55.0685 86.2846 55.2601 84.2411 55.5155C84.1134 55.3878 84.0496 55.1962 83.9219 55.0685C85.3906 54.8769 86.7955 54.6853 88.2004 54.4299ZM85.0075 56.2818C86.9232 56.0264 88.7752 55.7709 90.6909 55.5155H91.0102C90.3078 56.1541 86.7955 56.4734 85.0075 56.4095V56.2818ZM90.2439 56.4734H91.7765V56.6011C89.733 56.9204 87.6896 57.2397 85.646 57.4951C86.2208 56.5372 89.0945 56.8565 90.2439 56.4734ZM91.1379 57.3674C91.5211 57.4313 91.8404 57.4951 92.2236 57.4951C90.1801 57.8783 88.1366 58.1976 86.0931 58.5807C86.0292 58.453 85.9653 58.2614 85.9653 58.1337C87.6896 57.8783 89.4137 57.6228 91.1379 57.3674ZM91.1379 58.2614H92.5429C90.7548 58.6446 88.9667 59.0916 87.1787 59.4748H86.4124C86.9871 58.5807 90.0523 58.7085 91.1379 58.2614ZM92.032 59.0278H92.479C92.6067 59.0916 92.6706 59.1555 92.7983 59.1555C92.926 59.5386 92.9899 59.8579 93.1176 60.2411C92.032 59.9856 89.4138 60.3688 88.392 60.8797C87.8811 61.199 88.0089 61.2628 88.2004 61.646C88.0089 61.7737 87.5618 62.093 87.3703 62.2207C87.1787 61.5183 86.9871 60.8158 86.7317 60.0495C88.4559 59.7941 90.2439 59.4109 92.032 59.0278ZM92.7983 61.5183C91.7765 61.7737 90.7548 62.0291 89.733 62.2846C89.2222 62.3484 88.7752 61.9014 89.286 61.5183C90.2439 61.3267 91.2018 61.1351 92.2236 60.8797C92.8622 60.8158 92.7983 61.4544 92.7983 61.5183ZM87.6896 62.6039C87.7534 62.4762 88.1366 62.2207 88.2004 62.1569C88.7752 62.4123 88.839 62.9232 89.286 62.9232C90.6909 62.7316 92.0958 62.2846 93.5646 62.093C93.6923 61.7098 93.5646 61.3905 93.373 61.0074C94.0755 61.199 94.1393 61.3905 94.3948 61.9653C94.7141 62.6039 94.9695 64.7751 94.3948 65.3498C94.5864 64.5835 93.5646 62.6677 92.2236 63.6895C92.032 64.3281 92.3513 65.0305 92.6067 65.4775C91.3295 64.839 88.6474 64.0088 88.2004 63.5618C88.0727 63.3702 87.6257 62.8593 87.6896 62.6039ZM92.926 66.2439C93.5007 66.3716 94.0116 66.3716 94.3309 66.18C94.4586 67.3295 94.4586 69.1175 94.5864 70.267C93.1814 70.4586 91.7127 70.6501 90.3078 70.9056C90.3078 68.4789 89.9246 66.6909 89.4137 64.9028C90.3716 65.3498 91.7765 65.9884 92.926 66.2439ZM92.6706 64.1365C93.373 63.7533 93.82 64.2642 93.7562 64.9028C92.9899 64.7112 92.926 64.7751 92.6706 64.1365ZM88.7113 64.5835C89.0945 66.627 89.6053 68.2874 89.7969 70.9694C89.5415 70.9056 89.1583 70.9694 89.1583 70.9056C88.9029 69.2452 88.1366 65.0305 87.7534 63.434C87.8811 63.7533 88.4559 64.5197 88.7113 64.5835ZM95.3527 64.7751C94.9695 64.1365 95.0972 62.1569 94.9057 61.4544C94.7141 60.9435 94.1393 60.6881 93.9478 60.1772C93.5007 58.9 92.7344 57.3036 92.6706 56.7927C95.5443 57.7506 96.0551 64.3281 98.9926 65.9246C99.0565 67.7765 99.1204 69.6284 99.1204 71.4165C98.4818 70.8417 96.6937 66.8824 95.3527 64.7751ZM79.5156 68.9898C79.3878 71.6719 79.1963 74.4179 79.0685 77.0999L79.5156 76.9722C80.7927 70.9694 78.7492 60.1772 80.4096 57.0481C80.9843 57.4951 81.1759 57.9421 82.0699 58.1337C81.8145 56.0902 77.5998 53.6636 74.2791 54.1744C72.6188 52.8334 69.9367 49.6404 62.0181 47.0861C61.9542 46.9583 62.1458 46.639 62.2735 46.4475C67.3823 47.4054 80.1542 53.1527 82.5808 56.7927C85.199 60.6242 86.7955 65.6053 87.1787 71.3526C87.1787 74.6733 87.8173 100.409 87.8173 110.115C81.3675 111.903 75.0454 116.437 67.5739 114.713C68.0209 112.35 74.5984 83.0389 77.2166 72.6936C79.1324 65.2221 78.43 59.4748 74.79 54.7492C77.2166 54.7492 79.0047 55.3878 80.0264 56.7288C78.2384 59.7302 79.3878 65.286 79.5156 68.9898ZM61.5711 50.5983C61.4434 50.5345 60.1662 50.279 60.1662 50.0236C59.9746 49.6404 60.1662 45.6812 62.8483 45.1064C62.7844 45.1064 60.3578 47.2776 61.5711 50.5983ZM65.5942 66.627C62.3374 64.0088 57.6118 61.7737 53.0778 60.3688C53.3332 58.5169 54.6104 56.2179 53.8441 54.1106C52.7585 51.1731 49.8848 51.1731 49.8848 46.5752C51.2897 46.8945 53.908 47.4692 56.7816 48.5548C57.1009 48.6825 57.0371 49.3211 57.3564 49.4489C58.6336 50.1513 60.2939 50.6622 61.7627 51.1092C62.0181 51.1731 62.4651 50.7899 62.529 50.8538C67.6377 53.0888 72.044 56.0264 72.8742 57.559C75.3008 62.2207 72.1079 69.5645 71.3416 73.5238C70.1282 72.2466 68.5956 71.3526 68.0847 70.3308C67.7016 69.6284 67.2546 68.0319 65.5942 66.627ZM67.3823 84.1883C63.9977 97.8542 60.9325 117.906 58.2504 123.206C58.3781 116.054 69.7451 80.9315 66.8076 70.0754C68.5318 71.6719 67.8932 81.1231 67.3823 84.1883ZM46.2449 49.0657C45.287 44.6594 44.3291 40.2531 43.3073 35.9107C42.7326 32.7816 42.8603 27.2258 43.7543 24.7353C44.1375 23.5858 45.1592 23.6497 45.287 21.9893C45.4785 21.9255 47.4582 21.9255 48.2245 21.9893C48.6715 23.522 47.9691 24.7992 48.2245 26.5872C48.6715 29.397 50.3318 31.5044 49.7571 35.1444C49.1824 39.0398 48.7992 43.5738 49.5655 48.1717C50.0764 51.4924 51.8006 52.0671 52.8224 54.3022C53.6525 56.0902 52.3753 58.2614 52.1838 59.9856C50.7789 59.347 49.3101 58.6446 47.9052 58.006C48.1606 54.1106 47.0112 52.0032 46.2449 49.0657ZM36.5382 33.2286C37.2407 33.3563 39.1565 33.6117 39.7951 33.8033C39.7951 33.8672 39.6673 34.3781 39.6673 34.4419C38.7733 34.3781 37.2407 34.2503 36.2189 33.9949C36.0274 33.931 35.0695 33.3563 35.0056 33.2286C34.9417 33.1009 35.0056 32.6539 35.0695 32.59C35.261 32.6539 36.2828 33.1647 36.5382 33.2286ZM35.261 32.0791C35.3249 31.8875 35.3888 31.4405 35.5803 31.3767C36.0274 31.2489 37.0491 31.3128 37.3684 31.4405C37.3684 31.5044 36.9214 32.6539 36.7298 32.7177C36.4744 32.8454 35.3888 32.3346 35.261 32.0791ZM37.4323 32.9732C37.4323 32.9093 37.9431 31.9514 37.9431 31.8875C38.7094 31.7598 39.4758 32.143 39.9866 32.2707V33.3563C39.2842 33.2924 37.4961 32.9732 37.4323 32.9732ZM35.5165 33.9949C35.0056 33.931 33.92 33.7395 33.473 33.6117C33.473 33.4202 33.473 33.1009 33.5368 32.9093C33.7923 32.9731 34.367 33.037 34.5586 33.1647C34.7502 33.3563 35.3249 33.8033 35.5165 33.9949ZM42.2856 35.6552C42.4133 36.1023 42.8603 38.2096 42.8603 38.4012C39.6035 37.6349 36.666 36.677 33.026 35.4637C33.1537 35.0166 33.2175 34.5696 33.3453 34.0588C36.9214 34.5058 39.4119 35.1444 42.2856 35.6552ZM40.6252 32.4623C40.8168 32.5261 41.0722 32.59 41.3277 32.59C41.5193 33.037 41.5193 33.8672 40.8168 34.6335C40.6891 34.6335 40.2421 34.5696 40.2421 34.5696C40.4975 34.0588 40.6252 32.9093 40.6252 32.4623ZM41.7747 32.8454C41.9024 32.9093 42.094 32.9732 42.2217 32.9732V35.1444C41.9663 35.0166 41.2638 34.8251 41.1361 34.8251C41.5831 34.1865 41.7747 33.931 41.7747 32.8454ZM42.988 39.4229C43.1157 39.9977 43.3073 40.5724 43.435 41.0833C39.9866 39.7422 36.2189 38.3373 32.8344 36.9963C32.7067 36.6131 32.8344 36.23 32.8983 36.0384C36.2828 37.1879 39.6673 38.3373 42.988 39.4229ZM43.6266 41.9135C43.6266 42.0412 43.7543 42.4882 43.7543 42.6159C42.4771 41.9773 34.1116 38.7843 32.8344 38.1458C32.7705 38.0819 32.8344 37.571 32.8344 37.4433C34.4947 38.1458 41.8386 41.2749 43.6266 41.9135ZM43.7543 43.0629C43.8182 43.3184 44.1375 43.957 44.0736 43.957C41.4554 42.8713 34.4309 40.1893 32.7705 39.2314C32.7067 39.1675 32.7705 38.7205 32.7705 38.5289C36.3467 40.1254 40.1144 41.4664 43.7543 43.0629ZM32.7705 39.7422C36.6021 41.4026 40.4337 42.9991 44.2652 44.6594C45.1592 46.4475 47.5859 55.0046 47.0112 57.0481V57.4951C41.647 55.0046 36.2828 52.5141 30.9186 49.9597C32.1319 47.0222 32.8344 44.0847 32.7705 39.7422ZM63.4869 40.0615C62.2097 39.4868 57.1009 38.2735 56.3346 37.571C55.0574 32.59 56.7178 23.969 52.056 12.2827C52.1199 10.9417 51.9922 8.96205 51.8645 7.23784C56.5262 9.72836 62.0181 13.3683 66.2967 18.2216C66.4244 18.3494 66.9991 18.0301 67.063 18.1578C68.4679 21.4146 71.5331 26.5872 72.6188 28.3753C72.8103 29.2055 73.1935 32.9731 73.1935 36.3577C69.4896 36.9963 66.3605 38.6566 63.4869 40.0615ZM63.9339 40.9556C64.9556 41.0194 65.9135 41.4026 66.9353 41.4664C66.8076 41.7219 66.9353 42.2327 66.7437 42.1689C66.3605 42.105 64.1893 41.5942 63.87 41.5942C63.9339 41.5303 63.8062 40.9556 63.9339 40.9556ZM56.7816 45.745C54.4827 44.9148 52.1838 44.0847 49.8848 43.3184V41.7857C52.3115 42.6798 54.6743 43.5099 57.1009 44.404C56.9094 44.851 56.7178 45.2341 56.7816 45.745ZM56.5262 47.2776C56.6539 47.4054 56.5901 47.5969 56.7178 47.7247C54.4188 47.0861 52.2476 46.5113 49.9487 45.8727C49.8848 45.6173 49.821 45.3619 49.821 45.1064C51.9922 45.8089 54.2273 46.5113 56.5262 47.2776ZM49.7571 44.6594V44.0208C52.056 44.9148 54.355 45.745 56.6539 46.639C54.355 46.0005 52.056 45.298 49.7571 44.6594ZM49.8848 40.9556C50.0764 39.5507 50.268 38.2096 50.5234 36.8047C54.6743 38.0819 58.8251 39.3591 62.9121 40.6363C62.9121 40.8917 62.976 41.211 62.8483 41.5303C61.1241 42.105 59.2722 42.0412 57.548 43.7015C54.9297 42.8075 52.5669 41.9135 49.8848 40.9556ZM55.249 37.3156C54.4188 37.1879 53.5887 36.9963 52.8224 36.8686C52.8224 30.4826 50.3957 28.1837 49.3101 23.8413C48.7354 21.5423 51.4813 15.795 51.8006 13.3683C54.9297 19.1795 54.7381 29.397 55.249 37.3156ZM52.056 36.5493C51.6729 36.4216 51.3536 36.3577 50.9704 36.23C50.8427 36.1661 50.7789 36.1023 50.6511 36.1023C50.5873 31.3128 49.1824 29.2054 49.1185 25.2462C51.0343 27.7367 52.1838 32.2068 52.056 36.5493ZM62.082 50.0236C61.8265 49.4489 61.7627 49.385 61.5072 48.8103C67.063 52.1309 75.8756 54.0467 75.4924 61.9014C75.3647 64.9667 74.1514 67.7765 74.1514 67.8403C74.0875 67.8403 73.7044 67.4572 73.6405 67.4572C75.6201 56.7288 74.5984 56.6011 62.082 50.0236ZM59.4637 49.832C58.6974 49.5766 57.7395 49.2573 57.6118 48.8741C57.2287 47.5969 57.1648 44.7233 58.7613 43.7654C59.9107 42.9352 61.6988 42.4882 62.7844 42.2327C64.4448 42.3605 65.5942 42.7436 67.063 43.2545C63.9339 45.1703 60.23 43.3184 59.4637 49.832ZM66.5521 40.8278C66.5521 40.764 64.3809 40.6363 64.3809 40.5724C71.7886 36.2938 76.4503 36.8047 78.0468 36.6131C78.4938 36.7409 79.5156 37.0601 79.4517 38.2096C76.2587 38.018 73.0658 38.1458 70.3837 38.9759C68.2125 39.6784 67.3823 40.764 66.5521 40.8278ZM71.6609 42.8075C71.7886 41.9135 71.8524 41.0833 71.9802 40.1893C72.3633 40.2531 72.8103 40.317 73.1935 40.317C73.4489 41.4026 73.3212 42.6798 73.1935 43.5099C71.7886 43.3822 68.8511 43.1906 68.7233 43.1906C69.7451 43.1268 70.703 42.9352 71.6609 42.8075ZM67.8293 42.4882V42.3605C68.9149 41.7219 70.0005 41.0194 71.0223 40.3808V42.2327C70.0005 42.2966 68.9149 42.4243 67.8293 42.4882ZM73.0658 39.7422C73.0019 39.6145 72.938 39.5507 72.938 39.4229C74.343 39.2314 78.3661 38.7843 78.9408 38.7843V38.9121C77.7914 39.1675 76.8335 39.4868 76.1949 40.317C75.1093 40.1254 74.0875 39.9338 73.0658 39.7422ZM75.6201 40.6363C75.7479 40.7001 75.7479 40.8278 75.7479 40.9556C75.7479 41.0194 74.4707 41.211 74.4707 41.2749C74.4707 41.4026 74.5345 41.8496 74.5984 41.9135C74.79 42.0412 75.6201 41.7857 75.8756 41.7857C75.9394 41.7857 75.9394 42.105 76.0033 42.1689C75.3647 42.2966 74.7261 42.4243 74.0237 42.552C74.0237 42.3605 73.7682 41.0194 73.7682 40.8278C74.1514 40.764 75.237 40.6363 75.6201 40.6363ZM76.0033 42.6798C77.3443 42.3605 78.9408 41.7219 80.2819 41.4026C80.3457 42.6159 79.5156 43.7654 77.9829 44.0208C77.2805 43.8292 76.578 43.8931 75.8756 43.6377C75.8117 43.6377 75.9394 42.9352 76.0033 42.6798ZM80.8566 41.1471C81.7506 40.8917 82.5808 40.5724 83.0278 39.7422C83.858 39.9338 84.3689 40.1254 84.1134 41.9135C83.5387 43.3184 82.6447 44.2762 81.4952 45.1064C80.7289 44.9148 79.9626 44.7233 79.1963 44.4678C79.8987 43.3822 81.112 42.8713 80.8566 41.1471ZM77.2166 41.9135C77.0889 41.9773 77.2166 41.4026 77.0889 41.4026C76.7057 41.5303 75.6201 41.7219 75.5563 41.7219C75.4924 41.7219 75.3647 41.4664 75.4924 41.4026C75.6201 41.3387 76.9612 41.0194 76.8973 40.9556C76.8335 40.8917 76.7696 40.7001 76.7696 40.6363C77.0889 40.1254 79.0047 39.9977 80.6012 39.2952C81.1759 39.4229 81.7506 39.4868 82.2615 39.6145C81.6868 40.8278 78.5577 41.4026 77.2166 41.9135ZM67.51 41.4026C68.3402 40.8278 69.1703 40.2531 69.9367 39.7422H70.256C69.3619 40.3808 68.5318 40.9556 67.6377 41.5942H67.51V41.4026ZM83.0917 45.6173C82.964 45.6173 82.5808 45.4896 82.2615 45.4257C83.2833 44.0847 85.5183 42.0412 84.3689 39.9338C84.4966 40.0615 86.5401 42.2966 83.0917 45.6173ZM81.0482 37.6987C81.0482 37.9542 81.0482 38.018 80.9843 38.2735C81.6868 38.4012 83.7303 38.8482 84.0496 38.8482C83.7303 37.6349 82.7724 36.9324 81.3036 36.8686C81.3036 36.8047 81.1759 36.7408 81.1759 36.677C82.7085 36.677 84.5604 37.5072 84.752 38.7843C84.752 38.9121 84.8159 39.5507 84.6882 39.6145C83.5387 39.3591 80.4096 38.9121 80.218 38.7205C80.0903 38.5289 80.218 38.1458 80.218 37.8903C80.0903 37.1879 79.0686 36.1023 77.9829 36.0384C77.7275 36.0384 77.7914 36.3577 77.7275 36.3577C77.5998 36.3577 77.2166 36.3577 76.9612 36.3577C76.9612 35.9107 77.2805 35.5275 77.5359 35.5275C80.4096 35.6552 81.0482 37.1879 81.0482 37.6987ZM81.3675 37.124C83.4748 37.2517 83.2833 38.4012 83.3471 38.4012C83.1555 38.3373 82.1338 38.0819 81.6229 38.018C81.6229 37.8265 81.4313 37.3156 81.3675 37.124ZM77.6636 35.1444C77.1528 35.1444 76.9612 35.2082 76.7696 35.3359C76.578 35.5275 76.5142 35.9107 76.4503 35.9745C76.0672 36.1023 74.4707 36.23 73.9598 36.23C73.9598 33.6117 73.8321 32.0791 73.3212 29.7802C73.3851 29.7802 77.5998 35.0166 77.6636 35.1444ZM72.2995 22.0532C71.8524 21.3508 70.1282 18.5409 69.1703 17.5192C71.597 18.2216 71.9802 21.1592 72.2995 22.0532ZM76.0033 31.5682C73.3851 29.6525 68.9149 21.0315 67.3823 17.6469C67.51 17.4553 67.7016 17.2638 67.8293 17.0083C70.4475 18.5409 75.237 27.9921 76.0033 31.5682ZM52.056 1.55436C56.5901 1.55436 67.8293 11.9634 69.2342 15.0925C69.1065 15.348 68.2763 15.9866 67.957 16.1143C66.4244 14.9648 62.6567 12.4104 62.4651 12.2827C62.4651 12.3466 65.7858 15.0287 67.1907 16.5613C66.9991 16.7529 66.8076 16.9445 66.5521 17.1999C61.1879 13.1129 56.3985 7.3017 49.2462 5.06663C49.9487 3.72558 51.609 2.63997 52.056 1.55436ZM50.5234 6.34381C52.9501 10.9417 48.5438 21.2869 48.4799 21.3508C47.522 21.0315 46.5641 21.0315 45.1592 21.0315C45.7978 16.5613 47.522 8.70661 46.6919 4.30032C48.1606 4.93891 48.9269 5.64136 50.5234 6.34381ZM44.7122 3.59786C46.628 3.8533 45.8617 6.72697 45.7978 8.19573C43.5628 9.85608 41.3277 11.4526 39.0287 13.1129C38.6456 12.3466 38.1986 11.5803 37.8154 10.814C39.4119 8.00416 42.2217 5.51364 44.7122 3.59786ZM37.4961 12.0273C37.6238 12.2189 38.007 13.049 38.1347 13.2406C37.0491 15.4118 38.1347 19.435 34.4309 25.1823C35.3249 20.2013 33.9839 14.3262 37.4961 12.0273ZM38.2624 15.2203C39.7312 13.049 44.0736 10.367 45.7978 9.15362C45.8617 12.2827 45.0954 17.7746 44.4568 21.1592C44.3929 21.5423 44.6484 21.6062 44.7761 21.9255C42.988 24.2883 42.7326 28.4391 42.3494 32.3984C40.9445 31.9514 37.2407 30.2911 35.261 31.1212C35.0056 31.1851 34.8779 32.3346 34.8779 32.3346C34.6225 32.3346 34.0477 32.143 33.7923 32.0153C34.0477 30.4826 34.3032 28.8223 34.5586 27.3535C34.814 25.0546 38.1986 22.1809 38.2624 15.2203ZM33.92 23.7774C34.0477 28.503 32.0681 36.8047 31.6849 39.1036C32.5151 44.7233 30.6632 47.7247 30.1523 49.5127C29.2583 49.1296 28.2365 48.491 27.4702 48.044C27.9172 45.8727 30.0246 44.0208 29.386 41.7219C28.7474 41.0194 28.1727 40.317 27.5341 39.5507C26.1292 38.8482 33.2814 25.31 33.92 23.7774ZM28.939 33.037C28.939 33.1009 28.5558 33.931 28.492 34.1226C27.5979 33.9949 26.8955 33.8672 26.0014 33.7395C26.64 33.1647 28.5558 32.9093 28.939 33.037ZM25.3629 33.9949C26.193 34.1226 27.4702 34.3781 28.3004 34.5058C28.1727 34.6335 27.9811 35.2082 27.9172 35.3359C27.4702 35.1444 25.4267 34.5696 24.0218 34.6335C24.0218 34.6335 24.852 34.1226 25.3629 33.9949ZM23.7025 35.0805C24.5965 35.2082 27.5979 35.783 27.6618 35.9107C27.5979 36.0384 27.0871 37.2517 27.0232 37.3794C25.8737 37.124 24.1495 35.8468 22.7446 35.9107C22.9362 35.7191 23.4471 35.1444 23.7025 35.0805ZM22.3615 36.3577C24.0218 36.3577 25.6821 37.6987 26.8955 38.018C26.5123 40.764 27.5979 39.9977 28.492 42.3605C28.8113 43.8292 27.0871 45.9366 26.8316 47.7247C23.7664 46.3836 20.7011 45.0426 17.6359 43.7654C19.0408 40.7001 21.3397 37.0601 22.3615 36.3577ZM15.5924 45.0426C17.6997 45.4257 46.0533 60.6242 50.9704 63.1786C54.9297 65.1582 60.9325 66.627 63.1037 70.3947C65.4665 74.5456 63.8062 80.1013 62.7844 83.6136C58.6974 83.1666 49.9487 76.4613 46.4364 74.2263C38.0709 68.9898 12.591 56.3457 9.52574 53.2166C10.3559 50.4067 12.3356 43.957 15.5924 45.0426ZM9.14258 54.1744C11.8247 56.0902 36.2828 68.9259 45.6063 74.6733C49.5017 77.0999 58.1865 83.8052 62.6567 84.4438C62.2735 86.615 60.9325 92.1707 60.1662 95.4914C57.2287 94.789 34.4309 78.3771 32.7067 77.9301C33.026 77.3554 33.6646 76.5891 34.1116 75.7589C36.2828 76.0143 51.8645 87.7006 57.8673 90.6381L59.7192 87.5729C57.8672 85.7209 42.4133 76.3975 35.6442 72.5021C35.1972 72.2466 34.1116 71.7358 33.7284 71.4803C32.7705 71.5442 32.2597 72.2466 32.0681 73.0129C32.0042 73.2684 32.1958 73.3961 32.1319 73.5238C31.4295 74.4817 30.9825 75.6312 30.3439 76.5252C29.5776 76.1421 28.8113 75.695 28.0449 75.3119C28.6197 74.6733 29.1944 73.46 29.7053 72.1828C29.7053 72.1189 30.0246 72.3105 30.0246 72.2466C30.4716 71.608 30.9186 70.9694 31.1741 70.3947C30.1523 69.1814 14.5706 59.4748 9.33416 56.6011C8.951 57.6228 8.69557 59.0278 8.31241 60.752C13.7405 63.8811 22.4253 69.6923 26.8955 71.9912C26.3846 72.6298 26.0653 72.8852 25.4906 73.7793C23.6386 73.3322 10.6752 64.0088 7.29066 61.9014C7.80154 59.9856 8.56785 56.1541 9.14258 54.1744ZM29.5776 78.9519C29.7053 78.8241 29.833 78.5048 29.9607 78.3133C30.2162 78.441 31.3018 79.0157 31.4295 79.0157C31.3656 79.1434 31.0463 79.5905 30.9825 79.6543C30.8548 79.6543 29.7691 79.0157 29.5776 78.9519ZM30.28 80.1013C30.2162 80.3568 30.0884 80.6761 29.833 80.8676C29.6414 80.8676 29.386 80.6761 29.2583 80.5483C29.3221 80.4206 29.5137 79.6543 29.6414 79.7182C29.7691 79.9098 30.0884 80.0375 30.28 80.1013ZM30.9825 77.9301C31.3656 77.0361 31.9404 76.3336 32.3235 75.5035C32.7067 75.695 32.9621 75.8228 33.026 75.8866C32.6428 76.5252 31.9404 77.547 31.4933 78.2494C31.3018 78.2494 31.1102 78.1217 30.9825 77.9301ZM48.2245 82.6557C51.162 84.5076 55.0574 87.3813 58.1865 88.7223C58.3143 88.8501 57.548 89.5525 57.4202 89.5525C51.8006 86.1041 36.9214 76.0143 34.6225 75.1203C34.5586 74.9926 34.814 74.5456 34.9418 74.354C37.2407 75.1842 45.8617 81.1869 48.2245 82.6557ZM35.3249 73.907C35.3888 73.7793 35.5803 73.3322 35.6442 73.2045C39.6673 75.9505 54.9297 84.1883 58.8251 87.6367C58.8251 87.7006 58.6336 87.8922 58.6336 88.0199C54.6104 87.1258 37.6877 74.6733 35.3249 73.907ZM34.0477 74.0985C33.6646 73.9708 33.2175 73.8431 32.9621 73.5238C32.579 73.1407 33.4091 72.1189 33.7923 72.1189C34.1116 72.0551 35.0695 72.5659 35.261 72.9491C35.261 73.3322 34.7502 74.4817 34.0477 74.0985ZM34.1116 74.8649C33.9839 74.9926 33.7284 75.5035 33.5368 75.5035C33.4091 75.3757 32.0681 74.9287 32.0042 74.7371C32.1319 74.6094 32.3235 74.0347 32.4512 73.907C33.026 74.2901 33.7284 74.5456 34.1116 74.8649ZM25.0436 76.1421C25.299 75.8228 25.3629 75.5673 25.4906 75.3757C25.8737 75.5673 26.3846 76.2059 26.7678 76.3975C26.7039 76.5252 26.3207 76.7806 26.2569 76.9084C26.0653 76.8445 25.1713 76.1421 25.0436 76.1421ZM25.6821 77.1638C25.3629 77.547 25.0436 77.8662 24.7881 78.2494C24.6604 78.1855 24.3411 77.9301 24.2772 77.9301C24.4688 77.4831 24.5965 77.1638 24.7881 76.7168C25.1074 76.8445 25.3629 76.9722 25.6821 77.1638ZM26.0014 75.1203C26.193 74.5456 27.2148 73.3961 27.7256 72.4382C27.9811 72.4382 28.4281 72.8214 28.492 72.8852C27.7256 73.5238 27.4063 74.9287 26.7678 75.5673C26.64 75.7589 26.1292 75.1842 26.0014 75.1203ZM9.2703 59.0278C13.4212 61.4544 23.9579 68.1596 27.4063 70.3308C27.4063 70.3308 27.0871 70.9056 26.9593 71.0972C23.6387 69.4368 11.4415 62.093 9.2703 60.2411C9.2703 59.9856 9.33416 59.347 9.2703 59.0278ZM27.8534 70.8417C27.9811 70.9694 29.3221 71.9273 29.4498 71.9912C29.4498 72.0551 29.1306 72.4382 29.1306 72.5021C29.0667 72.5021 27.5341 71.608 27.4702 71.608C27.3425 71.4803 27.9172 70.9694 27.8534 70.8417ZM28.0449 70.5863C27.9172 70.4586 28.7474 69.6284 29.0667 69.5645C29.4499 69.6284 30.4077 70.3308 30.5355 70.5863C30.5355 70.9056 29.8969 71.2887 29.833 71.4803C29.2583 71.2249 28.5558 70.8417 28.0449 70.5863ZM27.9172 69.6923C27.4064 69.82 13.932 61.1351 9.39802 58.3892C9.39802 58.006 9.71732 57.7506 9.71732 57.4313C13.4212 59.8579 26.0014 67.6488 28.6835 69.1175C28.6835 69.1814 28.0449 69.6923 27.9172 69.6923ZM6.97137 62.7955C11.2499 65.4775 23.3194 73.0768 25.1074 74.354C24.7881 75.3757 24.2134 76.6529 23.5748 77.994C23.8941 78.3771 24.7243 78.888 25.1074 78.9519C25.6183 78.3133 27.7256 76.0143 27.8534 75.8866C28.5558 76.2698 29.2583 76.7168 30.0246 77.0999C29.3221 78.441 29.0667 78.888 28.4281 80.8038C28.7474 81.2508 29.9607 81.5062 30.2162 81.6978C30.9186 80.8038 31.6211 79.5905 32.4512 78.7603C35.9635 80.7399 53.5248 92.4262 59.9107 96.5132C57.4202 108.199 54.9297 119.886 52.3753 131.636C52.2476 132.274 51.162 132.785 49.5017 131.7C44.7122 129.209 41.3915 124.292 36.9214 120.013C27.4702 111.073 3.96998 95.6191 2.24578 90.9574C-0.0531599 84.5715 6.07734 65.7968 6.97137 62.7955ZM53.1417 133.679C51.0982 136.617 42.541 129.273 40.2421 127.23C32.2597 120.141 24.7243 111.903 16.1671 105.453C12.591 102.771 5.11945 99.1314 3.26752 95.1721C12.7187 101.941 32.5151 117.331 37.6238 121.865C41.2638 125.122 45.9256 133.296 52.056 133.36C54.355 133.105 53.461 125.25 58.0588 108.519C59.783 100.919 61.5072 93.3202 63.2953 85.6571C64.5725 81.4424 66.1051 75.1203 64.1893 70.4586C62.2735 65.7968 55.0574 64.2004 50.3318 62.2207C45.0954 59.6663 23.1278 47.4054 16.0394 44.7233C14.9538 44.3401 13.8043 44.851 12.5271 45.3619C13.2296 44.851 15.1454 43.6377 17.125 44.5317C30.9825 50.5983 44.9677 59.4109 51.9283 62.2846C56.4623 64.1365 62.082 65.2221 64.5086 69.1814C67.2546 73.6515 64.7002 82.2087 63.6146 86.6788C59.6553 101.239 54.7381 133.168 53.1417 133.679ZM54.7381 132.53C57.2925 117.587 60.9964 101.941 64.317 87.4452C65.4665 82.4641 67.8932 73.0768 64.6363 68.4151C61.9542 64.6474 56.4623 63.434 51.9283 61.5183C46.7557 58.8362 23.5109 47.2138 19.5517 45.0426C30.0246 49.5127 42.4771 56.1541 53.908 61.646C58.442 63.6256 64.317 65.2221 66.169 69.7561C68.1486 74.4817 65.9135 85.2739 64.7641 89.5525C63.1037 96.9602 61.3795 104.368 59.7192 111.776C59.4637 113.819 56.4623 127.804 55.5045 132.274C55.5045 132.274 54.802 132.53 54.7381 132.53ZM57.8034 132.274C57.6118 132.274 56.2708 132.466 56.0792 132.466C57.4841 128.954 58.3781 125.378 59.783 121.865C61.8265 114.777 63.1037 107.369 64.5086 99.77C65.8497 92.6178 70.256 81.4424 68.3402 71.7358C69.2342 72.6298 70.1921 73.5877 71.0861 74.4817C69.4896 81.7617 67.8932 89.1055 66.3605 96.3855C64.9556 103.857 63.87 111.967 62.082 118.928C59.9107 127.102 58.3781 132.019 57.8034 132.274ZM58.6336 132.019C61.1241 128.443 61.6988 124.739 62.7844 119.63C65.9135 104.943 68.1486 89.5525 71.6609 75.6312C72.938 70.4586 78.2384 64.3281 75.0454 57.4313C72.6826 52.2587 65.7219 50.7899 61.4434 48.044C66.4883 48.7464 74.8538 53.9829 76.131 58.1337C77.9829 64.0726 74.8538 70.5224 73.3851 74.5456C70.3198 82.7196 68.8511 92.1069 66.9353 101.047C65.2749 108.774 63.4869 128.762 58.6336 132.019ZM61.3795 130.806C65.8497 116.884 67.1907 100.089 71.0223 85.2739C72.8103 78.5049 77.8552 68.6705 77.025 60.8797C78.9408 64.9667 75.3647 76.9084 74.2791 80.1652C73.7044 82.8473 73.1296 85.5932 72.6188 88.2753C70.6391 95.8107 66.169 116.948 65.8497 119.247C64.8279 123.27 63.6784 128.06 61.6988 130.614L61.3795 130.806ZM82.8362 123.398C80.665 123.909 69.5535 127.677 66.1051 129.081H65.9774C66.9353 126.719 68.0209 124.611 67.957 121.099H67.8293C66.8714 125.378 66.0412 129.209 62.4651 130.933C64.5725 127.677 65.8497 123.079 67.1269 115.99C68.6595 116.246 70.3198 116.757 72.5549 116.373C79.6433 115.096 87.5618 111.456 87.7534 111.456C87.6257 116.246 86.0931 121.738 82.8362 123.398ZM85.0075 122.632C86.5401 121.227 87.3064 119.247 87.945 117.267C89.4776 112.35 87.7534 75.3757 87.7534 72.1828C87.2425 65.7968 86.0931 60.4327 83.3471 56.2818C80.6012 52.2587 68.6595 47.1499 63.0399 46.0005C63.0399 45.9366 63.2314 45.4257 63.2314 45.4257C64.0616 45.0426 64.8279 44.851 65.6581 44.6594C70.8946 46.3836 76.2587 48.2355 81.4313 49.9597C80.1542 50.0874 78.877 50.4067 77.5359 50.5345C80.8566 52.6418 82.9001 54.1744 84.8159 57.3674C87.498 61.8376 87.8811 68.3512 88.7752 74.354C88.839 76.5252 88.9029 81.2508 88.9029 81.3785C91.1379 80.8676 93.373 80.3568 95.672 79.8459C95.7358 89.5525 96.8853 113.053 92.7344 118.608C91.4572 120.524 87.6257 122.185 85.0075 122.632ZM94.0755 118.992H93.9478C95.225 115.799 96.0551 112.286 96.566 107.816C102.249 106.986 108.061 105.453 110.487 101.239C110.615 102.835 110.807 104.432 110.934 105.964C110.87 115.479 100.717 115.99 94.0755 118.992ZM109.657 91.4683C107.23 82.7196 104.868 74.4817 102.76 65.286C108.891 70.0754 110.615 86.168 112.275 95.8107C113.042 100.409 113.553 105.837 111.956 109.285L111.637 109.413C113.042 103.091 110.998 96.3855 109.657 91.4683ZM113.361 111.009C116.107 105.39 115.468 105.39 113.68 93.2564C113.106 98.6844 117.64 107.305 112.02 110.754C112.786 109.285 113.808 107.944 114.191 106.028C114.702 103.155 113.68 99.6423 113.297 97.2795C111.892 88.5946 111.254 77.2915 107.614 70.9056C105.826 67.7126 103.144 65.2221 101.611 62.0291C103.335 63.9449 105.059 65.7968 106.847 67.7126C105.442 63.6895 101.419 61.7098 99.5035 57.8783C111.509 61.646 111.892 81.4424 114.702 94.6613C115.596 99.3868 117.32 108.774 113.361 111.009ZM73.1935 99.3868C72.2995 102.197 70.5753 104.815 70.5753 108.455H70.703C71.7247 105.773 72.7465 103.027 73.7682 100.345C75.4286 96.0023 76.5142 89.4886 78.4938 86.1041C77.1528 92.49 77.0889 101.175 76.9612 108.774C77.0889 108.838 77.1528 108.902 77.2805 108.902C78.1745 103.857 77.4721 100.153 78.1745 95.7469C79.1324 89.8079 79.7071 83.1666 81.112 77.994C81.4952 76.5252 83.2833 70.1393 82.6447 69.4368C80.8566 73.7793 80.4734 78.9519 78.6854 83.5497C76.7057 88.403 75.0454 93.6395 73.1935 99.3868Z" fill="black"/>
</svg>
