<svg width="98" height="193" viewBox="0 0 98 193" fill="none" xmlns="http://www.w3.org/2000/svg">
<path d="M82.6106 187.111H82.5452C81.5579 187.1 80.5851 186.871 79.6968 186.439C78.8085 186.008 78.0266 185.386 77.4072 184.617C74.0301 180.576 76.5524 175.555 78.3414 173.462L80.4667 175.289C80.3172 175.466 76.856 179.6 79.5325 182.818C79.8903 183.274 80.3451 183.644 80.8638 183.902C81.3825 184.159 81.9521 184.298 82.5312 184.308C83.2366 184.283 83.9287 184.109 84.5616 183.797C85.1945 183.484 85.7539 183.041 86.2026 182.496C86.6933 181.959 87.0065 181.284 87.0994 180.562H89.902C89.8162 181.964 89.2561 183.295 88.3139 184.336C87.6151 185.178 86.7449 185.86 85.7615 186.339C84.778 186.817 83.7039 187.08 82.6106 187.111Z" fill="#231F20"/>
<path d="M76.9041 18.0176C77.3105 17.9937 77.7182 18.0188 78.1186 18.0923C78.0917 18.6435 78.0214 19.1917 77.9084 19.7318C77.6782 20.8168 77.5809 21.9257 77.6188 23.0342L78.0345 24.4075L75.9933 40.9333C76.1985 41.0363 76.3811 41.1792 76.5305 41.3537C76.7737 41.6358 77.0342 41.9026 77.3105 42.1524C78.0516 36.1736 78.7912 30.1916 79.5292 24.2066L78.9921 23.3565C78.8566 20.9276 80.2906 18.5874 78.8519 16.3921C77.6048 15.0328 75.3113 16.7191 72.6629 14.7339C71.2009 13.6362 70.2807 14.7339 68.5665 14.2668C67.1419 13.8698 64.9792 12.1322 64.0824 11.2587C61.5881 11.4876 58.4399 5.8264 57.4123 8.36273C56.735 9.73599 56.5855 12.3424 56.3006 14.2902C56.1111 14.3181 55.9259 14.3699 55.7494 14.4443C54.9693 19.3768 54.8152 24.0805 54.0352 29.0177L55.4691 30.1387L56.7537 16.4435L57.6505 15.2524C57.7205 14.7573 57.7859 14.2248 57.8513 13.6783C58.0195 12.277 58.2063 10.7122 58.566 9.98355L58.7014 10.0536C59.2005 10.3803 59.6694 10.7507 60.1027 11.1606C60.8199 11.8358 61.6022 12.4382 62.4382 12.9589C62.9164 13.2423 63.4502 13.4192 64.003 13.4774C64.9729 14.3577 66.0274 15.14 67.1512 15.8129C67.623 16.0924 68.1263 16.3151 68.6506 16.4762C69.3744 16.663 70.131 16.6853 70.8646 16.5416C71.2978 16.4096 71.7643 16.4395 72.1771 16.6256L72.3453 16.7377C73.6504 17.7299 75.2816 18.1935 76.9135 18.0363L76.9041 18.0176Z" fill="black"/>
<path d="M84.1533 11.8656L83.8777 11.5293C82.1941 9.89218 80.2978 8.48919 78.2398 7.35818C71.2007 3.35517 62.4894 1.40271 59.9904 0.907591C59.5981 0.832856 59.159 0.716082 58.7012 0.594637C56.3658 -0.0125865 53.4931 -0.769281 52.2553 1.79974L52.0965 2.26684C52.0965 2.3369 50.6952 9.74036 51.4472 12.6877L51.8583 13.5472C51.5266 16.3498 51.1436 23.3095 50.7793 26.467L52.1199 27.5227C52.5449 23.8513 52.9887 16.3451 53.3623 13.2483C53.4044 13.1221 53.012 12.641 52.7084 12.3141C52.2927 10.6839 53.1755 4.69106 53.4184 3.43925C54.4787 1.23923 57.9726 2.72926 60.1352 3.16366C65.0584 4.14923 77.3617 7.36752 83.3592 13.3931C84.4756 15.0326 83.4059 21.5812 83.0789 25.4908C83.0556 25.7664 82.439 26.0326 82.3036 26C81.5422 31.7406 80.7762 37.6773 80.0101 43.5534C80.4872 43.7303 80.9549 43.9314 81.4114 44.1559L81.6496 42.3249C82.2802 37.4952 82.9061 32.6607 83.518 27.9431C83.7975 27.7608 84.0286 27.5134 84.1913 27.2222C84.354 26.9309 84.4436 26.6044 84.4522 26.2709C84.5223 25.4628 84.625 24.5193 84.7325 23.5243C85.2696 18.5031 85.7414 14.1965 84.1533 11.8656Z" fill="black"/>
<path d="M53.5628 11.9542C53.5254 11.9308 53.1938 11.6412 53.1564 11.6226C53.0397 11.6226 53.0397 12.1224 52.9883 12.2204C53.1051 12.2858 53.3293 12.5147 53.4554 12.5801C53.418 12.44 53.5908 12.0943 53.5628 11.9542Z" fill="white"/>
<path d="M78.851 16.3777C80.2897 18.573 78.851 20.9132 78.9911 23.3421L79.5283 24.2062C78.7903 30.1788 78.0507 36.1607 77.3096 42.152C77.4497 42.2828 77.5945 42.4089 77.7393 42.5303C78.6735 35.2296 79.6638 26.9107 79.9814 23.1599L82.0553 24.5285C81.5228 28.4988 80.5512 36.3133 79.617 43.3758L80.0094 43.5206C80.7754 37.6258 81.5415 31.7077 82.3028 25.9671C82.4383 25.9998 83.0549 25.7336 83.0782 25.458C83.4052 21.5484 84.4795 14.9997 83.3585 13.3602C77.361 7.3347 65.0577 4.11642 60.1345 3.13084C57.9718 2.69645 54.478 1.20641 53.4177 3.40643C53.1561 4.66292 52.292 10.6558 52.7077 12.2812C53.0113 12.6129 53.4037 13.094 53.3616 13.2154C52.9879 16.3123 52.5442 23.8185 52.1191 27.4899L52.5395 27.8215C53.0066 23.8839 53.4457 16.1441 53.8941 12.2252C54.4756 12.506 54.9484 12.9706 55.2393 13.5471C54.7349 17.3446 54.2164 24.9349 53.7119 28.737C53.8521 28.8444 53.9922 28.9519 54.1277 29.064C54.5947 25.4533 55.0618 18.0592 55.5289 14.4532C55.8979 14.4159 55.9306 14.2991 56.2996 14.2617C56.5846 12.3139 56.734 9.70755 57.4113 8.33429C58.4389 5.79796 61.5872 11.4592 64.0815 11.2303C64.9783 12.1037 67.1409 13.8413 68.5656 14.2384C70.2798 14.7055 71.2 13.6078 72.662 14.7055C75.3104 16.7046 77.6039 15.0184 78.851 16.3777ZM83.4005 14.3131C83.8676 17.3492 83.2043 21.3195 82.8867 24.8134L81.7517 23.6176C82.0179 20.8151 82.471 17.8864 82.3402 15.2099C82.2748 13.9581 78.8323 11.0388 78.0102 10.1933C78.0149 10.1326 82.7653 12.5615 83.4005 14.3131ZM53.4457 12.5802C53.3289 12.5148 53.1047 12.2859 52.9786 12.2205C53.03 12.1224 53.03 11.632 53.1468 11.6226C53.1841 11.6226 53.5158 11.9309 53.5531 11.9543C53.5905 12.0944 53.4177 12.4401 53.4457 12.5802ZM55.982 13.421L54.8797 12.0524C55.1039 8.95552 55.6364 6.44722 56.7761 5.51303C57.402 5.01324 58.2381 6.81156 58.3502 6.93767C56.6126 6.65741 56.295 9.95511 55.982 13.421ZM58.6725 6.81155C58.6725 6.75083 57.8924 5.48968 57.8971 5.41027C59.7982 5.92407 61.9235 8.60987 63.5023 8.75C63.4206 9.28052 63.472 9.82301 63.6517 10.3288C61.7463 9.54993 60.0434 8.34707 58.6725 6.81155ZM64.357 10.6371C64.1239 10.1232 64.0166 9.56117 64.0441 8.99756C64.8766 9.95385 65.9494 10.6706 67.1515 11.0738C68.3536 11.4769 69.6416 11.5519 70.8824 11.291C70.8613 11.9115 70.9547 12.5307 71.158 13.1173C69.7427 14.3458 66.3375 12.5522 64.357 10.6371ZM70.462 10.4923C69.4811 10.4035 68.276 10.595 67.0755 10.24C64.0488 9.34321 58.523 3.57458 56.2062 4.98988C55.1926 5.60645 54.6181 9.09565 54.4313 11.6133L53.03 10.8192C53.2355 8.45106 53.5625 5.01324 54.137 3.44847C54.6601 1.86969 80.5185 7.47483 81.8311 15.6537C81.7563 17.9891 81.3967 20.9692 81.1538 23.0478C80.7287 22.8049 80.2196 22.5807 79.8086 22.3191C80.8969 11.618 77.7627 12.2532 73.2692 11.7207C72.2369 11.6507 71.3588 10.8846 70.462 10.4923ZM71.7558 13.1127C71.4429 12.8091 71.3541 11.7441 71.3635 11.6273C73.6289 13.2108 75.3431 11.8468 78.0149 13.2948C79.0705 14.1263 79.6264 16.2609 79.6778 16.6626C77.8281 13.7759 75.0442 16.77 71.7558 13.1127Z" fill="black"/>
<path d="M38.8535 173.681C40.9066 174.268 42.8859 175.088 44.7529 176.124C46.2803 177.03 47.5835 178.716 47.6349 179.015C48.2468 182.687 50.2647 187.115 50.2647 187.115L53.0672 188.684L56.5798 188.269L57.2664 178.394L60.9752 176.362L59.2609 190.072C59.2609 190.072 56.9254 192.108 54.4779 192.22C52.0303 192.332 47.4714 188.269 47.4714 188.269L43.9916 177.637C43.9916 177.637 40.5444 174.274 38.8535 173.681Z" fill="#231F20"/>
<path d="M53.7198 177.946L52.8418 189.436L53.3075 189.471L54.1856 177.981L53.7198 177.946Z" fill="#231F20"/>
<path fill-rule="evenodd" clip-rule="evenodd" d="M8.95127 153.676L9.41837 163.134C9.41837 163.134 10.2311 165.003 10.3526 165.255C10.474 165.507 15.0562 168.838 15.3131 168.856C15.57 168.875 19.3348 168.642 19.3348 168.642L20.3064 167.745L21.4507 163.438L22.3055 160.309L19.9327 159.029L17.345 165.255L15.3131 165.18L12.1135 163.433L10.8524 152.961L8.75977 151.308L8.95127 153.676Z" fill="black"/>
<path d="M15.0687 164.956L14.6016 164.881C14.8678 163.289 15.8067 158.057 16.5167 157.618C17.2266 157.179 19.4126 158.431 20.0572 158.828L19.8097 159.225C18.6092 158.477 17.1052 157.8 16.7642 158.015C16.4232 158.23 15.6105 161.766 15.0687 164.956Z" fill="black"/>
<path d="M56.3043 178.721C54.9662 178.687 53.6414 178.448 52.376 178.011C49.6735 177.057 47.0679 175.848 44.5942 174.401L44.5475 174.368L8.88477 148.402L9.43127 147.65L45.0893 173.597C47.5015 175.009 50.0412 176.189 52.6749 177.124C55.5336 178.035 57.7383 177.993 59.2143 176.984C61.7039 175.298 61.9888 171.206 62.2177 167.917L62.2504 167.45C62.6755 161.56 65.9264 72.205 65.6041 68.4775C65.5574 67.9731 65.5481 67.3752 65.5341 66.6792C65.4593 62.0083 65.3099 53.3343 54.0108 47.0098C50.0826 44.8051 14.0228 27.8075 13.6351 27.6394L14.0228 26.7939C15.5082 27.4946 50.4936 43.9737 54.4499 46.1877C66.216 52.7691 66.3702 61.8027 66.4496 66.6559C66.4496 67.3331 66.4496 67.917 66.515 68.3888C66.8419 72.1255 63.5863 161.612 63.1659 167.506L63.1332 167.974C62.8856 171.463 62.5867 175.807 59.7187 177.745C58.7069 178.411 57.5154 178.752 56.3043 178.721Z" fill="black"/>
<path d="M9.03462 153.358L8.28727 149.108L6.26942 147.65C4.03203 145.801 0.290599 142.704 0.0103419 131.382C-0.251232 119.732 4.53182 40.0457 4.98491 36.0053C4.98491 35.3747 5.14839 30.4002 7.90892 27.8311C8.50742 27.2704 9.21861 26.8436 9.99507 26.5794C10.7715 26.3152 11.5954 26.2197 12.4117 26.2991L12.2903 28.1675C11.7298 28.1055 11.1626 28.1653 10.6273 28.3426C10.0921 28.52 9.60137 28.8107 9.18877 29.1951C6.89066 31.339 6.85329 36.0193 6.85329 36.066V36.1875C6.43757 39.4104 1.61248 119.657 1.87872 131.339C2.13563 141.807 5.47069 144.568 7.48387 146.202L7.68005 146.366L10.0155 148.019L10.8983 153.027L9.03462 153.358Z" fill="black"/>
<path d="M55.4088 175.19C54.1577 175.161 52.9188 174.936 51.7375 174.522C39.1726 170.421 9.38126 145.651 9.09166 145.404L8.88613 145.226C6.8496 143.512 3.43513 140.635 3.19224 130.036C2.93534 118.91 7.4288 42.6474 7.83517 39.1442C7.83517 38.6444 7.95661 33.2354 11.1048 31.1055C12.6603 30.0498 14.6688 29.9938 17.0696 30.942H17.1023C17.4293 31.1008 49.8924 46.94 53.7039 48.7757C63.6344 53.5587 64.6713 65.7686 65.017 69.795V69.9818C65.3253 73.5504 62.2798 158.865 61.8874 164.485L61.8547 164.952C61.6259 168.301 61.3409 172.472 58.6084 174.294C57.6571 174.909 56.5415 175.222 55.4088 175.19ZM13.9261 31.2035C13.0962 31.1817 12.28 31.4184 11.5906 31.8808C8.78804 33.7866 8.75068 39.1161 8.75068 39.1722V39.2376C8.36766 42.3204 3.85552 118.882 4.11242 130.022C4.34597 140.205 7.55491 142.909 9.47467 144.502L9.68487 144.68C14.4399 148.725 40.9382 170.015 52.013 173.64C54.6521 174.499 56.684 174.466 58.0853 173.537C60.4208 171.949 60.7057 168.03 60.9206 164.882L60.9533 164.414C61.3503 158.809 64.3911 73.6205 64.0875 70.0612V69.8744C63.7605 65.9928 62.7516 54.1753 53.3069 49.6258C49.5234 47.8088 17.5834 32.2312 16.6913 31.8014C15.8145 31.4327 14.8769 31.23 13.9261 31.2035Z" fill="black"/>
<path d="M60.0078 178.543L59.5407 176.731C59.7182 176.689 77.0288 172.294 83.3626 169.542C89.6964 166.791 92.0272 161.368 92.0272 157.594C92.0272 156.964 92.2047 155.282 92.4943 152.498C93.2791 144.983 94.9186 129.344 95.1474 112.795C95.4183 93.2751 93.9143 71.0367 93.3118 64.1097C92.1814 51.1385 88.8977 49.2327 86.2539 47.7007C85.9877 47.5465 85.7261 47.397 85.4786 47.2336C82.6993 45.5006 51.2685 28.2134 50.9509 28.0359C50.8901 28.0032 45.6914 25.1213 40.0862 24.2992C34.4811 23.4771 12.21 28.0733 11.9858 28.12L11.6074 26.289C12.5416 26.0975 34.4017 21.618 40.3525 22.4495C46.3033 23.2809 51.6328 26.2656 51.857 26.3918C53.1696 27.0924 83.6662 43.9078 86.4875 45.6454C86.721 45.7902 86.9546 45.9304 87.2162 46.0798C90.0701 47.7333 93.9797 50.0034 95.1941 63.9416C95.8014 70.8873 97.3101 93.2144 97.0392 112.809C96.8103 129.456 95.1708 145.151 94.3721 152.694C94.1105 155.231 93.905 157.062 93.905 157.594C93.905 161.933 91.3406 168.118 84.096 171.257C77.6407 174.069 60.7318 178.361 60.0078 178.543Z" fill="black"/>
<path d="M84.1109 170.687L83.3775 170.108C83.4149 170.061 87.2311 165.171 87.4132 160.224C88.6977 124.982 89.66 56.8703 84.1436 51.3259C82.42 49.5929 77.5248 47.0753 69.4161 42.9181C62.7226 39.4757 53.5582 34.758 41.8948 28.2794C40.0264 27.2331 33.445 24.2857 30.0212 24.5426L29.9512 23.6084C33.9308 23.3235 41.1054 26.7847 42.3479 27.476C54.0019 33.9452 63.157 38.6582 69.8458 42.1007C78.3142 46.4587 82.9805 48.8596 84.7928 50.7C91.9814 57.9166 88.4922 156.114 88.3428 160.29C88.1559 165.517 84.2744 170.491 84.1109 170.687Z" fill="black"/>
<path d="M76.1468 173.472L75.5676 172.743C77.1951 171.329 78.3792 169.475 78.9774 167.404C79.3417 166.003 79.2763 145.918 78.8092 112.287C78.4356 85.8398 77.9171 58.8884 77.7816 57.3003C77.5341 54.3436 74.512 49.9062 72.6436 48.4722C69.5381 46.1589 66.2797 44.0584 62.8906 42.1851L63.3577 41.3677C66.7903 43.2626 70.0894 45.3897 73.2321 47.7342C75.2453 49.3036 78.4309 53.9793 78.7018 57.2209C78.7765 58.0897 80.9018 163.672 79.8695 167.652C79.2348 169.919 77.9387 171.945 76.1468 173.472Z" fill="black"/>
<path d="M65.7112 43.7967C64.5855 43.2362 59.8492 40.8213 54.3655 38.0234C45.173 33.3525 33.7385 27.5044 32.0617 26.729C30.3848 25.9537 24.8357 24.9821 24.7656 24.9728L24.9291 24.0386C25.158 24.0806 30.6417 25.0335 32.44 25.8649C34.1309 26.6496 45.5794 32.4883 54.7765 37.178C60.2555 39.9805 64.9919 42.3908 66.1129 42.9419L65.7112 43.7967Z" fill="black"/>
<path d="M61.8581 177.39L61.3583 176.6C63.3762 175.335 64.5252 171.112 64.7728 167.492C65.1184 162.438 68.7431 67.8839 68.3227 61.4847C67.8836 54.7865 63.5069 50.9704 59.0602 47.64C57.5795 46.5283 44.1926 39.8582 34.4209 34.9817C28.4141 31.9876 23.6777 29.6241 22.6548 29.0449C20.0671 27.5596 12.9392 27.4708 12.8691 27.4708V26.5366C13.1728 26.5366 20.3146 26.63 23.1125 28.2322C24.1121 28.7974 29.082 31.2963 34.8366 34.1503C45.1875 39.2883 58.07 45.7296 59.6207 46.8926C64.0348 50.1997 68.7898 54.3288 69.2569 61.424C69.724 68.6826 65.7583 166.768 65.707 167.553C65.4641 171.131 64.3057 175.848 61.8581 177.39Z" fill="black"/>
<path d="M64.8948 176.961L64.2502 176.284C64.2735 176.284 66.5343 174.051 66.8472 169.94C67.291 163.99 70.7568 63.5127 70.3691 59.3976C69.9488 54.9462 68.2392 51.8914 59.2243 45.5762C52.1197 40.597 20.7356 26.1124 20.418 25.9582L20.8103 25.1128C22.1042 25.706 52.5728 39.7796 59.7614 44.8055C69.0239 51.2935 70.8596 54.6519 71.2987 59.2855C71.6864 63.4146 68.2252 164.032 67.7768 169.987C67.4405 174.499 64.9976 176.863 64.8948 176.961Z" fill="black"/>
<path d="M70.0053 175.227L69.4074 174.508C71.3832 172.878 72.6304 168.029 73.4571 158.79C74.3913 148.337 74.0083 59.953 73.4058 55.4688C73.1208 53.3482 70.4257 49.5134 59.192 43.2963C56.24 41.6568 42.0964 34.3094 33.6419 29.9187L27.7145 26.8359C25.8508 25.8457 22.4597 25.6915 22.4316 25.6915L22.4737 24.7573C22.6185 24.7573 26.1124 24.9255 28.1676 26.0138C28.7047 26.2987 30.9701 27.4805 34.0857 29.0966C42.5401 33.4873 56.6884 40.8394 59.6545 42.4836C68.945 47.6216 73.8869 51.9563 74.34 55.3521C74.9425 59.8409 75.3349 148.407 74.396 158.874C73.5272 168.511 72.2147 173.401 70.0053 175.227Z" fill="black"/>
<path d="M92.9624 161.761L89.4545 167.521C89.4545 167.521 88.9874 177.591 85.998 180.211C85.998 180.211 85.4234 178.81 84.3725 178.558C83.3215 178.306 82.6255 179.67 82.6255 179.67L82.6536 174.532C82.6536 174.532 82.8638 173.462 81.9669 173.065C81.715 172.949 81.5114 172.749 81.3912 172.499C81.271 172.249 81.2417 171.965 81.3083 171.696C81.0656 171.71 80.8223 171.71 80.5797 171.696C80.4302 171.673 80.5797 173.238 80.5797 173.238C80.5797 173.238 81.8128 173.705 81.9809 174.541C82.1491 175.377 81.8735 177.811 81.8735 177.811C81.5933 176.518 81.0137 175.309 80.1814 174.281C79.349 173.254 78.2872 172.435 77.0811 171.893L76.0488 172.462C77.0963 172.906 78.0421 173.56 78.8281 174.382C79.9538 175.648 81.327 177.147 82.6769 182.72C82.6769 182.72 82.0884 183.939 81.355 183.747C81.355 183.747 82.9525 185.228 84.4799 185.518C85.6243 185.737 92.4532 187.115 92.9624 161.761Z" fill="#231F20"/>
<path d="M84.1624 182.425H84.055C83.373 182.355 82.8826 181.608 82.9713 180.753C83.0601 179.898 83.6813 179.254 84.3726 179.352C85.0639 179.45 85.545 180.169 85.4563 181.024C85.4189 181.411 85.2547 181.776 84.9892 182.061C84.8831 182.174 84.7552 182.265 84.6131 182.328C84.471 182.39 84.3177 182.423 84.1624 182.425ZM84.2652 179.786C83.8588 179.786 83.4898 180.225 83.4337 180.795C83.3777 181.365 83.672 181.911 84.1017 181.958C84.2077 181.965 84.3137 181.946 84.4111 181.904C84.5085 181.862 84.5946 181.797 84.6622 181.715C84.8518 181.502 84.9666 181.233 84.9892 180.949C85.0499 180.351 84.751 179.833 84.3212 179.786H84.2652Z" fill="white"/>
<path d="M83.7512 185.649C83.5134 185.649 83.276 185.63 83.0412 185.593C82.4965 185.519 81.9758 185.322 81.5185 185.017C81.0612 184.712 80.6795 184.306 80.4021 183.832C79.0896 181.548 81.4017 178.25 81.4998 178.11L81.8828 178.381C81.8595 178.413 79.6455 181.571 80.8038 183.598C81.0477 184.012 81.3827 184.365 81.7833 184.631C82.1838 184.896 82.6396 185.067 83.116 185.13C83.6274 185.222 84.1524 185.207 84.6575 185.085C85.1626 184.962 85.6366 184.736 86.0493 184.42L86.3623 184.766C85.6239 185.36 84.6986 185.673 83.7512 185.649Z" fill="#231F20"/>
<path d="M81.7522 185.808C80.2996 184.957 79.4167 183.836 79.2019 182.477C78.7021 179.712 80.9301 176.961 81.0236 176.849L81.3879 177.143C81.3645 177.171 79.2019 179.843 79.6596 182.398C79.8792 183.617 80.6592 184.626 81.9951 185.401L81.7522 185.808Z" fill="#231F20"/>
<path d="M80.1127 185.816C75.9649 182.308 80.365 175.825 80.4117 175.76L80.7947 176.026C80.7526 176.087 76.5908 182.224 80.4163 185.461L80.1127 185.816Z" fill="#231F20"/>
<path d="M21.1546 159.583L20.084 161.114L43.8717 177.746L44.9423 176.215L21.1546 159.583Z" fill="black"/>
<path d="M67.4878 98.5588C67.5532 98.4887 70.1082 98.0169 70.3231 98.1944C70.538 98.3719 70.4773 99.8246 70.538 100.661C70.5987 101.497 70.538 102.062 71.1265 102.529C71.7151 102.996 72.6773 103.51 72.6259 104.243C72.6543 105.526 72.7982 106.803 73.0556 108.059C73.2098 108.527 74.214 111.549 74.2981 111.796C74.3822 112.044 74.6064 113.198 74.6064 113.198C74.6064 113.198 74.4102 114.244 74.1066 114.426C73.6073 114.635 73.0876 114.792 72.5558 114.893C72.4764 114.893 71.2106 114.851 71.2106 114.851V119.494C71.2106 119.494 70.3278 120.372 69.6038 120.386C68.8798 120.4 67.1329 120.031 66.5817 120.031H66.0305C66.0305 120.031 65.8203 111.665 65.8203 109.755C65.8203 107.845 66.0912 107.111 66.6751 106.682C67.259 106.252 67.343 103.603 67.2543 102.865C67.1656 102.127 66.4416 99.6845 67.4878 98.5588Z" fill="black"/>
<path d="M67.8145 98.9463V101.086L68.8888 102.692L69.2438 102.875C69.2438 102.875 70.178 102.02 70.1406 98.9463H67.8145Z" fill="white"/>
<path d="M69.2517 102.944L68.8453 102.739L67.7383 101.104V98.8853H70.1765V98.9413C70.2326 102.01 69.3031 102.879 69.2657 102.916L69.2517 102.944ZM68.9294 102.65L69.233 102.8C69.3825 102.631 70.1158 101.669 70.0784 99.002H67.8737V101.067L68.9294 102.65Z" fill="black"/>
<path d="M70.4942 102.692L70.7231 103.224L69.957 103.407L70.1345 102.874L70.4942 102.692Z" fill="white"/>
<path d="M69.8691 103.491L70.0887 102.833L70.5231 102.613L70.808 103.263L69.8691 103.491ZM70.1868 102.912L70.0466 103.328L70.6445 103.183L70.467 102.772L70.1868 102.912Z" fill="black"/>
<path d="M72.4609 103.809C72.562 104.143 72.617 104.488 72.6244 104.837C72.5399 104.5 72.4852 104.156 72.4609 103.809Z" fill="white"/>
<path d="M72.7422 106.579L72.957 107.756L72.8496 107.681L72.7422 106.579Z" fill="white"/>
<path d="M69.6072 104.094L71.569 104.122L73.9418 112.8C73.9418 112.8 71.639 111.703 70.7936 110.442C69.9481 109.18 69.5277 104.785 69.6072 104.094Z" fill="white"/>
<path d="M68.1367 103.052C68.4344 103.385 68.6334 103.794 68.7113 104.234C68.7113 104.734 68.5852 104.79 68.5291 104.837C68.473 104.883 68.1367 105.276 68.1367 105.276H67.9219C67.9219 105.276 68.3329 103.543 68.1367 103.052Z" fill="white"/>
<path d="M68.4492 105.831L70.5698 112.515L70.6726 112.337C70.6726 112.337 69.1685 107.667 69.2479 107.036C69.2502 106.467 69.1586 105.902 68.977 105.364L68.4492 105.831Z" fill="white"/>
<path d="M71.9236 113.407L71.7461 113.944H73.5304V113.407H71.9236Z" fill="white"/>
<path d="M67.9965 107.334C67.9965 107.334 70.1732 113.01 70.332 113.944C70.4908 114.878 70.9766 117.681 70.3694 118.465C69.7622 119.25 67.6416 119.479 67.6416 119.479L67.45 113.407C67.45 113.407 67.1698 108.899 67.9965 107.334Z" fill="white"/>
<path d="M67.104 107.518L66.7443 111.254C66.7443 111.254 66.4267 108.288 67.104 107.518Z" fill="white"/>
<path d="M40.2455 31.1797C40.2455 31.1797 39.9045 27.91 42.4735 27.2141C45.0425 26.5181 49.7742 28.0829 49.7742 28.0829C49.7742 28.0829 67.0988 36.8502 67.4351 37.3921C67.7714 37.9339 67.8134 42.1845 64.0206 42.3012L63.8431 41.1942L64.0767 38.6812L57.6541 34.7763L44.4914 28.6387L40.2455 31.1797Z" fill="white"/>
<path d="M63.6249 42.7829L63.3774 41.2087L63.5875 38.9293L57.4359 35.1926L44.5207 29.167L39.8498 31.9696L39.775 31.2409C39.6442 29.9658 40.0132 27.3921 42.3534 26.7802C45.0252 26.0749 49.7195 27.5882 49.9157 27.6536L49.9811 27.6817C61.5557 33.539 67.5625 36.7293 67.8288 37.1637C68.095 37.5981 68.1978 39.3777 67.4411 40.779C67.115 41.3968 66.6232 41.9115 66.0209 42.2655C65.4186 42.6194 64.7297 42.7986 64.0313 42.7829H63.6249ZM64.3162 41.176L64.4143 41.802C64.8459 41.7607 65.2621 41.6198 65.6301 41.3904C65.9981 41.1611 66.3078 40.8494 66.5349 40.4801C67.0217 39.6322 67.2031 38.643 67.0487 37.6775C66.1145 36.9628 56.1747 31.8575 49.598 28.5271C49.1777 28.3963 44.8944 27.0698 42.5916 27.677C41.1483 28.0553 40.7933 29.4613 40.7232 30.3628L44.46 28.1207L57.8937 34.3845L64.5684 38.4435L64.3162 41.176Z" fill="#231F20"/>
<path d="M40.246 31.1802C40.246 31.1802 39.8864 29.1203 42.1144 27.8498C44.3425 26.5793 65.9363 37.3085 65.5065 39.0601C65.0768 40.8117 66.2586 41.2134 63.3252 42.5213L62.1341 41.5731C62.1341 41.5731 63.9698 40.4848 63.1244 39.5132C62.2789 38.5417 48.9947 31.6333 47.3506 30.7365C45.7064 29.8397 41.9883 28.9569 41.6707 31.2036L41.3717 31.8669L40.246 31.1802Z" fill="#231F20"/>
</svg>
