<svg width="42" height="42" viewBox="0 0 42 42" fill="none" xmlns="http://www.w3.org/2000/svg">
<path d="M10.1942 30.3332C8.5615 25.6607 5.89168 17.9964 5.24375 15.994C4.45247 13.5479 5.73513 13.5479 6.98101 13.5479H10.3019C11.0498 13.5479 11.7224 14.0116 12.0002 14.719L14.3258 20.0967C14.7563 21.0923 15.7149 21.7429 16.7827 21.7643L21.3196 21.8553C22.7465 21.884 24.0268 22.7551 24.599 24.0867L25.8347 26.9624C25.9804 27.3014 26.3092 27.5204 26.6726 27.5204H28.7067C29.8117 27.5204 30.8082 28.1944 31.2388 29.2308C31.6771 30.2859 32.242 31.639 32.7015 32.7182C32.9662 33.3398 32.5189 34.0409 31.8537 34.0409H15.3589C13.0397 34.0409 10.9718 32.5586 10.1942 30.3332Z" fill="#8F969D"/>
<path d="M13.6997 36.137C13.6997 35.8797 13.9083 35.6712 14.1655 35.6712H30.1537C30.411 35.6712 30.6195 35.8797 30.6195 36.137C30.6195 37.1659 29.8005 38 28.7903 38H15.5289C14.5187 38 13.6997 37.1659 13.6997 36.137Z" fill="#8F969D"/>
<path d="M17.8192 10.5205C19.5871 10.5205 21.0202 9.06085 21.0202 7.26026C21.0202 5.45967 19.5871 4 17.8192 4C16.0513 4 14.6182 5.45967 14.6182 7.26026C14.6182 9.06085 16.0513 10.5205 17.8192 10.5205Z" fill="#fff"/>
<path d="M16.6772 18.4376C16.9096 19.3252 17.1798 20.2137 17.5025 21.0522L21.8502 21.1311C23.2618 21.1567 24.5331 22.0075 25.1164 23.317L26.3445 26.0738C27.6573 26.111 28.8328 26.1201 29.9745 26.1224C30.6543 26.1237 31.2779 26.507 31.5939 27.12L35.4248 34.9724C36.1108 36.3697 38.3972 35.2053 37.9399 34.0409C36.9548 31.5326 34.053 24.9588 34.053 24.9588C34.053 24.9588 33.595 23.3288 31.7659 22.8628C30.9712 22.6604 27.5827 21.7536 25.21 21.0608C24.5958 20.8814 24.1257 20.3799 23.9599 19.7515C22.4889 14.1784 21.3373 11.6977 18.9641 11.9173C16.4519 12.1497 15.7627 14.9445 16.6772 18.4376Z" fill="#fff"/>
</svg>
