<svg width="80" height="35" viewBox="0 0 80 35" fill="none" xmlns="http://www.w3.org/2000/svg">
<path d="M55.1864 10.4108C50.2238 19.2041 51.0116 29.009 56.9456 32.3103C62.1175 35.1879 69.4909 32.1738 74.5854 25.5311C69.9043 33.022 62.2758 36.8285 56.5505 34.1371C50.1784 31.1413 48.5792 21.2344 52.9784 12.009C56.1776 5.30123 61.6666 0.805016 66.8739 0C62.56 1.40426 58.1725 5.11954 55.1864 10.4108Z" fill="white"/>
<path d="M75.579 21.5738L77.1184 21.0188L75.5824 22.8749C75.5791 22.8784 75.5767 22.8823 75.5744 22.886L75.5728 22.8886L74.9268 22.5559C74.8994 22.542 74.8795 22.5161 74.8732 22.4859C74.8666 22.4558 74.8743 22.4239 74.8935 22.4002L75.5333 21.6062C75.5452 21.5914 75.5613 21.5802 75.579 21.5738Z" fill="white"/>
<path d="M79.8582 19.2322C79.8599 19.2335 79.8611 19.2349 79.8628 19.2362C80.1991 19.5373 79.8632 20.1822 79.437 20.6859L78.5319 21.7787L78.4688 24.7529C78.4681 24.7762 78.4602 24.7978 78.446 24.8159C78.3117 24.9816 78.2291 25.0852 78.1494 25.1852L78.1033 25.2429C78.038 25.3248 77.965 25.4162 77.8598 25.5459C77.8491 25.5594 77.8349 25.5698 77.8192 25.5762C77.8044 25.5825 77.7881 25.5854 77.7715 25.5845C77.7377 25.5823 77.7069 25.5638 77.6896 25.5347L76.7301 23.954L75.4927 25.4469C75.4655 25.4797 75.4212 25.4923 75.3806 25.4797L73.1559 24.7683C73.1233 24.7581 73.098 24.732 73.0881 24.6994C73.0785 24.6666 73.0858 24.6311 73.1078 24.6047L73.626 23.9785C73.648 23.9523 73.6816 23.9382 73.7161 23.9413L74.8783 24.0488C74.8783 24.0488 77.9462 20.3205 78.6434 19.6349C78.6551 19.6226 78.9401 19.3332 79.2582 19.199C79.5608 19.0717 79.7515 19.1467 79.8582 19.2322Z" fill="white"/>
<path fill-rule="evenodd" clip-rule="evenodd" d="M10.0542 16.6673C10.0542 17.5391 9.94377 18.339 9.72335 19.0655C9.50251 19.7924 9.1861 20.4172 8.77349 20.9405C8.36047 21.4637 7.84497 21.8707 7.22596 22.1614C6.60694 22.4519 5.90574 22.5974 5.12319 22.5974C4.59661 22.5974 4.11248 22.532 3.67164 22.4014C3.23038 22.2704 2.86734 22.1252 2.58292 21.9652V26.391H0V11.3259C0.526372 11.1808 1.17404 11.0425 1.94258 10.9115C2.71091 10.7809 3.52211 10.7155 4.37598 10.7155C5.25828 10.7155 6.04815 10.8538 6.74559 11.1297C7.44261 11.4059 8.03716 11.8021 8.52798 12.318C9.0188 12.834 9.39586 13.4592 9.65936 14.1928C9.92244 14.9268 10.0542 15.7516 10.0542 16.6673ZM7.40727 16.7109C7.40727 15.5333 7.14733 14.6179 6.62806 13.964C6.10838 13.3099 5.27271 12.9827 4.1198 12.9827C3.87763 12.9827 3.62521 12.9935 3.36192 13.0153C3.09842 13.0371 2.8391 13.0844 2.58272 13.1571V19.6761C2.81025 19.8362 3.11264 19.9851 3.48991 20.123C3.86675 20.2613 4.26911 20.33 4.69594 20.33C5.63513 20.33 6.32169 20.003 6.75605 19.3487C7.18999 18.6948 7.40727 17.8157 7.40727 16.7109Z" fill="white"/>
<path fill-rule="evenodd" clip-rule="evenodd" d="M11.9652 14.0727C11.6733 14.8287 11.5275 15.7078 11.5275 16.7107C11.5275 17.5685 11.6413 18.3567 11.8688 19.0762C12.0963 19.7958 12.4451 20.4208 12.9148 20.9513C13.3843 21.4819 13.982 21.8963 14.7079 22.1939C15.4338 22.4914 16.2876 22.6407 17.2695 22.6407C17.6537 22.6407 18.0305 22.6189 18.4009 22.5755C18.7708 22.5317 19.1161 22.4773 19.4363 22.4121C19.7564 22.3463 20.041 22.274 20.2901 22.1939C20.539 22.1141 20.7347 22.0377 20.8771 21.9648L20.5356 19.8062C20.2368 19.9372 19.8275 20.0608 19.3083 20.1769C18.7886 20.2935 18.216 20.3513 17.5899 20.3513C16.5223 20.3513 15.7077 20.1006 15.1456 19.5992C14.5833 19.0978 14.2668 18.3893 14.1957 17.4736H21.5608C21.5748 17.3285 21.5854 17.1651 21.5928 16.9832C21.5997 16.8017 21.6034 16.6381 21.6034 16.4927C21.6034 14.5598 21.1728 13.1059 20.3119 12.1323C19.4507 11.1587 18.252 10.6716 16.7149 10.6716C16.0601 10.6716 15.4198 10.7988 14.7936 11.0532C14.1673 11.3076 13.6123 11.6855 13.1286 12.1867C12.6446 12.6884 12.2567 13.3169 11.9652 14.0727ZM18.8708 14.4981C18.9701 14.825 19.0201 15.1705 19.0201 15.5334L14.2169 15.5338C14.2597 15.1995 14.3377 14.8727 14.4517 14.5527C14.5655 14.2332 14.7257 13.9496 14.9321 13.7025C15.1383 13.4554 15.3911 13.2554 15.69 13.1028C15.9888 12.9502 16.3374 12.874 16.736 12.874C17.1204 12.874 17.4512 12.9429 17.7287 13.0808C18.006 13.2193 18.2411 13.408 18.4331 13.6476C18.6253 13.8877 18.771 14.1709 18.8708 14.4981Z" fill="white"/>
<path d="M23.6306 7.94644L26.2135 7.5104V10.9551H30.184V13.1569H26.2135V17.8008C26.2135 18.7163 26.3555 19.3705 26.6405 19.763C26.9249 20.1554 27.4091 20.3514 28.0921 20.3514C28.5618 20.3514 28.9779 20.3007 29.341 20.199C29.7038 20.0977 29.992 20.0028 30.2055 19.9156L30.6325 22.0086C30.3337 22.1396 29.9422 22.2739 29.4585 22.412C28.9746 22.5499 28.4051 22.6188 27.7508 22.6188C26.9536 22.6188 26.2884 22.51 25.7549 22.292C25.2212 22.0738 24.7977 21.758 24.4848 21.3437C24.1716 20.9295 23.9512 20.428 23.823 19.8394C23.6948 19.2507 23.631 18.5786 23.631 17.8226L23.6306 7.94644Z" fill="white"/>
<path fill-rule="evenodd" clip-rule="evenodd" d="M37.976 10.9984C37.3924 10.7806 36.6738 10.6716 35.8199 10.6716C35.1081 10.6716 34.4393 10.7299 33.813 10.846C33.1866 10.9625 32.7098 11.0787 32.3827 11.1948L32.7029 13.3314C33.0158 13.2151 33.4213 13.1134 33.9196 13.0262C34.4175 12.939 34.9657 12.8954 35.5633 12.8954C36.0044 12.8954 36.3708 12.9535 36.6627 13.0698C36.9542 13.1863 37.1891 13.3497 37.3673 13.5602C37.545 13.7712 37.6695 14.015 37.7408 14.2907C37.8119 14.5669 37.8476 14.8576 37.8476 15.1628V15.599C37.4917 15.5116 37.1571 15.45 36.8442 15.4136C36.5312 15.3775 36.2321 15.3588 35.9477 15.3588C35.3358 15.3588 34.7488 15.4209 34.1867 15.5442C33.6243 15.6678 33.1302 15.8715 32.7031 16.1547C32.2761 16.4381 31.9379 16.8054 31.6891 17.2558C31.44 17.7064 31.3156 18.2585 31.3156 18.9125C31.3156 19.5959 31.4256 20.17 31.6464 20.6349C31.867 21.1004 32.1728 21.4781 32.5645 21.7688C32.9557 22.0595 33.429 22.2701 33.984 22.4011C34.539 22.5317 35.1507 22.5971 35.8199 22.5971C36.8302 22.5971 37.7374 22.5352 38.5417 22.4119C39.3456 22.2885 39.9471 22.1829 40.3454 22.0956V15.1844C40.3454 14.516 40.2708 13.9018 40.1215 13.3422C39.9719 12.7828 39.7229 12.3067 39.3743 11.9141C39.0254 11.5218 38.5593 11.2166 37.976 10.9984ZM37.8478 20.3735C37.4348 20.4607 36.8302 20.5045 36.0333 20.5045C35.3785 20.5045 34.8592 20.3843 34.475 20.1445C34.0909 19.9046 33.8987 19.4723 33.8987 18.8473C33.8987 18.5278 33.9698 18.2624 34.1122 18.0517C34.2542 17.8411 34.4431 17.6775 34.6779 17.561C34.9125 17.4449 35.1756 17.3648 35.4676 17.3214C35.7591 17.2776 36.0473 17.256 36.3321 17.256C36.6594 17.256 36.9582 17.2776 37.2288 17.3214C37.499 17.3648 37.7052 17.4086 37.8478 17.452V20.3735Z" fill="white"/>
<path d="M45.7251 20.4607C46.4083 20.4607 46.9062 20.3772 47.2195 20.2101C47.5323 20.0429 47.6892 19.7558 47.6892 19.3488C47.6892 18.9713 47.5217 18.6588 47.1875 18.4115C46.8529 18.1646 46.3018 17.8957 45.5333 17.6046C45.0636 17.4302 44.633 17.245 44.2417 17.0488C43.85 16.8526 43.5123 16.6233 43.2277 16.3617C42.9429 16.1001 42.7187 15.784 42.5551 15.4136C42.3914 15.043 42.3096 14.5887 42.3096 14.0509C42.3096 13.0042 42.6867 12.1794 43.441 11.5762C44.1951 10.9733 45.2198 10.6716 46.5149 10.6716C47.1693 10.6716 47.7956 10.7336 48.3933 10.857C48.991 10.9807 49.4394 11.1005 49.7382 11.2166L49.2687 13.353C48.9839 13.2224 48.6209 13.1024 48.18 12.9934C47.7388 12.8846 47.2262 12.83 46.6429 12.83C46.1161 12.83 45.6893 12.9209 45.362 13.1026C45.0347 13.2847 44.871 13.5642 44.871 13.9421C44.871 14.131 44.903 14.2984 44.9672 14.4433C45.0312 14.5889 45.1412 14.7236 45.298 14.8468C45.4545 14.9705 45.6609 15.0941 45.9171 15.2174C46.1732 15.3412 46.4861 15.468 46.8562 15.599C47.4679 15.8314 47.9876 16.0606 48.4146 16.2857C48.8415 16.5112 49.1939 16.7656 49.4714 17.049C49.7487 17.3322 49.9515 17.6559 50.0797 18.0191C50.2077 18.3824 50.2717 18.8187 50.2717 19.3272C50.2717 20.4173 49.8769 21.2425 49.087 21.8016C48.2973 22.3612 47.1691 22.6411 45.7035 22.6411C44.7217 22.6411 43.9316 22.5574 43.3339 22.3905C42.7364 22.2233 42.3165 22.089 42.0746 21.987L42.5229 19.7852C42.9073 19.9453 43.3661 20.0982 43.8998 20.2431C44.4337 20.388 45.0419 20.4607 45.7251 20.4607Z" fill="white"/>
<path d="M55.2979 22.1612C55.6319 21.8417 55.7994 21.4274 55.7994 20.9185C55.7994 20.41 55.6319 19.9918 55.2979 19.665C54.9631 19.338 54.5611 19.1743 54.0917 19.1743C53.6077 19.1743 53.202 19.338 52.875 19.665C52.5473 19.9918 52.3839 20.41 52.3839 20.9185C52.3839 21.4274 52.5475 21.8417 52.875 22.1612C53.202 22.4808 53.6077 22.6409 54.0917 22.6409C54.5614 22.6409 54.9631 22.4806 55.2979 22.1612Z" fill="white"/>
<path fill-rule="evenodd" clip-rule="evenodd" d="M67.2205 21.2021C67.2205 23.0189 66.7685 24.3486 65.8649 25.1919C64.9611 26.0347 63.5773 26.4564 61.7129 26.4564C61.0297 26.4564 60.3645 26.3982 59.717 26.282C59.0691 26.1655 58.4823 26.0129 57.9557 25.8241L58.4254 23.5787C58.8663 23.7673 59.368 23.9201 59.9303 24.0366C60.4925 24.1526 61.1008 24.211 61.7556 24.211C62.7943 24.211 63.5344 23.9928 63.9757 23.5569C64.4165 23.1209 64.6373 22.4741 64.6373 21.6165V21.1803C64.3812 21.3113 64.043 21.4419 63.6233 21.5729C63.2034 21.7037 62.723 21.7691 62.1822 21.7691C61.4705 21.7691 60.8193 21.6527 60.229 21.4201C59.6384 21.188 59.1331 20.846 58.7134 20.3954C58.2935 19.9448 57.9664 19.3815 57.7316 18.7056C57.4967 18.0298 57.3792 17.2486 57.3792 16.3618C57.3792 15.5333 57.5036 14.7705 57.7527 14.0728C58.0015 13.3751 58.3646 12.7794 58.8414 12.285C59.318 11.7911 59.8981 11.4059 60.5811 11.1297C61.2643 10.8538 62.0398 10.7155 62.9079 10.7155C63.7475 10.7155 64.5443 10.7809 65.2988 10.9115C66.0529 11.0425 66.6935 11.1808 67.2203 11.3259L67.2205 21.2021ZM60.0265 16.362C60.0265 17.4816 60.2649 18.2991 60.7417 18.8149C61.2183 19.331 61.8338 19.5891 62.5881 19.5891C63.0009 19.5891 63.3886 19.5312 63.7515 19.4147C64.1143 19.2982 64.4094 19.1604 64.6373 19.0003V13.0917C64.4521 13.0483 64.2243 13.0084 63.9541 12.9719C63.6837 12.9358 63.342 12.9173 62.9296 12.9173C61.9904 12.9173 61.2714 13.2335 60.7735 13.8658C60.2754 14.498 60.0265 15.3303 60.0265 16.362Z" fill="white"/>
<path d="M75.4903 13.1025C75.8672 13.1827 76.1627 13.2591 76.3762 13.3315L76.8246 11.1079C76.6966 11.0643 76.5259 11.0174 76.3124 10.9663C76.0989 10.9154 75.8781 10.8718 75.6505 10.8353C75.4228 10.7992 75.1948 10.7699 74.9673 10.7481C74.7398 10.7263 74.5405 10.7155 74.3698 10.7155C73.4587 10.7155 72.6299 10.7992 71.8827 10.9663C71.1355 11.1333 70.5129 11.3116 70.0148 11.5004V22.3574H72.5979V13.2225C72.7259 13.1787 72.9503 13.128 73.2705 13.0699C73.5904 13.0122 73.8928 12.9827 74.1777 12.9827C74.6756 12.9827 75.1131 13.0228 75.4903 13.1025Z" fill="white"/>
</svg>
