<svg width="77" height="7" viewBox="0 0 77 7" fill="none" xmlns="http://www.w3.org/2000/svg">
<path fill-rule="evenodd" clip-rule="evenodd" d="M0.229492 6.59497C0.178711 6.69849 0.101562 6.78882 0 6.84082V6.8938H2.79395C3.88086 6.8938 5.43359 6.52271 5.43359 4.98486C5.43359 3.92432 4.55371 3.34082 3.62207 3.34082C4.24316 3.23486 4.86426 2.65161 4.86426 1.96216C4.86426 0.636475 3.72559 0.15918 2.58691 0.15918H0C0.207031 0.265137 0.310547 0.530273 0.310547 0.742432V6.25757C0.310547 6.36572 0.283203 6.48755 0.229492 6.59497ZM1.65625 0.689453H2.07031C2.41602 0.689453 2.7168 0.73584 2.9502 0.855469C3.27441 1.02222 3.4668 1.3313 3.4668 1.85596C3.4668 2.75757 2.69043 3.02271 1.91504 3.02271H1.65625V0.689453ZM1.70801 3.71216H2.27734C3.10449 3.71216 3.88086 3.92432 3.93262 4.93188C3.93262 5.93945 3.25977 6.25757 2.58691 6.25757C2.27734 6.25757 1.9668 6.25757 1.70801 6.20459V3.71216Z" fill="#34363E"/>
<path fill-rule="evenodd" clip-rule="evenodd" d="M10.5049 6.84082C10.7637 6.8938 11.0225 6.8938 11.2812 6.8938C11.6953 6.8938 12.1084 6.84082 12.5742 6.73486C11.8037 6.73486 11.21 5.86768 10.6328 5.02417C10.0869 4.2251 9.55469 3.44702 8.90039 3.44702C9.83203 3.44702 10.7119 2.91675 10.7119 1.85596C10.7119 0.583252 9.41797 0.15918 8.38281 0.15918H6.00293C6.13086 0.224609 6.21875 0.350586 6.26758 0.487549C6.29785 0.572266 6.31348 0.661133 6.31348 0.742432V6.20459C6.31348 6.4165 6.20996 6.68188 6.00293 6.78784H7.96875C7.76172 6.68188 7.6582 6.4165 7.6582 6.20459V3.65918C8.13379 3.6897 8.45605 3.99976 8.71191 4.37866C8.90234 4.65991 9.05664 4.979 9.21094 5.25C9.41797 5.67432 10.0391 6.68188 10.5049 6.84082ZM7.6582 0.742432C7.76172 0.689453 7.86523 0.689453 7.96875 0.689453C8.69336 0.689453 9.21094 1.00757 9.2627 1.85596C9.2627 2.65161 8.69336 3.07568 7.96875 3.07568H7.6582V0.742432Z" fill="#34363E"/>
<path d="M12.9365 6.25757C12.9365 6.52271 12.7812 6.78784 12.626 6.84082H14.6445C14.4893 6.78784 14.334 6.57568 14.334 6.25757V0.742432C14.334 0.477295 14.4893 0.265137 14.6445 0.15918H12.626C12.7812 0.212158 12.9365 0.424316 12.9365 0.742432V6.25757Z" fill="#34363E"/>
<path d="M17.1045 6.78784C17.0801 6.80811 17.0537 6.82617 17.0244 6.84082V6.78784H17.1045Z" fill="#34363E"/>
<path d="M17.335 6.25757C17.335 6.44019 17.2578 6.66211 17.1045 6.78784H19.043C18.8359 6.68188 18.7324 6.4165 18.7324 6.20459V0.848389C19.0146 0.848389 19.3418 0.864258 19.6406 0.878662C19.8906 0.890625 20.1201 0.901611 20.2852 0.901611C20.5957 0.901611 21.1133 0.530273 21.3203 0C20.9062 0.105957 20.5439 0.105957 20.1299 0.105957H15.3174L14.8516 1.11353C15.1621 0.95459 15.5762 0.901611 15.8867 0.901611H17.335V6.25757Z" fill="#34363E"/>
<path d="M21.8369 6.25757C21.8369 6.52271 21.6816 6.78784 21.5273 6.84082H23.5449C23.3896 6.78784 23.2344 6.57568 23.2344 6.25757V0.742432C23.2344 0.424316 23.3896 0.212158 23.5449 0.15918H21.5273C21.6816 0.212158 21.8369 0.424316 21.8369 0.742432V6.25757Z" fill="#34363E"/>
<path d="M26.2549 3.99658C26.8994 4.41602 27.4775 4.79248 27.4775 5.35596C27.4775 6.04541 27.0117 6.36353 26.2881 6.36353C25.46 6.36353 24.7354 5.78027 24.4248 4.98486C24.3936 5.17969 24.3809 5.35474 24.376 5.52197C24.373 5.62769 24.373 5.73047 24.373 5.83325C24.373 6.04541 24.373 6.31055 24.4248 6.52271C24.9424 6.8938 25.8223 7 26.4434 7C27.6846 7 28.875 6.46973 28.875 5.03784C28.875 3.96094 27.9707 3.37915 27.1553 2.85449C26.4844 2.4231 25.874 2.03003 25.874 1.43188C25.874 0.901611 26.3916 0.636475 26.8564 0.636475C27.4258 0.636475 28.0986 1.00757 28.3574 1.59082L28.3057 0.318115C27.8916 0.105957 27.2188 0.0529785 26.7529 0.0529785C25.7188 0.0529785 24.5283 0.477295 24.5283 1.75C24.5283 2.8728 25.4443 3.46875 26.2549 3.99658Z" fill="#34363E"/>
<path d="M34.1016 6.25757C34.1016 6.52271 33.9463 6.78784 33.791 6.84082H35.7578C35.6025 6.78784 35.4473 6.57568 35.4473 6.25757V0.742432C35.4473 0.477295 35.6025 0.212158 35.7578 0.15918H33.791C33.9463 0.212158 34.1016 0.424316 34.1016 0.742432V3.02271C33.7393 3.07568 33.2734 3.07568 32.7041 3.07568C32.1348 3.07568 31.6689 3.07568 31.3066 3.02271V0.742432C31.3066 0.477295 31.4619 0.212158 31.6172 0.15918H29.6514C29.7451 0.191162 29.8389 0.280762 29.8984 0.416504C29.9375 0.506104 29.9619 0.615967 29.9619 0.742432V6.25757C29.9619 6.52271 29.8066 6.78784 29.6514 6.84082H31.6172C31.5107 6.80444 31.4043 6.69287 31.3477 6.52319C31.3223 6.44604 31.3066 6.35693 31.3066 6.25757V3.76514C31.6689 3.71216 32.1348 3.71216 32.7041 3.71216C33.2734 3.71216 33.7393 3.71216 34.1016 3.76514V6.25757Z" fill="#34363E"/>
<path fill-rule="evenodd" clip-rule="evenodd" d="M43.0156 6.76416C42.9971 6.79321 42.9736 6.81714 42.9502 6.84106H44.8135C44.6064 6.73511 44.4512 6.57593 44.3477 6.31079L42.1221 0.106201H40.415C40.5693 0.15918 40.6729 0.318359 40.6729 0.477539V0.583496L38.5 6.31079C38.4287 6.45605 38.334 6.60132 38.2139 6.7124C38.1592 6.76367 38.0996 6.80762 38.0342 6.84106H39.3799C39.3281 6.84106 39.2246 6.78809 39.2246 6.68188C39.2246 6.62891 39.2246 6.57593 39.3281 6.36377L39.6406 5.54565C39.7822 5.17212 39.9248 4.79565 39.9492 4.71997C40.3633 4.66675 40.7246 4.66675 41.1387 4.66675C41.5527 4.66675 41.9668 4.66675 42.3809 4.71997C42.4844 4.93188 43.002 6.41675 43.002 6.41675C43.0537 6.52295 43.0537 6.57593 43.0537 6.62891C43.0537 6.68701 43.0381 6.72925 43.0156 6.76416ZM40.2598 4.03052L41.2422 1.43188L42.2256 4.03052C42.0088 4.06226 41.8105 4.07495 41.6084 4.08008C41.4727 4.0835 41.3359 4.0835 41.1904 4.0835C41.0078 4.0835 40.8252 4.0835 40.6436 4.07275C40.5156 4.06519 40.3877 4.05249 40.2598 4.03052Z" fill="#34363E"/>
<path d="M45.4854 0.742676V6.25781C45.4854 6.52295 45.3301 6.78809 45.1758 6.84106H47.1934C47.0381 6.78809 46.8828 6.57593 46.8828 6.25781V0.742676C46.8828 0.477539 47.0381 0.265381 47.1934 0.15918H45.1758C45.3301 0.212402 45.4854 0.424316 45.4854 0.742676Z" fill="#34363E"/>
<path fill-rule="evenodd" clip-rule="evenodd" d="M52.9893 6.84106C53.248 6.89404 53.5068 6.89404 53.7656 6.89404C54.1797 6.89404 54.5938 6.84106 55.0586 6.73511C54.3506 6.73511 53.7754 5.91797 53.1992 5.09814C52.6377 4.30005 52.0742 3.49951 51.3848 3.44702C51.7598 3.44702 52.1904 3.30493 52.5186 3.02075C52.8242 2.75586 53.041 2.36768 53.041 1.8562C53.041 0.583496 51.7471 0.15918 50.7119 0.15918H48.332C48.5391 0.265381 48.6426 0.530518 48.6426 0.742676V6.20459C48.6426 6.41675 48.5391 6.68188 48.332 6.78809H50.2979C50.2266 6.75146 50.168 6.69604 50.1211 6.63037C50.0322 6.50562 49.9883 6.34375 49.9883 6.20459V3.65918C50.791 3.65918 51.3027 4.55933 51.6631 5.19385L51.6953 5.25024C51.9023 5.67432 52.5234 6.68188 52.9893 6.84106ZM49.9365 0.742676C50.04 0.689697 50.1426 0.689697 50.2461 0.689697C50.9707 0.689697 51.54 1.00781 51.54 1.8562C51.54 2.65161 50.9707 3.07593 50.2461 3.07593H49.9365V0.742676Z" fill="#34363E"/>
<path d="M59.9229 6.89404L61.9414 0.795654C61.9932 0.530518 62.2002 0.265381 62.4072 0.106201H61.1133C61.1455 0.13916 61.1777 0.172363 61.1973 0.218018C61.209 0.24585 61.2168 0.27832 61.2168 0.318359C61.2168 0.351562 61.2168 0.384766 61.2041 0.431152C61.1963 0.45874 61.1846 0.490967 61.165 0.530518L59.8711 4.50781L58.1641 0.106201L56.6113 4.66675L55.1621 0.636475C55.1621 0.61084 55.1494 0.57251 55.1367 0.533936C55.124 0.49292 55.1104 0.45166 55.1104 0.424316C55.1104 0.318359 55.1621 0.212402 55.2656 0.15918H53.3516C53.6104 0.265381 53.7656 0.530518 53.8691 0.795654L56.0938 6.89404H56.7148L58.0088 3.12891L58.8887 5.46216C58.9922 5.78052 59.3027 6.57593 59.5098 6.78809C59.6133 6.84106 59.7676 6.89404 59.9229 6.89404Z" fill="#34363E"/>
<path fill-rule="evenodd" clip-rule="evenodd" d="M66.1328 6.62891C66.1328 6.73511 66.0811 6.78809 66.0293 6.84106H67.9443C67.7373 6.73511 67.582 6.57593 67.4785 6.31079L65.2529 0.106201H63.5459C63.7012 0.15918 63.8047 0.318359 63.8047 0.477539V0.583496L61.6309 6.31079C61.5752 6.42407 61.5059 6.53735 61.4209 6.63428C61.3467 6.71924 61.2617 6.79175 61.165 6.84106H62.459C62.4297 6.84106 62.3838 6.82422 62.3496 6.79077C62.3232 6.76465 62.3037 6.72827 62.3037 6.68188C62.3037 6.6582 62.3037 6.63452 62.3125 6.59644C62.3242 6.54956 62.3496 6.48096 62.4072 6.36377L62.7959 5.34424C62.9092 5.04565 63.0078 4.78198 63.0283 4.71997C63.4424 4.66675 63.8047 4.66675 64.2188 4.66675C64.4785 4.66675 64.7393 4.66675 65 4.67993C65.1533 4.68774 65.3066 4.7002 65.46 4.71997C65.5635 4.93188 66.0811 6.41675 66.0811 6.41675C66.1328 6.52295 66.1328 6.57593 66.1328 6.62891ZM63.3389 4.03052L64.3223 1.43188L65.3047 4.03052C64.9424 4.0835 64.6318 4.0835 64.2705 4.0835C63.96 4.0835 63.6494 4.0835 63.3389 4.03052Z" fill="#34363E"/>
<path d="M70.4277 3.65918L71.9805 0.848633C72.0352 0.755859 72.0957 0.656494 72.1631 0.564209C72.2871 0.393311 72.4336 0.246826 72.6016 0.212402H71.2041C71.3076 0.265381 71.3594 0.318359 71.3594 0.424316C71.3594 0.457275 71.3193 0.530518 71.2646 0.631836C71.2305 0.694336 71.1914 0.767578 71.1523 0.848633C71.1523 0.848633 70.1689 2.59863 70.0654 2.81079L68.8242 0.795654C68.4102 0.15918 68.0996 0.106201 67.4785 0.106201C67.1162 0.106201 66.5469 0.212402 66.3398 0.265381C66.8135 0.265381 67.2207 0.674072 67.4746 1.01587C67.6094 1.19653 67.7012 1.35864 67.7373 1.43188L69.083 3.65918V6.31079C69.083 6.52295 69.0312 6.78809 68.8242 6.89404H70.7383C70.5312 6.78809 70.4277 6.52295 70.4277 6.31079V3.65918Z" fill="#34363E"/>
<path d="M74.3799 3.99683C75.0244 4.41626 75.6025 4.79272 75.6025 5.3562C75.6025 5.79443 75.4141 6.08252 75.0908 6.23438C74.9053 6.32153 74.6758 6.36377 74.4121 6.36377C73.585 6.36377 72.8604 5.78052 72.5498 4.98511C72.5127 5.21582 72.502 5.41846 72.499 5.61353L72.498 5.8335C72.498 6.04565 72.498 6.31079 72.5498 6.52295C73.0674 6.89404 73.9473 7.00024 74.5674 7.00024C75.8096 7.00024 77 6.46973 77 5.03809C77 3.96118 76.0957 3.37964 75.2803 2.85474C74.6094 2.4231 73.999 2.03003 73.999 1.43188C73.999 0.901611 74.5156 0.636475 74.9814 0.636475C75.5508 0.636475 76.2236 1.00781 76.4824 1.59106L76.4307 0.318359C76.29 0.246338 76.1191 0.192627 75.9365 0.153076C75.583 0.0761719 75.1855 0.0532227 74.8779 0.0532227C73.8438 0.0532227 72.6533 0.477539 72.6533 1.75024C72.6533 2.87305 73.5693 3.46899 74.3799 3.99683Z" fill="#34363E"/>
</svg>
