<svg width="77" height="9" viewBox="0 0 77 9" fill="none" xmlns="http://www.w3.org/2000/svg">
<path d="M8.29785 0.884277C8.29785 0.884277 8.68457 0.798096 8.85645 0.733398C9.0166 0.679688 9.04395 0.774414 9.06055 0.833008L9.07129 0.862793C8.72754 1.14331 7.54688 1.7041 6.62305 1.7041C6.05566 1.7041 5.60352 1.61133 5.16797 1.52197C4.76367 1.43896 4.37305 1.35889 3.91797 1.35889C2.7373 1.35889 2.0293 1.81177 1.62109 3.01978C1.57812 3.12769 1.57812 3.25708 1.68555 3.36499C1.81445 3.47266 1.92188 3.55908 2.00781 3.62378C2.09375 3.68848 2.24316 3.79639 2.3291 4.07666C2.41504 4.35718 2.86621 5.09058 3.03809 5.34937C3.25195 5.6394 3.38477 5.71558 3.53516 5.80225C3.6416 5.86377 3.75781 5.93042 3.91797 6.08276C3.99805 6.15308 4.09277 6.24707 4.18945 6.3689C4.30078 6.50806 4.41602 6.68384 4.51953 6.90234C4.85156 7.5686 5.05566 8.20288 5.18848 8.61475L5.24902 8.80054C5.25977 8.83398 5.26562 8.87891 5.26172 8.91748C5.25879 8.95361 5.24805 8.98413 5.22754 8.99463C5.18457 9.01636 5.12012 8.97314 5.05566 8.84375C4.92676 8.60645 4.30469 7.57104 3.85352 7.05347C3.44629 6.60034 2.97363 6.23364 2.07227 5.62988C1.59961 5.30615 1.25586 4.98267 1.16992 4.81006C1.08398 4.63745 0.890625 4.29248 0.761719 4.09839L0.709961 4.01392C0.55957 3.76904 0.287109 3.32739 0.268555 2.8689C0.24707 2.7395 0.204102 2.69629 0.0966797 2.60986C-0.0107422 2.52368 -0.0751953 2.32959 0.161133 2.17847C0.262695 2.09692 0.402344 2.02002 0.535156 1.9436C0.683594 1.8584 0.822266 1.77344 0.890625 1.68237C0.90918 1.66357 0.923828 1.64453 0.930664 1.62012C0.94043 1.58887 0.936523 1.54883 0.912109 1.48828C0.869141 1.4021 0.804688 1.3374 0.71875 1.31567C0.547852 1.29419 0.526367 1.29419 0.483398 1.22949C0.461914 1.18628 0.483398 1.16479 0.483398 1.07861C0.461914 0.992188 0.461914 0.970703 0.504883 0.841309C0.526367 0.754883 0.59082 0.690186 0.59082 0.431396C0.59082 0.345215 0.655273 0.323486 0.698242 0.302002C0.740234 0.280518 0.804688 0.258789 1.01953 0.237305C1.0625 0.21582 1.04102 0.237305 1.08398 0.237305C1.12695 0.21582 1.40625 0.21582 1.57812 0.280518C1.75 0.345215 1.83594 0.431396 1.83594 0.582275C1.83594 0.708008 1.80566 0.818604 1.78418 0.9021L1.77148 0.948975C1.75781 1.00562 1.73438 1.03442 1.71387 1.05957C1.70312 1.073 1.69336 1.08521 1.68555 1.1001C1.66406 1.14331 1.64258 1.22949 1.75 1.22949C1.85742 1.22949 1.96484 1.14331 2.00781 1.1001C2.30762 0.906006 2.71582 0.474609 2.82324 0.345215C2.93066 0.21582 3.27441 0 3.63867 0C4.02539 0 4.32617 0.0432129 4.79883 0.172607C5.27051 0.302002 5.91504 0.474609 5.97949 0.496094C6.06543 0.517578 6.51562 0.668701 6.90234 0.754883L7.28906 0.841309C7.28906 0.841309 7.6543 0.906006 7.9541 0.906006C8.25488 0.906006 8.29785 0.884277 8.29785 0.884277Z" fill="#34363E"/>
<path d="M3.51074 2.0061C3.61719 1.74707 3.81055 1.7041 3.96094 1.7688C4.08984 1.8335 4.17578 1.94141 4.04688 2.1355C3.78906 2.5022 3.53125 3.12769 3.16699 4.24927C3.12402 4.35718 2.93066 4.37866 2.95215 4.16309C2.96582 3.81079 3.06445 3.32202 3.20996 2.83618C3.2959 2.54883 3.39941 2.2627 3.51074 2.0061Z" fill="#34363E"/>
<path d="M3.80176 5.31812C3.78711 5.3396 3.76953 5.34937 3.74609 5.34937C3.66016 5.34937 3.63867 5.15527 3.63867 4.81006C3.66016 4.46509 4.00391 3.49438 4.24023 2.93359C4.45117 2.47412 4.56152 2.26074 4.61816 2.15112L4.64844 2.09229C4.77734 1.89819 4.90625 1.87671 5.07715 1.94141C5.24902 1.98438 5.20605 2.1355 5.16309 2.28638C5.13184 2.39697 4.97363 2.7041 4.83301 2.97925L4.69141 3.25708L4.63379 3.37427C4.44043 3.7583 4.03516 4.56641 3.93945 4.87476C3.86133 5.12476 3.83984 5.26147 3.80176 5.31812Z" fill="#34363E"/>
<path d="M4.57324 6.37329C4.56055 6.38501 4.54297 6.39062 4.51953 6.38477C4.47656 6.38477 4.43359 6.36328 4.43359 6.27686C4.43359 6.18311 4.47168 5.82227 4.53418 5.43237C4.58691 5.10449 4.65625 4.75635 4.73438 4.52979C4.96973 3.79639 5.07715 3.64526 5.29199 3.2356C5.48535 2.84717 5.80762 2.26489 5.80762 2.26489C5.93652 2.04907 6.04395 1.94141 6.30176 2.02759C6.55859 2.11377 6.47266 2.28638 6.42969 2.41577C6.38672 2.52368 5.78613 3.62378 5.61426 3.9043C5.44238 4.18457 5.03418 4.83179 4.86328 5.45728C4.71289 5.95337 4.64844 6.19067 4.62695 6.25537C4.61133 6.271 4.60742 6.34302 4.57324 6.37329Z" fill="#34363E"/>
<path d="M7.05273 2.41577C7.18164 2.02759 7.375 1.94141 7.63281 2.02759C7.88965 2.11377 7.80371 2.28638 7.78223 2.4375C7.73926 2.54517 7.48242 3.19238 7.22461 3.62378C7.15137 3.74658 7.04785 3.90454 6.92969 4.08496C6.63477 4.53809 6.24609 5.13306 6.00098 5.67285C5.65723 6.42798 5.33496 7.37695 5.29199 7.52783C5.24902 7.61426 5.20605 7.78687 5.1416 7.76514C5.11133 7.74976 5.06934 7.67993 5.05566 7.59424C5.05078 7.55957 5.0498 7.52222 5.05566 7.48486C5.1416 6.62207 5.50684 5.58667 5.87207 4.83179C6.0166 4.5332 6.18066 4.21289 6.34082 3.89868C6.63281 3.32788 6.91406 2.77759 7.05273 2.41577Z" fill="#34363E"/>
<path d="M65.5352 8.95142H62.7441V0.798096H65.5352V8.95142Z" fill="#34363E"/>
<path fill-rule="evenodd" clip-rule="evenodd" d="M15.168 0.776367C16.4131 0.776367 19.5264 1.27246 19.5264 3.21387C19.5264 4.93945 17.5078 5.41406 16.9277 5.54346L19.5908 8.97314H16.5635L14.1367 5.84546H13.2354V8.95142H10.4658V0.776367H15.168ZM13.2568 4.48657H14.5664C16.1123 4.48657 16.7568 4.07666 16.7568 3.30005C16.7568 2.52368 15.833 2.2002 14.5664 2.2002H13.2568V4.48657Z" fill="#34363E"/>
<path fill-rule="evenodd" clip-rule="evenodd" d="M76.957 3.21387C76.957 4.93945 74.9385 5.41406 74.3594 5.54346L77 8.97314H73.9727L71.5684 5.84546H70.666V8.95142H67.8965V0.776367H72.5986C73.8438 0.776367 76.957 1.27246 76.957 3.21387ZM70.666 4.48657H71.9756C73.5215 4.48657 74.166 4.07666 74.166 3.30005C74.166 2.52368 73.2422 2.2002 71.9756 2.2002H70.666V4.48657Z" fill="#34363E"/>
<path d="M25.9023 2.89038C26.1172 2.58838 27.4268 0.776367 27.4268 0.776367H30.4541L26.418 5.86694V8.97314H23.6484V5.88867L19.6543 0.776367H22.7461L23.501 1.82666C23.8047 2.25171 24.1191 2.69312 24.2705 2.91187C24.4336 3.14722 24.6064 3.41675 24.75 3.66016C24.9082 3.92993 25.0312 4.16772 25.0654 4.29248C25.1514 4.05518 25.6875 3.19238 25.9023 2.89038Z" fill="#34363E"/>
<path fill-rule="evenodd" clip-rule="evenodd" d="M29.1016 8.95142L33.0732 0.776367V0.754883H35.7998L39.7715 8.95142H36.873C36.873 8.95142 36.5078 8.17505 36.1221 7.24756H32.665L31.9355 8.95142H29.1016ZM33.5469 5.28955C33.4736 5.45557 33.3867 5.6582 33.2881 5.88867H35.5635C35.4131 5.50024 35.2627 5.15527 35.1553 4.91797C34.7051 3.86108 34.4902 3.19238 34.4258 2.93335C34.3828 3.19238 33.9961 4.29248 33.7168 4.91797C33.6748 5.00269 33.6172 5.12915 33.5469 5.28955Z" fill="#34363E"/>
<path fill-rule="evenodd" clip-rule="evenodd" d="M51.043 8.95142L55.0146 0.776367V0.754883H57.7197L61.6924 8.95142H58.8154C58.8154 8.95142 58.4502 8.17505 58.0635 7.24756H54.6074C54.2207 8.15332 53.877 8.95142 53.877 8.95142H51.043ZM55.6377 4.91797C55.5518 5.09058 55.4014 5.43555 55.208 5.88867H57.4844C57.334 5.50024 57.1836 5.15527 57.0762 4.91797C56.625 3.86108 56.4102 3.19238 56.3457 2.93335C56.3027 3.19238 55.917 4.29248 55.6377 4.91797Z" fill="#34363E"/>
<path d="M47.3945 4.91797C47.3809 4.5249 47.3721 4.0957 47.3721 3.70996V0.776367H49.9053V8.97314H47.2432C47.2432 8.97314 44.5811 5.52197 44.1729 5.02563C43.7646 4.50806 43.4219 4.07666 43.2285 3.66675C43.25 4.14136 43.2715 5.24146 43.2715 5.84546V8.95142H40.7373V0.776367H43.5283C43.5283 0.776367 46.3623 4.48657 46.8135 5.11206C47.2646 5.73755 47.3936 5.95337 47.458 6.06104C47.4346 5.83447 47.4111 5.40381 47.3945 4.91797Z" fill="#34363E"/>
</svg>
