<svg width="77" height="13" viewBox="0 0 77 13" fill="none" xmlns="http://www.w3.org/2000/svg">
<path d="M9.15916 5.20747C9.109 5.20747 9.06678 5.20875 9.04303 5.21135C9.0153 5.26076 8.97439 5.32704 8.91366 5.41934C9.85866 5.41934 10.7166 5.49602 11.6655 5.66369L11.3976 5.91847C10.541 5.76899 9.82963 5.70922 8.92292 5.70922C8.79095 5.70922 8.76322 5.70922 8.73156 5.7105C8.69986 5.75728 8.62858 5.84827 8.55734 5.93277C8.63783 5.92758 8.79358 5.92498 9.00869 5.92498C9.75441 5.92498 10.4513 5.97955 11.2075 6.09916L10.9396 6.35522C10.3642 6.26683 9.66069 6.21613 9.0298 6.21613C8.80544 6.21613 8.55072 6.22393 8.32239 6.23693C8.27092 6.29541 8.13631 6.43841 8.09539 6.48259C8.39761 6.4514 8.73022 6.43709 9.12616 6.43709C9.68974 6.43709 10.2282 6.47351 10.7377 6.54759L10.4697 6.80105C10.1068 6.75687 9.66596 6.73088 9.27664 6.73088C8.27226 6.73088 7.48034 6.94533 6.66204 7.43797C7.44207 8.26206 8.71967 8.78329 9.95766 8.78329H10.0738L9.64091 9.19539C7.85517 8.86519 5.97574 8.09179 4.38801 7.0324C2.86096 6.01725 2.32644 5.71701 1.13464 5.19839L1.12673 4.8968L1.93314 5.23737L2.20766 5.02289L4.8407 6.21094L4.66911 6.34611L3.31763 5.76771L3.18432 5.87037L3.88648 6.25643C4.47909 6.5814 4.93045 6.72697 5.34753 6.72697C6.25952 6.72697 7.07782 6.09005 7.60573 4.97091C8.00301 4.92019 8.42667 4.8968 8.93611 4.8968C9.98141 4.8968 10.9963 4.99559 12.1459 5.20747L11.8661 5.47392C11.1508 5.32704 9.93521 5.20747 9.15916 5.20747ZM6.60002 12.61C3.17464 12.61 0.396034 9.87347 0.396034 6.49998C0.396034 3.1265 3.17464 0.389972 6.60002 0.389972C10.0254 0.389972 12.804 3.1265 12.804 6.49998C12.804 9.87347 10.0254 12.61 6.60002 12.61ZM6.60002 -4.96705e-07C2.95025 -4.96705e-07 0 2.90548 0 6.49998C0 10.0945 2.95025 13 6.60002 13C10.2498 13 13.2 10.0945 13.2 6.49998C13.2 2.90548 10.2498 -4.96705e-07 6.60002 -4.96705e-07ZM24.0366 9.08762H27.8206V10.8333H22V2.16663H24.0366V9.08762ZM32.3966 4.59332H34.2948V10.8333H32.5097V10.1152C32.2457 10.5981 31.7052 11.019 30.712 11.019C29.0903 11.019 28.248 10.3009 28.248 8.2457V4.59332H30.1463V8.15899C30.1463 8.98856 30.5109 9.35994 31.2778 9.35994C31.9692 9.35994 32.3966 8.98856 32.3966 8.15899V4.59332ZM35.7532 4.35812C35.7532 2.84767 36.7212 2.04284 38.2423 2.04284C38.7327 2.04284 39.0469 2.11713 39.0469 2.11713V3.62758C39.0469 3.62758 38.7829 3.60291 38.5566 3.60291C37.9657 3.60291 37.6514 3.801 37.6514 4.34574V4.59332H39.0469V6.11619H37.6514V10.8333H35.7532V6.11619H34.7978V4.59332H35.7532V4.35812ZM42.3908 4.59332H43.8364V6.11619H42.3908V8.54285C42.3908 9.21145 42.7428 9.38477 43.2959 9.38477C43.5222 9.38477 43.8364 9.34765 43.8364 9.34765V10.8457C43.8364 10.8457 43.3965 10.9447 42.9313 10.9447C41.4103 10.9447 40.4925 10.2638 40.4925 8.75338V6.11619H39.5371V4.59332H40.4925V2.77334H42.3908V4.59332ZM48.0393 4.40762C49.6485 4.40762 50.4908 5.12568 50.4908 7.18093V10.8333H48.5924V7.26758C48.5924 6.4381 48.2279 6.06672 47.4359 6.06672C46.7193 6.06672 46.2919 6.4381 46.2919 7.26758V10.8333H44.3936V2.17904H46.3045V5.19998C46.6313 4.74185 47.1467 4.40762 48.0393 4.40762ZM55.3307 8.40664C55.3307 9.08762 54.677 9.59527 53.6713 9.59527C53.1809 9.59527 52.8919 9.37242 52.8919 8.95141C52.8919 8.62953 53.093 8.35718 53.7342 8.27056L54.8279 8.12191C55.0164 8.09711 55.2176 8.06003 55.3307 8.02288V8.40664ZM54.2748 4.40765C52.4016 4.40765 51.4964 5.11339 51.421 6.43813H53.269C53.2942 6.09142 53.4953 5.83142 54.2748 5.83142C54.9662 5.83142 55.293 6.05434 55.293 6.38854C55.293 6.68578 55.1044 6.79716 54.6393 6.84666L53.4325 6.97046C51.7981 7.14375 51.0565 7.81238 51.0565 9.02577C51.0565 10.1524 51.7604 11.019 53.2564 11.019C54.2748 11.019 54.8782 10.6971 55.4062 10.0533V10.8333H57.141V6.73525C57.141 5.0143 56.1228 4.40765 54.2748 4.40765ZM61.5304 4.40762C63.1773 4.40762 64.0197 5.12568 64.0197 7.18093V10.8333H62.1213V7.26758C62.1213 6.4381 61.7568 6.06672 60.9647 6.06672C60.2482 6.06672 59.8208 6.4381 59.8208 7.26758V10.8333H57.9225V4.59336H59.7076V5.31148C59.9716 4.82856 60.5122 4.40762 61.5304 4.40762ZM68.0241 6.92093C69.6332 7.13146 70.4378 7.62667 70.4378 8.92668C70.4378 10.2391 69.495 11.019 67.4961 11.019C65.3212 11.019 64.5544 10.1648 64.5167 8.91424H66.3897C66.4401 9.37242 66.7669 9.59527 67.4961 9.59527C68.2378 9.59527 68.5395 9.42189 68.5395 9.07527C68.5395 8.75338 68.2881 8.60483 67.6344 8.51815L66.968 8.43141C65.5726 8.24573 64.7681 7.71338 64.7681 6.47525C64.7681 5.28668 65.6607 4.40762 67.5338 4.40762C69.2686 4.40762 70.1989 5.08856 70.2869 6.4381H68.4389C68.376 6.07913 68.1749 5.85622 67.5338 5.85622C66.9052 5.85622 66.6664 6.06672 66.6664 6.33913C66.6664 6.61143 66.8172 6.76002 67.3578 6.83434L68.0241 6.92093ZM75.1898 8.40677C75.1898 9.08765 74.5359 9.59527 73.5303 9.59527C73.04 9.59527 72.7508 9.37242 72.7508 8.95141C72.7508 8.62953 72.952 8.35718 73.5931 8.27056L74.6869 8.12191C74.8754 8.09724 75.0766 8.06003 75.1898 8.02288V8.40677ZM74.1337 4.40765C72.2606 4.40765 71.3554 5.11339 71.2801 6.43813H73.1281C73.1532 6.09142 73.3543 5.83151 74.1337 5.83151C74.8252 5.83151 75.152 6.05434 75.152 6.38863C75.152 6.68578 74.9635 6.79716 74.4983 6.84666L73.2915 6.97046C71.6572 7.14384 70.9154 7.81241 70.9154 9.02577C70.9154 10.1524 71.6194 11.019 73.1154 11.019C74.1337 11.019 74.7372 10.6971 75.2651 10.0533V10.8333H77V6.73525C77 5.01439 75.9817 4.40765 74.1337 4.40765Z" fill="#34363E"/>
</svg>
