<?xml version="1.0" encoding="utf-8"?>
<!-- Generator: Adobe Illustrator 17.1.0, SVG Export Plug-In . SVG Version: 6.00 Build 0)  -->
<!DOCTYPE svg PUBLIC "-//W3C//DTD SVG 1.1//EN" "http://www.w3.org/Graphics/SVG/1.1/DTD/svg11.dtd">
<svg version="1.1" id="Слой_1" xmlns="http://www.w3.org/2000/svg" xmlns:xlink="http://www.w3.org/1999/xlink" x="0px" y="0px"
	 viewBox="0 0 89.3717041 41.9282074" enable-background="new 0 0 89.3717041 41.9282074" xml:space="preserve">
<g>
	<defs>
		<rect id="SVGID_1_" y="0.000206" width="89.3720016" height="41.9280014"/>
	</defs>
	<clipPath id="SVGID_2_">
		<use xlink:href="#SVGID_1_"  overflow="visible"/>
	</clipPath>
	<path clip-path="url(#SVGID_2_)" fill="#ffffff" d="M72.2924957,0.057209L58.2174988,34.5612068
		c-1.4349976,3.5170021,1.1520004,7.3670006,4.9510002,7.3670006h0.0110016h18.2249947h0.1330032h7.8339996L72.2924957,0.057209z
		 M65.8525009,35.1002083l6.4389954-16.448l6.4400024,16.448H65.8525009z"/>
	<path clip-path="url(#SVGID_2_)" fill="#ffffff" d="M0,0.0000076h0.006c4.802,0,9.1130009,2.9420013,10.8630009,7.413002
		l6.2109995,15.8629971l6.210001-15.8629971c1.75-4.4710007,6.0619984-7.413002,10.8639984-7.413002h0.0050011L17.0799999,41.871006
		L0,0.0000076z"/>
	<path clip-path="url(#SVGID_2_)" fill="#ffffff" d="M43.152298,41.8102074H21.3353004L35.6252975,6.5612106
		c1.6490021-4.1730042,3.6160011-6.4490013,9.2460022-6.4490013l0.2449989,0.0019989L68.0122986,0.057209l-13.9139977,34.375
		C52.2843018,38.9142075,47.9873009,41.8102074,43.152298,41.8102074 M31.2963009,35.1002083H43.152298
		c2.0880013,0,3.9430008-1.2509995,4.7260017-3.1860008L58.0472984,6.7922096L45.0892982,6.8232079l-0.2179985-0.0009995
		c-2.1339989,0-2.1339989,0-3.0159988,2.2330017L31.2963009,35.1002083z"/>
</g>
</svg>
