<?xml version="1.0" encoding="iso-8859-1"?>
<!-- Generator: Adobe Illustrator 19.0.0, SVG Export Plug-In . SVG Version: 6.00 Build 0)  -->
<svg version="1.1" id="Layer_1" xmlns="http://www.w3.org/2000/svg" xmlns:xlink="http://www.w3.org/1999/xlink" x="0px" y="0px"
	 viewBox="0 0 511.999 511.999" style="enable-background:new 0 0 511.999 511.999;" xml:space="preserve">
<g>
	<g>
		<path fill="#0262d9" d="M508.993,277.563l-26.69-25.491c-9.379-8.957-10.878-23.23-3.567-33.94l20.805-30.481
			c1.709-2.504,2.152-5.594,1.214-8.479c-0.938-2.882-3.112-5.121-5.967-6.144L460.043,160.6
			c-12.212-4.37-19.389-16.8-17.063-29.557l6.61-36.307c0.543-2.984-0.31-5.987-2.337-8.239c-2.031-2.254-4.931-3.402-7.949-3.187
			L402.5,86.089c-12.934,0.981-24.541-7.46-27.608-20.058l-8.729-35.859c-0.718-2.947-2.719-5.342-5.489-6.577
			c-2.767-1.229-5.887-1.113-8.557,0.323l-32.489,17.506c-11.416,6.15-25.454,3.168-33.38-7.093l-22.56-29.207
			c-1.852-2.399-4.656-3.776-7.688-3.776c-3.03,0-5.834,1.376-7.686,3.776l-22.56,29.205c-7.926,10.263-21.967,13.248-33.382,7.095
			l-32.49-17.506c-2.67-1.436-5.789-1.556-8.557-0.322c-2.77,1.233-4.769,3.63-5.487,6.575l-8.729,35.859
			c-3.067,12.599-14.669,21.048-27.609,20.058l-36.8-2.779c-3.033-0.217-5.922,0.935-7.949,3.187
			c-2.031,2.254-2.882,5.257-2.339,8.241l6.612,36.307c2.322,12.757-4.854,25.187-17.063,29.555L17.21,173.029
			c-2.855,1.021-5.029,3.26-5.965,6.144c-0.938,2.882-0.495,5.974,1.214,8.477l20.805,30.483c7.311,10.708,5.81,24.981-3.568,33.938
			l-26.69,25.492c-2.192,2.094-3.268,5.024-2.95,8.038c0.315,3.017,1.979,5.659,4.558,7.253l31.408,19.384
			c11.036,6.81,15.471,20.46,10.545,32.457l-14.015,34.14c-1.149,2.807-0.941,5.922,0.576,8.547
			c1.516,2.625,4.108,4.363,7.113,4.768l36.573,4.934c12.852,1.734,22.454,12.399,22.835,25.362l1.083,36.888
			c0.088,3.03,1.548,5.792,4,7.575c2.454,1.781,5.532,2.317,8.436,1.463l35.424-10.37c2.484-0.728,4.997-1.076,7.471-1.076
			c9.912,0,19.205,5.605,23.703,14.957l15.992,33.26c1.314,2.734,3.77,4.663,6.737,5.292c2.96,0.63,5.994-0.135,8.303-2.096
			l28.139-23.878c9.888-8.388,24.24-8.388,34.126,0l28.141,23.878c2.311,1.962,5.337,2.725,8.302,2.096
			c2.965-0.63,5.421-2.559,6.735-5.292l15.995-33.26c5.619-11.686,18.731-17.523,31.176-13.881l35.421,10.37
			c2.91,0.855,5.984,0.318,8.437-1.464c2.454-1.782,3.911-4.544,4-7.575l1.083-36.886c0.381-12.96,9.983-23.628,22.834-25.362
			l36.573-4.934c3.007-0.405,5.599-2.142,7.115-4.768c1.518-2.625,1.726-5.74,0.575-8.547l-14.013-34.141
			c-4.926-11.996-0.491-25.647,10.545-32.455l31.408-19.384c2.58-1.593,4.241-4.235,4.558-7.251
			C512.261,282.586,511.185,279.657,508.993,277.563z M134.757,193.812c0-27.678,22.519-50.197,50.196-50.197
			c27.678,0,50.197,22.519,50.197,50.196s-22.519,50.197-50.197,50.197C157.276,244.009,134.757,221.491,134.757,193.812z
			 M183.121,349.417c-3.253,3.252-7.516,4.879-11.779,4.879c-4.263,0-8.526-1.628-11.779-4.879c-6.505-6.505-6.505-17.053,0-23.56
			l169.858-169.86c6.507-6.503,17.051-6.503,23.56,0c6.505,6.505,6.505,17.053,0,23.56L183.121,349.417z M314.947,374.002
			c-27.678,0-50.197-22.519-50.197-50.196s22.519-50.196,50.197-50.196c27.678,0,50.196,22.519,50.196,50.196
			S342.625,374.002,314.947,374.002z"/>
	</g>
</g>
<g>
	<g>
		<path fill="#0262d9" d="M184.954,176.932c-9.307,0-16.88,7.573-16.88,16.88s7.573,16.88,16.88,16.88c9.307,0,16.88-7.573,16.88-16.88
			C201.834,184.505,194.261,176.932,184.954,176.932z"/>
	</g>
</g>
<g>
	<g>
		<path fill="#0262d9" d="M314.947,306.927c-9.307,0-16.88,7.573-16.88,16.88c0,9.307,7.573,16.88,16.88,16.88c9.307,0,16.88-7.573,16.88-16.88
			C331.827,314.5,324.254,306.927,314.947,306.927z"/>
	</g>
</g>
<g>
</g>
<g>
</g>
<g>
</g>
<g>
</g>
<g>
</g>
<g>
</g>
<g>
</g>
<g>
</g>
<g>
</g>
<g>
</g>
<g>
</g>
<g>
</g>
<g>
</g>
<g>
</g>
<g>
</g>
</svg>
