<?xml version="1.0" encoding="iso-8859-1"?>
<!-- Generator: Adobe Illustrator 18.0.0, SVG Export Plug-In . SVG Version: 6.00 Build 0)  -->
<!DOCTYPE svg PUBLIC "-//W3C//DTD SVG 1.1//EN" "http://www.w3.org/Graphics/SVG/1.1/DTD/svg11.dtd">
<svg version="1.1" id="Capa_1" xmlns="http://www.w3.org/2000/svg" xmlns:xlink="http://www.w3.org/1999/xlink" x="0px" y="0px"
	 viewBox="0 0 296.837 296.837" style="enable-background:new 0 0 296.837 296.837;" xml:space="preserve">
<g>
	<path d="M268.809,15.288h-63.06C205.749,6.843,198.9,0,190.46,0h-84.083c-8.44,0-15.288,6.843-15.288,15.288H28.027
		c-8.44,0-15.287,6.843-15.287,15.288c0,8.445,6.848,15.288,15.287,15.288h240.782c8.44,0,15.288-6.843,15.288-15.288
		C284.097,22.13,277.249,15.288,268.809,15.288z"/>
	<path d="M55.866,275.533c1.563,12.183,11.934,21.304,24.216,21.304h136.675c12.282,0,22.652-9.121,24.216-21.304l27.837-216.93
		H28.027L55.866,275.533z M100.618,212.314l-1.056,0.653c-0.507,0.313-1.078,0.468-1.651,0.468c-0.534,0-1.068-0.135-1.553-0.408
		c-0.997-0.568-1.607-1.634-1.588-2.781l0.336-21.971c0.017-1.073,0.578-2.063,1.493-2.625c0.504-0.311,1.076-0.471,1.651-0.471
		c0.464,0,0.929,0.104,1.362,0.314l19.792,9.541c1.033,0.498,1.713,1.521,1.772,2.667c0.061,1.146-0.511,2.233-1.486,2.839
		l-2.205,1.362c4.339,6.689,28.143,29.983,56.764,4.68l3.823,13.532c0.696,2.47,2.518,4.383,4.884,5.304
		C160.414,244.636,118.764,241.752,100.618,212.314z M174.853,132.804c0-0.583-0.097-1.145-0.214-1.7
		c31.056,17.975,33.218,50.153,26.555,68.804l2.266,0.685c1.101,0.331,1.93,1.236,2.167,2.359c0.237,1.123-0.157,2.286-1.029,3.034
		l-16.676,14.307c-0.579,0.494-1.307,0.758-2.046,0.758c-0.305,0-0.612-0.044-0.908-0.134c-1.025-0.311-1.824-1.122-2.115-2.154
		l-5.972-21.143c-0.312-1.105,0.004-2.292,0.823-3.096c0.595-0.584,1.389-0.901,2.2-0.901c0.304,0,0.609,0.046,0.907,0.136
		l1.356,0.409c9.37-28.086-12.281-44.965-21.754-47.699l10.693-6.829C173.453,138.142,174.853,135.587,174.853,132.804z
		 M145.083,124.438v-3.463c0-1.147,0.626-2.205,1.632-2.755c0.471-0.26,0.991-0.387,1.51-0.387c0.588,0,1.176,0.165,1.692,0.495
		l18.519,11.827c0.903,0.579,1.45,1.575,1.45,2.649c0,1.073-0.547,2.07-1.452,2.649l-18.517,11.825
		c-0.517,0.329-1.104,0.495-1.692,0.495c-0.518,0-1.039-0.129-1.51-0.387c-1.006-0.551-1.632-1.609-1.632-2.755v-0.335
		c-27.793,3.022-36.165,28.675-33.838,41.29c-10.178-4.906-10.605-5.374-12.995-5.374c-2.844,0-7.022,4.054-7.022,4.054
		C89.377,149.844,118.089,124.323,145.083,124.438z"/>
</g>
<g>
</g>
<g>
</g>
<g>
</g>
<g>
</g>
<g>
</g>
<g>
</g>
<g>
</g>
<g>
</g>
<g>
</g>
<g>
</g>
<g>
</g>
<g>
</g>
<g>
</g>
<g>
</g>
<g>
</g>
</svg>
