<svg width="51" height="49" viewBox="0 0 51 49" fill="none" xmlns="http://www.w3.org/2000/svg">
<path d="M12 9.91675C9.23858 9.91675 7 12.1553 7 14.9167V32.2709V37.6667C7 40.4282 9.23858 42.6667 12 42.6667H45C47.7614 42.6667 50 40.4282 50 37.6667V14.9167C50 12.1553 47.7614 9.91675 45 9.91675H18.25H12Z" stroke="#3B3D46" stroke-width="2"/>
<line x1="26.5" y1="38.5" x2="39.5" y2="38.5" stroke="#3B3D46" stroke-linecap="round"/>
<line x1="26.5" y1="35.5" x2="34.5" y2="35.5" stroke="#3B3D46" stroke-linecap="round"/>
<path d="M44 13.3335H45.4167C45.969 13.3335 46.4167 13.7812 46.4167 14.3335V15.7502" stroke="#3B3D46" stroke-linecap="round"/>
<path d="M46.417 36.8335L46.417 38.2502C46.417 38.8024 45.9693 39.2502 45.417 39.2502L44.0003 39.2502" stroke="#3B3D46" stroke-linecap="round"/>
<path d="M16 36H17V35V11C17 8.23858 14.7614 6 12 6C9.23858 6 7 8.23858 7 11V35V36H8H12H16Z" fill="white" stroke="#3B3D46" stroke-width="2" stroke-linecap="round"/>
<path d="M17 16C17 18.7614 14.7614 21 12 21C9.23858 21 7 18.7614 7 16C7 13.2386 9.23858 11 12 11C14.7614 11 17 13.2386 17 16Z" fill="white" stroke="#3B3D46" stroke-width="2"/>
<path d="M17 21C17 23.7614 14.7614 26 12 26C9.23858 26 7 23.7614 7 21C7 18.2386 9.23858 16 12 16C14.7614 16 17 18.2386 17 21Z" fill="white" stroke="#3B3D46" stroke-width="2"/>
<path d="M17 26C17 28.7614 14.7614 31 12 31C9.23858 31 7 28.7614 7 26C7 23.2386 9.23858 21 12 21C14.7614 21 17 23.2386 17 26Z" fill="white" stroke="#3B3D46" stroke-width="2"/>
<path d="M17 31C17 33.7614 14.7614 36 12 36C9.23858 36 7 33.7614 7 31C7 28.2386 9.23858 26 12 26C14.7614 26 17 28.2386 17 31Z" fill="white" stroke="#3B3D46" stroke-width="2"/>
<path d="M17 37C17 39.7614 14.7614 42 12 42C9.23858 42 7 39.7614 7 37C7 34.2386 9.23858 32 12 32C14.7614 32 17 34.2386 17 37Z" fill="white" stroke="#3B3D46" stroke-width="2"/>
<path d="M26.9472 24H26.9384C26.8955 23.4827 26.824 22.7929 26.7064 22.03C26.4623 20.4475 25.9974 18.3875 25.0726 16.9453C24.7993 16.519 24.5377 16.1231 24.2907 15.7491C22.9224 13.6779 22 12.2816 22 10.1562C22 5.13051 26.2217 1 31.5 1C36.7783 1 41 5.13051 41 10.1562C41 12.2816 40.0776 13.6779 38.7093 15.7491C38.4623 16.1231 38.2007 16.519 37.9274 16.9453C37.0026 18.3875 36.5377 20.4475 36.2936 22.03C36.176 22.7929 36.1045 23.4827 36.0616 24H36.0528H36.0425H36.0321H36.0216H36.0111H36.0006H35.99H35.9794H35.9687H35.958H35.9473H35.9365H35.9257H35.9148H35.9039H35.8929H35.882H35.8709H35.8599H35.8488H35.8376H35.8264H35.8152H35.804H35.7927H35.7813H35.77H35.7586H35.7471H35.7357H35.7241H35.7126H35.701H35.6894H35.6777H35.666H35.6543H35.6426H35.6308H35.6189H35.6071H35.5952H35.5832H35.5713H35.5593H35.5472H35.5352H35.5231H35.5109H35.4988H35.4866H35.4744H35.4621H35.4498H35.4375H35.4252H35.4128H35.4004H35.388H35.3755H35.363H35.3505H35.3379H35.3253H35.3127H35.3001H35.2874H35.2747H35.262H35.2493H35.2365H35.2237H35.2108H35.198H35.1851H35.1722H35.1593H35.1463H35.1333H35.1203H35.1073H35.0942H35.0811H35.068H35.0549H35.0418H35.0286H35.0154H35.0022H34.9889H34.9756H34.9624H34.949H34.9357H34.9224H34.909H34.8956H34.8822H34.8687H34.8553H34.8418H34.8283H34.8148H34.8012H34.7877H34.7741H34.7605H34.7469H34.7333H34.7196H34.7059H34.6923H34.6786H34.6648H34.6511H34.6374H34.6236H34.6098H34.596H34.5822H34.5684H34.5545H34.5407H34.5268H34.5129H34.499H34.4851H34.4711H34.4572H34.4432H34.4293H34.4153H34.4013H34.3873H34.3732H34.3592H34.3452H34.3311H34.317H34.303H34.2889H34.2748H34.2606H34.2465H34.2324H34.2183H34.2041H34.1899H34.1758H34.1616H34.1474H34.1332H34.119H34.1048H34.0906H34.0764H34.0621H34.0479H34.0337H34.0194H34.0051H33.9909H33.9766H33.9623H33.9481H33.9338H33.9195H33.9052H33.8909H33.8766H33.8623H33.848H33.8337H33.8194H33.805H33.7907H33.7764H33.7621H33.7477H33.7334H33.7191H33.7048H33.6904H33.6761H33.6618H33.6474H33.6331H33.6187H33.6044H33.5901H33.5757H33.5614H33.5471H33.5328H33.5184H33.5041H33.4898H33.4755H33.4611H33.4468H33.4325H33.4182H33.4039H33.3896H33.3753H33.361H33.3467H33.3324H33.3182H33.3039H33.2896H33.2754H33.2611H33.2469H33.2326H33.2184H33.2042H33.1899H33.1757H33.1615H33.1473H33.1331H33.1189H33.1048H33.0906H33.0764H33.0623H33.0482H33.034H33.0199H33.0058H32.9917H32.9776H32.9635H32.9495H32.9354H32.9214H32.9073H32.8933H32.8793H32.8653H32.8513H32.8374H32.8234H32.8095H32.7956H32.7816H32.7677H32.7539H32.74H32.7261H32.7123H32.6985H32.6846H32.6708H32.6571H32.6433H32.6296H32.6158H32.6021H32.5884H32.5747H32.5611H32.5474H32.5338H32.5202H32.5066H32.493H32.4795H32.466H32.4524H32.439H32.4255H32.412H32.3986H32.3852H32.3718H32.3584H32.3451H32.3317H32.3184H32.3052H32.2919H32.2787H32.2654H32.2522H32.2391H32.2259H32.2128H32.1997H32.1866H32.1736H32.1606H32.1476H32.1346H32.1216H32.1087H32.0958H32.0829H32.0701H32.0573H32.0445H32.0317H32.019H32.0062H31.9936H31.9809H31.9683H31.9557H31.9431H31.9305H31.918H31.9055H31.8931H31.8807H31.8683H31.8559H31.8435H31.8312H31.819H31.8067H31.7945H31.7823H31.7702H31.7581H31.746H31.7339H31.7219H31.7099H31.6979H31.686H31.6741H31.6623H31.6505H31.6387H31.6269H31.6152H31.6035H31.5919H31.5803H31.5687H31.5572H31.5456H31.5342H31.5228H31.5114H31.5H31.4886H31.4772H31.4658H31.4544H31.4428H31.4313H31.4197H31.4081H31.3965H31.3848H31.3731H31.3613H31.3495H31.3377H31.3259H31.314H31.3021H31.2901H31.2781H31.2661H31.254H31.2419H31.2298H31.2177H31.2055H31.1933H31.181H31.1688H31.1565H31.1441H31.1317H31.1193H31.1069H31.0945H31.082H31.0695H31.0569H31.0443H31.0317H31.0191H31.0064H30.9938H30.981H30.9683H30.9555H30.9427H30.9299H30.9171H30.9042H30.8913H30.8784H30.8654H30.8524H30.8394H30.8264H30.8134H30.8003H30.7872H30.7741H30.7609H30.7478H30.7346H30.7213H30.7081H30.6948H30.6816H30.6683H30.6549H30.6416H30.6282H30.6148H30.6014H30.588H30.5745H30.561H30.5476H30.534H30.5205H30.507H30.4934H30.4798H30.4662H30.4526H30.4389H30.4253H30.4116H30.3979H30.3842H30.3704H30.3567H30.3429H30.3292H30.3154H30.3015H30.2877H30.2739H30.26H30.2461H30.2323H30.2184H30.2044H30.1905H30.1766H30.1626H30.1487H30.1347H30.1207H30.1067H30.0927H30.0786H30.0646H30.0505H30.0365H30.0224H30.0083H29.9942H29.9801H29.966H29.9518H29.9377H29.9236H29.9094H29.8952H29.8811H29.8669H29.8527H29.8385H29.8243H29.8101H29.7958H29.7816H29.7674H29.7531H29.7389H29.7246H29.7104H29.6961H29.6818H29.6676H29.6533H29.639H29.6247H29.6104H29.5961H29.5818H29.5675H29.5532H29.5389H29.5245H29.5102H29.4959H29.4816H29.4672H29.4529H29.4386H29.4243H29.4099H29.3956H29.3813H29.3669H29.3526H29.3382H29.3239H29.3096H29.2952H29.2809H29.2666H29.2523H29.2379H29.2236H29.2093H29.195H29.1806H29.1663H29.152H29.1377H29.1234H29.1091H29.0948H29.0805H29.0662H29.0519H29.0377H29.0234H29.0091H28.9949H28.9806H28.9663H28.9521H28.9379H28.9236H28.9094H28.8952H28.881H28.8668H28.8526H28.8384H28.8242H28.8101H28.7959H28.7817H28.7676H28.7535H28.7394H28.7252H28.7111H28.697H28.683H28.6689H28.6548H28.6408H28.6268H28.6127H28.5987H28.5847H28.5707H28.5568H28.5428H28.5289H28.5149H28.501H28.4871H28.4732H28.4593H28.4455H28.4316H28.4178H28.404H28.3902H28.3764H28.3626H28.3489H28.3352H28.3214H28.3077H28.2941H28.2804H28.2667H28.2531H28.2395H28.2259H28.2123H28.1988H28.1852H28.1717H28.1582H28.1447H28.1313H28.1178H28.1044H28.091H28.0776H28.0643H28.051H28.0376H28.0244H28.0111H27.9978H27.9846H27.9714H27.9582H27.9451H27.932H27.9189H27.9058H27.8927H27.8797H27.8667H27.8537H27.8407H27.8278H27.8149H27.802H27.7892H27.7763H27.7635H27.7507H27.738H27.7253H27.7126H27.6999H27.6873H27.6747H27.6621H27.6495H27.637H27.6245H27.612H27.5996H27.5872H27.5748H27.5625H27.5502H27.5379H27.5256H27.5134H27.5012H27.4891H27.4769H27.4648H27.4528H27.4407H27.4287H27.4168H27.4048H27.3929H27.3811H27.3692H27.3575H27.3457H27.334H27.3223H27.3106H27.299H27.2874H27.2759H27.2643H27.2529H27.2414H27.23H27.2187H27.2073H27.196H27.1848H27.1736H27.1624H27.1512H27.1401H27.1291H27.118H27.1071H27.0961H27.0852H27.0743H27.0635H27.0527H27.042H27.0313H27.0206H27.01H26.9994H26.9889H26.9784H26.968H26.9575H26.9472Z" fill="white" stroke="#3B3D46" stroke-width="2"/>
<path d="M28 25H27V26V27C27 28.6569 28.3431 30 30 30H33C34.6569 30 36 28.6569 36 27V26V25H35H28Z" stroke="#3B3D46" stroke-width="2"/>
<path d="M29.5 16.8097C29.5 16.4164 29.9331 16.1771 30.2661 16.3864L30.7017 16.6602C31.1897 16.967 31.8103 16.967 32.2983 16.6602L32.7339 16.3864C33.0669 16.1771 33.5 16.4164 33.5 16.8097V25C33.5 25.2761 33.2761 25.5 33 25.5H30C29.7239 25.5 29.5 25.2761 29.5 25V16.8097Z" stroke="#3B3D46" stroke-linecap="round" stroke-linejoin="round"/>
</svg>
