<svg width="51" height="49" viewBox="0 0 51 49" fill="none" xmlns="http://www.w3.org/2000/svg">
<path d="M12 9.91675C9.23858 9.91675 7 12.1553 7 14.9167V32.2709V37.6667C7 40.4282 9.23858 42.6667 12 42.6667H45C47.7614 42.6667 50 40.4282 50 37.6667V14.9167C50 12.1553 47.7614 9.91675 45 9.91675H18.25H12Z" stroke="#3B3D46" stroke-width="2"/>
<line x1="26.5" y1="38.5" x2="39.5" y2="38.5" stroke="#3B3D46" stroke-linecap="round"/>
<line x1="26.5" y1="35.5" x2="34.5" y2="35.5" stroke="#3B3D46" stroke-linecap="round"/>
<path d="M44 13.3335H45.4167C45.969 13.3335 46.4167 13.7812 46.4167 14.3335V15.7502" stroke="#3B3D46" stroke-linecap="round"/>
<path d="M46.417 36.8335L46.417 38.2502C46.417 38.8024 45.9693 39.2502 45.417 39.2502L44.0003 39.2502" stroke="#3B3D46" stroke-linecap="round"/>
<path d="M16 36H17V35V11C17 8.23858 14.7614 6 12 6C9.23858 6 7 8.23858 7 11V35V36H8H12H16Z" fill="white" stroke="#3B3D46" stroke-width="2" stroke-linecap="round"/>
<path d="M17 16C17 18.7614 14.7614 21 12 21C9.23858 21 7 18.7614 7 16C7 13.2386 9.23858 11 12 11C14.7614 11 17 13.2386 17 16Z" fill="white" stroke="#3B3D46" stroke-width="2"/>
<path d="M17 21C17 23.7614 14.7614 26 12 26C9.23858 26 7 23.7614 7 21C7 18.2386 9.23858 16 12 16C14.7614 16 17 18.2386 17 21Z" fill="white" stroke="#3B3D46" stroke-width="2"/>
<path d="M17 26C17 28.7614 14.7614 31 12 31C9.23858 31 7 28.7614 7 26C7 23.2386 9.23858 21 12 21C14.7614 21 17 23.2386 17 26Z" fill="white" stroke="#3B3D46" stroke-width="2"/>
<path d="M17 31C17 33.7614 14.7614 36 12 36C9.23858 36 7 33.7614 7 31C7 28.2386 9.23858 26 12 26C14.7614 26 17 28.2386 17 31Z" fill="white" stroke="#3B3D46" stroke-width="2"/>
<path d="M17 37C17 39.7614 14.7614 42 12 42C9.23858 42 7 39.7614 7 37C7 34.2386 9.23858 32 12 32C14.7614 32 17 34.2386 17 37Z" fill="white" stroke="#3B3D46" stroke-width="2"/>
<path d="M30.8704 6.125V2.70833C30.8704 1.76485 31.6353 1 32.5788 1V1C33.5223 1 34.2871 1.76485 34.2871 2.70833V6.125" stroke="#3B3D46" stroke-width="2"/>
<path d="M32.5788 9.54175L24.0371 31.7501" stroke="#3B3D46" stroke-width="2" stroke-linecap="round"/>
<path d="M32.5789 9.54175L41.1206 31.7501" stroke="#3B3D46" stroke-width="2" stroke-linecap="round"/>
<path d="M24.1216 22.8499L24.5838 23.0405L24.1216 22.8499ZM28.9698 11.094L29.4321 11.2846L28.9698 11.094ZM25.5659 27.0915C25.8236 27.1906 26.1129 27.0621 26.2121 26.8043C26.3112 26.5466 26.1826 26.2573 25.9249 26.1582L25.5659 27.0915ZM32.3997 10.0081C32.6574 10.1073 32.9467 9.97868 33.0458 9.72095C33.145 9.46321 33.0164 9.17391 32.7587 9.07478L32.3997 10.0081ZM24.5838 23.0405L29.4321 11.2846L28.5076 10.9034L23.6594 22.6593L24.5838 23.0405ZM23.6594 22.6593C22.9374 24.4099 23.7984 26.4117 25.5659 27.0915L25.9249 26.1582C24.6817 25.68 24.076 24.2719 24.5838 23.0405L23.6594 22.6593ZM29.4321 11.2846C29.9107 10.124 31.228 9.55744 32.3997 10.0081L32.7587 9.07478C31.0802 8.42918 29.1932 9.24085 28.5076 10.9034L29.4321 11.2846Z" fill="#3B3D46"/>
<path d="M41.0361 22.8499L40.5739 23.0405L41.0361 22.8499ZM36.1879 11.094L35.7256 11.2846L36.1879 11.094ZM39.5918 27.0915C39.3341 27.1906 39.0448 27.0621 38.9457 26.8043C38.8465 26.5466 38.9751 26.2573 39.2328 26.1582L39.5918 27.0915ZM32.758 10.0081C32.5003 10.1073 32.211 9.97868 32.1119 9.72095C32.0127 9.46321 32.1413 9.17391 32.399 9.07478L32.758 10.0081ZM40.5739 23.0405L35.7256 11.2846L36.6501 10.9034L41.4983 22.6593L40.5739 23.0405ZM41.4983 22.6593C42.2203 24.4099 41.3593 26.4117 39.5918 27.0915L39.2328 26.1582C40.4761 25.68 41.0817 24.2719 40.5739 23.0405L41.4983 22.6593ZM35.7256 11.2846C35.247 10.124 33.9297 9.55744 32.758 10.0081L32.399 9.07478C34.0775 8.42918 35.9645 9.24085 36.6501 10.9034L35.7256 11.2846Z" fill="#3B3D46"/>
<circle cx="32.5791" cy="9.54175" r="4.625" fill="white" stroke="#3B3D46"/>
<path d="M28.125 19.7917C28.7467 21.7823 30.4241 23.2084 32.3958 23.2084C34.3676 23.2084 36.045 21.7823 36.6667 19.7917" stroke="#3B3D46"/>
<circle cx="32.5789" cy="9.54158" r="1.70833" fill="#3B3D46"/>
</svg>
