<svg width="27" height="38" viewBox="0 0 27 38" fill="none" xmlns="http://www.w3.org/2000/svg">
<path d="M26.3077 0H20.4615V5.84615H21.6762C20.6689 11.4876 16.713 14.5037 12.2769 17.8308L12.1688 17.9119C7.6845 21.2747 2.73424 24.9869 1.67005 32.1538H0V38H5.84615V32.1538H4.63154C5.63879 26.5124 9.59465 23.4963 14.0308 20.1692L14.1389 20.0881C18.6232 16.7253 23.5735 13.0131 24.6376 5.84615H26.3077V0Z" fill="#3B3D46"/>
<path d="M6 12H16.8837C15.4079 13.6659 13.4918 15.1311 11.32 16.76L11.1048 16.9213C9.44483 18.166 7.64331 19.5168 6 21.1474V12Z" fill="#3B3D46"/>
<path d="M20 26H9.1163C10.5921 24.3341 12.5082 22.8688 14.68 21.24L14.8952 21.0787C16.5552 19.834 18.3567 18.4832 20 16.8526V26Z" fill="#3B3D46"/>
</svg>
