<svg width="18" height="26" viewBox="0 0 18 26" fill="none" xmlns="http://www.w3.org/2000/svg">
<g opacity="0.4">
<path d="M11.7741 8H4V14.5339C5.1738 13.3691 6.46059 12.4043 7.64632 11.5152L7.72603 11.4555L7.8 11.4C9.35128 10.2365 10.7199 9.18992 11.7741 8Z" fill="#3B3D46"/>
<path d="M6.22593 18H14V11.4661C12.8262 12.6309 11.5394 13.5957 10.3537 14.4848L10.2 14.6C8.64872 15.7635 7.28008 16.8101 6.22593 18Z" fill="#3B3D46"/>
</g>
<path d="M14 0H18V4H16.8573C16.1292 8.90369 12.7422 11.4436 9.67399 13.7445L9.6 13.8C6.56476 16.0764 3.85812 18.14 3.16895 22H4V26H0V22H1.14267C1.87079 17.0963 5.25782 14.5564 8.32601 12.2555L8.4 12.2C11.4352 9.92357 14.1419 7.85995 14.8311 4H14V0Z" fill="#3B3D46"/>
</svg>
