<svg width="51" height="48" viewBox="0 0 51 48" fill="none" xmlns="http://www.w3.org/2000/svg">
<path d="M12 8.91675C9.23858 8.91675 7 11.1553 7 13.9167V31.2709V36.6667C7 39.4282 9.23858 41.6667 12 41.6667H45C47.7614 41.6667 50 39.4282 50 36.6667V13.9167C50 11.1553 47.7614 8.91675 45 8.91675H18.25H12Z" stroke="#3B3D46" stroke-width="2"/>
<line x1="26.5" y1="37.5" x2="39.5" y2="37.5" stroke="#3B3D46" stroke-linecap="round"/>
<line x1="26.5" y1="34.5" x2="34.5" y2="34.5" stroke="#3B3D46" stroke-linecap="round"/>
<path d="M44 12.3335H45.4167C45.969 12.3335 46.4167 12.7812 46.4167 13.3335V14.7502" stroke="#3B3D46" stroke-linecap="round"/>
<path d="M46.417 35.8335L46.417 37.2502C46.417 37.8024 45.9693 38.2502 45.417 38.2502L44.0003 38.2502" stroke="#3B3D46" stroke-linecap="round"/>
<path d="M16 35H17V34V10C17 7.23858 14.7614 5 12 5C9.23858 5 7 7.23858 7 10V34V35H8H12H16Z" fill="white" stroke="#3B3D46" stroke-width="2" stroke-linecap="round"/>
<path d="M17 15C17 17.7614 14.7614 20 12 20C9.23858 20 7 17.7614 7 15C7 12.2386 9.23858 10 12 10C14.7614 10 17 12.2386 17 15Z" fill="white" stroke="#3B3D46" stroke-width="2"/>
<path d="M17 20C17 22.7614 14.7614 25 12 25C9.23858 25 7 22.7614 7 20C7 17.2386 9.23858 15 12 15C14.7614 15 17 17.2386 17 20Z" fill="white" stroke="#3B3D46" stroke-width="2"/>
<path d="M17 25C17 27.7614 14.7614 30 12 30C9.23858 30 7 27.7614 7 25C7 22.2386 9.23858 20 12 20C14.7614 20 17 22.2386 17 25Z" fill="white" stroke="#3B3D46" stroke-width="2"/>
<path d="M17 30C17 32.7614 14.7614 35 12 35C9.23858 35 7 32.7614 7 30C7 27.2386 9.23858 25 12 25C14.7614 25 17 27.2386 17 30Z" fill="white" stroke="#3B3D46" stroke-width="2"/>
<path d="M17 36C17 38.7614 14.7614 41 12 41C9.23858 41 7 38.7614 7 36C7 33.2386 9.23858 31 12 31C14.7614 31 17 33.2386 17 36Z" fill="white" stroke="#3B3D46" stroke-width="2"/>
<circle cx="42.5" cy="25.5" r="1.25" stroke="#3B3D46" stroke-width="0.5"/>
<circle cx="40" cy="29" r="0.75" stroke="#3B3D46" stroke-width="0.5"/>
<circle cx="32.0003" cy="13.0001" r="10.8333" fill="white"/>
<path d="M28.106 9.08782C30.3054 6.87535 33.8714 6.87535 36.0708 9.08782C37.1705 10.1947 37.7202 11.6444 37.7202 13.095" stroke="#3B3D46" stroke-linecap="round" stroke-linejoin="round"/>
<path d="M27.9097 7.42847V9.39932H29.8686" stroke="#3B3D46" stroke-linecap="round" stroke-linejoin="round"/>
<path d="M35.8955 16.9119C33.6961 19.1244 30.1301 19.1244 27.9307 16.9119C26.831 15.8051 26.2813 14.3553 26.2813 12.9048" stroke="#3B3D46" stroke-linecap="round" stroke-linejoin="round"/>
<path d="M36.0918 18.5713V16.6004H34.1329" stroke="#3B3D46" stroke-linecap="round" stroke-linejoin="round"/>
<path d="M32.0003 23.8334C37.9834 23.8334 42.8337 18.9832 42.8337 13.0001C42.8337 8.40678 39.975 4.48116 35.9397 2.90527M32.0003 2.16675C26.0172 2.16675 21.167 7.017 21.167 13.0001C21.167 17.5934 24.0257 21.519 28.0609 23.0949" stroke="#3B3D46" stroke-width="2" stroke-linecap="round"/>
<circle cx="32.0007" cy="23.8334" r="1.66667" fill="white" stroke="#3B3D46"/>
<circle cx="32.0007" cy="2.16667" r="1.66667" fill="white" stroke="#3B3D46"/>
</svg>
