<?xml version="1.0" encoding="utf-8"?>
<!-- Generator: Adobe Illustrator 19.2.1, SVG Export Plug-In . SVG Version: 6.00 Build 0)  -->
<svg version="1.1" id="Linkedin" xmlns="http://www.w3.org/2000/svg" xmlns:xlink="http://www.w3.org/1999/xlink" x="0px" y="0px"
	 viewBox="0 0 50 50" style="enable-background:new 0 0 50 50;" xml:space="preserve">
<style type="text/css">
	.st0{fill:#798095;}
</style>
<g>
	<path class="st0" d="M25,2c12.7,0,23,10.3,23,23S37.7,48,25,48S2,37.7,2,25S12.3,2,25,2 M25,0C11.2,0,0,11.2,0,25s11.2,25,25,25
		s25-11.2,25-25S38.8,0,25,0L25,0z"/>
</g>
<g>
	<g>
		<rect x="13.3" y="21" class="st0" width="5.2" height="15.5"/>
		<path class="st0" d="M35.4,22.4c-1.1-1.2-2.5-1.8-4.3-1.8c-0.7,0-1.3,0.1-1.8,0.2c-0.5,0.2-1,0.4-1.4,0.7
			c-0.4,0.3-0.7,0.6-0.9,0.8c-0.2,0.2-0.4,0.5-0.6,0.8V21h-5.1l0,0.8c0,0.5,0,2,0,4.6c0,2.6,0,6,0,10.1h5.1v-8.6
			c0-0.5,0.1-1,0.2-1.3c0.2-0.5,0.5-1,1-1.3c0.4-0.4,1-0.5,1.6-0.5c0.9,0,1.6,0.3,2,0.9c0.4,0.6,0.6,1.5,0.6,2.6v8.3H37v-8.9
			C37,25.3,36.5,23.6,35.4,22.4z"/>
		<path class="st0" d="M15.9,13.5c-0.9,0-1.6,0.3-2.1,0.8c-0.5,0.5-0.8,1.1-0.8,1.9c0,0.8,0.3,1.4,0.8,1.9c0.5,0.5,1.2,0.8,2.1,0.8
			h0c0.9,0,1.6-0.3,2.1-0.8c0.5-0.5,0.8-1.1,0.8-1.9c0-0.8-0.3-1.4-0.8-1.9C17.5,13.8,16.8,13.5,15.9,13.5z"/>
	</g>
</g>
</svg>
