<svg width="40" height="40" viewBox="0 0 40 40" fill="none" xmlns="http://www.w3.org/2000/svg">
<path d="M10.5 26C10.5 26.4 14.1667 27.1667 16 27.5L14 24L12.5 22H12C11.5 23.1667 10.5 25.6 10.5 26Z" fill="#34363E"/>
<path d="M29.5 26C29.5 26.4 25.8333 27.1667 24 27.5L26 24L27.5 22H28C28.5 23.1667 29.5 25.6 29.5 26Z" fill="#34363E"/>
<path fill-rule="evenodd" clip-rule="evenodd" d="M27.3478 18.3477C27.3478 14.2895 24.0583 11 20.0001 11C15.9419 11 12.6523 14.2895 12.6523 18.3477C12.6523 18.8903 12.7303 19.4114 12.8423 19.9201C12.7224 20.2785 12.6523 20.7092 12.6523 21.1738C12.6523 22.4229 13.1588 23.4346 13.7828 23.4346C13.9003 23.4346 14.0111 23.3883 14.1174 23.3227C14.9471 26.6721 17.2633 29.0867 20.0001 29.0867C22.7368 29.0867 25.053 26.6721 25.8828 23.3227C25.989 23.3883 26.0998 23.4346 26.2174 23.4346C26.8414 23.4346 27.3478 22.4229 27.3478 21.1738C27.3478 20.7092 27.2777 20.2785 27.1579 19.9201C27.2698 19.4114 27.3478 18.8903 27.3478 18.3477V18.3477Z" stroke="#34363E" stroke-linecap="round" stroke-linejoin="round"/>
<path d="M12.8427 19.9201C12.8427 19.9201 17.1744 18.2064 17.1744 14.3912C17.1744 15.4154 22.2116 19.9201 27.1571 19.9201" stroke="#34363E" stroke-linecap="round" stroke-linejoin="round"/>
<path d="M17.1741 21.1738H18.3045" stroke="#34363E" stroke-linecap="round" stroke-linejoin="round"/>
<path d="M21.6957 21.1738H22.8261" stroke="#34363E" stroke-linecap="round" stroke-linejoin="round"/>
<path d="M12.6523 18.3477C12.6523 20.2196 11.6282 24.4587 10.3915 25.6954C11.54 26.8439 16.0436 27.391 16.0436 27.391" stroke="#34363E" stroke-linecap="round" stroke-linejoin="round"/>
<path d="M27.3477 18.3477C27.3477 20.2196 28.3718 24.4587 29.6085 25.6954C28.46 26.8439 23.9564 27.391 23.9564 27.391" stroke="#34363E" stroke-linecap="round" stroke-linejoin="round"/>
</svg>
