<svg width="58" height="58" viewBox="0 0 58 58" fill="none" xmlns="http://www.w3.org/2000/svg">
<circle cx="29" cy="29" r="28.5" stroke="#F5F5F8"/>
<path d="M24.5013 39.7497C24.5013 39.7497 28.9386 43.3512 32.6962 44.5414C36.5433 45.7604 39.0418 44.8556 39.3887 43.405C39.7335 41.9547 37.9081 40.092 33.9473 39.2872C29.8037 38.4485 24.5013 39.7497 24.5013 39.7497Z" fill="#E7317C"/>
<path d="M17.9779 30.4242C17.9779 30.4242 14.472 25.8847 13.3352 22.0574C12.1705 18.1397 13.0835 15.6116 14.5165 15.2748C15.9481 14.9387 17.7684 16.8073 18.5215 20.836C19.3066 25.0549 17.9779 30.4242 17.9779 30.4242Z" fill="#821F81"/>
<path d="M11.2367 26.9437C11.5531 26.6765 11.6884 26.2195 11.5376 25.8025C11.3493 25.2872 10.7923 25.0251 10.2936 25.2218C10.1941 25.2598 10.106 25.315 10.0291 25.3787C9.71124 25.6459 9.57831 26.1023 9.72811 26.5189C9.91639 27.0369 10.4738 27.2973 10.9718 27.1017C11.0713 27.064 11.1594 27.0085 11.2367 26.9437Z" fill="#00809F"/>
<path d="M41.9927 38.2156C42.4219 37.8552 42.6068 37.2306 42.403 36.6649C42.1466 35.9581 41.3844 35.6015 40.7065 35.8704C40.5719 35.9225 40.4501 35.9969 40.3452 36.0863C39.9119 36.4481 39.7335 37.073 39.9356 37.6397C40.19 38.3444 40.9525 38.7021 41.6317 38.4335C41.7663 38.38 41.8871 38.3071 41.9927 38.2156Z" fill="#F19220"/>
<path d="M21.6378 15.259C22.0403 14.8654 22.1763 14.2285 21.9326 13.6786C21.6232 12.9947 20.8368 12.698 20.1815 13.0174C20.0479 13.0804 19.9342 13.1637 19.836 13.2606C19.4328 13.6529 19.2978 14.2908 19.5415 14.84C19.8488 15.5256 20.6373 15.8226 21.2936 15.5033C21.4238 15.4382 21.5382 15.3567 21.6378 15.259Z" fill="#F19220"/>
<path d="M33.9041 28.1765C33.9041 28.1765 34.502 28.0899 35.3425 27.4105C36.183 26.7318 36.3503 26.2374 36.3503 26.2374L33.6764 22.8253L31.0001 19.413C31.0001 19.413 30.4889 19.4678 29.6485 20.1479C28.8087 20.8269 28.5907 21.4008 28.5907 21.4008L30.0429 23.2526C30.0429 23.2526 29.6292 24.0248 28.8323 24.5099C28.037 24.9951 27.0683 25.5618 27.0683 25.5618C27.0683 25.5618 25.1876 28.2132 23.8434 29.3003C21.8274 30.9308 15.9832 34.3798 14.0141 35.9716C12.0467 37.563 11.0608 39.3548 11.9013 40.4265C12.7431 41.4999 14.6828 40.926 16.6509 39.3349C18.62 37.7435 23.2415 32.7343 25.2575 31.1045C26.602 30.0184 29.5685 28.7504 29.5685 28.7504C29.5685 28.7504 30.3293 27.9199 30.9731 27.2399C31.6175 26.5608 32.4509 26.3237 32.4509 26.3237L33.9041 28.1765Z" fill="#1D1D1B"/>
<path d="M24.5002 34.4321L27.8608 37.1507L48.3335 30.1629L43.8376 26.5295L24.5002 34.4321Z" fill="#F19220"/>
<path d="M22.299 28.5374L25.9049 20.1072L23.3213 16.0377L20.7368 27.573L22.299 28.5374Z" fill="#00809F"/>
</svg>
