<svg width="184" height="57" viewBox="0 0 184 57" fill="none" xmlns="http://www.w3.org/2000/svg">
<path d="M33.7203 46.2851C35.6421 52.5971 41.5776 56.8913 50.6059 56.8913C56.8817 56.8913 131.881 56.8913 133.663 56.8913C137.626 56.8913 143.141 57.7362 151.629 50.9967C167.554 38.3428 169.045 16.9515 167.424 10.9575C165.962 5.52025 161.478 1.54417 155.683 1.54417C149.888 1.54417 72.1558 1.54417 67.7718 1.54417C63.3877 1.54417 58.6333 1.32548 50.3657 8.5719C43.3993 14.6752 39.5858 21.8719 35.2718 32.1898C36.2126 26.9513 32.1889 21.8123 32.1889 21.8123C34.6112 19.5856 36.1226 16.4147 36.1226 12.886C36.1226 6.17631 30.6475 0.739014 23.8913 0.739014C17.135 0.739014 11.1595 5.94768 11.1595 12.6573C11.1595 14.039 11.3997 15.3611 11.8201 16.6036C11.8201 16.6036 7.36601 13.8104 5.96472 13.1046C4.55342 12.4088 2.10115 11.8223 0.920062 13.3432C-0.251019 14.8541 -0.361121 17.6473 0.920062 19.7447C2.21125 21.8421 6.42514 28.005 10.5289 30.2117C10.5289 30.2117 10.0585 35.4403 13.3415 37.4184C13.3415 37.4184 13.2214 41.0267 14.7428 41.9511C14.7428 41.9511 14.983 43.7006 15.7938 44.1678V47.8954C15.7938 47.8954 11.3397 51.6229 13.5617 54.8734C15.7938 58.1338 21.0587 56.5036 22.1196 55.8078C22.1196 55.8078 29.6165 57.9052 31.138 54.6448C32.6694 51.3844 31.3782 49.0683 29.6166 47.8954V44.7543L33.7203 46.2851Z" fill="white"/>
<path d="M51.0765 52.0804C39.1255 52.0804 36.2628 44.3668 41.0072 32.5379C44.6405 23.4625 47.9136 17.2896 53.8891 12.0611C60.7354 6.06713 64.669 6.24605 68.2924 6.24605C71.9257 6.24605 148.777 6.24605 153.571 6.24605C158.376 6.24605 163.06 9.38715 163.3 14.0392C163.54 18.6912 160.908 36.7227 147.716 47.1997C140.689 52.7861 136.115 52.0903 132.832 52.0903C129.559 52.0804 54.4696 52.0804 51.0765 52.0804Z" fill="#FCB131"/>
<path d="M51.0762 53.2533C48.3337 53.2533 46.0215 52.8557 44.1198 52.1102C41.9378 51.2454 40.3263 49.9333 39.2453 48.2037C38.1743 46.5039 37.6538 44.4364 37.6538 42.0607C37.6538 39.1879 38.4245 35.848 39.9159 32.1205C41.7576 27.5181 43.5092 23.6514 45.5611 20.2717C47.643 16.8424 50.0252 13.9 53.1081 11.1963C60.0845 5.08308 64.2183 5.09302 67.9718 5.09302H68.2821H153.561H153.621C154.372 5.09302 155.112 5.17254 155.823 5.30176C156.544 5.44092 157.254 5.62979 157.925 5.88824C161.478 7.22023 164.251 10.1526 164.441 13.9895V14.0491C164.471 14.7549 164.441 15.739 164.331 16.9219C164.221 18.0948 164.03 19.4666 163.75 20.9675C162.279 28.711 158.135 40.3708 148.416 48.0944C141.73 53.4024 137.136 53.313 133.763 53.2533C133.542 53.2533 133.342 53.2434 132.802 53.2434H51.0762V53.2533ZM44.9806 49.9532C46.5921 50.5894 48.6239 50.9273 51.0762 50.9273H132.842C132.932 50.9273 133.392 50.9373 133.843 50.9472C136.865 51.0069 140.969 51.0864 146.995 46.3051C156.163 39.0289 160.077 27.9356 161.488 20.56C161.768 19.1087 161.939 17.8165 162.039 16.733C162.139 15.6694 162.169 14.7947 162.139 14.1684V14.1088C161.999 11.2858 159.867 9.09893 157.134 8.06515C156.584 7.8564 156.003 7.69735 155.423 7.58801C154.832 7.47867 154.231 7.41903 153.641 7.41903H153.581H68.3021H67.9918C64.6587 7.41903 60.9853 7.40909 54.6695 12.9458C51.7768 15.4805 49.5348 18.2439 47.573 21.4745C45.5811 24.7548 43.8796 28.5122 42.0879 32.9853C40.7066 36.4246 39.996 39.4862 39.996 42.0706C39.996 44.0189 40.3963 45.669 41.2271 46.991C42.0479 48.2733 43.289 49.2773 44.9806 49.9532Z" fill="#231F20"/>
<path d="M47.323 43.2432C47.323 43.2432 73.0968 43.2432 76.3798 43.2432C79.6629 43.2432 87.6202 40.7283 88.441 33.9392C88.7913 31.0267 86.0387 28.7007 84.4573 28.1142C84.4573 28.1142 94.8168 26.8418 94.8168 19.1581C94.8168 15.6094 90.9533 13.8699 88.0206 13.8699C85.0879 13.8699 62.1267 13.8699 62.1267 13.8699L47.323 43.2432ZM69.4734 24.5755L73.6273 18.4722C73.6273 18.4722 78.6619 18.4722 79.4827 18.4722C80.3034 18.4722 82.5855 18.5815 82.4654 20.9672C82.3553 23.3528 78.1915 24.5755 76.7902 24.5755C75.3789 24.5755 69.4734 24.5655 69.4734 24.5755ZM60.0948 37.8854L65.5999 29.6251C65.5999 29.6251 71.5754 29.6251 72.9867 29.6251C74.398 29.6251 75.6792 30.6788 75.0986 33.293C74.5081 35.9073 70.2341 37.8854 68.943 37.8854C67.6518 37.8854 60.0948 37.8854 60.0948 37.8854Z" fill="#231F20"/>
<path d="M88.821 43.2434H102.654L110.971 20.5002H102.474L88.821 43.2434Z" fill="#231F20"/>
<path d="M109.52 19.8539C111.873 19.5458 113.584 17.7466 113.334 15.8083C113.074 13.8898 110.962 12.5678 108.6 12.8759C106.237 13.1741 104.546 14.9932 104.796 16.9216C105.046 18.85 107.168 20.1621 109.52 19.8539Z" fill="#231F20"/>
<path d="M140.749 26.842H146.785L158.616 14.1583H146.434L145.203 16.3749C145.203 16.3749 143.031 13.1742 135.304 13.1742C127.567 13.1742 116.327 17.5379 113.624 27.5477C110.932 37.5575 118.088 43.7205 127.337 43.7205C136.585 43.7205 142.1 41.0366 146.665 35.9174L143.091 32.5477C143.091 32.5477 138.047 40.2314 128.628 38.0148C124.574 37.0705 124.644 28.83 129.909 23.3629C135.184 17.8958 138.757 18.532 139.989 19.2278C141.22 19.9137 143.442 21.3152 140.749 26.842Z" fill="#231F20"/>
<path d="M14.993 13.3435C14.993 8.72127 18.7565 4.96387 23.4208 4.96387C28.0851 4.96387 31.8586 8.72127 31.8586 13.3435C31.8586 17.9657 28.0851 21.7131 23.4208 21.7131C18.7665 21.7231 14.993 17.9657 14.993 13.3435Z" fill="#231F20"/>
<path d="M17.7456 11.7132C17.7456 10.073 19.0768 8.75098 20.7284 8.75098C22.3799 8.75098 23.7111 10.073 23.7111 11.7132C23.7111 13.3434 22.3799 14.6753 20.7284 14.6753C19.0868 14.6753 17.7456 13.3533 17.7456 11.7132Z" fill="white"/>
<path d="M3.39254 17.6873C4.20329 21.2856 8.3371 24.9933 11.48 27.3392C11.7202 27.5082 12.2407 28.1245 12.1306 27.041C12.1306 27.041 12.1306 26.5142 12.541 26.9217C12.9514 27.3392 30.5476 40.7982 31.3383 41.4145C31.8388 41.7823 32.2892 41.9612 32.6295 42.1103C33.2401 42.3887 33.6805 42.6869 34.0008 42.8161C34.5613 43.0248 34.7114 42.9056 34.4212 42.4384C34.281 42.2197 33.8106 41.4543 33.6304 41.1561C33.3101 40.6491 33.0699 40.2515 32.6595 39.9036C32.069 39.3967 16.1743 25.6195 16.1743 25.6195C16.1743 25.6195 5.22423 16.0769 4.69374 15.5004C4.28336 15.063 3.87298 14.6853 3.73285 15.3612C3.61274 15.8085 3.31246 17.2896 3.39254 17.6873Z" fill="#231F20"/>
<path d="M29.0161 37.5975L29.7969 37.4087C29.5066 36.683 30.1472 36.196 30.2172 35.848C30.3674 35.1821 30.5375 28.8402 30.0171 27.6474C29.5867 26.6832 26.4137 22.8164 26.0134 22.7667C25.7531 22.727 25.5329 23.0749 25.3828 23.4029C24.7222 23.7806 24.2417 23.4427 23.9815 23.1445C24.0115 23.0649 24.0516 22.9854 24.0816 22.9059C24.2517 22.5282 23.9314 22.4983 23.7212 22.5282C23.461 22.558 22.7103 22.5282 22.7103 22.5282C22.4801 22.5083 22.41 22.6673 22.4501 22.8065C22.3099 23.1146 21.8795 23.7707 20.8986 23.0351V23.0451C20.4082 22.5878 20.0479 22.8264 19.6475 22.9158C18.9769 23.055 17.7157 23.3234 16.8949 23.6912C16.0742 24.0788 14.4026 32.3889 14.2825 33.2139C14.1624 34.019 14.4227 34.019 14.6028 34.1681C14.773 34.3173 15.8039 34.8938 16.3845 35.192C16.965 35.4803 17.0551 35.689 17.0551 35.9474C17.0551 36.2059 17.0551 39.5557 17.0551 39.7844C17.0551 40.1323 16.925 41.0965 17.6757 41.0567C18.4464 41.0368 18.4564 41.4941 18.4864 41.7028C18.5164 41.9116 18.2462 43.3927 18.9268 43.4523C19.5974 43.512 19.6575 43.5617 19.6575 44.1581C19.6575 44.5656 19.6575 48.5815 19.6575 49.3071C19.6575 50.0327 19.6475 50.3309 19.4573 50.4403C17.9359 51.315 16.4646 53.2434 17.3153 53.6708C18.5164 54.2772 21.299 51.7524 22.2099 51.7822C22.6803 51.8021 22.9105 52.1301 23.5911 52.1699C23.9915 52.1798 24.2918 52.5377 25.3427 53.0049C26.3937 53.472 27.2645 53.2335 27.3046 52.3389C27.3346 51.7027 26.7741 51.2057 26.0434 50.7683C25.3127 50.3309 25.2226 49.983 25.2226 49.983C25.2226 47.488 25.4629 46.6133 25.4629 46.325C25.4629 43.6511 25.9433 43.7505 26.3637 43.3827C26.5639 43.2137 26.4237 42.3092 26.4237 41.9315C26.4237 41.5537 26.3337 41.1462 26.9142 41.1462C27.5047 41.1462 28.0853 40.9772 28.0252 40.4504C27.9552 39.7844 27.9652 38.7108 28.5457 39.2774L29.0161 37.5975ZM25.2126 23.8005L25.1826 23.88C25.0725 24.1782 24.542 25.4605 24.2217 25.4605C23.9014 25.4605 23.5211 24.1385 23.6312 23.9397C23.6912 23.8303 23.7713 23.6514 23.8514 23.4526C24.1416 23.7309 24.6021 24.0093 25.2126 23.8005ZM22.6302 23.1146C22.7704 23.383 22.9505 23.8204 22.9305 23.9894C22.7804 25.4406 22.2499 25.5699 22.0797 25.1424C21.8095 24.4665 21.5693 23.9794 21.3491 23.6216C22.0397 23.8601 22.4301 23.4526 22.6302 23.1146Z" fill="#231F20"/>
<path d="M15.3234 33.9295C15.7338 34.3072 16.4145 34.3967 16.9549 34.5756C17.5155 34.7744 17.4254 33.5816 17.4254 33.3828C17.4254 32.8858 16.6447 32.5378 16.7247 32.0408C16.8849 31.0568 17.4454 29.3967 17.7857 28.6313C17.8057 28.5518 17.9258 28.363 18.0259 28.363C18.126 28.363 18.1561 28.4325 18.1661 28.7109C17.9459 32.518 17.7157 35.838 17.7157 39.7246C17.7157 40.9473 18.7966 40.6789 19.2471 40.6789C21.7193 40.7186 24.1916 40.7186 26.814 40.5298C27.2444 40.5 27.4146 39.9234 27.4446 39.6352C27.5347 37.7863 27.1544 35.9076 27.2645 33.9692C27.3345 32.7665 27.1143 30.2218 27.6748 30.2218C28.2354 30.2218 27.3045 35.8579 28.2053 37.17C30.4274 36.5636 29.9369 31.7923 29.7267 28.7606C29.6467 27.518 27.2044 24.6056 26.0934 23.6712C25.643 24.4565 25.1125 25.361 24.622 26.1463C24.2417 26.7626 23.6611 27.866 23.1607 27.866C22.7503 27.866 21.7894 25.8879 21.339 24.7845C21.1388 24.2775 20.6584 23.3432 20.1779 23.4127C19.177 23.5519 17.1251 23.8799 16.8949 24.6652C16.0241 27.5677 15.3034 30.1423 14.9331 33.2038C14.863 33.7506 15.0732 33.681 15.3234 33.9295Z" fill="#FCB131"/>
<path d="M23.691 41.0367C24.2215 41.0367 24.772 41.1958 25.2424 41.2057C26.0532 41.2256 25.833 42.0208 25.853 42.4284C25.883 42.826 25.4226 43.0049 24.9722 43.0049C24.5318 43.0049 24.0914 43.0347 23.7411 43.0049C23.3907 42.9751 22.9203 42.8558 22.9203 42.3588C22.9203 41.9811 22.9303 41.8518 22.9203 41.7326C22.9003 41.3648 23.1005 41.0367 23.691 41.0367Z" fill="#FCB131"/>
<path d="M20.0377 41.2059C20.328 41.186 21.1488 41.2059 21.409 41.2059C21.6692 41.2059 21.8995 41.3748 21.8995 41.7625C21.8995 42.1502 22.0796 42.9951 20.8585 42.9951C20.1879 42.9951 19.4071 42.8659 19.267 42.7168C19.1269 42.5677 19.1469 42.1402 19.1769 41.8122C19.237 41.2854 19.6774 41.2357 20.0377 41.2059Z" fill="#FCB131"/>
<path d="M23.1406 43.5911C23.4609 43.4022 24.0915 43.4917 24.4118 43.4718C24.7621 43.4519 25.0624 43.7302 25.0424 44.7541C25.0123 45.768 24.9223 46.0364 24.8922 46.3545C24.8722 46.6725 24.632 46.931 24.1315 46.9707C23.6311 47.0006 23.2207 46.9707 23.0205 46.9111C22.8103 46.8614 22.6902 46.6527 22.6702 46.0662C22.6401 45.4897 22.7002 44.267 22.7302 44.0284C22.7502 43.7899 22.8403 43.77 23.1406 43.5911Z" fill="white"/>
<path d="M20.4481 43.5015C20.8184 43.5015 21.439 43.412 21.7993 43.4717C22.1497 43.5313 22.3298 43.7301 22.2898 44.754C22.2598 45.7679 22.2397 46.0859 22.2197 46.414C22.1897 46.7321 21.8794 46.9309 21.3889 46.9706C20.8885 47.0004 20.5982 46.9706 20.388 46.911C20.1878 46.8613 20.0677 46.6525 20.0377 46.0661C20.0077 45.4895 20.0577 44.2669 20.0877 44.0283C20.1178 43.7898 20.0577 43.5015 20.4481 43.5015Z" fill="white"/>
<path d="M23.6109 44.7545C23.5409 44.8539 23.4208 45.0228 23.4208 45.162C23.4008 45.5497 23.631 45.7087 23.8812 45.7087C24.1314 45.7087 24.2615 45.4801 24.3416 45.162C24.4117 44.8638 24.1414 44.6053 23.8812 44.6053C23.7311 44.6053 23.701 44.6352 23.6109 44.7545Z" fill="#231F20"/>
<path d="M20.9786 44.8237C20.9586 44.8237 20.8385 44.8237 20.8085 45.2511C20.7885 45.5692 20.9586 45.8078 21.2289 45.8277C21.369 45.8376 21.6392 45.5593 21.6392 45.2313C21.6392 44.9132 21.5892 44.6647 21.3189 44.6647C21.1988 44.6647 21.0287 44.8237 20.9786 44.8237Z" fill="#231F20"/>
<path d="M24.0414 49.8735C24.2316 49.8735 24.692 49.5654 24.692 49.3765L24.7421 48.1141C24.7621 47.796 24.4718 47.5376 24.1816 47.5376L23.0005 47.5774C22.8103 47.5774 22.5901 48.0843 22.5901 48.2732V49.2573C22.5901 49.5853 23.1906 49.8735 23.3808 49.8735H24.0414Z" fill="#FCB131"/>
<path d="M21.7691 49.8536C21.9593 49.8536 22.1094 49.7045 22.1094 49.5156V47.955C22.1094 47.7761 21.9593 47.627 21.7691 47.627H20.6981C20.1376 47.5773 20.1676 48.0942 20.1676 48.2731L20.1977 49.5156C20.1977 49.8437 20.7482 49.8934 20.9283 49.8934L21.7691 49.8536Z" fill="#FCB131"/>
<path d="M25.4225 51.1857C25.1923 51.0863 24.892 51.1857 24.7719 51.0068C24.6718 50.8577 24.7018 50.4104 24.4716 50.311C23.9812 50.1022 22.8501 50.0724 22.8001 50.6092C22.71 51.6131 23.5408 51.3746 24.2314 51.7424C25.1122 52.2095 25.973 53.0147 26.8538 52.4084C27.064 52.0306 26.2633 51.474 25.8529 51.474C25.8529 51.474 25.5626 51.5038 25.4225 51.1857Z" fill="#FCB131"/>
<path d="M19.9977 50.7185C20.0878 50.4005 20.288 50.2812 20.6683 50.3011C21.0487 50.3309 21.3389 50.2911 21.5191 50.3011C22.1197 50.3508 22.0796 51.2454 21.6292 51.4641C20.9686 51.7921 20.9386 51.6231 20.6483 51.802C20.1378 52.1002 20.0477 52.4382 19.6073 52.7066C19.1669 52.9551 18.0859 53.4124 17.8557 53.2135C17.6255 53.0048 17.8857 52.2394 18.3562 51.9213C18.8266 51.6032 19.0869 51.643 19.237 51.5933C19.3771 51.5336 19.5873 51.1857 19.7074 51.1857C19.8275 51.1857 19.9777 50.8179 19.9977 50.7185Z" fill="#FCB131"/>
<path d="M11.2695 26.4742C11.3496 26.5537 11.5498 26.504 11.6199 26.4345L11.6999 26.3152C11.78 26.2356 11.78 26.1064 11.6999 26.0368L6.55518 21.196C6.4751 21.1164 6.2549 21.2258 6.17483 21.3152L6.26491 21.2059C6.19484 21.2854 6.00467 21.4842 6.20485 21.7228L11.2695 26.4742Z" fill="white"/>
<path d="M179.384 13.88C176.991 13.88 174.849 12.23 174.849 9.40693C174.849 6.57397 176.981 4.93384 179.384 4.93384C181.766 4.93384 183.908 6.58391 183.908 9.40693C183.898 12.2399 181.766 13.88 179.384 13.88ZM179.384 5.97756C177.602 5.97756 176.151 7.34931 176.151 9.40693C176.151 11.4646 177.592 12.8462 179.384 12.8363V12.8462C181.125 12.8462 182.597 11.4646 182.597 9.40693C182.597 7.34931 181.125 5.97756 179.384 5.97756ZM178.633 11.8125H177.592V7.0014H179.404C180.655 7.0014 181.395 7.34931 181.395 8.45267C181.395 9.33735 180.875 9.65543 180.224 9.70513L181.465 11.8125H180.234L179.113 9.78466H178.623V11.8125H178.633ZM179.554 8.96956C180.014 8.96956 180.294 8.87016 180.294 8.34333C180.294 7.84632 179.754 7.80656 179.364 7.80656H178.633V8.96956H179.554Z" fill="#231F20"/>
</svg>
