<svg width="40" height="40" viewBox="0 0 40 40" fill="none" xmlns="http://www.w3.org/2000/svg">
<path d="M14 13.5C12.8 14.3 12.1667 17.8333 12 19.5L13 20L13.5 19.5L14 17L15.5 16.5L17 16L18 15H18.5L22.5 17L25.5 18L26 20H27.5C28 18.8333 28.4 15.9 26 13.5C23 10.5 19.5 11 18.5 11C17.5 11 15.5 12.5 14 13.5Z" fill="#34363E"/>
<path fill-rule="evenodd" clip-rule="evenodd" d="M28 18.3764C28 14.2144 24.4185 10.8407 20 10.8407C15.5815 10.8407 12 14.2144 12 18.3764C12 18.9329 12.0849 19.4674 12.2068 19.9891C12.0763 20.3566 12 20.7983 12 21.2748C12 22.5558 12.5514 23.5934 13.2308 23.5934C13.3588 23.5934 13.4794 23.5459 13.5951 23.4787C14.4985 26.9138 17.0203 29.3902 20 29.3902C22.9797 29.3902 25.5015 26.9138 26.4049 23.4787C26.5206 23.5459 26.6412 23.5934 26.7692 23.5934C27.4486 23.5934 28 22.5558 28 21.2748C28 20.7983 27.9237 20.3566 27.7932 19.9891C27.9151 19.4674 28 18.9329 28 18.3764V18.3764Z" stroke="#34363E" stroke-linecap="round" stroke-linejoin="round"/>
<path d="M12.2072 19.9889C12.9616 19.9889 13.8465 20.1153 13.8465 20.1153C13.8465 20.1153 13.577 16.6373 14.4619 16.6373C15.3468 16.6373 18.1542 16.7463 18.1542 14.3186C18.1542 15.369 21.769 17.7966 25.5388 17.7966C25.5388 18.811 26.1542 20.1153 26.1542 20.1153L27.7924 19.9889" stroke="#34363E" stroke-linecap="round" stroke-linejoin="round"/>
<path d="M16.9231 21.2747H18.1539" stroke="#34363E" stroke-linecap="round" stroke-linejoin="round"/>
<path d="M21.8461 21.2747H23.0768" stroke="#34363E" stroke-linecap="round" stroke-linejoin="round"/>
</svg>
