<svg width="40" height="40" viewBox="0 0 40 40" fill="none" xmlns="http://www.w3.org/2000/svg">
<path d="M19.3573 29H20.6471C21.4139 29 22.037 28.3888 22.037 27.6366V16.6502H25.61C26.3159 16.6502 26.8998 16.1288 26.9869 15.4621C26.9956 15.4322 27 15.4022 27 15.368V15.2868V15.0432V13.5815V12.3634C27 11.6112 26.3769 11 25.61 11H14.39C13.6231 11 13 11.6112 13 12.3634V13.5815V15.0432V15.2868V15.368C13 15.4022 13.0044 15.4322 13.0131 15.4621C13.1002 16.1331 13.6841 16.6502 14.39 16.6502H17.963V27.6366C17.9673 28.3888 18.5904 29 19.3573 29ZM21.244 27.6366C21.244 27.9571 20.9782 28.2221 20.6471 28.2221H19.3573C19.0305 28.2221 18.7603 27.9614 18.7603 27.6366V16.6502H21.244V27.6366ZM13.7974 13.9704H26.2113V14.6543H13.7974V13.9704ZM14.3943 11.7779H25.6144C25.9412 11.7779 26.2113 12.0386 26.2113 12.3634V13.1926H13.7974V12.3634C13.7974 12.0429 14.0675 11.7779 14.3943 11.7779ZM13.8192 15.4322H26.1939C26.1285 15.6843 25.8932 15.8724 25.6187 15.8724H21.6449H18.3682H14.3943C14.1155 15.8681 13.8845 15.6843 13.8192 15.4322Z" fill="#34363E"/>
</svg>
