<svg width="40" height="40" viewBox="0 0 40 40" fill="none" xmlns="http://www.w3.org/2000/svg">
<path d="M24.708 12.0658H15.3374V12.9296H24.708V12.0658Z" fill="#34363E"/>
<path d="M24.708 10.7861H15.3374V11.6499H24.708V10.7861Z" fill="#34363E"/>
<path d="M25.5738 10.8684C25.3381 10.8684 25.1477 11.0604 25.1477 11.298V14.9359C25.1477 15.1736 25.3381 15.3655 25.5738 15.3655C25.8096 15.3655 26 15.1736 26 14.9359V11.298C26 11.0604 25.8096 10.8684 25.5738 10.8684Z" fill="#34363E"/>
<path d="M14.4261 10.8684C14.1904 10.8684 14 11.0604 14 11.298V14.9359C14 15.1736 14.1904 15.3655 14.4261 15.3655C14.6619 15.3655 14.8568 15.1736 14.8568 14.9359V11.298C14.8568 11.0604 14.6619 10.8684 14.4261 10.8684Z" fill="#34363E"/>
<path d="M15.3374 15.5529H18.8009C17.8625 19.6798 17.2052 25.1746 17.2052 26.2029C17.2052 27.7476 18.47 28.9999 20.0204 28.9999C21.5754 28.9999 22.8357 27.7431 22.8357 26.2029C22.8357 25.1792 22.1738 19.6798 21.2399 15.5529H24.708V13.3591H15.3374V15.5529ZM21.9789 26.2029C21.9789 27.2723 21.0994 28.1407 20.0159 28.1407C18.9324 28.1407 18.0529 27.2723 18.0529 26.2029C18.0529 25.17 18.7239 19.4787 19.6714 15.5529H20.3514C21.3079 19.4741 21.9789 25.17 21.9789 26.2029ZM16.1897 14.2229H23.8512V14.6891H21.0178H19.0185H16.1897V14.2229Z" fill="#34363E"/>
</svg>
