<svg width="242" height="193" viewBox="0 0 242 193" fill="none" xmlns="http://www.w3.org/2000/svg">
<path d="M94.5285 157.199L104.166 158.429C111.548 159.249 117.084 166.221 116.059 173.603L115.238 180.985C114.418 188.366 107.447 193.903 100.065 192.877L90.4275 191.647C83.0457 190.827 77.5094 183.855 78.5346 176.473L79.3548 169.092C80.175 161.505 86.9416 156.174 94.5285 157.199Z" fill="#36373C"/>
<path d="M202.995 98.3498L208.121 84.8165C210.377 79.0751 216.939 75.9994 222.885 78.2549L234.163 82.5609C239.904 84.8165 242.98 91.3781 240.724 97.3245L235.598 110.858C233.342 116.599 226.781 119.675 220.834 117.419L209.557 113.113C203.815 110.653 200.74 104.091 202.995 98.3498Z" fill="#36373C"/>
<path d="M216.122 -6.43081L221.249 0.335834C225.965 6.69237 224.734 15.7146 218.378 20.4307L213.457 24.1216C207.1 28.8377 198.078 27.6074 193.362 21.2509L188.236 14.4843C183.519 8.12772 184.75 -0.894467 191.106 -5.61061L196.028 -9.30149C202.384 -14.0176 211.406 -12.7873 216.122 -6.43081Z" fill="#424348"/>
<path d="M47.5696 15.7148L42.4434 22.2764C36.497 29.8632 25.4243 31.0935 18.0425 25.1471C10.4557 19.2006 9.22536 8.12795 15.1718 0.746165L20.298 -5.81542C26.2445 -13.4023 37.3172 -14.6326 44.6989 -8.68611C52.0807 -2.73967 53.5161 8.12796 47.5696 15.7148Z" fill="#424348"/>
<path d="M236.217 71.6931C236.217 136.899 183.314 189.802 118.109 189.802C52.9028 189.802 0 136.899 0 71.6931C0 6.48729 52.9028 -46.4155 118.109 -46.4155C183.314 -46.4155 236.217 6.48729 236.217 71.6931Z" fill="#3C3D42"/>
<path d="M118.109 140.795C61.3098 140.795 13.7383 100.605 2.4606 47.0874C0.8202 55.0843 0 63.2863 0 71.6934C0 136.899 52.9028 189.802 118.109 189.802C183.314 189.802 236.217 136.899 236.217 71.6934C236.217 63.2863 235.397 55.0843 233.757 47.0874C222.479 100.81 174.907 140.795 118.109 140.795Z" fill="#333439"/>
<path d="M89.6083 3.61663C91.6588 8.33277 87.5578 14.6893 80.381 17.7651C73.2043 20.6357 65.8225 19.2004 63.9771 14.4843C61.9266 9.76812 66.0276 3.41158 73.2043 0.335835C80.176 -2.73991 87.5578 -1.09952 89.6083 3.61663Z" fill="#36373C"/>
<path d="M59.0528 18.5854C55.9771 11.4087 62.3336 1.77131 72.9962 -2.53473C80.9931 -5.81552 89.1951 -5.40541 94.1163 -2.12462C89.6052 -6.84076 80.378 -7.86601 71.3558 -4.17511C60.4882 0.335977 54.3367 9.76825 57.2074 17.15C58.0276 18.9955 59.2579 20.6359 61.1033 21.6611C60.2831 20.8409 59.668 19.8157 59.0528 18.5854Z" fill="#36373C"/>
<path d="M89.6077 3.61679C89.1976 2.38649 88.3774 1.56629 87.3522 0.746094C88.7875 5.46224 84.6865 11.2036 77.9199 14.0743C72.5886 16.3299 67.0523 15.9198 63.7715 13.6642C63.7715 13.8693 63.9765 14.0743 63.9765 14.2794C66.027 18.9955 73.4088 20.6359 80.3805 17.5602C87.3522 14.6895 91.6582 8.53798 89.6077 3.61679Z" fill="#27282D"/>
<path d="M154.609 18.7904C152.353 17.5601 151.943 13.8692 153.378 10.5884C153.173 10.7934 152.968 11.2035 152.763 11.6136C150.713 15.3045 150.918 19.4055 153.378 20.8409C155.839 22.2762 159.53 20.4308 161.785 16.7399C161.991 16.3298 162.196 16.1247 162.196 15.7146C160.35 18.7904 157.069 20.2257 154.609 18.7904Z" fill="#36373C"/>
<path d="M32.1916 46.4719C36.7027 49.1375 36.9077 56.7244 33.0118 63.0809C28.9108 69.4375 22.1442 72.5132 17.8381 69.6425C13.327 66.9769 13.122 59.39 17.0179 53.0335C20.9139 46.6769 27.6805 43.6012 32.1916 46.4719Z" fill="#36373C"/>
<path d="M34.6553 43.1911C39.3714 46.0618 40.3966 53.2386 37.5259 60.4153C41.6269 53.4436 41.0118 45.4467 36.2956 42.3709C33.835 40.7305 30.5543 40.9356 27.4785 42.1659C30.1442 41.5507 32.6048 41.7558 34.6553 43.1911Z" fill="#27282D"/>
<path d="M14.7631 72.1033C8.61163 68.4124 7.79143 58.5701 12.5076 49.7529C12.0975 50.3681 11.4823 51.1883 11.0722 51.8034C5.12579 61.2357 5.53589 72.3084 12.0975 76.4094C18.6591 80.5104 28.7065 76.2043 34.6529 66.567C35.063 65.9519 35.4731 65.1316 35.8832 64.3114C29.7317 72.3084 20.7096 75.7942 14.7631 72.1033Z" fill="#36373C"/>
<path d="M32.1949 46.4723C27.6838 43.8067 20.9172 46.6774 17.0213 53.0339C16.4061 54.0591 15.791 55.0844 15.3809 56.1096C19.4819 51.5985 24.8131 49.9582 28.504 52.2137C32.1949 54.4693 33.0151 60.2106 30.7596 65.747C31.5798 64.9268 32.1949 64.1066 32.8101 63.0813C36.9111 56.5197 36.501 49.138 32.1949 46.4723Z" fill="#27282D"/>
<path d="M66.6409 93.4282C76.2782 99.3747 79.9691 110.652 75.0479 118.444C70.1267 126.236 58.4389 127.672 48.8016 121.725C39.1642 115.779 35.4733 104.501 40.3945 96.709C45.3157 88.9171 57.2086 87.4818 66.6409 93.4282Z" fill="#36373C"/>
<path d="M40.6028 107.782C45.524 99.9899 57.2118 98.5545 66.8491 104.501C71.5653 107.372 74.8461 111.678 76.4865 116.189C79.3571 108.602 75.4612 98.9646 66.8491 93.6333C57.2118 87.6869 45.524 89.1222 40.6028 96.9141C38.1422 100.81 37.9371 105.731 39.3725 110.242C39.7826 109.217 39.9876 108.397 40.6028 107.782Z" fill="#27282D"/>
<path d="M86.5314 109.832C86.7365 113.728 85.9163 117.624 83.8658 121.11C77.3042 132.593 60.6952 135.259 46.7518 127.262C39.165 122.751 33.8337 116.189 31.7832 109.012C32.1933 118.034 37.9347 127.467 47.7771 133.003C61.7205 141 78.3295 138.334 84.8911 126.852C87.7617 121.725 88.1718 115.574 86.5314 109.832Z" fill="#27282D"/>
<path d="M75.6634 160.685C79.3543 154.738 89.4018 154.123 98.0139 159.454C103.96 163.145 107.651 168.682 108.061 173.603C108.471 168.067 104.78 161.505 98.0139 157.404C89.4018 152.073 79.5594 152.688 75.6634 158.634C74.4331 160.48 74.023 162.735 74.2281 164.991C74.4331 163.35 74.8432 161.915 75.6634 160.685Z" fill="#27282D"/>
<path d="M101.911 169.092C101.706 169.912 101.501 170.732 101.091 171.552C98.425 176.063 91.0432 176.268 84.6867 172.373C81.6109 170.527 79.3554 167.861 78.1251 165.196C77.3049 169.502 80.1756 174.628 85.3018 177.909C91.6583 181.805 98.8351 181.395 101.706 177.089C103.141 174.628 103.141 171.757 101.911 169.092Z" fill="#27282D"/>
<path d="M179.828 94.8637C194.182 103.886 199.308 121.52 191.311 134.233C183.314 146.946 165.27 150.227 150.916 141.205C136.563 132.183 131.437 114.548 139.433 101.835C147.43 89.1223 165.475 85.8415 179.828 94.8637Z" fill="#36373C"/>
<path d="M147.429 117.829C155.426 105.116 173.47 101.835 187.824 110.858C190.49 112.498 192.745 114.343 194.591 116.599C193.155 108.192 188.029 100.195 179.827 94.8637C165.473 85.8415 147.429 89.1223 139.432 101.835C132.871 112.293 135.126 126.031 143.943 135.463C143.123 129.517 144.148 123.161 147.429 117.829Z" fill="#27282D"/>
<path d="M202.796 112.908C202.796 120.29 200.746 127.877 196.645 134.849C184.957 153.303 161.171 159.454 143.537 148.382C134.72 142.845 129.183 134.233 126.928 124.801C126.928 137.514 133.079 149.612 144.357 156.584C162.196 167.656 185.982 161.71 197.465 143.051C203.411 133.618 205.052 122.751 202.796 112.908Z" fill="#27282D"/>
<path d="M92.6823 58.7753C91.8621 61.2359 88.3763 62.0561 84.8905 60.8258C81.4046 59.5955 79.3541 56.7248 80.1743 54.2642C80.9945 51.8036 84.4804 50.9834 87.9662 52.2137C91.4521 53.444 93.7076 56.3147 92.6823 58.7753Z" fill="#36373C"/>
<path d="M94.3202 54.8789C94.9353 56.1092 95.1404 57.5446 94.7303 58.9799C93.705 62.2607 88.9889 63.491 84.2727 61.8506C82.0172 61.0304 80.3768 59.8001 79.1465 58.3648C80.1717 60.4153 82.4273 62.2607 85.0929 63.0809C89.8091 64.7213 94.5252 63.491 95.5505 60.2102C96.3707 58.3647 95.7555 56.5193 94.3202 54.8789Z" fill="#2C2D32"/>
<path d="M81.8173 56.1093C82.6375 53.6487 86.1233 52.8285 89.6092 54.0588C90.6344 54.4689 91.4546 54.879 92.0698 55.2891C91.2496 54.0588 89.8142 52.8285 87.9688 52.2133C84.4829 50.983 80.9971 52.0083 80.1769 54.2638C79.5617 55.9042 80.587 57.9547 82.4324 59.3901C81.8173 58.3648 81.4072 57.1345 81.8173 56.1093Z" fill="#2C2D32"/>
<path d="M145.382 50.3681C142.921 49.5479 140.461 50.163 139.025 51.8034C140.051 51.5984 141.281 51.8034 142.306 52.0085C145.382 53.0337 147.227 56.1095 146.202 58.5701C145.997 58.9802 145.792 59.5953 145.382 60.0054C147.227 59.5953 148.663 58.57 149.278 56.9296C150.098 54.4691 148.458 51.3933 145.382 50.3681Z" fill="#23242A"/>
<path d="M143.534 61.8509C137.177 60.2105 133.282 54.4691 134.717 49.1379C134.922 48.1126 135.332 47.2924 135.947 46.6772C134.307 47.9075 132.871 49.5479 132.461 51.5984C131.026 56.9297 134.922 62.4661 141.278 64.3115C146.405 65.7469 151.531 64.1065 153.992 60.4156C151.326 62.261 147.43 62.8762 143.534 61.8509Z" fill="#36373C"/>
<path d="M206.689 59.3901C206.689 60.4154 206.484 61.2356 205.868 62.2608C204.638 63.9012 202.383 64.3113 200.947 63.2861C200.742 63.081 200.537 62.876 200.332 62.4659C200.332 63.2861 200.742 64.1063 201.357 64.5164C202.793 65.5416 204.843 65.1315 206.278 63.4911C207.304 62.2608 207.304 60.6204 206.689 59.3901Z" fill="#36373C"/>
<path d="M155.637 10.9982C157.482 9.76795 159.738 10.1781 160.763 11.6134C161.173 12.4336 161.378 13.2538 160.968 14.2791C161.993 13.0488 162.198 11.6134 161.378 10.3831C160.353 8.74271 158.097 8.53766 156.252 9.76795C155.226 10.3831 154.611 11.2033 154.406 12.2286C154.816 11.6134 155.226 11.2033 155.637 10.9982Z" fill="#2C2D32"/>
<path d="M205.872 26.1724C205.257 24.3269 203.206 23.5067 200.951 24.1219C200.131 24.3269 199.31 24.9421 198.695 25.5572C199.105 25.3522 199.516 25.1471 199.926 24.9421C201.976 24.3269 204.232 25.1471 204.847 26.9926C205.257 28.0178 204.847 29.0431 204.232 29.8633C205.667 29.0431 206.282 27.6077 205.872 26.1724Z" fill="#36373C"/>
<path d="M19.2718 120.29C15.991 113.524 11.0698 109.218 8.19908 110.653C7.58393 110.858 7.37888 111.473 7.17383 111.473C9.01927 112.088 13.1203 115.984 15.991 121.931C18.6566 127.672 18.4516 133.003 17.8364 135.054C18.8617 135.464 19.6819 134.849 19.8869 134.849C22.7576 133.823 22.5526 127.057 19.2718 120.29Z" fill="#27282D"/>
<path d="M15.9915 121.931C19.0672 128.492 20.2975 134.439 18.6571 135.259C17.0167 136.079 13.1208 131.363 10.045 124.801C6.96928 118.24 5.73897 112.293 7.37937 111.473C9.01977 110.858 12.7107 115.369 15.9915 121.931Z" fill="#36373C"/>
<path d="M15.9932 121.93C15.7881 121.315 15.378 120.7 14.9679 120.085C17.4285 125.826 18.2487 130.748 16.8134 131.568C15.378 132.183 12.0972 128.492 9.02148 122.956C9.22653 123.571 9.63663 124.186 9.84168 124.801C12.9174 131.363 16.8134 136.079 18.4538 135.259C20.2992 134.438 19.0689 128.492 15.9932 121.93Z" fill="#2C2D32"/>
<path d="M204.025 31.5033C200.744 32.5286 197.463 31.0932 196.643 28.4276C196.233 26.9922 196.438 25.3519 197.463 23.9165C195.618 25.3519 194.798 27.6074 195.413 29.6579C196.233 32.3235 199.719 33.7589 202.795 32.7336C204.23 32.3235 205.255 31.5033 206.075 30.273C205.46 30.8882 204.845 31.2983 204.025 31.5033Z" fill="#2C2D32"/>
</svg>
