<svg width="38" height="30" viewBox="0 0 38 30" fill="none" xmlns="http://www.w3.org/2000/svg">
<g opacity="0.2">
<path d="M-12.8812 4.17496C-12.8812 18.0736 -1.60489 29.3499 12.2938 29.3499C26.1925 29.3499 37.4688 18.0736 37.4688 4.17496C37.4688 -9.72371 26.1925 -21 12.2938 -21C-1.60489 -21 -12.8812 -9.72371 -12.8812 4.17496Z" fill="#626367"/>
<path d="M12.2938 18.9041C24.4005 18.9041 34.5404 10.3376 36.9443 -1.06982C37.2939 0.634731 37.4688 2.38299 37.4688 4.17496C37.4688 18.0736 26.1925 29.3499 12.2938 29.3499C-1.60489 29.3499 -12.8812 18.0736 -12.8812 4.17496C-12.8812 2.38299 -12.7063 0.634731 -12.3567 -1.06982C-9.95284 10.3813 0.187077 18.9041 12.2938 18.9041Z" fill="#4A4B4F"/>
<path d="M30.6064 -1.20089C29.6448 -0.632701 29.6011 0.984441 30.4316 2.33934C31.3057 3.69425 32.748 4.34985 33.6658 3.73795C34.6274 3.16977 34.6711 1.55262 33.8407 0.197722C33.0102 -1.15718 31.5679 -1.81278 30.6064 -1.20089Z" fill="#525357"/>
<path d="M30.0816 -1.90003C29.0763 -1.28814 28.8578 0.241588 29.4697 1.77132C28.5956 0.285294 28.7267 -1.41926 29.7319 -2.07486C30.2564 -2.42451 30.9557 -2.3808 31.6113 -2.11857C31.0431 -2.24969 30.5187 -2.20598 30.0816 -1.90003Z" fill="#23242A"/>
<path d="M34.3214 4.26255C35.6326 3.47583 35.8074 1.37792 34.8022 -0.501465C34.8896 -0.370345 35.0207 -0.195519 35.1081 -0.0643996C36.3756 1.9461 36.2882 4.30625 34.8896 5.18038C33.491 6.05451 31.3494 5.13668 30.0819 3.08247C29.9945 2.95135 29.9071 2.77652 29.8197 2.6017C31.1308 4.30625 33.0539 5.04926 34.3214 4.26255Z" fill="#525357"/>
<path d="M30.6055 -1.20087C31.5671 -1.76906 33.0094 -1.15717 33.8398 0.197735C33.9709 0.416267 34.102 0.6348 34.1895 0.853333C33.3153 -0.108211 32.179 -0.457861 31.3922 0.0229112C30.6055 0.503683 30.4307 1.72747 30.9115 2.90754C30.7366 2.73272 30.6055 2.55789 30.4744 2.33936C29.6003 0.940746 29.6877 -0.632688 30.6055 -1.20087Z" fill="#2C2D32"/>
<path d="M23.2641 8.80803C21.2099 10.0755 20.4231 12.4794 21.4721 14.1402C22.521 15.8011 25.0123 16.107 27.0665 14.8395C29.1207 13.572 29.9075 11.1682 28.8585 9.50734C27.8095 7.84649 25.2746 7.54054 23.2641 8.80803Z" fill="#525357"/>
<path d="M28.8144 11.8672C27.7654 10.2064 25.2741 9.90045 23.2199 11.1679C22.2147 11.7798 21.5154 12.6977 21.1657 13.6592C20.5538 12.0421 21.3843 9.98786 23.2199 8.85149C25.2741 7.584 27.7654 7.88995 28.8144 9.55079C29.3389 10.3812 29.3826 11.4302 29.0766 12.3917C28.9892 12.1732 28.9455 11.9984 28.8144 11.8672Z" fill="#2C2D32"/>
<path d="M19.0237 12.3042C18.98 13.1346 19.1548 13.9651 19.5919 14.7081C20.9905 17.1556 24.5307 17.7238 27.5028 16.0193C29.1199 15.0577 30.2563 13.6591 30.6934 12.1294C30.6059 14.0525 29.3822 16.063 27.2842 17.2431C24.3122 18.9476 20.772 18.3794 19.3734 15.9319C18.7615 14.8392 18.6741 13.528 19.0237 12.3042Z" fill="#2C2D32"/>
<path d="M21.3415 23.1436C20.5548 21.8761 18.4132 21.745 16.5775 22.8814C15.31 23.6681 14.5233 24.8482 14.4359 25.8971C14.3485 24.7171 15.1352 23.3185 16.5775 22.4443C18.4132 21.308 20.5111 21.4391 21.3415 22.7066C21.6038 23.0999 21.6912 23.5807 21.6475 24.0615C21.6038 23.7118 21.5163 23.4059 21.3415 23.1436Z" fill="#2C2D32"/>
<path d="M15.7462 24.9354C15.7899 25.1102 15.8336 25.2851 15.921 25.4599C16.4892 26.4214 18.0626 26.4651 19.4175 25.6347C20.0731 25.2414 20.5539 24.6732 20.8161 24.105C20.991 25.0228 20.3791 26.1155 19.2864 26.8148C17.9315 27.6452 16.4018 27.5578 15.7899 26.64C15.4839 26.1155 15.4839 25.5036 15.7462 24.9354Z" fill="#2C2D32"/>
<path d="M-0.86173 9.11391C-3.92119 11.037 -5.01385 14.7958 -3.3093 17.5056C-1.60474 20.2154 2.24143 20.9147 5.30089 18.9916C8.36035 17.0685 9.45301 13.3097 7.74846 10.5999C6.0439 7.89013 2.19773 7.19082 -0.86173 9.11391Z" fill="#525357"/>
<path d="M6.04474 14.009C4.34019 11.2992 0.494009 10.5999 -2.56545 12.523C-3.13363 12.8727 -3.6144 13.266 -4.00776 13.7468C-3.70181 11.9548 -2.60915 10.2503 -0.860889 9.11391C2.19857 7.19082 6.04474 7.89013 7.7493 10.5999C9.1479 12.829 8.66713 15.7573 6.78775 17.7678C6.96258 16.5003 6.74404 15.1454 6.04474 14.009Z" fill="#2C2D32"/>
<path d="M-5.75735 12.96C-5.75735 14.5334 -5.32028 16.1505 -4.44615 17.6366C-1.95488 21.5702 3.11507 22.8813 6.87383 20.5212C8.75322 19.3411 9.93329 17.5054 10.4141 15.4949C10.4141 18.2047 9.10287 20.7834 6.69901 22.2695C2.89654 24.6296 -2.17342 23.3621 -4.62098 19.3848C-5.88847 17.3743 -6.23812 15.0579 -5.75735 12.96Z" fill="#2C2D32"/>
<path d="M17.7135 1.42143C17.8883 1.94591 18.6313 2.12074 19.3743 1.8585C20.1173 1.59626 20.5544 0.984368 20.3796 0.45989C20.2047 -0.0645885 19.4617 -0.239415 18.7187 0.0228246C17.9757 0.285064 17.4949 0.896954 17.7135 1.42143Z" fill="#525357"/>
<path d="M17.3653 0.59082C17.2342 0.85306 17.1905 1.15901 17.2779 1.46495C17.4964 2.16426 18.5017 2.4265 19.5069 2.07684C19.9877 1.90202 20.3374 1.63978 20.5996 1.33383C20.3811 1.7709 19.9003 2.16426 19.3321 2.33908C18.3269 2.68873 17.3216 2.42649 17.1031 1.72719C16.9283 1.33383 17.0594 0.940473 17.3653 0.59082Z" fill="#2C2D32"/>
<path d="M20.0302 0.853251C19.8554 0.328772 19.1124 0.153946 18.3693 0.416185C18.1508 0.503599 17.976 0.591014 17.8449 0.678427C18.0197 0.416188 18.3256 0.153949 18.719 0.0228293C19.462 -0.23941 20.205 -0.0208772 20.3798 0.459895C20.511 0.809547 20.2924 1.24661 19.8991 1.55256C20.0302 1.33403 20.1176 1.07178 20.0302 0.853251Z" fill="#2C2D32"/>
<path d="M6.48104 -0.370653C7.00551 -0.545479 7.52999 -0.414361 7.83594 -0.0647088C7.6174 -0.108415 7.35517 -0.0647095 7.13663 -0.021003C6.48104 0.19753 6.08768 0.85313 6.30621 1.37761C6.34992 1.46502 6.39362 1.59614 6.48104 1.68355C6.08768 1.59614 5.78173 1.37761 5.65061 1.02795C5.47578 0.503476 5.82544 -0.152121 6.48104 -0.370653Z" fill="#23242A"/>
<path d="M6.87532 2.07706C8.23022 1.72741 9.06065 0.503624 8.7547 -0.632746C8.71099 -0.851279 8.62358 -1.02611 8.49246 -1.15723C8.84211 -0.894987 9.14806 -0.545334 9.23547 -0.108269C9.54142 1.0281 8.71099 2.20818 7.35609 2.60153C6.26343 2.90748 5.17076 2.55783 4.64629 1.77111C5.21447 2.16447 6.04489 2.29559 6.87532 2.07706Z" fill="#525357"/>
<path d="M33.3608 14.5334C34.0601 13.0911 35.109 12.1733 35.7209 12.4792C35.852 12.5229 35.8957 12.654 35.9395 12.654C35.5461 12.7852 34.672 13.6156 34.0601 14.8831C33.4919 16.1069 33.5356 17.2432 33.6667 17.6803C33.4482 17.7677 33.2734 17.6366 33.2296 17.6366C32.6178 17.4181 32.6615 15.9757 33.3608 14.5334Z" fill="#2C2D32"/>
<path d="M34.0597 14.8831C33.4041 16.2817 33.1419 17.5492 33.4915 17.724C33.8412 17.8988 34.6716 16.8936 35.3272 15.495C35.9828 14.0964 36.2451 12.8289 35.8954 12.654C35.5457 12.5229 34.759 13.4845 34.0597 14.8831Z" fill="#525357"/>
<path d="M34.0589 14.8831C34.1026 14.752 34.19 14.6209 34.2774 14.4897C33.753 15.7135 33.5781 16.7625 33.8841 16.9373C34.19 17.0684 34.8893 16.2817 35.5449 15.1016C35.5012 15.2328 35.4138 15.3639 35.3701 15.495C34.7145 16.8936 33.8841 17.8989 33.5344 17.724C33.1411 17.5492 33.4033 16.2817 34.0589 14.8831Z" fill="#393A3F"/>
</g>
</svg>
