<svg width="277" height="209" viewBox="0 0 277 209" fill="none" xmlns="http://www.w3.org/2000/svg">
<path d="M1.5 1.49999C38.1667 3.33333 164.5 -16.9998 119 100.5C73.5 218 228 246.5 242 149" stroke="url(#paint0_linear)" stroke-width="2" stroke-linecap="round"/>
<path d="M250.272 138.447L227.699 114.61C225.761 112.549 222.488 112.41 220.401 114.446L213.65 120.837C211.588 122.776 211.45 126.048 213.485 128.136L236.058 151.972L250.272 138.447Z" fill="#3C3D42"/>
<path d="M218.19 116.552C220.252 114.614 223.55 114.655 225.489 116.717L247.965 140.528L250.175 138.421L227.602 114.585C225.663 112.523 222.39 112.385 220.303 114.42L213.552 120.811C213.282 121.051 213.109 121.315 212.936 121.58L218.19 116.552Z" fill="#2C2D32"/>
<path d="M242.981 145.316L235.986 151.85L245.076 156.209L249.444 152.189L253.715 148.144L250.272 138.447L242.981 145.316Z" fill="#3C3D42"/>
<path d="M253.662 148.162L245.09 156.271L247.152 158.45L255.723 150.341L253.662 148.162Z" fill="#2C2D32"/>
<path d="M262.235 153.49L255.726 150.328L251.724 154.134L251.455 154.373L247.183 158.419L249.986 165.051L256.146 159.332L255.978 159.184L256.172 159.235L262.235 153.49Z" fill="#3C3D42"/>
<g opacity="0.1">
<g opacity="0.1">
<path opacity="0.1" d="M253.793 161.194L253.961 161.342L253.793 161.194Z" fill="#230753"/>
</g>
</g>
<path d="M231.924 116.24C232.403 116.78 232.392 117.604 231.853 118.082L216.707 132.396C216.167 132.875 215.343 132.864 214.864 132.325C214.386 131.785 214.396 130.961 214.936 130.482L230.082 116.168C230.525 115.664 231.349 115.675 231.924 116.24Z" fill="#2C2D32"/>
<path d="M231.924 116.24C231.614 115.848 231.105 115.817 230.667 115.909C230.764 115.934 230.835 116.056 230.932 116.082C231.41 116.622 231.4 117.446 230.86 117.924L215.714 132.238C215.566 132.406 215.347 132.452 215.129 132.498C215.587 132.722 216.192 132.778 216.732 132.3L231.878 117.986C232.392 117.604 232.402 116.78 231.924 116.24Z" fill="#3C3D42"/>
<path d="M230.138 152.067C230.306 152.215 230.326 152.531 230.179 152.699L211.179 170.651C211.031 170.819 210.741 170.742 210.573 170.595L196.498 155.719C196.33 155.571 196.31 155.256 196.458 155.088L215.458 137.135C215.605 136.967 215.895 137.044 216.063 137.191L230.138 152.067Z" stroke="#36373C" stroke-miterlimit="10"/>
<path d="M198.844 158.198L218.409 139.671" stroke="#36373C" stroke-miterlimit="10"/>
<path d="M201.739 161.339L221.304 142.812" stroke="#36373C" stroke-miterlimit="10"/>
<path d="M204.661 164.384L224.226 145.856" stroke="#36373C" stroke-miterlimit="10"/>
<path d="M207.555 167.525L227.12 148.998" stroke="#36373C" stroke-miterlimit="10"/>
<path d="M199.477 152.264L214.198 167.827" stroke="#36373C" stroke-miterlimit="10"/>
<path d="M202.764 149.2L217.485 164.764" stroke="#36373C" stroke-miterlimit="10"/>
<path d="M206.053 146.137L220.774 161.7" stroke="#36373C" stroke-miterlimit="10"/>
<path d="M209.246 143.048L223.967 158.612" stroke="#36373C" stroke-miterlimit="10"/>
<path d="M212.535 139.985L227.256 155.548" stroke="#36373C" stroke-miterlimit="10"/>
<path d="M222.454 143.942L225.717 140.976" stroke="#36373C" stroke-miterlimit="10"/>
<path d="M250.783 132.584C250.951 132.731 251.241 132.808 251.389 132.64L270.485 114.713C270.633 114.545 270.613 114.229 270.445 114.082L256.37 99.2055C256.202 99.0579 255.912 98.9815 255.764 99.1494L236.764 117.102C236.617 117.27 236.637 117.585 236.805 117.733L250.783 132.584Z" stroke="#36373C" stroke-miterlimit="10"/>
<path d="M258.62 101.66L239.055 120.187" stroke="#36373C" stroke-miterlimit="10"/>
<path d="M261.54 104.704L241.975 123.231" stroke="#36373C" stroke-miterlimit="10"/>
<path d="M264.559 107.774L244.872 126.373" stroke="#36373C" stroke-miterlimit="10"/>
<path d="M267.453 110.915L247.792 129.417" stroke="#36373C" stroke-miterlimit="10"/>
<path d="M252.648 101.948L267.466 117.537" stroke="#36373C" stroke-miterlimit="10"/>
<path d="M249.457 105.037L264.178 120.6" stroke="#36373C" stroke-miterlimit="10"/>
<path d="M246.143 108.197L260.864 123.76" stroke="#36373C" stroke-miterlimit="10"/>
<path d="M242.854 111.26L257.671 126.849" stroke="#36373C" stroke-miterlimit="10"/>
<path d="M239.662 114.349L254.383 129.912" stroke="#36373C" stroke-miterlimit="10"/>
<path d="M243.099 124.458L239.932 127.45" stroke="#36373C" stroke-miterlimit="10"/>
<path d="M240.772 147.423L248.062 140.553L251.434 150.128L253.516 152.434L260.025 155.597L262.234 153.49L255.725 150.328L253.644 148.021L250.272 138.447L242.981 145.316L235.986 151.85L240.772 147.423Z" fill="#2C2D32"/>
<path d="M256.172 159.235L260.528 163.899" stroke="#3C3D42" stroke-miterlimit="10"/>
<path d="M261.346 162.356C261.992 163.044 261.931 164.062 261.244 164.708C260.556 165.354 259.538 165.293 258.892 164.606C258.246 163.918 258.307 162.9 258.995 162.254C259.682 161.608 260.7 161.669 261.346 162.356Z" fill="#3C3D42"/>
<path d="M261.347 162.356C261.037 161.964 260.553 161.837 260.141 161.832C260.238 161.857 260.309 161.98 260.406 162.005C261.052 162.692 260.991 163.71 260.303 164.357C260.008 164.692 259.57 164.784 259.158 164.779C259.758 165.247 260.705 165.186 261.27 164.611C261.932 164.062 261.993 163.044 261.347 162.356Z" fill="#2C2D32"/>
<path d="M229.439 140.198C229.678 140.467 229.602 140.758 229.429 141.022C229.159 141.261 228.869 141.185 228.604 141.012L220.921 132.886C220.682 132.617 220.758 132.327 220.931 132.062C221.201 131.823 221.491 131.899 221.756 132.072L229.439 140.198Z" fill="#2C2D32"/>
<defs>
<linearGradient id="paint0_linear" x1="253.5" y1="172.002" x2="33.0001" y2="14.5015" gradientUnits="userSpaceOnUse">
<stop offset="0.186912" stop-color="#3C3D42"/>
<stop offset="0.834936" stop-color="#4A4B4F" stop-opacity="0"/>
</linearGradient>
</defs>
</svg>
