<svg width="371" height="114" viewBox="0 0 371 114" fill="none" xmlns="http://www.w3.org/2000/svg">
<path d="M1 1C37.6667 2.83333 125.827 149.847 158.5 84.5C183.5 34.5 328.5 174.5 335.5 76.5" stroke="url(#paint0_linear)" stroke-width="2" stroke-linecap="round"/>
<path d="M343.772 65.9468L321.199 42.1105C319.261 40.0486 315.988 39.9103 313.901 41.9458L307.15 48.337C305.088 50.2757 304.95 53.5484 306.985 55.6358L329.558 79.4721L343.772 65.9468Z" fill="#3C3D42"/>
<path d="M311.69 44.0524C313.752 42.1137 317.05 42.1552 318.989 44.2171L341.465 68.028L343.675 65.9213L321.102 42.085C319.163 40.0231 315.89 39.8849 313.803 41.9203L307.052 48.3115C306.782 48.5506 306.609 48.8153 306.436 49.0799L311.69 44.0524Z" fill="#2C2D32"/>
<path d="M336.481 72.8161L329.486 79.3498L338.576 83.7089L342.944 79.689L347.215 75.6436L343.772 65.9466L336.481 72.8161Z" fill="#3C3D42"/>
<path d="M347.162 75.6617L338.59 83.771L340.652 85.9503L349.223 77.841L347.162 75.6617Z" fill="#2C2D32"/>
<path d="M355.735 80.9903L349.226 77.8279L345.224 81.6341L344.955 81.8733L340.683 85.9186L343.486 92.5514L349.646 86.832L349.478 86.6843L349.672 86.7353L355.735 80.9903Z" fill="#3C3D42"/>
<g opacity="0.1">
<g opacity="0.1">
<path opacity="0.1" d="M347.293 88.6943L347.461 88.842L347.293 88.6943Z" fill="#230753"/>
</g>
</g>
<path d="M325.424 43.7399C325.903 44.2796 325.892 45.1041 325.353 45.5825L310.207 59.8965C309.667 60.3748 308.843 60.3644 308.364 59.8248C307.886 59.2851 307.896 58.4606 308.436 57.9823L323.582 43.6682C324.025 43.1644 324.849 43.1748 325.424 43.7399Z" fill="#2C2D32"/>
<path d="M325.424 43.74C325.114 43.348 324.605 43.3173 324.167 43.4088C324.264 43.4343 324.335 43.5565 324.432 43.582C324.91 44.1216 324.9 44.9462 324.36 45.4245L309.214 59.7385C309.066 59.9064 308.847 59.9522 308.629 59.9979C309.087 60.222 309.692 60.2781 310.232 59.7998L325.378 45.4858C325.892 45.1042 325.902 44.2796 325.424 43.74Z" fill="#3C3D42"/>
<path d="M323.638 79.5675C323.806 79.7151 323.826 80.0307 323.679 80.1986L304.679 98.151C304.531 98.3189 304.241 98.2425 304.073 98.0948L289.998 83.2187C289.83 83.0711 289.81 82.7555 289.958 82.5876L308.958 64.6353C309.105 64.4673 309.395 64.5437 309.563 64.6914L323.638 79.5675Z" stroke="#36373C" stroke-miterlimit="10"/>
<path d="M292.344 85.6983L311.909 67.1709" stroke="#36373C" stroke-miterlimit="10"/>
<path d="M295.239 88.8394L314.804 70.312" stroke="#36373C" stroke-miterlimit="10"/>
<path d="M298.161 91.8838L317.726 73.3565" stroke="#36373C" stroke-miterlimit="10"/>
<path d="M301.055 95.0249L320.62 76.4976" stroke="#36373C" stroke-miterlimit="10"/>
<path d="M292.977 79.7637L307.698 95.3271" stroke="#36373C" stroke-miterlimit="10"/>
<path d="M296.264 76.7002L310.985 92.2636" stroke="#36373C" stroke-miterlimit="10"/>
<path d="M299.553 73.6367L314.274 89.2001" stroke="#36373C" stroke-miterlimit="10"/>
<path d="M302.746 70.5483L317.467 86.1117" stroke="#36373C" stroke-miterlimit="10"/>
<path d="M306.035 67.4849L320.756 83.0482" stroke="#36373C" stroke-miterlimit="10"/>
<path d="M315.954 71.4422L319.217 68.4756" stroke="#36373C" stroke-miterlimit="10"/>
<path d="M344.283 60.0835C344.451 60.2311 344.741 60.3076 344.889 60.1396L363.985 42.2128C364.133 42.0449 364.113 41.7293 363.945 41.5816L349.87 26.7055C349.702 26.5579 349.412 26.4815 349.264 26.6494L330.264 44.6017C330.117 44.7697 330.137 45.0852 330.305 45.2329L344.283 60.0835Z" stroke="#36373C" stroke-miterlimit="10"/>
<path d="M352.12 29.1597L332.555 47.687" stroke="#36373C" stroke-miterlimit="10"/>
<path d="M355.04 32.2041L335.475 50.7315" stroke="#36373C" stroke-miterlimit="10"/>
<path d="M358.059 35.274L338.372 53.8726" stroke="#36373C" stroke-miterlimit="10"/>
<path d="M360.953 38.4152L341.292 56.917" stroke="#36373C" stroke-miterlimit="10"/>
<path d="M346.148 29.4482L360.966 45.0371" stroke="#36373C" stroke-miterlimit="10"/>
<path d="M342.957 32.5371L357.678 48.1005" stroke="#36373C" stroke-miterlimit="10"/>
<path d="M339.643 35.6968L354.364 51.2602" stroke="#36373C" stroke-miterlimit="10"/>
<path d="M336.354 38.7603L351.171 54.3491" stroke="#36373C" stroke-miterlimit="10"/>
<path d="M333.162 41.8491L347.883 57.4125" stroke="#36373C" stroke-miterlimit="10"/>
<path d="M336.599 51.958L333.432 54.95" stroke="#36373C" stroke-miterlimit="10"/>
<path d="M334.272 74.9228L341.562 68.0532L344.934 77.6281L347.016 79.9343L353.525 83.0968L355.734 80.9901L349.225 77.8277L347.144 75.5215L343.772 65.9466L336.481 72.8161L329.486 79.3498L334.272 74.9228Z" fill="#2C2D32"/>
<path d="M349.672 86.7354L354.028 91.3987" stroke="#3C3D42" stroke-miterlimit="10"/>
<path d="M354.846 89.8564C355.492 90.5437 355.431 91.5617 354.744 92.2079C354.056 92.8542 353.038 92.7928 352.392 92.1055C351.746 91.4182 351.807 90.4003 352.495 89.754C353.182 89.1078 354.2 89.1691 354.846 89.8564Z" fill="#3C3D42"/>
<path d="M354.847 89.8565C354.537 89.4645 354.053 89.3371 353.641 89.3319C353.738 89.3574 353.809 89.4796 353.906 89.505C354.552 90.1923 354.491 91.2103 353.803 91.8565C353.508 92.1924 353.07 92.2839 352.658 92.2787C353.258 92.7471 354.205 92.6863 354.77 92.1113C355.432 91.5617 355.493 90.5438 354.847 89.8565Z" fill="#2C2D32"/>
<path d="M322.939 67.6976C323.178 67.9674 323.102 68.2575 322.929 68.5222C322.659 68.7613 322.369 68.6849 322.104 68.5118L314.421 60.3864C314.182 60.1166 314.258 59.8265 314.431 59.5619C314.701 59.3227 314.991 59.3991 315.256 59.5723L322.939 67.6976Z" fill="#2C2D32"/>
<defs>
<linearGradient id="paint0_linear" x1="341" y1="85" x2="25.5" y2="25.5" gradientUnits="userSpaceOnUse">
<stop offset="0.290402" stop-color="#3C3D42"/>
<stop offset="1" stop-color="#4A4B4F" stop-opacity="0"/>
</linearGradient>
</defs>
</svg>
