<?xml version="1.0" encoding="utf-8"?>
<!-- Generator: Adobe Illustrator 19.2.1, SVG Export Plug-In . SVG Version: 6.00 Build 0)  -->
<svg version="1.1" id="Layer_1" xmlns="http://www.w3.org/2000/svg" xmlns:xlink="http://www.w3.org/1999/xlink" x="0px" y="0px"
	 width="109px" height="109px" viewBox="0 0 109 109" enable-background="new 0 0 109 109" xml:space="preserve">
<path fill="#231F20" d="M68.45,66.333H44.866V56.155c3.464,0.151,14.264,0.114,20.565-5.642c3.054-2.789,4.602-6.516,4.602-11.076
	c0-4.533-1.539-8.192-4.574-10.876c-7.424-6.564-21.136-4.959-21.715-4.887l-0.878,0.108v42.55h-6c-0.553,0-1,0.447-1,1
	c0,0.553,0.447,1,1,1h6v15h2v-15H68.45c0.553,0,1-0.447,1-1C69.45,66.78,69.002,66.333,68.45,66.333z M44.866,25.579
	c3.082-0.232,13.525-0.598,19.268,4.48c2.588,2.288,3.899,5.443,3.899,9.378c0,3.974-1.328,7.202-3.946,9.596
	c-5.732,5.24-16.11,5.245-19.221,5.115V25.579z"/>
</svg>
