<?xml version="1.0" encoding="utf-8"?>
<!-- Generator: Adobe Illustrator 19.2.1, SVG Export Plug-In . SVG Version: 6.00 Build 0)  -->
<svg version="1.1" id="Layer_1" xmlns="http://www.w3.org/2000/svg" xmlns:xlink="http://www.w3.org/1999/xlink" x="0px" y="0px"
	 width="109px" height="109px" viewBox="0 0 109 109" enable-background="new 0 0 109 109" xml:space="preserve">
<path fill="#231F20" d="M82.967,48.091c-0.44-0.77-1.27-1.249-2.178-1.188l-0.89,0.039C79.105,33.54,67.954,22.879,54.356,22.879
	c-13.598,0-24.749,10.661-25.544,24.063l-0.892-0.039c-0.903-0.041-1.734,0.417-2.175,1.188c-2.196,3.841-3.357,8.226-3.357,12.679
	c0,5.609,1.777,10.93,5.14,15.387c0.532,0.707,1.336,1.093,2.164,1.093c0.374,0,0.753-0.079,1.113-0.243l3.363-1.53
	c1.247-0.567,2.026-1.867,1.939-3.235l-1.422-22.076c-0.109-1.695-1.472-3.029-3.169-3.104L30.81,47.03
	c0.749-12.34,11.021-22.151,23.545-22.151c12.525,0,22.797,9.811,23.546,22.151l-0.707,0.031c-1.697,0.074-3.06,1.408-3.169,3.104
	l-1.422,22.077c-0.087,1.366,0.691,2.667,1.939,3.234l3.302,1.502c-2.709,2.868-6.143,5.066-10.066,6.294
	c-0.764-1.397-2.231-2.358-3.933-2.358c-2.481,0-4.5,2.018-4.5,4.5c0,2.481,2.019,4.5,4.5,4.5s4.5-2.019,4.5-4.5
	c0-0.075-0.018-0.144-0.022-0.218c5.2-1.615,9.623-4.794,12.778-8.952c0.026-0.031,0.058-0.054,0.082-0.086
	c3.362-4.459,5.14-9.78,5.14-15.388C86.324,56.317,85.164,51.934,82.967,48.091z M31.43,49.059c0.676,0.029,1.218,0.56,1.261,1.234
	l1.422,22.075c0.035,0.544-0.275,1.062-0.771,1.287l-3.363,1.53c-0.296,0.135-0.646,0.04-0.853-0.233
	c-3.099-4.107-4.736-9.012-4.736-14.183c0-4.105,1.069-8.147,3.093-11.686c0.064-0.112,0.194-0.182,0.335-0.182
	c0.006,0,0.012,0,0.018,0L31.43,49.059z M63.845,87.913c-1.379,0-2.5-1.121-2.5-2.5s1.121-2.5,2.5-2.5s2.5,1.121,2.5,2.5
	S65.224,87.913,63.845,87.913z M79.529,75.006c-0.21,0.224-0.524,0.302-0.795,0.179l-3.364-1.53
	c-0.495-0.226-0.806-0.743-0.771-1.286l1.422-22.076c0.043-0.674,0.585-1.205,1.261-1.234l3.593-0.157
	c0.147-0.006,0.288,0.064,0.355,0.182c2.023,3.542,3.093,7.583,3.093,11.686C84.324,66.042,82.558,71.004,79.529,75.006z"/>
</svg>
