<?xml version="1.0" encoding="utf-8"?>
<!-- Generator: Adobe Illustrator 19.2.1, SVG Export Plug-In . SVG Version: 6.00 Build 0)  -->
<svg version="1.1" id="Layer_1" xmlns="http://www.w3.org/2000/svg" xmlns:xlink="http://www.w3.org/1999/xlink" x="0px" y="0px"
	 width="109px" height="109px" viewBox="0 0 109 109" enable-background="new 0 0 109 109" xml:space="preserve">
<path fill="#231F20" d="M53.634,56.26c0-0.668,0.543-1.216,1.214-1.216c0.668,0,1.214,0.548,1.214,1.216
	c0,0.666-0.546,1.211-1.214,1.211C54.177,57.471,53.634,56.925,53.634,56.26 M53.833,39.1v14.076c-1.3,0.43-2.245,1.641-2.245,3.083
	c0,1.44,0.944,2.648,2.245,3.081v3.105c0,0.565,0.459,1.024,1.021,1.024c0.567,0,1.024-0.459,1.024-1.024v-3.11
	c1.291-0.435,2.228-1.641,2.228-3.076c0-1.437-0.937-2.644-2.228-3.079V39.1c0-0.565-0.457-1.021-1.024-1.021
	C54.292,38.079,53.833,38.535,53.833,39.1 M28.08,56.603c0-14.848,12.079-26.927,26.931-26.927
	c14.845,0,26.927,12.079,26.927,26.927c0,14.847-12.081,26.922-26.927,26.922C40.159,83.525,28.08,71.451,28.08,56.603
	 M35.272,28.732l3.593-3.595l0.694,0.687l-3.598,3.6L35.272,28.732z M70.457,25.829l0.69-0.692l3.593,3.595l-0.69,0.692
	L70.457,25.829z M37.524,23.584l-3.8,3.802c-0.361,0.356-0.557,0.834-0.557,1.346c-0.002,0.505,0.195,0.985,0.555,1.341l0.901,0.904
	c0.358,0.356,0.834,0.553,1.341,0.553c0.512,0,0.988-0.197,1.341-0.555l1.18-1.18l1.862,1.862
	c-8.551,5.042-14.316,14.324-14.316,24.946c0,15.975,12.997,28.972,28.979,28.972c15.975,0,28.972-12.997,28.972-28.972
	c0-10.623-5.763-19.904-14.314-24.949l1.86-1.86l1.178,1.18c0.361,0.358,0.836,0.555,1.343,0.555c0.507,0,0.98-0.197,1.346-0.555
	l0.896-0.899c0.358-0.358,0.56-0.839,0.558-1.344c0-0.512-0.2-0.99-0.558-1.343l-3.802-3.8c-0.716-0.723-1.971-0.721-2.685-0.005
	l-0.904,0.904c-0.738,0.74-0.738,1.944,0,2.682l1.18,1.178l-2.293,2.29c-3.615-1.783-7.645-2.836-11.911-2.963v-2.992
	c0-0.565-0.457-1.024-1.024-1.024c-0.562,0-1.021,0.459-1.021,1.024v3.009c-4.155,0.166-8.077,1.206-11.605,2.949l-2.295-2.295
	l1.173-1.173c0.743-0.735,0.75-1.942,0.01-2.687l-0.901-0.896c-0.361-0.363-0.853-0.543-1.346-0.543
	C38.378,23.046,37.885,23.224,37.524,23.584"/>
</svg>
