<?xml version="1.0" encoding="utf-8"?>
<!-- Generator: Adobe Illustrator 19.2.1, SVG Export Plug-In . SVG Version: 6.00 Build 0)  -->
<svg version="1.1" id="Layer_1" xmlns="http://www.w3.org/2000/svg" xmlns:xlink="http://www.w3.org/1999/xlink" x="0px" y="0px"
	 width="109px" height="109px" viewBox="0 0 109 109" enable-background="new 0 0 109 109" xml:space="preserve">
<g>
	<path fill="#231F20" d="M39.799,79.457c-0.173,0-0.346-0.045-0.5-0.134c-0.31-0.179-0.5-0.509-0.5-0.866v-45
		c0-0.357,0.19-0.688,0.5-0.866c0.309-0.178,0.689-0.178,1,0l39.005,22.5c0.31,0.179,0.5,0.509,0.5,0.866
		c0,0.357-0.19,0.688-0.5,0.866l-39.005,22.5C40.144,79.412,39.972,79.457,39.799,79.457z M40.799,35.188v41.537l36.004-20.769
		L40.799,35.188z"/>
</g>
</svg>
