<?xml version="1.0" encoding="utf-8"?>
<!-- Generator: Adobe Illustrator 19.2.1, SVG Export Plug-In . SVG Version: 6.00 Build 0)  -->
<svg version="1.1" id="Layer_1" xmlns="http://www.w3.org/2000/svg" xmlns:xlink="http://www.w3.org/1999/xlink" x="0px" y="0px"
	 width="109px" height="109px" viewBox="0 0 109 109" enable-background="new 0 0 109 109" xml:space="preserve">
<g>
	<path fill="#231F20" d="M45.226,87.541c-0.413,0-0.832-0.124-1.206-0.378c-0.915-0.622-1.202-1.783-0.683-2.761l12.928-24.31
		H40.208c-2.253,0-4.274-1.255-5.273-3.274c-0.999-2.021-0.771-4.388,0.597-6.179l21.021-26.99c0.679-0.873,1.817-1.088,2.768-0.522
		c0.949,0.564,1.305,1.666,0.864,2.679l-9.479,21.796h16.793c2.322,0,4.369,1.31,5.342,3.418c0.973,2.108,0.642,4.516-0.865,6.282
		L46.836,86.783C46.413,87.281,45.825,87.541,45.226,87.541z M58.216,24.817c-0.039,0-0.062,0.028-0.086,0.06L37.115,51.859
		c-0.91,1.192-1.058,2.718-0.388,4.071c0.67,1.354,1.971,2.161,3.48,2.161h17.722c0.351,0,0.677,0.184,0.857,0.485
		c0.181,0.301,0.19,0.674,0.025,0.984l-13.709,25.78c-0.03,0.057-0.055,0.103,0.042,0.167c0.092,0.064,0.128,0.026,0.169-0.022
		l25.139-29.482c1.01-1.185,1.223-2.734,0.571-4.147c-0.652-1.412-1.971-2.256-3.526-2.256H49.179c-0.337,0-0.651-0.17-0.836-0.452
		c-0.186-0.281-0.216-0.638-0.081-0.946L58.35,25.008c0.024-0.057,0.045-0.104-0.052-0.162
		C58.264,24.825,58.238,24.817,58.216,24.817z"/>
</g>
</svg>
