<svg width="130" height="21" viewBox="0 0 130 21" fill="none" xmlns="http://www.w3.org/2000/svg">
<path d="M92.2437 4.2524C93.4001 4.2524 94.3376 3.30046 94.3376 2.1262C94.3376 0.951931 93.4001 0 92.2437 0C91.0872 0 90.1497 0.951931 90.1497 2.1262C90.1497 3.30046 91.0872 4.2524 92.2437 4.2524Z" fill="#34363E"/>
<path d="M103.263 10.2314L106.619 6.77309C106.795 6.55791 107.012 6.38372 107.254 6.26076C107.527 6.12755 107.825 6.06095 108.122 6.07119H111.457C111.725 6.07119 111.886 6.16341 111.937 6.35298C111.982 6.54254 111.922 6.74235 111.775 6.86531L107.189 11.6352C106.997 11.835 106.972 12.1526 107.138 12.3781L112.234 19.4637C112.446 19.7403 112.482 19.9504 112.335 20.099C112.174 20.2527 111.962 20.3346 111.74 20.3244H109.046C108.768 20.3346 108.501 20.2629 108.264 20.1195C108.082 20.0068 107.915 19.8684 107.769 19.7096L104.419 15.0217C104.333 14.9039 104.166 14.8731 104.05 14.9602C104.045 14.9654 104.039 14.9705 104.033 14.9756C104.026 14.9807 104.02 14.9859 104.015 14.991L103.092 15.949C102.991 16.0566 102.93 16.2001 102.93 16.3487V19.7045C102.94 19.8684 102.89 20.0324 102.784 20.1605C102.688 20.2732 102.506 20.3193 102.234 20.3193H99.5901C99.2218 20.3193 99.0401 20.1143 99.0401 19.7045V5.5025C99.0401 4.53931 98.5356 4.00135 97.476 4.00135C96.6882 4.00135 96.6722 3.7685 96.6405 3.30698C96.6383 3.27484 96.636 3.24159 96.6334 3.20723V1.10153C96.6334 0.589189 96.9159 0.338144 97.476 0.338144C102.562 0.338144 102.925 2.8281 102.925 5.54861V10.0982C102.925 10.2057 103.011 10.2928 103.117 10.298C103.178 10.298 103.228 10.2724 103.263 10.2314Z" fill="#34363E"/>
<path d="M0 3.02791C0 2.44897 0.307782 2.15694 0.9183 2.15694H3.209C3.71861 2.15694 4.13235 2.57706 4.13235 3.09452V5.38979C4.13235 5.67157 4.35435 5.897 4.63186 5.897H8.07801C8.70871 5.897 8.93576 6.35298 8.93576 6.79871V8.47406C8.93576 8.94028 8.57248 9.37577 8.07801 9.37577H4.56122C4.32408 9.37577 4.13235 9.57045 4.13235 9.81125V14.8783C4.13235 15.4982 4.25849 15.9234 4.51581 16.154C4.77314 16.3794 5.10615 16.5024 5.44925 16.487C5.73685 16.487 6.00427 16.3538 6.18591 16.1284C6.38773 15.8927 6.51387 15.5136 6.55424 14.9961C6.57442 14.6426 6.6501 14.4172 6.78129 14.3096C6.91248 14.2071 7.15466 14.1559 7.50281 14.1559H9.82883C10.1972 14.1559 10.4242 14.2276 10.515 14.3813C10.6059 14.5299 10.6412 14.7553 10.626 15.0627C10.626 17.3119 8.94081 20.309 5.15156 20.309C4.11217 20.309 3.19891 20.0785 2.4118 19.6225C1.62468 19.1665 1.01921 18.4134 0.58529 17.358C0.267417 16.6151 0.0908208 15.8158 0.0655928 15.0115C0.0201824 14.1661 0 13.3361 0 12.5266V3.02791Z" fill="#34363E"/>
<path fill-rule="evenodd" clip-rule="evenodd" d="M32.6855 5.897C31.858 5.75354 31.0204 5.68182 30.1778 5.69206C28.9063 5.69206 27.8417 5.83552 26.9688 6.10706C26.1615 6.3581 25.4299 6.80383 24.8345 7.41352C24.2896 8.0232 23.9011 8.75584 23.6942 9.54996C23.4722 10.3697 23.346 11.4866 23.3057 12.8904V12.9519C23.2653 14.1661 23.3713 15.201 23.6336 16.072C23.8607 16.8815 24.2492 17.6346 24.7739 18.2853C25.2735 18.9104 25.9496 19.3817 26.8073 19.7045C27.6651 20.0272 28.7549 20.1912 30.0819 20.1912C30.4503 20.1912 30.8287 20.1809 31.2222 20.1605C31.6158 20.14 32.0093 20.0887 32.3928 20.0119C32.7763 19.935 33.1497 19.8121 33.5028 19.6481C33.856 19.4842 34.1739 19.2536 34.4413 18.9616C34.4464 18.9872 34.4565 19.0077 34.4716 19.0231C34.7491 19.5047 35.183 19.8735 35.7027 20.0529C36.7673 20.4935 38.1953 20.4935 38.6645 20.1195C38.831 19.9914 38.9117 19.766 38.9117 19.4329L38.9118 17.5306C38.9122 17.1421 38.9129 16.5895 38.1044 16.5895C37.4586 16.5895 37.0953 16.4101 37.0953 15.739V12.957C37.1912 9.89323 36.3587 7.7824 34.5876 6.62964C34.0074 6.26076 33.3616 6.00971 32.6855 5.897ZM27.5843 10.2058C27.9678 9.52434 28.8407 9.18108 30.2081 9.18108C30.9195 9.18108 31.4846 9.26817 31.9084 9.43725C32.3121 9.58582 32.6451 9.86761 32.862 10.2416C33.0538 10.59 33.1799 10.9743 33.2253 11.3688C33.296 11.9067 33.3313 12.4498 33.3262 12.9929C33.3313 13.5206 33.296 14.0432 33.2253 14.5606C33.1749 14.9449 33.0487 15.3189 32.862 15.657C32.64 16.0361 32.2969 16.3231 31.8933 16.4768C31.4594 16.6561 30.8791 16.7432 30.1475 16.7432C29.4159 16.7432 28.8458 16.6458 28.432 16.4511C28.0385 16.2769 27.7155 15.9644 27.5238 15.575C27.3169 15.2369 27.1958 14.8526 27.1656 14.4581C27.1151 13.9407 27.0899 13.4232 27.0949 12.9058C27.0899 12.3678 27.1151 11.835 27.1807 11.3073C27.2211 10.9077 27.3573 10.5336 27.5843 10.2058Z" fill="#34363E"/>
<path d="M50.6376 6.00971H52.7921C53.1201 6.00971 53.3471 6.07631 53.4783 6.21464C53.6045 6.35297 53.5893 6.5784 53.4329 6.89605L47.9029 19.6942C47.6961 20.1297 47.4185 20.3142 46.6819 20.3142H44.1793C43.816 20.3142 43.4931 20.1297 43.3114 19.6942C43.3114 19.6942 40.0722 10.9435 39.719 10.257C39.4515 9.61656 39.0479 9.37576 38.5635 9.37576C37.9833 9.37576 37.6906 9.23743 37.6906 8.52016V6.86531C37.6906 6.66038 37.7461 6.46569 37.8521 6.29149C37.958 6.10193 38.1952 6.00971 38.5635 6.00971H40.8895C42.0336 6.00971 42.4142 6.76983 42.5672 7.07549L42.5697 7.08049C42.5798 7.09586 42.5849 7.11123 42.5899 7.1266L45.3196 14.4786C45.3953 14.6887 45.6274 14.7912 45.8292 14.7143C45.9301 14.6784 46.0108 14.5965 46.0562 14.4991L49.4166 6.71673C49.6487 6.24538 50.0523 6.00971 50.6376 6.00971Z" fill="#34363E"/>
<path d="M93.49 5.73305C94.0097 5.73305 94.2721 5.96872 94.2721 6.44007V15.1908C94.262 15.5648 94.3427 15.9337 94.5042 16.2667C94.6555 16.569 94.9482 16.7227 95.372 16.7227H96.7595C97.36 16.7227 97.6577 16.9686 97.6577 17.4604V19.3458C97.6577 19.9965 97.3499 20.3193 96.7898 20.3193H94.6454C93.1772 20.3193 92.0772 19.9299 91.3406 19.1409C90.6089 18.357 90.2406 17.0301 90.2406 15.1652V6.44007C90.2356 6.26076 90.286 6.08656 90.3869 5.93798C90.4828 5.79965 90.6644 5.73305 90.9369 5.73305H93.49Z" fill="#34363E"/>
<path d="M116.498 5.73305C117.018 5.73305 117.28 5.96872 117.28 6.44007L117.27 15.1908C117.26 15.5648 117.34 15.9337 117.502 16.2667C117.658 16.569 117.951 16.7227 118.375 16.7227H119.767C120.368 16.7227 120.666 16.9686 120.666 17.4604V19.3458C120.666 20.0836 120.267 20.3193 119.798 20.3193H117.653C116.185 20.3193 115.085 19.9299 114.348 19.1409C113.617 18.357 113.248 17.0301 113.248 15.1652V6.44007C113.243 6.26076 113.294 6.08656 113.395 5.93798C113.491 5.79965 113.672 5.73305 113.945 5.73305H116.498Z" fill="#34363E"/>
<path fill-rule="evenodd" clip-rule="evenodd" d="M67.1217 12.4856V12.2807C67.0813 11.42 66.9451 10.5695 66.713 9.73952C66.491 8.91466 66.0823 8.1564 65.5222 7.52623C64.942 6.93704 64.2104 6.3581 63.3425 6.06095C62.0408 5.61521 61.4151 5.54861 60.1739 5.54861C57.7318 5.54861 55.9608 6.35298 54.8659 7.5416C53.771 8.73022 53.2312 10.5593 53.2513 13.0236C53.2362 14.1046 53.3573 15.1805 53.6146 16.2257C53.8265 17.0813 54.2403 17.8652 54.8256 18.5159C55.4058 19.1563 56.1425 19.6327 56.9649 19.8889C57.8277 20.1758 58.8721 20.3142 60.0932 20.3142C60.8096 20.3193 61.5211 20.2732 62.2325 20.1809C62.8582 20.1041 63.4737 19.935 64.0489 19.6789C64.5888 19.4329 65.0782 19.0897 65.492 18.6593C65.936 18.1777 66.2892 17.6193 66.5263 17.0045C66.5415 16.9788 66.6272 16.7432 66.6979 16.4716C66.7382 16.3179 66.7483 16.1591 66.7281 16.0003C66.708 15.8466 66.6424 15.7031 66.5364 15.5853C66.4002 15.4572 66.2993 15.4111 66.0268 15.4111H63.5494C63.2618 15.4111 63.0903 15.4982 62.954 15.6929C61.7734 17.5834 57.0961 17.7166 57.0961 14.1661C57.0961 14.0585 57.1768 13.9663 57.2878 13.9663H65.8855C66.4305 13.9663 66.7786 13.8382 66.935 13.582C67.0763 13.3259 67.1419 12.957 67.1217 12.4856ZM57.2626 11.3175C57.1718 11.3175 57.1364 11.2765 57.1364 11.1843C57.2071 9.52947 58.5543 8.41257 60.1991 8.41257C61.849 8.41257 63.1912 9.52947 63.2618 11.1843C63.2669 11.256 63.2114 11.3175 63.1458 11.3175H57.2626Z" fill="#34363E"/>
<path d="M71.814 20.3142C72.3186 20.3142 72.5406 20.0836 72.5406 19.6123L72.5456 6.19928C72.5456 5.20022 73.3832 4.50857 74.246 4.50857C75.134 4.50857 75.8808 5.1951 75.8808 6.24539V19.602C75.8808 20.017 76.0574 20.2885 76.4257 20.2885H79.0696C79.5994 20.2885 79.776 19.8326 79.7659 19.6686V16.0874C79.7659 15.99 79.8063 15.8927 79.8769 15.821L80.7599 14.9039C80.775 14.8885 80.7902 14.8731 80.8053 14.8629C80.9768 14.7399 81.214 14.7758 81.3401 14.95L84.6854 19.6686C84.8317 19.8326 84.9982 19.9709 85.1798 20.0836C85.4119 20.2271 85.6844 20.2988 85.9619 20.2885H88.6613C88.8833 20.2988 89.0952 20.2168 89.2567 20.0631C89.403 19.9145 89.3677 19.7045 89.1558 19.4278L83.9083 12.1116C83.7772 11.9323 83.7973 11.6864 83.9487 11.5276L88.6209 6.67063C88.7673 6.54254 88.8278 6.34273 88.7824 6.15317C88.7319 5.9636 88.5755 5.87138 88.3031 5.87138H84.9629C84.3776 5.85601 83.8226 6.1173 83.4542 6.57841L80.1393 9.99569C80.104 10.0316 80.0535 10.0572 79.998 10.0572C79.8769 10.0623 79.776 9.96495 79.7709 9.84199V6.79871C79.7709 6.60915 79.7659 6.42471 79.7558 6.24026V6.22489C79.7558 4.43684 79.0141 2.68977 77.6266 1.58825C75.0079 -0.486719 71.2641 0.19469 69.5031 2.96643C69.271 3.3097 69.0844 3.68883 68.9532 4.08333C68.9481 4.09357 68.9444 4.10638 68.9406 4.11919C68.9368 4.132 68.933 4.14481 68.9279 4.15505C68.9178 4.17555 68.9078 4.19604 68.9027 4.22166C68.711 4.80572 68.6101 5.4154 68.6101 6.03021C68.5949 6.25563 68.5899 6.49131 68.5899 6.73723V19.6071C68.5899 20.0068 68.822 20.3142 69.2307 20.3142H71.814Z" fill="#34363E"/>
<path d="M117.361 2.1262C117.361 3.30046 116.423 4.2524 115.267 4.2524C114.11 4.2524 113.173 3.30046 113.173 2.1262C113.173 0.951931 114.11 0 115.267 0C116.423 0 117.361 0.951931 117.361 2.1262Z" fill="#34363E"/>
<path d="M124.021 6.3786C123.991 6.3786 123.96 6.36835 123.94 6.34273C123.92 6.32224 123.91 6.29662 123.91 6.26588V5.84577C123.905 5.78941 123.94 5.7433 123.991 5.73305H126.226C126.281 5.72793 126.327 5.76379 126.337 5.81503V6.26588C126.337 6.29662 126.327 6.32224 126.307 6.34273C126.286 6.36323 126.261 6.37347 126.236 6.37347H125.565C125.53 6.37347 125.499 6.40421 125.499 6.44008V9.19133C125.499 9.22207 125.484 9.24768 125.464 9.26818C125.444 9.28867 125.414 9.29892 125.383 9.29892H124.859C124.828 9.29892 124.803 9.28867 124.783 9.26818C124.763 9.24768 124.747 9.22207 124.747 9.19133V6.44008C124.747 6.40421 124.717 6.37347 124.682 6.37347H124.021V6.3786Z" fill="#34363E"/>
<path d="M17.7656 10.1648C18.1894 9.69341 18.9362 9.45773 19.9957 9.45773L21.8777 9.46286C22.2814 9.46286 22.4832 9.24768 22.4832 8.81731V6.78846C22.4832 6.32223 22.3419 6.08143 21.8777 6.08143H19.7939C18.9715 6.07119 18.1541 6.17878 17.3619 6.40421C16.7111 6.58353 16.1005 6.88068 15.5556 7.2803C15.5304 7.3008 15.49 7.29567 15.4698 7.27006C14.9804 6.69112 14.4153 6.31711 13.7846 6.15829C13.0126 5.97897 12.2154 5.90212 11.4233 5.93286C10.9036 5.93286 10.6412 6.19927 10.6412 6.72698V7.0395C10.6412 7.22395 10.6361 7.434 10.6261 7.66968C10.616 7.90535 10.6109 8.12566 10.6109 8.33059V8.66361C10.6311 8.93515 10.6866 9.11959 10.7724 9.20669C10.8582 9.29379 11.0095 9.3399 11.2214 9.3399H11.8572C12.1196 9.3399 12.3769 9.43212 12.5787 9.60631C12.7856 9.78051 12.9067 10.0418 12.8966 10.3133V19.6942C12.8966 20.0938 13.1842 20.309 13.5929 20.309H16.1964C16.5647 20.309 16.8069 20.099 16.8069 19.6942V13.4898C16.8019 12.8443 16.8624 12.1987 16.9936 11.5634C17.0996 11.0255 17.367 10.5336 17.7656 10.1648Z" fill="#34363E"/>
<path d="M126.574 5.84576C126.569 5.78941 126.604 5.7433 126.655 5.73305H127.311C127.386 5.73817 127.447 5.78428 127.477 5.85601L128.239 7.33666C128.264 7.3879 128.335 7.3879 128.36 7.33666L129.112 5.85089C129.132 5.8099 129.167 5.77404 129.208 5.75354C129.243 5.73817 129.278 5.73305 129.319 5.73817H129.904C129.97 5.73817 130 5.77404 130 5.85089V9.20157C129.999 9.30916 129.904 9.30916 129.904 9.30916H129.374C129.374 9.30916 129.278 9.30916 129.273 9.20157V6.98315L128.597 8.28961C128.567 8.35109 128.484 8.38183 128.431 8.38183H128.148C128.113 8.38183 128.017 8.34597 127.987 8.28449L127.321 6.98315V9.20669C127.321 9.27842 127.28 9.31429 127.205 9.31429H126.69C126.635 9.31941 126.589 9.28354 126.579 9.22719V9.20669L126.574 5.84576Z" fill="#34363E"/>
</svg>
