<svg width="95" height="72" viewBox="0 0 95 72" fill="none" xmlns="http://www.w3.org/2000/svg">
<circle cx="15.9998" cy="25.3333" r="1.33333" fill="#45474D"/>
<circle cx="47.9998" cy="10.6667" r="1.33333" fill="#45474D"/>
<circle cx="58.6668" cy="17.3333" r="1.33333" fill="#45474D"/>
<circle cx="74.6668" cy="10.6667" r="1.33333" fill="#45474D"/>
<circle cx="78.6668" cy="25.3333" r="1.33333" fill="#45474D"/>
<circle cx="93.3333" cy="42.6667" r="1.33333" fill="#45474D"/>
<circle cx="30.6668" cy="37.3333" r="1.33333" fill="#45474D"/>
<circle cx="91.9998" cy="2.66668" r="1.33333" fill="#45474D"/>
<circle cx="85.3333" cy="70.6667" r="1.33333" fill="#45474D"/>
<circle cx="39.9998" cy="49.3333" r="1.33333" fill="#45474D"/>
<circle cx="17.3333" cy="65.3333" r="1.33333" fill="#45474D"/>
<circle cx="35.9998" cy="66.6667" r="1.33333" fill="#45474D"/>
<circle cx="23.9998" cy="53.3333" r="1.33333" fill="#45474D"/>
<circle cx="1.33333" cy="52" r="1.33333" fill="#45474D"/>
<circle cx="54.6668" cy="58.6667" r="1.33333" fill="#45474D"/>
<circle cx="67.9998" cy="46.6667" r="1.33333" fill="#45474D"/>
<circle cx="53.3333" cy="26.6667" r="1.33333" fill="#45474D"/>
<circle cx="65.3332" cy="56" r="2.66667" fill="#45474D"/>
<circle cx="88.0002" cy="66.6667" r="2.66667" fill="#45474D"/>
<circle cx="19.3327" cy="40.6667" r="2.66667" fill="#45474D"/>
<circle cx="38.6667" cy="17.3333" r="2.66667" fill="#45474D"/>
<circle cx="81.3332" cy="2.66667" r="2.66667" fill="#45474D"/>
</svg>
