<svg width="148" height="54" viewBox="0 0 148 54" fill="none" xmlns="http://www.w3.org/2000/svg">
<circle cx="45" cy="9" r="2" fill="#383A40"/>
<circle cx="50" cy="17" r="1" fill="#383A40"/>
<circle cx="47" cy="39" r="1" fill="#383A40"/>
<circle cx="89" cy="19" r="1" fill="#383A40"/>
<circle cx="113" cy="8" r="1" fill="#383A40"/>
<circle cx="121" cy="13" r="1" fill="#383A40"/>
<circle cx="133" cy="8" r="1" fill="#383A40"/>
<circle cx="136" cy="19" r="1" fill="#383A40"/>
<circle cx="147" cy="32" r="1" fill="#383A40"/>
<circle cx="100" cy="28" r="1" fill="#383A40"/>
<circle cx="146" cy="2" r="1" fill="#383A40"/>
<circle cx="141" cy="53" r="1" fill="#383A40"/>
<circle cx="1" cy="13" r="1" fill="#383A40"/>
<circle cx="13" cy="8" r="1" fill="#383A40"/>
<circle cx="16" cy="19" r="1" fill="#383A40"/>
<circle cx="27" cy="32" r="1" fill="#383A40"/>
<circle cx="26" cy="2" r="1" fill="#383A40"/>
<circle cx="20" cy="49" r="1" fill="#383A40"/>
<circle cx="107" cy="37" r="1" fill="#383A40"/>
<circle cx="90" cy="49" r="1" fill="#383A40"/>
<circle cx="104" cy="50" r="1" fill="#383A40"/>
<circle cx="95" cy="40" r="1" fill="#383A40"/>
<circle cx="78" cy="39" r="1" fill="#383A40"/>
<circle cx="118" cy="44" r="1" fill="#383A40"/>
<circle cx="128" cy="35" r="1" fill="#383A40"/>
<circle cx="117" cy="20" r="1" fill="#383A40"/>
<circle cx="126" cy="42" r="2" fill="#383A40"/>
<circle cx="143" cy="50" r="2" fill="#383A40"/>
<circle cx="81" cy="7" r="2" fill="#383A40"/>
<circle cx="81" cy="41" r="2" fill="#383A40"/>
<circle cx="75" cy="18" r="2" fill="#383A40"/>
<circle cx="106" cy="13" r="2" fill="#383A40"/>
<circle cx="54" cy="48" r="2" fill="#383A40"/>
<circle cx="29" cy="37" r="2" fill="#383A40"/>
<circle cx="9" cy="52" r="2" fill="#383A40"/>
<circle cx="138" cy="2" r="2" fill="#383A40"/>
</svg>
