<svg width="75" height="50" viewBox="0 0 75 50" fill="none" xmlns="http://www.w3.org/2000/svg">
<circle cx="16" cy="17" r="1" fill="#44474D"/>
<circle cx="40" cy="6" r="1" fill="#44474D"/>
<circle cx="48" cy="11" r="1" fill="#44474D"/>
<circle cx="60" cy="6" r="1" fill="#44474D"/>
<circle cx="63" cy="17" r="1" fill="#44474D"/>
<circle cx="74" cy="30" r="1" fill="#44474D"/>
<circle cx="27" cy="26" r="1" fill="#44474D"/>
<circle cx="73" r="1" fill="#44474D"/>
<circle cx="34" cy="35" r="1" fill="#44474D"/>
<circle cx="17" cy="47" r="1" fill="#44474D"/>
<circle cx="31" cy="48" r="1" fill="#44474D"/>
<circle cx="22" cy="38" r="1" fill="#44474D"/>
<circle cx="5" cy="37" r="1" fill="#44474D"/>
<circle cx="45" cy="42" r="1" fill="#44474D"/>
<circle cx="55" cy="33" r="1" fill="#44474D"/>
<circle cx="44" cy="18" r="1" fill="#44474D"/>
<circle cx="53" cy="40" r="2" fill="#44474D"/>
<circle cx="70" cy="48" r="2" fill="#44474D"/>
<circle cx="8" cy="5" r="2" fill="#44474D"/>
<circle cx="8" cy="39" r="2" fill="#44474D"/>
<circle cx="2" cy="16" r="2" fill="#44474D"/>
<circle cx="33" cy="11" r="2" fill="#44474D"/>
<circle cx="65" r="2" fill="#44474D"/>
</svg>
