<svg width="12" height="10" viewBox="0 0 12 10" fill="none" xmlns="http://www.w3.org/2000/svg">
<path d="M10.693 3.82543L8.13618 3.90551L5.86915 0H4.54539C4.40035 0 4.28286 0.110029 4.28286 0.246213L5.23211 3.99615L2.62881 4.09537C2.40474 4.09556 2.19376 4.13102 2.00679 4.19264L1.02335 2.6272L0.198039 2.627C0.0886526 2.6272 0 2.71019 0 2.81277L0.719613 4.87604V5.12396L5.19614e-05 7.18723C-5.19689e-05 7.28976 0.0886006 7.373 0.197987 7.373L1.02345 7.37319L2.02415 5.77984C2.20675 5.83815 2.41155 5.87166 2.62886 5.87166L5.24209 5.97131L4.28276 9.75403C4.28276 9.89017 4.40015 10 4.54529 10H5.86905L8.15499 6.06239L10.693 6.14183C11.415 6.14183 12 5.62301 12 4.98363C12.0001 4.34406 11.415 3.82543 10.693 3.82543Z" fill="#23242A"/>
</svg>
