<?xml version="1.0" encoding="utf-8"?>
<!-- Generator: Adobe Illustrator 19.2.1, SVG Export Plug-In . SVG Version: 6.00 Build 0)  -->
<svg version="1.1" id="Layer_1" xmlns="http://www.w3.org/2000/svg" xmlns:xlink="http://www.w3.org/1999/xlink" x="0px" y="0px"
	 viewBox="0 0 112 70" style="enable-background:new 0 0 112 70;" xml:space="preserve">
<circle cx="56" cy="61" r="3"/>
<rect x="16" y="58" width="16" height="4"/>
<g>
	<polygon points="32,6 12,6 12,70 32,70 32,66 16,66 16,10 32,10 32,6 	"/>
</g>
<rect x="80" y="58" transform="matrix(-1 -4.592960e-11 4.592960e-11 -1 176 120)" width="16" height="4"/>
<g>
	<polygon points="100,6 80,6 80,10 96,10 96,66 80,66 80,70 100,70 100,6 	"/>
</g>
<g>
	<path d="M36,0v70h40V0H36z M72,66H40V56h32V66z M72,52H40V4h32V52z"/>
</g>
</svg>
