<?xml version="1.0" encoding="utf-8"?>
<!-- Generator: Adobe Illustrator 19.2.1, SVG Export Plug-In . SVG Version: 6.00 Build 0)  -->
<svg version="1.1" id="Layer_1" xmlns="http://www.w3.org/2000/svg" xmlns:xlink="http://www.w3.org/1999/xlink" x="0px" y="0px"
	 viewBox="0 0 70 70" style="enable-background:new 0 0 70 70;" xml:space="preserve">
<style type="text/css">
	.st0{display:none;opacity:0.5;}
	.st1{display:none;fill:none;stroke:#000000;stroke-width:4;stroke-miterlimit:10;}
	.st2{display:none;opacity:0.4;fill:#EA0A0A;}
	.st3{display:none;}
	.st4{fill:#19214B;}
</style>
<polygon class="st0" points="35,0 0,60 4,60 35,8 66,60 70,60 "/>
<polygon class="st0" points="4,60 35,8 66,60 "/>
<path class="st1" d="M10,34"/>
<path class="st1" d="M70,68"/>
<line class="st1" x1="14.9" y1="37.9" x2="58.3" y2="59.9"/>
<polygon class="st2" points="35,27 54,60 16,60 "/>
<rect x="12.4" y="41.8" transform="matrix(0.8919 0.4523 -0.4523 0.8919 23.6455 -11.2814)" class="st3" width="46" height="4"/>
<polygon class="st4" points="35,20 25.5,36.6 28.6,38.1 35,27 50.4,53.7 26.6,41.6 26.6,41.6 23.5,40 12,60 16,60 24.6,45.1 54,60 
	58,60 "/>
</svg>
