<?xml version="1.0" encoding="utf-8"?>
<!-- Generator: Adobe Illustrator 19.2.1, SVG Export Plug-In . SVG Version: 6.00 Build 0)  -->
<svg version="1.1" id="Layer_2" xmlns="http://www.w3.org/2000/svg" xmlns:xlink="http://www.w3.org/1999/xlink" x="0px" y="0px"
	 viewBox="0 0 88 70" style="enable-background:new 0 0 88 70;" xml:space="preserve">
<g>
	<path d="M58.8,40.3c0.7-0.6,1.4-1.3,2-2C60.1,39,59.5,39.6,58.8,40.3L58.8,40.3z M29.2,40.3c-0.7-0.6-1.3-1.3-1.9-2
		C27.9,39,28.5,39.6,29.2,40.3L29.2,40.3z"/>
	<path d="M44,0C30.7,0,20,10.7,20,24c0,8,3.9,15,9.8,19.4l1.9-3.6C27,36.1,24,30.4,24,24c0-11,9-20,20-20s20,9,20,20
		c0,6.4-3,12.1-7.7,15.8l1.9,3.6C64.1,39,68,32,68,24C68,10.7,57.3,0,44,0L44,0z"/>
</g>
<g>
	<path d="M44,24L20,70l24-8l24,8L44,24z M28,63l16-30l16,30l-16-5L28,63z"/>
</g>
</svg>
