<?xml version="1.0" encoding="utf-8"?>
<!-- Generator: Adobe Illustrator 19.2.1, SVG Export Plug-In . SVG Version: 6.00 Build 0)  -->
<svg version="1.1" id="Layer_2" xmlns="http://www.w3.org/2000/svg" xmlns:xlink="http://www.w3.org/1999/xlink" x="0px" y="0px"
	 viewBox="0 0 70 70" style="enable-background:new 0 0 70 70;" xml:space="preserve">
<g>
	<path d="M66,12c0-6.6-5.4-12-12-12c-6.3,0-11.5,4.9-12,11.2c-2.2-0.7-4.6-1.2-7-1.2s-4.8,0.4-7,1.2C27.5,4.9,22.3,0,16,0
		C9.4,0,4,5.4,4,12c0,6.1,4.6,11.2,10.5,11.9c-1,2.5-1.5,5.2-1.5,8.1c0,12.2,9.8,22,22,22s22-9.8,22-22c0-2.9-0.6-5.6-1.5-8.1
		C61.4,23.2,66,18.1,66,12z M54,20L54,20l-5.1,0.7c2.5,3.1,4.1,7.1,4.1,11.4c0,9.9-8.1,18-18,18s-18-8.1-18-18
		c0-4.3,1.5-8.3,4.1-11.4L16,20c-4.4,0-8-3.6-8-8s3.6-8,8-8s8,3.6,8,8l0.4,5.6c3-2.2,6.6-3.5,10.6-3.5c4,0,7.7,1.3,10.7,3.6L46,12
		l0,0c0,0,0,0,0,0c0-4.4,3.6-8,8-8s8,3.6,8,8C62,16.4,58.4,20,54,20z"/>
</g>
<g>
	<g>
		<rect x="32" y="58" width="6" height="6"/>
	</g>
	<g>
		<path d="M16,52l0,18l12-6l0-6L16,52z M24,62l-4,2l0-6l4,2V62z"/>
	</g>
	<g>
		<path d="M42,58l0,6l12,6l0-18L42,58z M46,60l4-2l0,6l-4-2V60z"/>
	</g>
</g>
</svg>
