<?xml version="1.0" encoding="utf-8"?>
<!-- Generator: Adobe Illustrator 19.2.1, SVG Export Plug-In . SVG Version: 6.00 Build 0)  -->
<svg version="1.1" id="Behance_1_" xmlns="http://www.w3.org/2000/svg" xmlns:xlink="http://www.w3.org/1999/xlink" x="0px" y="0px"
	 viewBox="0 0 50 50" style="enable-background:new 0 0 50 50;" xml:space="preserve">
<style type="text/css">
	.st0{fill:#798095;}
</style>
<g>
	<path class="st0" d="M25,2c12.7,0,23,10.3,23,23S37.7,48,25,48S2,37.7,2,25S12.3,2,25,2 M25,0C11.2,0,0,11.2,0,25s11.2,25,25,25
		s25-11.2,25-25S38.8,0,25,0L25,0z"/>
</g>
<g>
	<path id="Behance" class="st0" d="M37.3,18.2h-7.6v-1.9h7.6L37.3,18.2L37.3,18.2z M24.6,26c0.5,0.8,0.7,1.7,0.7,2.8
		c0,1.1-0.3,2.1-0.8,3c-0.4,0.6-0.8,1.1-1.3,1.5c-0.6,0.5-1.3,0.8-2.1,1c-0.8,0.2-1.7,0.3-2.7,0.3H9.8V15.5h9.1c2.3,0,3.9,0.7,4.9,2
		c0.6,0.8,0.9,1.8,0.9,2.9c0,1.2-0.3,2.1-0.9,2.8c-0.3,0.4-0.8,0.8-1.4,1.1C23.3,24.7,24.1,25.2,24.6,26z M14.2,23h4
		c0.8,0,1.5-0.2,2-0.5c0.5-0.3,0.8-0.9,0.8-1.7c0-0.9-0.3-1.5-1-1.7c-0.6-0.2-1.3-0.3-2.2-0.3h-3.5V23z M21.3,28.5
		c0-1-0.4-1.7-1.2-2c-0.4-0.2-1.1-0.3-1.9-0.3h-4.1v5h4c0.8,0,1.5-0.1,1.9-0.3C20.9,30.4,21.3,29.6,21.3,28.5z M40.1,25.4
		c0.1,0.6,0.1,1.5,0.1,2.7h-9.9c0.1,1.4,0.5,2.3,1.4,2.9c0.5,0.3,1.2,0.5,2,0.5c0.8,0,1.5-0.2,2-0.6c0.3-0.2,0.5-0.5,0.7-0.9H40
		c-0.1,0.8-0.5,1.6-1.3,2.4c-1.2,1.3-2.9,2-5.1,2c-1.8,0-3.4-0.6-4.8-1.7c-1.4-1.1-2.1-2.9-2.1-5.4c0-2.4,0.6-4.2,1.9-5.4
		c1.2-1.3,2.9-1.9,4.8-1.9c1.2,0,2.2,0.2,3.2,0.6c0.9,0.4,1.7,1.1,2.3,2C39.6,23.4,39.9,24.3,40.1,25.4z M36.5,25.8
		c-0.1-0.9-0.4-1.7-0.9-2.1c-0.6-0.5-1.3-0.7-2.1-0.7c-0.9,0-1.6,0.3-2.1,0.8c-0.5,0.5-0.8,1.2-0.9,2.1L36.5,25.8L36.5,25.8z"/>
</g>
</svg>
