<?xml version="1.0" encoding="utf-8"?>
<!-- Generator: Adobe Illustrator 19.2.1, SVG Export Plug-In . SVG Version: 6.00 Build 0)  -->
<svg version="1.1" id="Point_for_map" xmlns="http://www.w3.org/2000/svg" xmlns:xlink="http://www.w3.org/1999/xlink" x="0px"
	 y="0px" viewBox="0 0 70 70" style="enable-background:new 0 0 70 70;" xml:space="preserve">
<style type="text/css">
	.st0{fill:url(#SVGID_1_);}
	.st1{fill:#FFFFFF;}
</style>
<g>
	
		<radialGradient id="SVGID_1_" cx="35" cy="36" r="32.0624" gradientTransform="matrix(1 0 0 -1 0 70)" gradientUnits="userSpaceOnUse">
		<stop  offset="0" style="stop-color:#243564"/>
		<stop  offset="1" style="stop-color:#16203F"/>
	</radialGradient>
	<path class="st0" d="M5,0v60h22l8,8l8-8h22V0H5z"/>
</g>
<g>
	<path class="st1" d="M5,0v60h22l8,8l8-8h22V0H5z M61,56.1H41.9L35,63l-7-6.9H8.9V4H61V56.1z"/>
</g>
<polygon class="st1" points="35,14.8 28.9,25.4 31.9,27.1 35,21.8 45,39.1 26.9,28.9 17,46 21,46 27.9,34.1 49,46 53,46 "/>
</svg>
