<svg width="40" height="40" viewBox="0 0 40 40" fill="none" xmlns="http://www.w3.org/2000/svg">
<path fill-rule="evenodd" clip-rule="evenodd" d="M25.087 16.0869C25.087 13.2773 22.8095 10.9999 20 10.9999C17.1904 10.9999 14.913 13.2773 14.913 16.0869C14.913 16.4625 14.967 16.8233 15.0444 17.1755C14.9615 17.4236 14.913 17.7218 14.913 18.0434C14.913 18.9082 15.2636 19.6086 15.6956 19.6086C15.777 19.6086 15.8537 19.5766 15.9272 19.5312C16.5017 21.85 18.1052 23.5217 20 23.5217C21.8947 23.5217 23.4982 21.85 24.0727 19.5312C24.1463 19.5766 24.2229 19.6086 24.3043 19.6086C24.7363 19.6086 25.087 18.9082 25.087 18.0434C25.087 17.7218 25.0384 17.4236 24.9555 17.1755C25.033 16.8233 25.087 16.4625 25.087 16.0869V16.0869Z" stroke="#34363E" stroke-linecap="round" stroke-linejoin="round"/>
<path fill-rule="evenodd" clip-rule="evenodd" d="M25.847 23.9902L23.8341 23.2898C22.7971 24.4215 21.4518 25.0867 20.0001 25.0867C18.5475 25.0867 17.203 24.4215 16.166 23.2898L14.1532 23.9902C12.2655 24.6468 11 26.4265 11 28.4253V28.9998H29.0001V28.4253C29.0001 26.4265 27.7347 24.6468 25.847 23.9902Z" fill="#34363E" stroke="#34363E" stroke-linecap="round" stroke-linejoin="round"/>
<path d="M15.0447 17.1755C15.5244 17.1755 16.0871 17.2609 16.0871 17.2609C16.0871 17.2609 15.9157 14.913 16.4784 14.913C17.0411 14.913 18.8263 14.9866 18.8263 13.3478C18.8263 14.0568 21.1248 15.6956 23.522 15.6956C23.522 16.3804 23.9133 17.2609 23.9133 17.2609L24.9549 17.1755" stroke="#34363E" stroke-linecap="round" stroke-linejoin="round"/>
<path d="M18.0435 18.0435H18.8261" stroke="#34363E" stroke-linecap="round" stroke-linejoin="round"/>
<path d="M21.1738 18.0435H21.9564" stroke="#34363E" stroke-linecap="round" stroke-linejoin="round"/>
</svg>
