<svg width="40" height="40" viewBox="0 0 40 40" fill="none" xmlns="http://www.w3.org/2000/svg">
<path fill-rule="evenodd" clip-rule="evenodd" d="M17.9598 12.4881C18.2272 11.93 18.7067 11.5 19.3791 11.5H19.3881C19.7914 11.5072 20.131 11.6681 20.3798 11.9531C20.6137 12.2211 20.7423 12.5692 20.8127 12.9247C20.9529 13.6331 20.8956 14.5517 20.7489 15.4882C20.6167 16.3317 20.4045 17.2326 20.1625 18.0802C20.3982 18.3905 20.6644 18.6968 20.9632 18.994C21.6988 19.7255 22.49 20.3748 23.266 20.9157C23.9363 20.7956 24.5918 20.7231 25.1947 20.705C26.021 20.6802 26.7967 20.7559 27.3861 20.9866C27.9848 21.2211 28.5 21.672 28.5 22.4104C28.5 22.7369 28.4012 23.0474 28.1633 23.2813C27.9337 23.5071 27.6332 23.6037 27.341 23.6325C26.7721 23.6888 26.0531 23.5075 25.306 23.2006C24.612 22.9156 23.8384 22.499 23.0477 21.9762C22.0706 22.1783 21.0732 22.4839 20.1955 22.8684C19.5015 23.1723 18.6448 23.5633 17.7549 23.9968C17.4576 24.5815 17.1324 25.1689 16.7828 25.7139C16.2426 26.5559 15.6203 27.3361 14.9194 27.854C14.2087 28.3792 13.374 28.6624 12.4677 28.4023C12.0935 28.295 11.7048 28.0966 11.5559 27.6983C11.4037 27.2912 11.5863 26.9076 11.7725 26.6465C12.1526 26.1133 12.939 25.5352 13.823 24.9853C14.765 24.3994 15.9059 23.7937 17.0121 23.2473C17.4283 22.4031 17.7869 21.5719 18.0807 20.8908C18.1604 20.7061 18.2353 20.5325 18.3053 20.3727C18.5412 19.8341 18.8134 19.0893 19.0652 18.2652C18.2029 16.9898 17.7671 15.6618 17.6711 14.5326C17.6049 13.7553 17.6972 13.0359 17.9598 12.4881ZM19.4328 16.9353C19.5657 16.3964 19.6796 15.8525 19.7609 15.3334C19.9028 14.428 19.9369 13.6507 19.8317 13.1189C19.7793 12.8543 19.701 12.6962 19.6264 12.6107C19.5674 12.5431 19.4978 12.5032 19.3747 12.5C19.2017 12.5016 19.0167 12.5966 18.8615 12.9203C18.7002 13.257 18.6109 13.7827 18.6675 14.4478C18.7303 15.1866 18.9699 16.0529 19.4328 16.9353ZM19.808 19.2249C19.6086 19.8202 19.4055 20.3533 19.2213 20.7738C19.1545 20.9265 19.0819 21.095 19.0037 21.2763C18.8392 21.658 18.6501 22.0966 18.4387 22.5643C18.9305 22.3359 19.3909 22.129 19.7943 21.9523C20.4724 21.6554 21.2148 21.4024 21.9689 21.2032C21.3843 20.751 20.8057 20.2476 20.2581 19.703C20.1002 19.546 19.9502 19.3864 19.808 19.2249ZM16.1745 24.7976C15.5267 25.1404 14.902 25.4919 14.3512 25.8345C13.4584 26.3898 12.8368 26.8762 12.5868 27.227C12.547 27.2827 12.5254 27.3225 12.5138 27.3488C12.549 27.3708 12.6174 27.405 12.7434 27.4411C13.2601 27.5894 13.7768 27.455 14.3251 27.0498C14.8832 26.6374 15.4276 25.9744 15.9411 25.1739C16.0202 25.0506 16.098 24.925 16.1745 24.7976ZM12.5004 27.3896C12.5003 27.3896 12.5004 27.3888 12.5006 27.3871L12.5004 27.3896ZM24.5894 21.7436C24.9736 21.956 25.3425 22.1346 25.6859 22.2756C26.3892 22.5645 26.9222 22.6691 27.2427 22.6374C27.3953 22.6223 27.4487 22.5815 27.4621 22.5684C27.4679 22.5626 27.5 22.5314 27.5 22.4104C27.5 22.2491 27.4186 22.0733 27.0215 21.9178C26.615 21.7587 25.9956 21.6814 25.2247 21.7045C25.0196 21.7107 24.8072 21.7238 24.5894 21.7436Z" fill="#34363E"/>
</svg>
