<svg width="54" height="68" viewBox="0 0 54 68" fill="none" xmlns="http://www.w3.org/2000/svg">
<path d="M19.1246 11.183C18.9147 11.1495 18.5461 11.049 18.5461 10.8144C18.5461 10.5894 18.7867 10.4602 19.1246 10.4602C19.4573 10.4602 19.6979 10.5894 19.6979 10.8144C19.6979 11.049 19.3345 11.1495 19.1246 11.183Z" fill="#3B3D46"/>
<path d="M19.1246 12.5521C18.7662 12.5521 18.4898 12.4037 18.4898 12.1739C18.4898 11.9106 18.9096 11.7861 19.1246 11.7574C19.3345 11.7861 19.7594 11.9106 19.7594 12.1739C19.7594 12.4037 19.4727 12.5521 19.1246 12.5521Z" fill="#3B3D46"/>
<path d="M18.1683 16.0912C18.1683 16.6847 18.5727 17.1395 19.2075 17.1395C19.8372 17.1395 20.2416 16.6847 20.2416 16.0912C20.2416 15.4928 19.8372 15.0428 19.2075 15.0428C18.5727 15.0428 18.1683 15.4928 18.1683 16.0912Z" fill="#3B3D46"/>
<path fill-rule="evenodd" clip-rule="evenodd" d="M2.03774 0C0.912326 0 0 0.882627 0 1.9714V66.042C0 67.1308 0.915774 68.015 2.04107 67.9998C2.7226 67.9906 3.40089 67.9766 4.07573 67.9576V64.21C5.49663 64.7447 6.43117 64.9759 8.11381 65.2967C9.83384 65.5818 11.4043 65.7244 12.8252 65.7244C17.6488 65.7244 20.0606 63.9957 20.0606 60.5384C20.0606 59.0414 19.4997 57.9008 18.3779 57.1167C17.2936 56.2969 15.7418 55.8871 13.7226 55.8871C11.9652 55.8871 10.2265 56.0296 8.50643 56.3148C6.82379 56.5999 5.3468 56.992 4.07547 57.491V35.9986H21.2543C21.405 37.4397 21.8549 38.7442 22.604 39.9123C23.3657 41.0711 24.4245 42.0182 25.7803 42.7535C25.4548 42.9299 25.1385 43.1201 24.8325 43.3231H13.0496L12.8813 48.7229C13.4796 48.6873 14.377 48.6695 15.5735 48.6695C17.2679 48.6695 18.8089 48.8443 20.1966 49.1939C19.7821 50.3651 19.5576 51.6191 19.5576 52.9229C19.5576 57.6544 22.515 61.7299 26.7705 63.5741C27.1964 63.7738 27.6488 63.9627 28.1292 64.1393C29.8561 63.5367 31.5191 62.8521 33.111 62.0778C29.3258 61.8988 26.346 60.9823 24.1717 59.3284C21.7709 57.4738 20.5706 54.9415 20.5706 51.7315C20.5706 49.5559 21.152 47.6656 22.3148 46.0606C23.4777 44.4556 25.1657 43.2429 27.3789 42.4226C25.5408 41.638 24.1529 40.5323 23.2151 39.1057C22.2773 37.6433 21.8084 35.967 21.8084 34.0767C21.8084 31.1878 22.915 28.8516 25.1282 27.0683C27.3414 25.285 30.4736 24.3933 34.5248 24.3933C37.1131 24.3933 39.3638 24.8213 41.2769 25.6773C43.19 26.4976 44.6529 27.639 45.6657 29.1013C46.716 30.5636 47.2412 32.2221 47.2412 34.0767C47.2412 35.9314 46.7348 37.5898 45.722 39.0522C44.7092 40.5145 43.2837 41.638 41.4457 42.4226C43.6964 43.2429 45.4219 44.4556 46.6223 46.0606C47.2235 46.8401 47.6788 47.687 47.988 48.6012C51.8299 42.0815 54 33.536 54 22.4247V1.9714C54 0.882628 53.0877 0 51.9623 0H2.03774ZM44.8123 21.6854H49.9051V26.9078L44.8123 21.6854ZM19.1246 13.1552C19.8413 13.1552 20.4965 12.8632 20.4965 12.2696C20.4965 11.8819 20.1689 11.5851 19.7645 11.4511C20.1382 11.3266 20.4402 11.0968 20.4402 10.6995C20.4402 10.0964 19.7542 9.85703 19.1246 9.85703C18.4898 9.85703 17.8089 10.0964 17.8089 10.6995C17.8089 11.0968 18.1059 11.3266 18.4847 11.4511C18.0751 11.5851 17.7526 11.8819 17.7526 12.2696C17.7526 12.8632 18.4079 13.1552 19.1246 13.1552ZM5.80583 10.5033V13.0978H5.07379V10.5033H4.07554V9.9049H6.79896V10.5033H5.80583ZM10.2341 13.0978V9.9049H9.50207V11.1591H7.88951V9.9049H7.16259V13.0978H7.88951V11.7526H9.50207V13.0978H10.2341ZM13.2209 13.0978V12.4994H11.5316V11.7718H13.1851V11.1734H11.5316V10.5033H13.2209V9.9049H10.8046V13.0978H13.2209ZM16.1278 13.1552C16.952 13.1552 17.4946 12.7244 17.4946 12.0494C17.4946 11.4032 16.9776 11.0155 16.3991 11.0155C16.0869 11.0155 15.8104 11.1303 15.6466 11.2835V10.5033H17.2643V9.9049H14.9197V11.7335L15.4265 11.8627C15.6312 11.6808 15.8616 11.6042 16.1432 11.6042C16.5322 11.6042 16.7575 11.7957 16.7575 12.0781C16.7575 12.3366 16.5271 12.5521 16.1227 12.5521C15.7643 12.5521 15.447 12.4276 15.2166 12.2026L14.8122 12.6765C15.104 12.9733 15.534 13.1552 16.1278 13.1552ZM20.989 16.0912C20.989 17.0533 20.2365 17.7426 19.2075 17.7426C18.1734 17.7426 17.4209 17.0533 17.4209 16.0912C17.4209 15.129 18.1734 14.4397 19.2075 14.4397C20.2365 14.4397 20.989 15.129 20.989 16.0912ZM5.7171 17.7426C6.63344 17.7426 7.08393 17.3022 7.08393 16.7182C7.08393 15.9956 6.36322 15.836 5.79571 15.7103C5.42719 15.6287 5.12327 15.5614 5.12327 15.3636C5.12327 15.1721 5.29733 15.0476 5.60448 15.0476C5.95259 15.0476 6.32117 15.1577 6.59761 15.3971L7.00203 14.8897C6.66416 14.5977 6.21367 14.4445 5.67103 14.4445C4.86731 14.4445 4.37587 14.8849 4.37587 15.4162C4.37587 16.1315 5.07251 16.2835 5.63637 16.4066C6.01969 16.4903 6.34165 16.5605 6.34165 16.7853C6.34165 16.972 6.15224 17.1395 5.74782 17.1395C5.27685 17.1395 4.90315 16.9384 4.66255 16.7039L4.26325 17.2352C4.58576 17.5368 5.05672 17.7426 5.7171 17.7426ZM9.88214 17.0868V17.6852H7.46587V14.4923H9.88214V15.0907H8.1928V15.7609H9.84631V16.3592H8.1928V17.0868H9.88214ZM12.9332 16.7182C12.9332 17.3022 12.4827 17.7426 11.5664 17.7426C10.906 17.7426 10.4351 17.5368 10.1125 17.2352L10.5118 16.7039C10.7524 16.9384 11.1262 17.1395 11.5971 17.1395C12.0015 17.1395 12.1909 16.972 12.1909 16.7853C12.1909 16.5605 11.869 16.4903 11.4857 16.4066C10.9218 16.2835 10.2252 16.1315 10.2252 15.4162C10.2252 14.8849 10.7166 14.4445 11.5203 14.4445C12.063 14.4445 12.5135 14.5977 12.8513 14.8897L12.4469 15.3971C12.1705 15.1577 11.8019 15.0476 11.4538 15.0476C11.1466 15.0476 10.9726 15.1721 10.9726 15.3636C10.9726 15.5614 11.2765 15.6287 11.645 15.7103C12.2125 15.836 12.9332 15.9956 12.9332 16.7182ZM15.9004 16.7182C15.9004 17.3022 15.4499 17.7426 14.5335 17.7426C13.8732 17.7426 13.4022 17.5368 13.0797 17.2352L13.479 16.7039C13.7196 16.9384 14.0933 17.1395 14.5643 17.1395C14.9687 17.1395 15.1581 16.972 15.1581 16.7853C15.1581 16.5605 14.8361 16.4903 14.4528 16.4066C13.889 16.2835 13.1923 16.1315 13.1923 15.4162C13.1923 14.8849 13.6838 14.4445 14.4875 14.4445C15.0301 14.4445 15.4806 14.5977 15.8185 14.8897L15.4141 15.3971C15.1376 15.1577 14.769 15.0476 14.4209 15.0476C14.1138 15.0476 13.9397 15.1721 13.9397 15.3636C13.9397 15.5614 14.2436 15.6287 14.6122 15.7103C15.1797 15.836 15.9004 15.9956 15.9004 16.7182ZM17.0092 14.4923V17.6852H16.2823V14.4923H17.0092ZM24.4529 17.6852V14.4923H23.726V16.4981L22.1441 14.4923H21.3967V17.6852H22.1237V15.6029L23.7516 17.6852H24.4529Z" fill="#3B3D46"/>
<path d="M34.5248 31.1878C33.362 31.1878 32.4242 31.5622 31.7115 32.3112C31.0363 33.0602 30.6986 34.0232 30.6986 35.2002C30.6986 36.3772 31.0363 37.3402 31.7115 38.0892C32.4242 38.8382 33.362 39.2127 34.5248 39.2127C35.6877 39.2127 36.6067 38.8382 37.2819 38.0892C37.9946 37.3402 38.351 36.3772 38.351 35.2002C38.351 34.0232 37.9946 33.0602 37.2819 32.3112C36.6067 31.5622 35.6877 31.1878 34.5248 31.1878Z" fill="#3B3D46"/>
<path d="M38.1259 54.032C37.1506 54.888 35.9503 55.316 34.5248 55.316C33.0994 55.316 31.899 54.888 30.9237 54.032C29.9484 53.176 29.4608 52.0347 29.4608 50.608C29.4608 49.1814 29.9297 48.0401 30.8675 47.1841C31.8427 46.3281 33.0619 45.9001 34.5248 45.9001C35.9878 45.9001 37.1881 46.3281 38.1259 47.1841C39.1012 48.0401 39.5889 49.1814 39.5889 50.608C39.5889 52.0347 39.1012 53.176 38.1259 54.032Z" fill="#3B3D46"/>
</svg>
