<svg width="120" height="15" viewBox="0 0 120 15" fill="none" xmlns="http://www.w3.org/2000/svg">
<path d="M18.0992 14.1991V0.000976563H28.1165V2.8365H21.5448V5.63411H26.859V8.37362H21.5448V11.3636H28.1165V14.1991H18.0992Z" fill="white"/>
<path d="M34.2351 14.1991V0.000976563H39.2422C42.7107 0.000976563 44.8649 1.55741 44.8649 4.06239C44.8649 5.18736 44.2623 6.17902 43.2662 6.73432C44.5481 7.30583 45.4126 8.58798 45.4126 9.98388C45.4126 12.6231 43.2655 14.1991 39.6681 14.1991H34.2351ZM39.81 11.4788C41.039 11.4788 41.8339 10.8165 41.8339 9.79154C41.8339 8.56168 40.8932 8.12349 40.0132 8.12349H37.6848V11.4788H39.81ZM39.3642 5.76896C39.7339 5.76896 40.1268 5.75581 40.49 5.6601C41.0158 5.47052 41.3268 4.97729 41.3268 4.31221C41.3268 3.30099 40.641 2.72122 39.4448 2.72122H37.6848V5.76896H39.3642Z" fill="white"/>
<path d="M57.8837 14.1991C53.581 14.1991 50.3362 11.1472 50.3362 7.10004C50.3362 3.0529 53.581 0.000976563 57.8837 0.000976563C62.1865 0.000976563 65.4313 3.0529 65.4313 7.10004C65.4313 11.1472 62.1865 14.1991 57.8837 14.1991ZM57.8837 2.98756C55.5321 2.98756 53.7584 4.75543 53.7584 7.10004C53.7584 9.44464 55.5321 11.2125 57.8837 11.2125C60.2354 11.2125 62.0091 9.44464 62.0091 7.10004C62.0091 4.75543 60.2354 2.98756 57.8837 2.98756V2.98756Z" fill="white"/>
<path d="M96.2507 14.1991L93.1797 9.35396H91.3726V14.1991H87.9358V0.000976563H93.2546C96.9024 0.000976563 99.0798 1.77085 99.0798 4.73511C99.0798 6.58326 98.0985 8.04093 96.3772 8.76441L99.9876 14.1991H96.2507ZM93.4165 6.61476C94.2178 6.61476 95.5623 6.37074 95.5623 4.73511C95.5623 3.52849 94.7507 2.8365 93.3359 2.8365H91.3726V6.61476H93.4165Z" fill="white"/>
<path d="M78.9902 14.1991L75.9192 9.35396H74.1121V14.1991H70.6753V0.000976563H75.9941C79.6419 0.000976563 81.8193 1.77085 81.8193 4.73511C81.8193 6.58326 80.838 8.04093 79.1167 8.76441L82.7271 14.1991H78.9902ZM76.156 6.61476C76.9573 6.61476 78.3018 6.37074 78.3018 4.73511C78.3018 3.52849 77.4902 2.8365 76.0754 2.8365H74.1121V6.61476H76.156Z" fill="white"/>
<path d="M9.14844 14.2003L6.07744 9.35518H4.27032V14.2003H0.833496V0.00219727H6.15228C9.80007 0.00219727 11.9775 1.77207 11.9775 4.73633C11.9775 6.58448 10.9962 8.04215 9.2749 8.76563L12.8853 14.2003H9.14844ZM6.31421 6.61598C7.11551 6.61598 8.46005 6.37196 8.46005 4.73633C8.46005 3.52971 7.64842 2.83772 6.23357 2.83772H4.27032V6.61598H6.31421Z" fill="white"/>
<path d="M105.197 14.1996H108.614V7.88485L114.82 14.1996H119.167L105.201 0.000976563L105.197 14.1996Z" fill="white"/>
<path d="M119.167 0H114.692L119.167 4.56087V0Z" fill="white"/>
</svg>
