<svg width="120" height="15" viewBox="0 0 120 15" fill="none" xmlns="http://www.w3.org/2000/svg">
<path d="M18.0991 14.1991V0.000976563H28.1164V2.8365H21.5447V5.63411H26.8589V8.37362H21.5447V11.3636H28.1164V14.1991H18.0991Z" fill="#3B3D46"/>
<path d="M34.2349 14.1991V0.000976563H39.242C42.7104 0.000976563 44.8647 1.55741 44.8647 4.06239C44.8647 5.18736 44.2621 6.17902 43.2659 6.73432C44.5479 7.30583 45.4124 8.58798 45.4124 9.98388C45.4124 12.6231 43.2653 14.1991 39.6678 14.1991H34.2349ZM39.8097 11.4788C41.0388 11.4788 41.8336 10.8165 41.8336 9.79154C41.8336 8.56168 40.893 8.12349 40.013 8.12349H37.6846V11.4788H39.8097ZM39.3639 5.76896C39.7336 5.76896 40.1265 5.75581 40.4898 5.6601C41.0156 5.47052 41.3265 4.97729 41.3265 4.31221C41.3265 3.30099 40.6407 2.72122 39.4446 2.72122H37.6846V5.76896H39.3639Z" fill="#3B3D46"/>
<path d="M57.884 14.1991C53.5812 14.1991 50.3364 11.1472 50.3364 7.10004C50.3364 3.0529 53.5812 0.000976563 57.884 0.000976563C62.1868 0.000976563 65.4316 3.0529 65.4316 7.10004C65.4316 11.1472 62.1868 14.1991 57.884 14.1991ZM57.884 2.98756C55.5324 2.98756 53.7586 4.75543 53.7586 7.10004C53.7586 9.44464 55.5324 11.2125 57.884 11.2125C60.2356 11.2125 62.0094 9.44464 62.0094 7.10004C62.0094 4.75543 60.2356 2.98756 57.884 2.98756V2.98756Z" fill="#3B3D46"/>
<path d="M96.2505 14.1991L93.1795 9.35396H91.3724V14.1991H87.9355V0.000976563H93.2543C96.9021 0.000976563 99.0796 1.77085 99.0796 4.73511C99.0796 6.58326 98.0983 8.04093 96.3769 8.76441L99.9873 14.1991H96.2505ZM93.4163 6.61476C94.2176 6.61476 95.5621 6.37074 95.5621 4.73511C95.5621 3.52849 94.7505 2.8365 93.3356 2.8365H91.3724V6.61476H93.4163Z" fill="#3B3D46"/>
<path d="M78.9902 14.1991L75.9192 9.35396H74.1121V14.1991H70.6753V0.000976563H75.9941C79.6419 0.000976563 81.8193 1.77085 81.8193 4.73511C81.8193 6.58326 80.838 8.04093 79.1167 8.76441L82.7271 14.1991H78.9902ZM76.156 6.61476C76.9573 6.61476 78.3018 6.37074 78.3018 4.73511C78.3018 3.52849 77.4902 2.8365 76.0754 2.8365H74.1121V6.61476H76.156Z" fill="#3B3D46"/>
<path d="M9.14844 14.2001L6.07744 9.35494H4.27032V14.2001H0.833496V0.00195313H6.15228C9.80007 0.00195313 11.9775 1.77183 11.9775 4.73609C11.9775 6.58424 10.9962 8.04191 9.2749 8.76539L12.8853 14.2001H9.14844ZM6.31421 6.61574C7.11551 6.61574 8.46005 6.37172 8.46005 4.73609C8.46005 3.52947 7.64842 2.83748 6.23357 2.83748H4.27032V6.61574H6.31421Z" fill="#3B3D46"/>
<path d="M105.197 14.1996H108.614V7.88485L114.82 14.1996H119.167L105.201 0.000976563L105.197 14.1996Z" fill="#3B3D46"/>
<path d="M119.167 0H114.691L119.167 4.56087V0Z" fill="#3B3D46"/>
</svg>
