<svg width="200" height="69" viewBox="0 0 200 69" fill="none" xmlns="http://www.w3.org/2000/svg">
<path d="M1.29678 53.072C0.720781 55.52 -0.575219 62.144 0.720781 64.52C1.15278 65.24 1.80078 65.456 2.52078 65.168C2.95278 64.952 3.31278 64.736 3.67278 64.448C4.46478 63.8 5.18478 63.008 5.83278 62.288C7.56078 60.2 9.07278 58.04 10.6568 55.88C13.6088 51.56 16.4888 47.168 19.3688 42.776C21.9608 38.744 24.5528 34.712 27.1448 30.68C28.2248 28.952 29.3768 27.224 30.6728 25.64C30.1688 28.16 29.5208 30.608 28.8728 33.056C28.3688 35.072 27.7928 37.088 27.2888 39.104C26.8568 41.12 26.3528 43.136 25.9208 45.152C25.5608 47.024 25.1288 48.824 24.8408 50.696C24.5528 52.496 24.3368 54.368 24.1208 56.168C23.9048 58.616 23.8328 60.992 24.1928 63.368C24.4088 64.592 24.6968 65.816 25.3448 66.824C25.9208 67.832 26.7128 68.48 27.8648 68.768C28.8728 68.984 29.8808 68.84 30.8888 68.552C32.3288 68.048 33.6248 67.256 34.9208 66.392C36.8648 65.024 38.6648 63.512 40.3928 61.928C44.9288 57.824 49.0328 53.36 52.9928 48.608C55.0808 46.016 57.1688 43.424 59.0408 40.688C61.6328 37.088 63.9368 33.416 65.8808 29.528C66.9608 27.296 67.9688 25.064 68.6168 22.688C69.2648 20.6 69.6968 18.512 69.6248 16.352C69.5528 14.84 69.3368 13.328 68.7608 12.032C67.9688 10.232 66.7448 8.864 65.0888 7.856C63.5768 6.992 61.9208 6.416 60.2648 5.912C58.1048 5.336 55.5848 4.904 53.4248 5.48C52.2728 5.912 51.6968 6.92 51.9848 8.072C52.0568 8.36 52.2728 8.504 52.5608 8.504C52.8488 8.432 53.0648 8.216 53.0648 7.856C53.0648 7.712 53.0648 7.64 53.0648 7.496C53.1368 7.064 53.3528 6.776 53.7848 6.632C54.8648 6.272 56.0168 6.344 57.3848 6.56C59.6888 6.92 61.8488 7.568 63.9368 8.576C65.4488 9.296 66.6008 10.448 67.3928 11.96C68.1848 13.616 68.4728 15.344 68.4008 17.216C68.3288 19.016 67.9688 20.816 67.4648 22.544C66.6728 25.28 65.5208 27.8 64.1528 30.32C63.0728 32.408 61.9208 34.424 60.6248 36.44C57.7448 40.832 54.5048 45.008 51.1208 49.112C49.3208 51.2 47.4488 53.216 45.5768 55.232C43.0568 57.896 40.4648 60.488 37.6568 62.864C36.1448 64.088 34.5608 65.312 32.9048 66.32C31.8248 66.968 30.6728 67.472 29.4488 67.688C28.2968 67.832 27.3608 67.472 26.6408 66.608C26.0648 65.816 25.7768 64.952 25.5608 63.944C25.1288 62.288 25.1288 60.488 25.1288 58.688C25.2728 56.384 25.4888 54.008 25.9208 51.632C26.2088 49.76 26.5688 47.888 26.9288 46.016C27.5768 43.136 28.2248 40.328 28.9448 37.52C29.6648 34.424 30.5288 31.4 31.3208 28.376C31.6088 27.224 32.1128 25.424 31.8968 24.416C31.7528 23.984 31.3208 23.84 30.8168 23.984C30.4568 24.2 30.2408 24.416 29.9528 24.704C28.9448 25.856 28.1528 27.08 27.2888 28.376C25.4888 31.184 23.6168 33.992 21.8168 36.872C18.5768 41.768 15.4088 46.664 12.2408 51.488C10.0808 54.728 7.84878 57.968 5.40078 60.992C4.68078 61.856 3.96078 62.72 3.09678 63.512C2.80878 63.656 2.59278 63.872 2.30478 64.016C2.01678 64.16 1.87278 64.088 1.72878 63.8C1.29678 62.648 1.51278 59.552 1.72878 57.68C2.01678 55.808 2.30478 54.008 2.66478 52.136C3.09678 49.904 3.67278 47.6 4.17678 45.368C5.04078 41.84 6.04878 38.312 7.12878 34.856C8.64078 29.672 10.3688 24.56 12.3128 19.448C13.4648 16.208 14.6888 13.04 15.9128 9.8C16.5608 8.144 17.1368 6.56 17.7128 4.904C18.0008 4.112 18.1448 3.32 18.2168 2.528C18.2168 2.024 18.1448 1.88 17.6408 1.736H17.5688C17.1368 1.88 16.9208 2.24 16.9928 2.6C17.0648 2.816 17.0648 3.032 16.9928 3.248C16.5608 4.616 16.1288 5.984 15.6248 7.28C14.2568 10.952 12.8168 14.624 11.4488 18.296C9.86478 22.688 8.28078 27.08 6.91278 31.544C5.90478 34.784 4.96878 37.952 4.10478 41.192C3.52878 43.28 2.95278 45.368 2.52078 47.384C2.08878 49.256 1.65678 51.2 1.29678 53.072ZM69.4482 33.128C69.4482 33.128 69.5202 33.272 69.5202 33.488C69.5922 34.136 70.0242 34.496 70.6722 34.424C71.8962 34.136 73.0482 32.48 73.0482 31.112C72.9762 30.464 72.5442 29.96 71.9682 29.888C70.9602 29.672 69.6642 30.896 69.0882 31.544C67.5762 33.56 65.7762 36.8 66.2802 39.176C66.5682 40.616 67.6482 41.264 69.0882 41.12C70.0962 40.976 71.0322 40.544 71.8962 40.04C75.0642 38.24 77.2962 36.08 81.2562 32.912C82.0482 32.264 82.1202 31.616 81.1842 31.4C81.1842 31.4 76.9362 34.856 74.4162 36.8C73.1202 37.808 71.8242 38.744 70.3842 39.392C69.7362 39.68 69.1602 39.896 68.5122 39.896C67.9362 39.896 67.6482 39.608 67.5042 39.032C67.2882 37.592 67.9362 36.08 68.8002 34.28C69.0162 33.92 69.2322 33.56 69.4482 33.128ZM71.8962 31.112C71.8962 31.904 71.3202 32.912 70.6722 33.128C70.6002 32.84 70.8162 32.12 71.0322 31.76C71.3922 31.256 71.6082 31.184 71.8962 31.112ZM126.428 8.072C126.284 7.424 125.78 7.136 125.132 7.064C124.772 7.064 124.34 7.136 124.052 7.352C123.548 7.568 123.116 7.784 122.684 8.072C121.604 8.72 120.668 9.44 119.804 10.304C117.716 12.176 115.844 14.192 114.044 16.28C107.564 23.912 102.38 32.264 97.9157 41.048C97.6997 41.552 97.4117 42.128 97.1237 42.632C97.4837 41.552 97.8437 40.472 98.3477 39.032C101.3 30.608 103.316 25.496 106.7 17.288C108.86 12.104 111.092 6.992 113.252 1.88C113.324 1.736 113.396 1.664 113.468 1.592C113.756 1.376 113.756 1.088 113.756 0.871997C113.756 0.583997 113.612 0.439999 113.396 0.368C113.18 0.223997 112.964 0.295996 112.82 0.511998C112.676 0.655996 112.532 0.799998 112.46 0.943996C112.1 1.736 111.74 2.456 111.38 3.248C109.148 8.216 107.06 13.328 104.972 18.368C102.02 25.64 99.2117 32.984 96.6197 40.328C95.4677 43.568 94.3157 46.808 93.3077 50.048C93.2357 50.408 93.1637 50.696 93.0917 51.056C93.0197 51.416 93.1637 51.632 93.4517 51.776C93.6677 51.848 94.0277 51.776 94.2437 51.488C94.3157 51.344 94.4597 51.128 94.4597 50.984C95.3237 49.256 96.1157 47.528 96.9077 45.8C99.0677 41.336 101.3 36.872 103.892 32.624C107.276 26.936 111.02 21.608 115.34 16.568C117.14 14.48 118.94 12.536 121.028 10.736C121.82 10.016 122.684 9.368 123.62 8.792C123.98 8.648 124.34 8.432 124.7 8.288C124.844 8.288 124.988 8.288 125.132 8.216C125.276 8.576 125.204 8.864 125.132 9.152C124.916 10.232 124.484 11.24 123.98 12.248C123.044 14.264 121.892 16.208 120.668 18.08C118.292 21.824 115.916 25.64 113.468 29.384C111.668 32.192 109.796 35.072 107.996 37.88C107.276 39.032 106.7 40.184 106.052 41.408C105.836 41.768 105.764 42.2 105.62 42.56C105.476 43.352 106.052 43.928 106.844 43.784C107.132 43.784 107.42 43.64 107.708 43.568C108.212 43.424 108.644 43.208 109.076 42.992C111.092 42.2 113.036 41.336 115.052 40.616C116.564 40.112 118.004 39.68 119.588 39.464C120.236 39.392 120.812 39.32 121.388 39.464C122.036 39.536 122.324 39.968 122.252 40.616C122.252 40.688 122.252 40.76 122.252 40.832C122.036 41.552 121.748 42.2 121.316 42.848C120.38 44.432 119.156 45.872 117.86 47.24C113.468 52.064 108.572 56.24 103.172 59.912C100.148 62 96.9077 63.872 93.4517 65.312C91.3637 66.248 89.2037 66.968 86.9717 67.184C85.8917 67.256 84.8837 67.256 83.8757 66.968C82.8677 66.608 82.1477 66.104 81.7157 65.168C81.5717 64.664 81.4277 64.088 81.4997 63.584C81.4997 62.216 81.9317 60.92 82.5077 59.696C83.1557 58.4 83.9477 57.104 84.8117 55.88C86.3237 53.72 87.9077 51.56 89.7077 49.616C89.7797 49.472 89.9237 49.328 89.9957 49.256C90.2837 49.328 90.5717 49.4 90.7877 49.184C91.0757 48.896 91.2917 48.536 91.3637 48.104C91.3637 47.6 90.9317 47.24 90.3557 47.456C90.2117 47.456 90.0677 47.6 89.9237 47.744C89.6357 47.96 89.3477 48.248 89.0597 48.536C86.4677 51.488 84.0917 54.584 82.1477 57.896C81.2117 59.48 80.5637 61.064 80.2757 62.792C80.2037 63.8 80.2757 64.736 80.6357 65.672C81.2117 67.04 82.3637 67.832 83.8757 68.192C85.2437 68.552 86.7557 68.408 88.1957 68.192C90.3557 67.76 92.4437 67.04 94.4597 66.176C97.4117 64.88 100.148 63.296 102.884 61.496C107.132 58.688 111.092 55.52 114.836 51.992C116.924 50.048 118.94 48.032 120.668 45.8C121.532 44.72 122.324 43.64 122.9 42.416C123.26 41.768 123.476 41.12 123.476 40.328C123.548 39.464 123.044 38.744 122.18 38.456C121.82 38.312 121.46 38.24 121.028 38.24C120.236 38.168 119.372 38.312 118.58 38.456C116.852 38.816 115.196 39.32 113.54 39.968C111.884 40.616 110.156 41.336 108.5 42.056C107.924 42.272 107.492 42.416 106.916 42.632C106.916 42.56 106.916 42.56 106.916 42.56C107.06 42.056 107.276 41.624 107.492 41.12C108.5 39.176 109.724 37.304 110.948 35.432C113.9 30.824 116.924 26.288 119.876 21.68C121.604 18.944 123.332 16.136 124.844 13.256C125.348 12.176 125.924 11.024 126.212 9.872C126.428 9.224 126.572 8.648 126.428 8.072ZM139.552 31.4C139.552 31.4 131.92 30.68 127.744 32.624C127.888 32.408 128.032 32.12 128.248 31.904C128.32 31.832 128.392 31.832 128.464 31.832C128.68 31.76 128.896 31.688 128.968 31.472C129.04 31.184 128.968 30.752 128.752 30.608C128.464 30.392 128.104 30.392 127.888 30.608C127.744 30.752 127.6 30.896 127.456 31.04C126.304 32.336 125.368 33.704 124.504 35.216C123.568 36.728 122.56 38.744 122.776 40.544C122.92 41.48 123.64 41.984 124.504 41.768C126.736 41.336 128.968 38.816 129.688 36.8C130.048 35.864 129.904 34.928 129.256 34.136C129.112 33.92 128.968 33.704 128.752 33.488C128.752 33.488 134.728 31.832 138.616 32.912C138.616 32.912 139.696 33.632 140.2 32.84C140.2 32.84 140.776 31.976 139.552 31.4ZM128.464 36.368C127.96 37.88 126.52 39.536 125.152 40.256C124.864 40.472 124.216 40.688 124 40.328C124 39.824 124.072 39.32 124.216 38.888C124.576 37.592 125.224 36.368 125.944 35.216C126.448 34.496 126.952 33.704 127.384 33.128C127.312 33.488 127.456 33.848 127.672 34.208C127.888 34.424 128.104 34.64 128.248 34.856C128.608 35.36 128.68 35.864 128.464 36.368ZM165.751 31.4C162.439 33.848 160.855 35.288 157.759 37.664C156.895 38.384 156.031 39.032 155.023 39.536C155.095 38.6 155.671 36.872 156.319 35.648C157.255 33.848 158.407 32.12 158.983 30.68C159.271 29.96 158.767 29.456 158.047 29.6C156.535 29.96 155.023 30.752 153.583 31.328C153.295 31.472 153.007 31.544 152.719 31.688C152.431 31.544 152.791 30.968 152.935 30.536C153.007 30.248 153.007 29.888 152.647 29.816C152.359 29.744 151.999 29.888 151.927 30.176C151.711 30.752 151.495 31.112 151.495 31.544C147.823 35.864 142.927 40.544 142.423 40.76C142.567 39.824 143.503 37.88 144.079 36.656C145.015 34.856 145.879 33.272 146.455 31.832C146.887 30.68 145.735 30.608 144.799 30.968C143.503 31.472 142.639 31.832 141.343 32.336C140.983 32.48 140.407 32.696 140.119 32.768C140.263 32.336 140.479 31.976 140.623 31.688C140.839 31.328 140.695 31.04 140.335 30.968C140.119 30.896 139.759 30.968 139.543 31.328C139.327 31.616 139.039 32.12 138.895 32.552C138.607 33.488 139.111 34.208 140.191 33.992C141.271 33.776 143.575 32.696 144.943 32.192C144.439 32.912 144.007 33.848 143.575 34.64C142.495 36.8 141.271 39.176 141.271 40.688C141.271 41.336 141.631 41.84 142.279 41.912C143.431 42.056 145.375 40.112 148.759 36.296C149.767 35.288 150.487 34.424 152.143 32.768C152.431 32.984 152.863 32.984 153.583 32.696C154.591 32.264 155.599 31.832 156.607 31.4C156.895 31.328 157.111 31.184 157.471 31.112C156.967 31.904 156.463 32.696 156.031 33.488C155.311 34.856 154.519 36.296 154.087 37.808C153.727 39.032 153.583 40.472 154.807 40.76C155.743 40.976 156.967 39.896 157.471 39.536C160.783 36.944 162.583 35.36 165.967 32.768C166.543 32.408 166.831 31.616 165.751 31.4ZM171.962 34.208C171.962 34.64 171.818 35.144 171.746 35.576C171.602 36.296 171.458 37.016 171.53 37.736C171.602 38.888 172.322 39.392 173.402 39.032C173.978 38.816 174.554 38.528 175.058 38.24C177.218 37.016 179.234 35.576 181.322 34.208C182.474 33.488 183.338 32.84 183.698 32.624C184.274 32.264 184.274 31.544 183.338 31.4C183.338 31.4 181.466 32.624 180.386 33.344C178.514 34.568 176.642 35.792 174.77 37.016C174.266 37.304 173.69 37.592 173.114 37.808C172.826 37.952 172.826 37.88 172.754 37.592C172.754 36.944 172.898 36.296 172.97 35.648C173.114 35.072 173.186 34.496 173.186 33.92C173.258 33.344 172.898 32.912 172.322 32.84C172.106 32.84 171.818 32.912 171.602 32.984C170.882 33.272 170.306 33.776 169.73 34.208C168.002 35.576 166.778 36.512 165.122 37.88C164.834 38.096 164.258 38.528 163.826 38.888C163.97 38.456 164.114 38.024 164.258 37.664C165.266 35.432 166.202 33.128 167.21 30.896C167.354 30.608 167.282 30.32 167.066 30.176C166.85 30.032 166.562 30.032 166.346 30.248C166.274 30.392 166.13 30.536 166.058 30.68C165.482 31.976 164.834 33.272 164.258 34.64C163.682 35.936 163.178 37.304 162.602 38.6C162.53 38.96 162.386 39.32 162.386 39.68C162.386 40.256 162.89 40.616 163.466 40.472C163.826 40.328 164.114 40.184 164.402 39.968C165.482 39.104 166.562 38.24 167.642 37.376C168.866 36.44 169.874 35.648 171.026 34.784C171.242 34.568 171.674 34.352 171.962 34.208ZM199.476 8.072C199.044 8 198.828 8.216 198.612 8.72C198.108 9.944 197.604 11.096 197.1 12.248C195.012 17.216 192.996 22.184 191.052 27.152C189.54 31.04 188.028 34.928 186.804 38.816C186.444 39.896 186.156 40.904 185.94 41.912C185.868 42.56 185.796 43.064 186.084 43.568C186.228 43.784 186.444 43.928 186.732 43.784C187.02 43.712 187.236 43.424 187.164 43.136C187.092 42.632 187.092 42.2 187.236 41.696C188.028 38.456 189.684 34.064 191.052 30.608C192.492 26.792 194.004 22.976 195.516 19.232C196.74 16.208 197.964 13.184 199.188 10.16C199.404 9.728 199.548 9.224 199.764 8.792C199.908 8.504 199.836 8.144 199.476 8.072ZM185.076 48.464C184.716 48.392 184.428 48.68 184.356 48.968C184.212 49.688 184.572 49.904 185.004 49.904C185.292 49.904 185.58 49.616 185.58 49.256C185.58 49.112 185.652 48.536 185.076 48.464Z" fill="#FFD158"/>
</svg>
