<svg width="84" height="34" viewBox="0 0 84 34" fill="none" xmlns="http://www.w3.org/2000/svg">
<path fill-rule="evenodd" clip-rule="evenodd" d="M28.1507 7.22749C31.0241 9.51571 34.7057 13.4321 34.2567 17.9205C33.7179 21.4849 29.8568 24.1251 26.6242 25.0052C23.4814 25.9293 19.4856 25.8413 16.253 25.0932C16.2359 25.1367 16.2188 25.181 16.2016 25.2257C15.9918 25.7698 15.7528 26.3894 15.1305 26.6334C14.6816 26.7654 14.1428 26.6774 13.7836 26.4133C13.3691 26.0264 13.2843 25.4777 13.2012 24.9396C13.0953 24.2538 12.9921 23.5849 12.2122 23.289C9.47351 22.1449 6.5552 19.9447 5.16339 17.2165C4.9838 16.6884 5.20829 16.1163 5.52257 15.6763C7.67763 14.0041 10.3715 13.3441 13.0653 12.816C13.1405 12.8406 13.1597 12.7966 13.1855 12.7376C13.2058 12.6909 13.2303 12.6349 13.2898 12.596C13.302 12.4324 13.3138 12.268 13.3257 12.1031C13.4448 10.451 13.5673 8.75176 14.0979 7.27149C14.2326 7.05147 14.5469 6.96347 14.7714 7.13948C15.8215 7.92495 15.9191 9.14387 16.0169 10.3653C16.0779 11.1282 16.1391 11.8922 16.4326 12.552C19.6652 12.684 22.9426 12.86 25.5018 14.6642C26.3548 15.3683 26.5793 16.6884 26.3099 17.4365C26.0405 18.1845 25.1426 18.7566 24.2896 18.8006C24.2435 18.8006 24.1935 18.8009 24.1407 18.8013C23.5748 18.8049 22.6771 18.8107 22.7182 18.4486C22.7353 18.2971 23.0152 18.1006 23.3241 17.8836C23.823 17.5333 24.3978 17.1297 24.0651 16.7764C23.2685 15.9523 19.3317 15.4703 16.8113 15.1616L16.7019 15.1483C16.3877 15.1042 16.1183 15.1923 16.1183 15.5003C16.1086 15.9946 16.0905 16.5012 16.0722 17.0144C16.0057 18.8768 15.9362 20.8256 16.253 22.585C16.2979 22.717 16.4775 22.937 16.6122 22.937C21.057 23.6411 25.7263 23.245 29.1833 20.7368C30.7996 19.4607 31.3384 17.6565 31.0241 15.6763C29.6323 10.1758 23.7508 6.87546 18.9917 4.76325C14.3224 2.73906 9.15923 1.72696 3.59199 1.99099C2.69405 2.03499 1.30224 2.34302 1.30224 2.65105C1.30224 2.77891 1.573 2.83853 1.87689 2.90545C2.3051 2.99975 2.79909 3.10853 2.69405 3.44313C2.51446 4.01518 0.898168 3.66314 0.4043 3.53113C-0.0895676 3.44312 -0.0446705 2.78306 0.0900208 2.34302C1.30224 0.0107951 4.48397 0.107674 6.06453 0.0182785L6.19602 0.010795C14.6367 -0.209226 22.7631 2.95908 28.1507 7.22749ZM12.9755 15.3683C10.8204 15.4123 8.57557 15.6323 6.6001 16.3364C6.19603 16.4684 5.70216 16.9084 6.01644 17.4365C6.82458 18.4926 7.99191 19.3727 9.06944 19.9887C10.147 20.6048 11.5837 21.3969 12.8857 21.5729C13.2 19.5927 13.2 17.6565 13.1551 15.6323C13.0584 15.5849 13.0528 15.5375 13.0472 15.4901C13.0424 15.4495 13.0377 15.4089 12.9755 15.3683Z" fill="#3B3D46"/>
<path fill-rule="evenodd" clip-rule="evenodd" d="M42.2933 3.70717C42.8769 3.75117 43.4157 3.97119 43.8647 4.32323C44.4483 4.85128 44.6279 5.77537 44.3136 6.52344C43.2361 8.72365 40.6321 10.1758 38.8811 10.6598C37.8485 10.9239 36.5016 10.9239 35.5138 10.5278C35.371 10.6118 35.2327 10.7582 35.0917 10.9074C34.7896 11.2271 34.4751 11.5599 34.0771 11.3199C33.6267 10.9766 33.6505 10.5102 33.6742 10.0427C33.6931 9.67141 33.7121 9.29936 33.4934 8.98767C33.4569 8.93387 33.3904 8.89469 33.3185 8.85225C33.2139 8.79056 33.0977 8.72199 33.0445 8.59163C32.4159 7.1835 33.1792 5.86337 34.0771 4.80727C35.6036 3.17911 39.8688 1.33094 42.2933 3.70717ZM37.2648 4.80727C36.4118 4.93928 35.4689 5.33532 34.9751 5.90738C34.4812 6.47943 34.122 7.05149 34.4363 7.66755C34.9025 7.32484 35.2679 6.92447 35.6305 6.52702C36.1061 6.00588 36.5771 5.48978 37.2648 5.1153C37.2648 5.06744 37.2943 5.02537 37.3212 4.98698C37.3686 4.91948 37.4079 4.86337 37.2648 4.80727ZM42.3382 5.1153C40.1831 4.93929 38.5668 6.52344 37.0852 8.01958C37.0563 8.10475 36.9806 8.18992 36.9049 8.27509C36.7459 8.45395 36.587 8.6328 36.8607 8.81166C38.926 8.98767 40.8566 8.41562 42.3382 7.09549C42.7871 6.69946 43.1014 6.1714 42.8769 5.64335C42.7871 5.42333 42.5627 5.20331 42.3382 5.1153Z" fill="#3B3D46"/>
<path d="M60.8807 14.18C61.8684 16.5563 62.7215 20.2966 60.8807 22.5408C60.3868 23.0689 59.5338 23.5969 58.9501 23.1569C57.4012 21.9358 56.5341 20.3434 55.667 18.751C55.378 18.2202 55.089 17.6894 54.7747 17.1723C54.6475 17.11 54.6104 17.2021 54.5677 17.3081C54.5501 17.3517 54.5315 17.3978 54.5053 17.4363C54.3425 18.2021 54.3509 19.0487 54.3592 19.8946C54.3739 21.3821 54.3885 22.867 53.4727 23.905C52.9339 23.993 52.3951 23.729 52.2155 23.1569C51.6981 21.6037 51.9494 20.0048 52.1976 18.4261C52.2939 17.8132 52.3898 17.2032 52.44 16.6003C52.5576 16.3123 52.6566 16.0122 52.7558 15.7119C53.0353 14.8653 53.3155 14.0166 54.0114 13.432C55.2366 13.9123 55.9432 15.0346 56.6207 16.1107C56.8122 16.4148 57.0013 16.7152 57.1991 16.9963C57.4117 17.3089 57.6141 17.6416 57.8183 17.9774C58.2178 18.6344 58.6246 19.3033 59.1297 19.8566C59.6072 19.656 59.5406 19.1254 59.481 18.6504C59.4621 18.5001 59.444 18.3553 59.444 18.2284C59.1942 16.3927 58.713 14.7082 58.2149 12.9646L58.2145 12.9635L58.0971 12.5519C58.0886 12.4605 58.0721 12.3565 58.0546 12.2459C57.9792 11.7709 57.8845 11.1736 58.3215 10.9237C59.4919 11.459 60.086 12.6256 60.634 13.7017C60.7167 13.8641 60.7983 14.0243 60.8807 14.18Z" fill="#3B3D46"/>
<path d="M50.8237 14.5322C51.138 14.4442 51.4972 13.8721 51.4972 13.4321C51.4289 13.2313 51.2568 13.1323 51.0598 13.019C50.9977 12.9833 50.9331 12.9462 50.8686 12.904C47.2319 12.244 42.832 12.024 39.9586 14.5322C39.3749 15.1483 39.3749 16.1164 39.6443 16.8644C39.779 17.2165 40.3178 17.5245 40.7668 17.6125C41.4265 17.6772 42.0939 17.7228 42.7612 17.7685C44.3644 17.8781 45.9664 17.9877 47.4564 18.3606C47.5573 18.3977 47.6662 18.4339 47.7791 18.4714C48.4698 18.7012 49.3098 18.9806 49.387 19.8127C49.387 20.0767 49.0278 20.3408 48.7584 20.4288L48.6977 20.4453C46.2891 21.1012 43.6196 21.8281 41.1708 20.7808C40.8116 20.6488 41.0361 20.1207 41.3055 19.9447C42.2443 19.5056 43.102 19.8615 43.9749 20.2237C44.9389 20.6237 45.9214 21.0313 47.0523 20.3848C47.1442 20.3204 47.2668 20.2787 47.3909 20.2364C47.6913 20.1341 48.0007 20.0287 47.9054 19.5927C45.9748 18.4486 43.2361 17.9645 40.9912 18.8446C40.4525 19.1526 40.0933 19.7247 40.0933 20.5168C40.1382 21.4849 40.9912 22.277 41.8892 22.761C44.2238 24.0811 47.7258 24.1251 50.0156 22.717C50.9584 22.1009 51.3176 20.9568 51.2727 20.0327C51.1829 18.8446 50.7339 17.4365 49.5217 17.1285C48.0186 16.7602 46.4411 16.5925 44.873 16.4258C44.0056 16.3337 43.1407 16.2417 42.2933 16.1164C42.2533 16.1007 42.2076 16.0864 42.1601 16.0716C41.9406 16.0029 41.6807 15.9217 41.7545 15.6323C43.5003 15.0528 45.458 14.9405 47.4061 14.8288C48.5642 14.7625 49.7189 14.6963 50.8237 14.5322Z" fill="#3B3D46"/>
<path d="M37.9831 14.5762C38.2525 17.4805 38.4321 20.2087 38.3423 23.245C38.3058 23.5668 37.9729 23.6853 37.6807 23.7892C37.6135 23.8131 37.548 23.8364 37.4892 23.8611C36.9954 23.9491 36.3668 23.8611 36.1423 23.597C35.6155 22.758 35.6199 21.7297 35.6243 20.7029C35.6259 20.3296 35.6275 19.9564 35.6035 19.5927C35.6188 19.2257 35.6302 18.8537 35.6417 18.4789C35.6976 16.6517 35.7554 14.7597 36.277 13.08C36.4117 12.772 36.726 12.552 37.0403 12.728C37.8035 13.124 37.9382 13.8721 37.9831 14.5762Z" fill="#3B3D46"/>
<path d="M72.3743 14.9724C72.6886 14.7964 72.509 14.4444 72.3743 14.1804C72.1049 13.6963 71.5662 12.9923 71.2519 13.0363C69.3662 12.8162 67.3458 13.0363 65.5051 13.3883C65.2745 13.4134 65.0404 13.4242 64.8067 13.4349C64.2212 13.4619 63.639 13.4887 63.1255 13.7403C63.0363 14.5857 63.6563 14.871 64.2548 15.1464C64.5597 15.2868 64.8591 15.4245 65.0561 15.6325C64.8561 15.8449 64.7613 16.1482 64.6683 16.4457C64.5107 16.9496 64.3585 17.4367 63.7092 17.4367C63.3051 17.5247 63.0806 17.8767 63.1704 18.3168C63.5671 18.9747 63.2587 19.592 62.9499 20.2101C62.8043 20.5014 62.6587 20.793 62.5867 21.089C62.2725 22.3652 62.7214 23.8613 63.7092 24.3013C66.3581 25.4014 68.9172 23.8613 70.8478 22.3211C71.0494 21.8865 70.8165 21.4873 70.6044 21.1236C70.5803 21.0823 70.5564 21.0414 70.5335 21.001C69.6498 20.7932 68.6826 20.9672 67.7414 21.1365C67.4872 21.1822 67.2349 21.2276 66.9867 21.265C66.8039 21.2906 66.6288 21.3385 66.459 21.385C66.0448 21.4982 65.6627 21.6027 65.2806 21.3531C65.3589 21.1228 65.4068 20.8815 65.4542 20.643C65.5698 20.061 65.682 19.4962 66.2234 19.1528C66.5542 19.0032 67.3319 19.0232 68.1644 19.0445C68.8009 19.0609 69.4695 19.078 69.9948 19.0208C70.4437 18.9768 70.6233 17.9647 70.4437 17.7007C69.9538 17.0605 69.0362 17.1422 68.1922 17.2173C67.876 17.2454 67.5701 17.2727 67.3009 17.2607C67.1826 17.2607 67.0296 17.1587 66.9028 17.0743C66.8853 17.0626 66.8683 17.0513 66.852 17.0406C66.7173 16.4686 67.0316 15.8525 67.4805 15.5005C68.0196 15.4418 68.5886 15.432 69.1593 15.4222C70.2997 15.4027 71.4467 15.383 72.3743 14.9724Z" fill="#3B3D46"/>
<path fill-rule="evenodd" clip-rule="evenodd" d="M75.691 16.0035C76.3216 14.9519 76.9544 13.8968 76.9987 12.5959C76.9089 12.5079 76.7742 12.4639 76.6395 12.4639C75.4273 13.432 74.4395 14.7081 73.6763 15.9842C72.6886 17.8764 71.9702 20.3846 73.1375 22.4528C72.9662 22.8955 72.7733 23.3699 72.5869 23.8283C72.2359 24.6915 71.9079 25.4981 71.7906 25.9292C71.7725 25.9958 71.7352 26.1081 71.6853 26.2581C71.2409 27.5954 69.7994 31.9331 72.06 33.6739C72.1549 33.6972 72.2654 33.7542 72.3817 33.8141C72.7056 33.9812 73.074 34.1713 73.2722 33.7179C73.7212 30.5496 74.5742 27.4693 75.7865 24.565C78.7048 24.8291 81.2639 23.0689 82.7455 21.2647C84.1373 19.4606 84.4067 16.6443 83.3741 14.6201C83.1047 14.136 82.3863 13.476 81.6231 13.52C79.3271 14.2019 77.6241 16.2048 76.0337 18.0753C75.5716 18.6188 75.1189 19.1511 74.664 19.6366C74.5605 19.7042 74.51 19.6418 74.4514 19.5694C74.4337 19.5476 74.4154 19.5249 74.3947 19.5046C74.3947 18.1652 75.0417 17.0862 75.691 16.0035ZM81.4838 16.1656C81.6304 16.0183 81.777 15.8711 81.9823 15.8962C82.0339 15.9974 82.1053 16.0857 82.1763 16.1734C82.2905 16.3146 82.4035 16.4543 82.4312 16.6443C82.521 18.3164 81.6231 19.7686 80.1864 20.6487C79.9646 20.7402 79.7459 20.8496 79.527 20.959C78.904 21.2705 78.2801 21.5824 77.5824 21.4847C78.3007 19.5926 79.6925 18.0084 81.1292 16.4243C81.2639 16.3865 81.3739 16.2761 81.4838 16.1656Z" fill="#3B3D46"/>
</svg>
