<svg width="102" height="20" viewBox="0 0 102 20" fill="none" xmlns="http://www.w3.org/2000/svg">
<path d="M6.42651 4.86292C6.42651 3.67103 6.77961 3.12276 7.98017 3.12276L9.67507 3.1466V0.143027C9.1101 0.0476757 8.21557 0 7.43874 0C3.86061 0 2.58943 1.69249 2.58943 4.93443V6.84146H0V10.0357H2.58943V19.7139H6.42651V10.0357H9.29842L9.62799 6.84146H6.42651V4.86292Z" fill="#3B3D46"/>
<path fill-rule="evenodd" clip-rule="evenodd" d="M15.113 6.57875C11.582 6.57875 9.91064 9.27243 9.91064 12.8719V13.6824C9.91064 17.2819 11.582 19.9756 15.113 19.9756C17.0198 19.9756 18.2204 18.9983 18.7618 17.7587V19.7134H22.4341V6.84097H18.7618V8.81951C18.1968 7.57994 17.0434 6.57875 15.113 6.57875ZM16.2194 16.9244C14.4539 16.9244 13.7477 15.661 13.7477 13.7301V12.8243C13.7477 10.8934 14.4304 9.63 16.2194 9.63C17.7966 9.63 18.597 10.7981 18.597 12.6336V13.9208C18.597 15.7563 17.7966 16.9244 16.2194 16.9244Z" fill="#3B3D46"/>
<path d="M30.461 6.55545C31.9441 6.55545 33.38 6.88918 34.1333 7.41362L33.2859 10.1788C32.6974 9.89275 31.7322 9.58286 30.72 9.58286C28.6484 9.58286 27.7304 10.7986 27.7304 12.8725V13.6353C27.7304 15.7092 28.6484 16.9249 30.72 16.9249C31.7322 16.9249 32.6974 16.6389 33.2859 16.329L34.1333 19.0942C33.3565 19.6424 31.9441 19.9523 30.461 19.9523C25.9413 19.9523 23.8933 17.497 23.8933 13.5399V12.944C23.8933 9.03459 25.9413 6.55545 30.461 6.55545Z" fill="#3B3D46"/>
<path fill-rule="evenodd" clip-rule="evenodd" d="M34.6277 12.6103V13.7545C34.6277 17.5447 36.4638 20 41.266 20C43.1257 20 45.1973 19.5948 46.2095 19.0465L45.5268 16.3766C44.4204 16.8772 42.8903 17.1633 41.4544 17.1633C39.3122 17.1633 38.5354 16.3766 38.4647 14.6126H46.5391V12.5626C46.5391 8.98691 44.8206 6.55545 40.8659 6.55545C36.6757 6.55545 34.6277 8.96308 34.6277 12.6103ZM43.1257 12.0858H38.4883C38.4883 10.3457 39.1474 9.24913 40.8894 9.24913C42.5608 9.24913 43.1257 10.3457 43.1257 11.7521V12.0858Z" fill="#3B3D46"/>
<path fill-rule="evenodd" clip-rule="evenodd" d="M60.8283 13.6833C60.8283 17.2828 59.1098 19.9765 55.6023 19.9765C53.672 19.9765 52.3537 18.9992 51.8123 17.7596V19.7143H48.1871V0.381796L52.0242 0.0242282V8.62969C52.5891 7.48548 53.8132 6.57964 55.6023 6.57964C59.1334 6.57964 60.8283 9.27331 60.8283 12.8728V13.6833ZM56.9676 12.7775C56.9676 10.9658 56.2614 9.60704 54.4253 9.60704C52.8481 9.60704 52.0006 10.7513 52.0006 12.5868V13.9455C52.0006 15.781 52.8481 16.9253 54.4253 16.9253C56.2614 16.9253 56.9676 15.5665 56.9676 13.7548V12.7775Z" fill="#3B3D46"/>
<path fill-rule="evenodd" clip-rule="evenodd" d="M62.0993 12.944V13.5876C62.0993 17.3063 64.1709 19.9762 68.4317 19.9762C72.6925 19.9762 74.764 17.2825 74.764 13.5876V12.944C74.764 9.22529 72.6689 6.55545 68.4317 6.55545C64.1709 6.55545 62.0993 9.24913 62.0993 12.944ZM68.4317 9.63054C70.1972 9.63054 70.9034 10.9893 70.9034 12.6818V13.8737C70.9034 15.5662 70.2207 16.9249 68.4317 16.9249C66.6426 16.9249 65.96 15.5662 65.96 13.8737V12.6818C65.96 10.9893 66.6426 9.63054 68.4317 9.63054Z" fill="#3B3D46"/>
<path fill-rule="evenodd" clip-rule="evenodd" d="M76.0351 13.5876V12.944C76.0351 9.24913 78.1067 6.55545 82.3675 6.55545C86.6047 6.55545 88.6998 9.22529 88.6998 12.944V13.5876C88.6998 17.2825 86.6283 19.9762 82.3675 19.9762C78.1067 19.9762 76.0351 17.3063 76.0351 13.5876ZM84.8392 12.6818C84.8392 10.9893 84.133 9.63054 82.3675 9.63054C80.5784 9.63054 79.8957 10.9893 79.8957 12.6818V13.8737C79.8957 15.5662 80.5784 16.9249 82.3675 16.9249C84.1565 16.9249 84.8392 15.5662 84.8392 13.8737V12.6818Z" fill="#3B3D46"/>
<path d="M97.7627 6.84185L93.9728 12.9682V0.0242282L90.1121 0.381796V19.6905H93.9728V13.3973L97.904 19.6905H102L97.8569 13.1827L101.835 6.84185H97.7627Z" fill="#3B3D46"/>
</svg>
