<svg width="98" height="30" viewBox="0 0 98 30" fill="none" xmlns="http://www.w3.org/2000/svg">
<path d="M12.2399 13.897V10.687H23.3403C23.4609 11.2611 23.5145 11.9527 23.5145 12.6965C23.5145 15.0975 22.8308 18.0857 20.659 20.1996C18.5408 22.3396 15.8328 23.4879 12.2399 23.4879C5.5904 23.4879 0 18.2162 0 11.744C0 5.27173 5.5904 0 12.2399 0C15.9132 0 18.5408 1.40927 20.4981 3.26221L18.1789 5.51966C16.7712 4.22782 14.8541 3.22306 12.2399 3.22306C7.38684 3.22306 3.59287 7.03332 3.59287 11.757C3.59287 16.4807 7.38684 20.2909 12.2399 20.2909C15.377 20.2909 17.1734 19.0644 18.3263 17.9422C19.2648 17.0157 19.8815 15.6977 20.1228 13.897H12.2399Z" fill="#3B3D46"/>
<path fill-rule="evenodd" clip-rule="evenodd" d="M25.5523 15.6593C25.5523 11.2619 29.0647 8.07796 33.3681 8.07796C37.6715 8.07796 41.1839 11.2619 41.1839 15.6593C41.1839 20.0307 37.6715 23.2407 33.3681 23.2407C29.0647 23.2407 25.5523 20.0176 25.5523 15.6593ZM28.9708 15.6593C28.9708 18.3604 31.0086 20.2525 33.3681 20.2525C35.7276 20.2525 37.7653 18.3604 37.7653 15.6593C37.7653 12.9321 35.7276 11.0661 33.3681 11.0661C31.0086 11.0661 28.9708 12.9321 28.9708 15.6593Z" fill="#3B3D46"/>
<path fill-rule="evenodd" clip-rule="evenodd" d="M71.6835 9.77431H71.5628C70.7987 8.88698 69.324 8.07796 67.4605 8.07796C63.5727 8.07796 60.1809 11.3793 60.1809 15.6593C60.1809 19.9133 63.5727 23.2407 67.4605 23.2407C69.324 23.2407 70.7987 22.4317 71.5628 21.5183H71.6835V22.5752C71.6835 25.4721 70.0881 27.0249 67.5275 27.0249C65.4362 27.0249 64.1358 25.5634 63.5995 24.3238L60.6233 25.5242C61.4813 27.5338 63.747 30 67.5275 30C71.536 30 74.9278 27.7034 74.9278 22.1055V8.46942H71.6835V9.77431ZM67.7554 20.2525C65.396 20.2525 63.5995 18.2952 63.5995 15.6593C63.5995 12.9843 65.396 11.0661 67.7554 11.0661C70.0881 11.0661 71.9114 13.0235 71.9114 15.6854C71.9248 18.3343 70.0881 20.2525 67.7554 20.2525Z" fill="#3B3D46"/>
<path fill-rule="evenodd" clip-rule="evenodd" d="M42.9802 15.6593C42.9802 11.2619 46.4926 8.07796 50.796 8.07796C55.0994 8.07796 58.6118 11.2619 58.6118 15.6593C58.6118 20.0307 55.0994 23.2407 50.796 23.2407C46.4926 23.2407 42.9802 20.0176 42.9802 15.6593ZM46.3988 15.6593C46.3988 18.3604 48.4365 20.2525 50.796 20.2525C53.1555 20.2525 55.1932 18.3604 55.1932 15.6593C55.1932 12.9321 53.1555 11.0661 50.796 11.0661C48.4365 11.0661 46.3988 12.9321 46.3988 15.6593Z" fill="#3B3D46"/>
<path d="M77.6092 0.312734H80.9742V23.2395H77.6092V0.312734Z" fill="#3B3D46"/>
<path fill-rule="evenodd" clip-rule="evenodd" d="M87.5834 17.9559C88.3877 19.4826 89.6211 20.2525 91.3639 20.2525C93.1067 20.2525 94.3133 19.4174 95.1981 18.1647L97.8525 19.8872C96.9945 21.1137 94.93 23.2407 91.3639 23.2407C86.9398 23.2407 83.6419 19.9133 83.6419 15.6593C83.6419 11.1444 86.9801 8.07796 90.9885 8.07796C95.0238 8.07796 97.0079 11.2097 97.6514 12.906L98 13.7673L87.5834 17.9559ZM94.072 12.5929C93.6832 11.6142 92.5034 10.9226 91.1226 10.9226C89.353 10.9226 87.0337 12.2405 87.0337 15.4245L94.072 12.5929Z" fill="#3B3D46"/>
</svg>
