<svg width="96" height="24" viewBox="0 0 96 24" fill="none" xmlns="http://www.w3.org/2000/svg">
<path d="M8.73062 0C7.41557 0 6.34965 1.07464 6.34965 2.39991C6.34934 2.71475 6.41067 3.02657 6.53016 3.31757C6.64964 3.60857 6.82494 3.87305 7.04603 4.0959C7.26712 4.31875 7.52969 4.49561 7.81873 4.61639C8.10777 4.73717 8.41763 4.79949 8.73062 4.79981H11.112V2.39991C11.1125 1.76401 10.8619 1.15395 10.4154 0.703888C9.96877 0.25383 9.36276 0.000637798 8.73062 0Z" fill="#3B3D46"/>
<path d="M8.73062 6.39975H2.38097C1.06592 6.39975 1.19223e-06 7.47439 1.19223e-06 8.80005C1.19223e-06 10.1253 1.06592 11.2 2.38097 11.2H8.73102C10.0457 11.2 11.112 10.1253 11.112 8.80005C11.112 7.47439 10.0457 6.39975 8.73062 6.39975Z" fill="#3B3D46"/>
<path d="M30.1608 18.9783L31.3284 16.2331C32.6067 17.1855 34.2742 17.6895 35.942 17.6895C37.165 17.6895 37.9431 17.2136 37.9431 16.4854C37.9323 15.7054 36.8286 15.4617 35.4755 15.1628C33.3294 14.6888 30.5562 14.0762 30.5219 10.9662C30.494 8.38905 32.7734 6.40015 35.9978 6.40015C37.9152 6.40015 39.8334 6.87652 41.1951 7.96921L40.104 10.7729C38.8512 9.96252 37.3037 9.39753 35.8308 9.39753C34.8303 9.39753 34.163 9.8735 34.163 10.4902C34.1739 11.267 35.3083 11.5737 36.692 11.9478C38.8511 12.5316 41.617 13.2794 41.6678 16.2331C41.6678 18.8664 39.4439 20.7154 36.2753 20.7154C33.9409 20.7154 31.8011 20.1552 30.1608 18.9783Z" fill="#3B3D46"/>
<path d="M76.6513 15.2391C76.3566 15.7659 75.9279 16.2043 75.4092 16.5094C74.8904 16.8145 74.3004 16.9753 73.6995 16.9754C71.8268 16.9754 70.3088 15.4452 70.3088 13.5578C70.3088 11.6703 71.8268 10.1402 73.6995 10.1402C74.3004 10.1402 74.8904 10.301 75.4092 10.6061C75.9279 10.9113 76.3566 11.3497 76.6513 11.8764L79.8973 10.064C78.6815 7.87819 76.3623 6.40015 73.6995 6.40015C69.7775 6.40015 66.598 9.60444 66.598 13.5578C66.598 17.5107 69.7775 20.7154 73.6995 20.7154C76.3623 20.7154 78.6815 19.2373 79.8973 17.0516L76.6513 15.2391Z" fill="#3B3D46"/>
<path d="M43.7741 20.4351H47.8321V0.441891H43.7745L43.7741 20.4351Z" fill="#3B3D46"/>
<path d="M81.9466 0.441891V20.4351H86.0046V14.4451L90.8131 20.4351H96L89.8851 13.3192L95.5551 6.67924H90.5907L86.0046 12.1996V0.441891H81.9466Z" fill="#3B3D46"/>
<path fill-rule="evenodd" clip-rule="evenodd" d="M60.3341 6.68004V8.30524C59.6672 7.18448 58.0273 6.40015 56.304 6.40015C52.7463 6.40015 49.9392 9.56594 49.9392 13.5437C49.9392 17.5215 52.7463 20.7154 56.304 20.7154C58.0273 20.7154 59.6672 19.931 60.3341 18.8103V20.4351H64.3921V6.68004H60.3341ZM60.3341 15.2668C59.7505 16.2472 58.5275 16.975 57.1658 16.975C55.2927 16.975 53.7748 15.4452 53.7748 13.5578C53.7748 11.6703 55.2927 10.1402 57.1658 10.1402C58.5275 10.1402 59.7505 10.8964 60.3341 11.9045V15.2668Z" fill="#3B3D46"/>
<path d="M21.4297 6.39975C22.7448 6.39975 23.8111 7.47439 23.8111 8.80005C23.8116 9.43595 23.561 10.046 23.1144 10.4961C22.6679 10.9461 22.0619 11.1993 21.4297 11.2H19.0487V8.80005C19.0487 7.47439 20.1147 6.39975 21.4297 6.39975Z" fill="#3B3D46"/>
<path d="M17.4614 2.39991V8.80005C17.462 9.43595 17.2114 10.0464 16.7648 10.4965C16.3182 10.9465 15.7122 11.1997 15.0801 11.2004C13.765 11.2004 12.6991 10.1257 12.6991 8.79965V2.39991C12.6991 1.07464 13.765 0 15.0801 0C15.7122 0.000637798 16.3182 0.25383 16.7648 0.703888C17.2114 1.15395 17.462 1.76401 17.4614 2.39991Z" fill="#3B3D46"/>
<path d="M15.0801 24C15.7122 23.9994 16.3182 23.7462 16.7648 23.2961C17.2114 22.8461 17.462 22.236 17.4614 21.6001C17.462 20.9642 17.2114 20.3541 16.7648 19.9041C16.3182 19.454 15.7122 19.2008 15.0801 19.2002H12.6991V21.6001C12.6991 22.9254 13.765 24 15.0801 24Z" fill="#3B3D46"/>
<path d="M15.0801 17.6003H21.4301C22.7448 17.6003 23.8111 16.5256 23.8111 15.1999C23.8116 14.5641 23.561 13.954 23.1144 13.5039C22.6679 13.0539 22.0619 12.8007 21.4297 12.8H15.0801C13.765 12.8 12.6991 13.8747 12.6991 15.1999C12.6988 15.5148 12.7601 15.8266 12.8796 16.1176C12.9991 16.4086 13.1744 16.6731 13.3955 16.8959C13.6166 17.1188 13.8791 17.2957 14.1682 17.4164C14.4572 17.5372 14.7671 17.5999 15.0801 17.6003Z" fill="#3B3D46"/>
<path d="M0.180509 16.1176C0.0610245 15.8266 -0.000311851 15.5148 1.19223e-06 15.1999C1.19223e-06 13.8747 1.06592 12.8 2.38097 12.8H4.76234V15.1999C4.76287 15.8358 4.51228 16.4459 4.0657 16.896C3.61912 17.346 3.01311 17.5992 2.38097 17.5999C2.06798 17.5995 1.75812 17.5372 1.46908 17.4164C1.18004 17.2957 0.917475 17.1188 0.696381 16.8959C0.475288 16.6731 0.299994 16.4086 0.180509 16.1176Z" fill="#3B3D46"/>
<path d="M6.34965 21.5997V15.1999C6.34965 13.8747 7.41557 12.8 8.73062 12.8C9.04364 12.8003 9.35355 12.8626 9.64263 12.9833C9.93172 13.1041 10.1943 13.281 10.4155 13.5038C10.6366 13.7267 10.8119 13.9912 10.9314 14.2822C11.051 14.5732 11.1123 14.8851 11.112 15.1999V21.6001C11.1125 22.236 10.8619 22.8461 10.4154 23.2961C9.96877 23.7462 9.36276 23.9994 8.73062 24C7.41557 24 6.34965 22.9254 6.34965 21.5997Z" fill="#3B3D46"/>
</svg>
