<svg width="47" height="42" viewBox="0 0 47 42" fill="none" xmlns="http://www.w3.org/2000/svg">
<path d="M2.26097 9.07839C3.02219 11.3433 8.53663 24.1298 11.2639 30.422C12.1841 32.545 14.3092 33.9195 16.6618 33.9195H34.5833C35.2955 33.9195 35.7762 33.1947 35.4931 32.554C35.2344 31.9688 34.9631 31.3504 34.7921 30.96C34.7089 30.77 34.8512 30.5591 35.0621 30.5591H43.6818C44.4098 30.5591 45 29.9804 45 29.2665C45 28.6291 44.526 28.0868 43.8836 27.9892L29.741 25.8407C26.642 25.2795 26.7299 21.4248 23.3729 21.3632L17.6733 21.2587C16.6815 21.2405 15.7661 20.7327 15.2392 19.9086L10.7666 12.9118C10.5561 12.5825 10.5688 12.1613 10.7988 11.8448L11.8215 10.4373C12.0503 10.1224 12.0641 9.70368 11.8567 9.37491L10.6524 7.46686C10.2954 6.9013 9.66543 6.55713 8.98713 6.55713H4.12093C2.78705 6.55713 1.4138 6.55713 2.26097 9.07839Z" fill="#8F969D"/>
<path d="M33.262 36.08C33.262 35.8148 33.0428 35.5999 32.7724 35.5999H15.6368C15.3664 35.5999 15.1472 35.8148 15.1472 36.08C15.1472 37.1405 16.024 38.0002 17.1055 38.0002H31.3036C32.3852 38.0002 33.262 37.1405 33.262 36.08Z" fill="#8F969D"/>
<path d="M16.0912 7.81596C16.3982 9.6473 15.133 11.3759 13.2653 11.6769C12.8075 11.7507 12.356 11.7318 11.9307 11.6343L12.7866 10.4563C13.0224 10.1318 13.0293 9.69822 12.804 9.36668L11.1491 6.9321C10.8992 6.56441 10.5316 6.29776 10.1133 6.16721C10.6197 5.59035 11.3278 5.1781 12.1537 5.045C14.0214 4.74401 15.7843 5.98461 16.0912 7.81596Z" fill="#fff"/>
<path d="M21.1889 19.6805C21.3254 20.0038 21.0778 20.3611 20.7209 20.3538L18.138 20.3011C17.1599 20.2811 16.2561 19.785 15.7274 18.9778L12.9108 14.6773C12.8212 14.5406 12.8057 14.3673 12.8869 14.2256C13.2557 13.5824 13.858 13.1197 14.7129 12.9026C18.0264 12.0609 20.0681 17.026 21.1889 19.6805Z" fill="#fff"/>
<path d="M29.7407 25.0393C31.2095 25.2793 40.7566 26.9393 40.7566 26.9393C41.5563 27.0722 42.3146 26.5442 42.4501 25.76C42.5857 24.9758 42.0472 24.2323 41.2475 24.0994C37.7771 23.5226 30.9057 22.3809 27.8065 21.8659C27.3296 21.7866 26.99 22.4117 27.2803 22.791C28.1088 23.8734 28.6649 24.8635 29.7407 25.0393Z" fill="#fff"/>
</svg>
