<svg width="42" height="42" viewBox="0 0 42 42" fill="none" xmlns="http://www.w3.org/2000/svg">
<path d="M27.4122 36.0845C27.4122 35.82 27.1978 35.6056 26.9333 35.6056H17.8992C17.6347 35.6056 17.4203 35.82 17.4203 36.0845C17.4203 37.1424 18.2724 38 19.3235 38H25.509C26.5601 38 27.4122 37.1424 27.4122 36.0845Z" fill="#8F969D"/>
<path d="M11.4979 13.9262C10.9009 12.4575 9.23395 11.754 7.77465 12.3548C6.31536 12.9556 5.61632 14.6333 6.2133 16.102L10.4596 26.5488C12.4243 30.817 15.2792 33.6902 21.0288 33.6902H27.6499C29.2266 33.6902 30.5048 32.4038 30.5048 30.817C30.5048 29.2301 29.2266 27.9437 27.6499 27.9437H21.0288C18.7103 27.9437 16.622 26.5327 15.7442 24.373L11.4979 13.9262Z" fill="#8F969D"/>
<path d="M19.3234 7.35211C19.3234 9.20343 17.8322 10.7042 15.9928 10.7042C14.1533 10.7042 12.6621 9.20343 12.6621 7.35211C12.6621 5.50079 14.1533 4 15.9928 4C17.8322 4 19.3234 5.50079 19.3234 7.35211Z" fill="white"/>
<path d="M14.8046 18.8444C15.7897 22.5626 17.4282 26.2969 20.7525 26.5065C24.0011 26.7114 26.3839 26.7413 28.6403 26.7457C29.3476 26.747 29.9964 27.1412 30.3252 27.7714L34.7871 36.3239C35.7394 37.5212 37.3599 36.3216 36.9282 35.1268C35.9766 32.493 32.8839 25.5493 32.8839 25.5493C32.8839 25.5493 32.4074 23.8734 30.5042 23.3943C29.6773 23.1862 26.1516 22.2538 23.6828 21.5415C23.0437 21.3571 22.5547 20.8414 22.3821 20.1952C20.8516 14.4652 19.6534 11.9146 17.184 12.1403C14.5701 12.3793 13.853 15.2529 14.8046 18.8444Z" fill="white"/>
</svg>
