<svg width="100" height="19" viewBox="0 0 100 19" fill="none" xmlns="http://www.w3.org/2000/svg">
<path d="M8 17C4.68629 17 2 14.3137 2 11C2 7.68629 4.68629 5 8 5C11.3137 5 14 7.68629 14 11C14 14.3137 11.3137 17 8 17Z" stroke="#C0C0C0" stroke-width="4"/>
<ellipse cx="8" cy="11" rx="2" ry="2" transform="rotate(90 8 11)" fill="#454A4F"/>
<path d="M92 17C88.6863 17 86 14.3137 86 11C86 7.68629 88.6863 5 92 5C95.3137 5 98 7.68629 98 11C98 14.3137 95.3137 17 92 17Z" stroke="#C0C0C0" stroke-width="4"/>
<ellipse cx="92" cy="11" rx="2" ry="2" transform="rotate(90 92 11)" fill="#454A4F"/>
<path d="M84 11L83.7653 12.9862L84 11ZM92.1493 12.9945C93.2508 12.912 94.0769 11.9523 93.9944 10.8508C93.912 9.74928 92.9522 8.92318 91.8507 9.00562L92.1493 12.9945ZM67 4V6V4ZM50 11V9.00004V11ZM16 11L16.2347 12.9862L16 11ZM8.14927 9.00563C7.04779 8.92319 6.08802 9.74929 6.00558 10.8508C5.92314 11.9523 6.74924 12.912 7.85073 12.9945L8.14927 9.00563ZM33 4.00001V2.00001V4.00001ZM83.7653 12.9862C85.4691 13.1875 87.5905 13.183 89.2203 13.1367C90.0491 13.1131 90.7773 13.0778 91.299 13.0484C91.5601 13.0337 91.7702 13.0204 91.9162 13.0107C91.9892 13.0058 92.0462 13.0019 92.0856 12.9991C92.1053 12.9977 92.1206 12.9966 92.1313 12.9958C92.1366 12.9954 92.1408 12.9951 92.1438 12.9949C92.1453 12.9948 92.1465 12.9947 92.1474 12.9946C92.1479 12.9946 92.1483 12.9945 92.1486 12.9945C92.1487 12.9945 92.1489 12.9945 92.149 12.9945C92.1491 12.9945 92.1493 12.9945 92 11C91.8507 9.00562 91.8508 9.00561 91.8509 9.00561C91.8509 9.00561 91.851 9.0056 91.851 9.0056C91.851 9.0056 91.8509 9.0056 91.8508 9.00562C91.8505 9.00564 91.8499 9.00568 91.8491 9.00574C91.8474 9.00587 91.8445 9.00608 91.8405 9.00637C91.8324 9.00696 91.8198 9.00787 91.8029 9.00907C91.769 9.01147 91.7178 9.01503 91.6508 9.01948C91.5168 9.02839 91.3201 9.04086 91.0737 9.05476C90.5801 9.08261 89.8901 9.11604 89.1067 9.1383C87.5121 9.18362 85.6335 9.17912 84.2347 9.01385L83.7653 12.9862ZM67 6C69.9412 6 71.9697 7.21809 74.4074 8.84702C76.7987 10.445 79.6457 12.4995 83.7653 12.9862L84.2347 9.01385C81.2242 8.65818 79.161 7.21268 76.6298 5.52123C74.1449 3.86073 71.2385 2 67 2V6ZM50 13C54.3068 13 57.2459 10.8501 59.6609 9.12862C62.156 7.35004 64.1271 6 67 6V2C62.6932 2 59.7541 4.14998 57.3391 5.87142C54.844 7.65 52.8729 9.00004 50 9.00004V13ZM15.7653 9.01386C14.3665 9.17913 12.4879 9.18363 10.8933 9.13832C10.1099 9.11605 9.4199 9.08262 8.92635 9.05477C8.67987 9.04087 8.48315 9.0284 8.34918 9.01949C8.28222 9.01504 8.23099 9.01148 8.19711 9.00908C8.18018 9.00788 8.16759 9.00697 8.15955 9.00639C8.15553 9.00609 8.15264 9.00588 8.15092 9.00575C8.15006 9.00569 8.14949 9.00565 8.14922 9.00563C8.14908 9.00562 8.14901 9.00561 8.14902 9.00561C8.14903 9.00561 8.14909 9.00562 8.14909 9.00562C8.14917 9.00562 8.14927 9.00563 8 11.0001C7.85073 12.9945 7.85086 12.9945 7.85102 12.9945C7.8511 12.9945 7.85127 12.9945 7.85142 12.9945C7.85173 12.9945 7.85211 12.9946 7.85257 12.9946C7.85348 12.9947 7.8547 12.9948 7.8562 12.9949C7.85921 12.9951 7.8634 12.9954 7.86874 12.9958C7.87942 12.9966 7.89471 12.9977 7.9144 12.9991C7.95378 13.0019 8.0108 13.0058 8.08381 13.0107C8.22978 13.0204 8.43992 13.0337 8.70104 13.0484C9.22271 13.0779 9.95094 13.1131 10.7797 13.1367C12.4095 13.183 14.5309 13.1875 16.2347 12.9862L15.7653 9.01386ZM33 2.00001C28.7615 2.00001 25.8551 3.86074 23.3702 5.52124C20.839 7.21269 18.7758 8.65819 15.7653 9.01386L16.2347 12.9862C20.3543 12.4995 23.2013 10.445 25.5926 8.84703C28.0303 7.21811 30.0588 6.00001 33 6.00001V2.00001ZM50 9.00004C47.1271 9.00004 45.156 7.65001 42.6609 5.87143C40.2459 4.14999 37.3068 2.00001 33 2.00001V6.00001C35.8729 6.00001 37.844 7.35005 40.3391 9.12863C42.7541 10.8501 45.6932 13 50 13V9.00004Z" fill="#383A40"/>
<path d="M63.5 4C63.5 5.933 65.067 7.5 67 7.5C68.933 7.5 70.5 5.933 70.5 4C70.5 2.067 68.933 0.5 67 0.5C65.067 0.5 63.5 2.067 63.5 4Z" fill="#F7F7F7" stroke="#383A40"/>
<ellipse cx="67" cy="4" rx="2" ry="2" transform="rotate(90 67 4)" fill="#383A40"/>
<path d="M29.5 4C29.5 5.933 31.067 7.5 33 7.5C34.933 7.5 36.5 5.933 36.5 4C36.5 2.067 34.933 0.5 33 0.5C31.067 0.5 29.5 2.067 29.5 4Z" fill="#F7F7F7" stroke="#383A40"/>
<ellipse cx="33" cy="4" rx="2" ry="2" transform="rotate(90 33 4)" fill="#383A40"/>
</svg>
