<svg width="118" height="20" viewBox="0 0 118 20" fill="none" xmlns="http://www.w3.org/2000/svg">
<path fill-rule="evenodd" clip-rule="evenodd" d="M0 18H18.5988L22.8965 2H13.7577L0 18Z" fill="white"/>
<path fill-rule="evenodd" clip-rule="evenodd" d="M15.9323 8.56441V5.1684H12.7708V8.56441H9.11523V11.459H12.7708V14.855H15.9323V11.459H19.5879V8.56441H15.9323Z" fill="#383A40"/>
<path fill-rule="evenodd" clip-rule="evenodd" d="M51.1035 15.0603H53.944V4.98618H51.1035V15.0603ZM74 12.0289C73.9259 10.3195 72.7403 9.63575 71.1596 9.11154C70.8385 8.99758 70.4927 8.90641 70.1222 8.81524C69.1095 8.54174 68.1956 8.29102 68.1956 7.47051C68.1956 6.74117 68.986 6.51325 69.5788 6.51325C70.0728 6.51325 71.0361 6.60441 71.1102 7.67564H73.8024C73.753 5.62436 71.95 4.73547 69.6282 4.73547C68.1956 4.73547 67.01 5.10014 66.2691 5.7839C65.7504 6.26253 65.4293 6.9463 65.4293 7.67564C65.4293 8.24544 65.5528 8.72407 65.7751 9.08875C66.2691 9.97763 67.257 10.4107 68.3191 10.7298C69.7764 11.14 70.8138 11.4135 71.1102 12.0061C71.1596 12.1201 71.1843 12.234 71.1843 12.3708C71.1843 12.9634 70.6903 13.5332 69.7023 13.5332C68.4426 13.5332 67.9733 12.8494 67.9486 12.1657H65.2317C65.2317 13.5788 66.0221 14.4449 67.1582 14.9007C67.8992 15.197 68.7637 15.3338 69.6776 15.3338C70.6162 15.3338 71.4066 15.1742 72.0241 14.9007C73.3578 14.3309 74 13.2597 74 12.1657C74 12.1429 74 12.0973 74 12.0289ZM61.255 9.11154C60.9339 8.99758 60.5882 8.90641 60.2177 8.81524C59.205 8.54174 58.2911 8.29102 58.2911 7.47051C58.2911 6.74117 59.0815 6.51325 59.6743 6.51325C60.1683 6.51325 61.1068 6.60441 61.2056 7.67564H63.8732C63.8238 5.62436 62.0207 4.73547 59.7237 4.73547C58.2911 4.73547 57.1055 5.10014 56.3645 5.7839C55.8458 6.26253 55.5247 6.9463 55.5247 7.67564C55.5247 8.24544 55.6482 8.72407 55.8705 9.08875C56.3645 9.97763 57.3525 10.4107 58.4146 10.7298C59.8719 11.14 60.9092 11.4135 61.2056 12.0061C61.255 12.1201 61.2797 12.234 61.2797 12.3708C61.2797 12.9634 60.7858 13.5332 59.7978 13.5332C58.5381 13.5332 58.0688 12.8494 58.0441 12.1657H55.3271C55.3271 13.5788 56.1175 14.4449 57.2537 14.9007C57.9947 15.197 58.8592 15.3338 59.7731 15.3338C60.7117 15.3338 61.502 15.1742 62.1195 14.9007C63.4533 14.3309 64.0708 13.2597 64.0708 12.1657C64.0708 12.0973 64.0708 12.0517 64.0708 11.9833C64.0214 10.3195 62.8358 9.63575 61.255 9.11154ZM46.1389 9.11154L45.4226 11.7326L44.6075 9.11154L43.2984 4.98618H40.5568L39.2477 9.11154L38.4326 11.7326L37.7163 9.11154L36.6049 4.98618H33.8385L35.0735 9.11154L35.938 12.0289L36.8025 14.9463L36.8272 15.0603H39.7664L39.7911 14.9463L40.705 12.0289L41.6189 9.11154L41.9153 8.13148L42.2117 9.11154L43.1256 12.0289L44.0394 14.9463L44.0641 15.0603H46.9787L47.0034 14.9463L47.9173 12.0289L48.7818 9.11154L50.0167 4.98618H47.2504L46.1389 9.11154ZM30.7264 9.11154C30.5041 9.04316 30.2818 8.97479 30.0348 8.88362C28.8986 8.54174 27.8118 8.26823 27.8118 7.44772C27.8118 6.71837 28.6022 6.49046 29.195 6.49046C29.689 6.49046 30.6523 6.58162 30.7264 7.65285H33.4186C33.3692 5.60157 31.5661 4.71268 29.2691 4.71268C27.8365 4.71268 26.6509 5.07735 25.9099 5.76111C25.3913 6.23974 25.0702 6.9235 25.0702 7.65285C25.0702 8.22265 25.1937 8.70128 25.416 9.08875C25.9099 9.97763 26.8979 10.4107 27.96 10.7298C29.4173 11.14 30.4547 11.4135 30.7511 12.0061C30.8005 12.1201 30.8252 12.234 30.8252 12.3708C30.8252 12.9634 30.3312 13.5332 29.3432 13.5332C28.0835 13.5332 27.6142 12.8494 27.5895 12.1657H24.8726C24.8726 13.5788 25.6629 14.4449 26.7991 14.9007C27.5401 15.197 28.4046 15.3338 29.3185 15.3338C30.2571 15.3338 31.0475 15.1742 31.6402 14.9007C32.974 14.3309 33.5668 13.2597 33.5668 12.1657C33.5668 12.0973 33.5668 12.0517 33.5668 11.9833C33.5174 10.4335 32.6035 9.74971 30.7264 9.11154Z" fill="white"/>
</svg>
