<svg width="100" height="17" viewBox="0 0 100 17" fill="none" xmlns="http://www.w3.org/2000/svg">
<path d="M11.895 6.84024C11.8299 6.84024 11.775 6.84192 11.7442 6.84531C11.7082 6.90972 11.655 6.99614 11.5762 7.11649C12.8035 7.11649 13.9176 7.21646 15.15 7.43506L14.8021 7.76723C13.6896 7.57235 12.7658 7.49442 11.5882 7.49442C11.4168 7.49442 11.3808 7.49442 11.3397 7.49609C11.2985 7.55708 11.206 7.67571 11.1134 7.78589C11.218 7.77911 11.4202 7.77572 11.6996 7.77572C12.6681 7.77572 13.5731 7.84688 14.5552 8.00282L14.2073 8.33666C13.4599 8.22142 12.5463 8.15533 11.727 8.15533C11.4356 8.15533 11.1048 8.16549 10.8083 8.18243C10.7415 8.25869 10.5666 8.44512 10.5135 8.50272C10.906 8.46206 11.338 8.44341 11.8522 8.44341C12.5841 8.44341 13.2834 8.49088 13.945 8.58747L13.5971 8.91792C13.1257 8.86032 12.5532 8.82644 12.0476 8.82644C10.7432 8.82644 9.71473 9.10603 8.652 9.74833C9.66502 10.8228 11.3242 11.5023 12.932 11.5023H13.0829L12.5207 12.0396C10.2015 11.6091 7.76071 10.6008 5.69871 9.21956C3.71553 7.89603 3.02135 7.50458 1.47356 6.8284L1.46328 6.43521L2.51057 6.87923L2.86709 6.5996L6.28662 8.14855L6.06378 8.32478L4.3086 7.57067L4.13548 7.70453L5.04738 8.20786C5.817 8.63156 6.40318 8.82134 6.94484 8.82134C8.12925 8.82134 9.19197 7.99094 9.87757 6.53183C10.3935 6.4657 10.9437 6.43521 11.6053 6.43521C12.9629 6.43521 14.281 6.564 15.7739 6.84024L15.4105 7.18764C14.4815 6.99614 12.9029 6.84024 11.895 6.84024ZM8.57145 16.4915C4.1229 16.4915 0.514329 12.9237 0.514329 8.5254C0.514329 4.12712 4.1229 0.559288 8.57145 0.559288C13.02 0.559288 16.6286 4.12712 16.6286 8.5254C16.6286 12.9237 13.02 16.4915 8.57145 16.4915ZM8.57145 0.0508484C3.83149 0.0508484 0 3.83896 0 8.5254C0 13.2118 3.83149 17 8.57145 17C13.3115 17 17.1429 13.2118 17.1429 8.5254C17.1429 3.83896 13.3115 0.0508484 8.57145 0.0508484ZM31.2163 11.8991H36.1306V14.1751H28.5714V2.87566H31.2163V11.8991ZM42.0735 6.03954H44.5387V14.1751H42.2204V13.2389C41.8775 13.8685 41.1756 14.4172 39.8857 14.4172C37.7797 14.4172 36.6858 13.481 36.6858 10.8014V6.03954H39.1511V10.6884C39.1511 11.77 39.6246 12.2542 40.6205 12.2542C41.5184 12.2542 42.0735 11.77 42.0735 10.6884V6.03954ZM46.4327 5.73288C46.4327 3.76358 47.6899 2.71426 49.6654 2.71426C50.3022 2.71426 50.7103 2.81112 50.7103 2.81112V4.78042C50.7103 4.78042 50.3674 4.74825 50.0735 4.74825C49.3061 4.74825 48.8979 5.00652 48.8979 5.71674V6.03954H50.7103V8.02502H48.8979V14.1751H46.4327V8.02502H45.1919V6.03954H46.4327V5.73288ZM55.0529 6.03954H56.9304V8.02502H55.0529V11.1889C55.0529 12.0606 55.5101 12.2865 56.2284 12.2865C56.5223 12.2865 56.9304 12.2381 56.9304 12.2381V14.1913C56.9304 14.1913 56.3591 14.3204 55.755 14.3204C53.7796 14.3204 52.5877 13.4326 52.5877 11.4633V8.02502H51.3468V6.03954H52.5877V3.66668H55.0529V6.03954ZM62.3887 5.79742C64.4785 5.79742 65.5725 6.73361 65.5725 9.41321V14.1751H63.107V9.52618C63.107 8.44472 62.6336 7.96052 61.6051 7.96052C60.6744 7.96052 60.1194 8.44472 60.1194 9.52618V14.1751H57.6541V2.89185H60.1356V6.83048C60.5602 6.23319 61.2295 5.79742 62.3887 5.79742ZM71.8581 11.0113C71.8581 11.8991 71.0091 12.561 69.703 12.561C69.0662 12.561 68.6907 12.2704 68.6907 11.7215C68.6907 11.3019 68.9519 10.9468 69.7846 10.8338L71.2051 10.64C71.4499 10.6077 71.7111 10.5594 71.8581 10.5109V11.0113ZM70.4867 5.79746C68.054 5.79746 66.8785 6.71759 66.7806 8.44476H69.1805C69.2132 7.99273 69.4744 7.65374 70.4867 7.65374C71.3846 7.65374 71.8091 7.94438 71.8091 8.38011C71.8091 8.76765 71.5641 8.91286 70.9601 8.9774L69.3929 9.1388C67.2703 9.36474 66.3071 10.2365 66.3071 11.8185C66.3071 13.2873 67.2214 14.4172 69.1642 14.4172C70.4867 14.4172 71.2704 13.9976 71.9561 13.1581V14.1751H74.2091V8.83214C74.2091 6.5884 72.8867 5.79746 70.4867 5.79746ZM79.9097 5.79742C82.0485 5.79742 83.1424 6.73361 83.1424 9.41321V14.1751H80.677V9.52618C80.677 8.44472 80.2036 7.96052 79.175 7.96052C78.2443 7.96052 77.6893 8.44472 77.6893 9.52618V14.1751H75.224V6.03958H77.5424V6.97585C77.8852 6.34624 78.5872 5.79742 79.9097 5.79742ZM88.343 9.07422C90.4328 9.34871 91.4776 9.99435 91.4776 11.6893C91.4776 13.4004 90.2532 14.4173 87.6572 14.4173C84.8328 14.4173 83.8368 13.3036 83.7879 11.6731H86.2204C86.2859 12.2704 86.7103 12.561 87.6572 12.561C88.6205 12.561 89.0123 12.3349 89.0123 11.883C89.0123 11.4633 88.6859 11.2697 87.8368 11.1566L86.9715 11.0436C85.1593 10.8015 84.1144 10.1074 84.1144 8.49316C84.1144 6.94353 85.2736 5.79742 87.7063 5.79742C89.9592 5.79742 91.1675 6.68522 91.2817 8.44472H88.8817C88.8 7.97671 88.5388 7.68607 87.7063 7.68607C86.8899 7.68607 86.5797 7.96052 86.5797 8.31569C86.5797 8.6707 86.7756 8.86443 87.4776 8.96133L88.343 9.07422ZM97.6491 11.0114C97.6491 11.8992 96.7999 12.561 95.4939 12.561C94.8572 12.561 94.4816 12.2704 94.4816 11.7215C94.4816 11.3019 94.7429 10.9468 95.5754 10.8338L96.996 10.64C97.2408 10.6079 97.5021 10.5594 97.6491 10.5109V11.0114ZM96.2775 5.79746C93.845 5.79746 92.6694 6.71759 92.5715 8.44476H94.9715C95.0042 7.99273 95.2653 7.65386 96.2775 7.65386C97.1755 7.65386 97.6 7.94438 97.6 8.38023C97.6 8.76765 97.3551 8.91286 96.751 8.9774L95.1837 9.1388C93.0613 9.36486 92.098 10.2365 92.098 11.8185C92.098 13.2873 93.0123 14.4172 94.9551 14.4172C96.2775 14.4172 97.0613 13.9976 97.7469 13.1581V14.1751H100V8.83214C100 6.58852 98.6775 5.79746 96.2775 5.79746Z" fill="#23242A"/>
</svg>
