<svg width="160" height="28" viewBox="0 0 160 28" fill="none" xmlns="http://www.w3.org/2000/svg">
<path d="M19.032 11.7444C18.9278 11.7444 18.8401 11.7471 18.7907 11.7525C18.7331 11.8556 18.6481 11.9938 18.5219 12.1864C20.4855 12.1864 22.2682 12.3463 24.24 12.6961L23.6833 13.2276C21.9034 12.9158 20.4252 12.7911 18.5411 12.7911C18.2669 12.7911 18.2093 12.7911 18.1435 12.7937C18.0776 12.8913 17.9295 13.0811 17.7815 13.2574C17.9487 13.2466 18.2724 13.2412 18.7194 13.2412C20.2689 13.2412 21.7169 13.355 23.2884 13.6045L22.7316 14.1387C21.5359 13.9543 20.0742 13.8485 18.7632 13.8485C18.297 13.8485 17.7677 13.8648 17.2933 13.8919C17.1863 14.0139 16.9066 14.3122 16.8216 14.4044C17.4496 14.3393 18.1407 14.3095 18.9635 14.3095C20.1345 14.3095 21.2535 14.3854 22.3121 14.54L21.7553 15.0687C21.0011 14.9765 20.0851 14.9223 19.2761 14.9223C17.1891 14.9223 15.5436 15.3697 13.8432 16.3973C15.464 18.1164 18.1188 19.2037 20.6912 19.2037H20.9326L20.0331 20.0634C16.3224 19.3746 12.4171 17.7612 9.11794 15.5513C5.94486 13.4336 4.83416 12.8073 2.3577 11.7254L2.34125 11.0963L4.01691 11.8068L4.58735 11.3594L10.0586 13.8377L9.70206 14.1197L6.89377 12.9131L6.61677 13.1272L8.07581 13.9326C9.3072 14.6105 10.2451 14.9141 11.1117 14.9141C13.0068 14.9141 14.7072 13.5855 15.8041 11.2509C16.6296 11.1451 17.51 11.0963 18.5685 11.0963C20.7406 11.0963 22.8495 11.3024 25.2383 11.7444L24.6569 12.3002C23.1705 11.9938 20.6446 11.7444 19.032 11.7444ZM13.7143 27.1864C6.59664 27.1864 0.822927 21.4779 0.822927 14.4406C0.822927 7.4034 6.59664 1.69486 13.7143 1.69486C20.832 1.69486 26.6057 7.4034 26.6057 14.4406C26.6057 21.4779 20.832 27.1864 13.7143 27.1864ZM13.7143 0.881359C6.13038 0.881359 0 6.94234 0 14.4406C0 21.939 6.13038 28 13.7143 28C21.2983 28 27.4286 21.939 27.4286 14.4406C27.4286 6.94234 21.2983 0.881359 13.7143 0.881359ZM49.9461 19.8386H57.809V23.4802H45.7143V5.40106H49.9461V19.8386ZM67.3176 10.4633H71.262V23.4802H67.5527V21.9823C67.004 22.9895 65.8809 23.8676 63.8171 23.8676C60.4475 23.8676 58.6972 22.3696 58.6972 18.0823V10.4633H62.6417V17.9014C62.6417 19.6319 63.3993 20.4067 64.9928 20.4067C66.4295 20.4067 67.3176 19.6319 67.3176 17.9014V10.4633ZM74.2923 9.97261C74.2923 6.82174 76.3038 5.14282 79.4646 5.14282C80.4835 5.14282 81.1364 5.2978 81.1364 5.2978V8.44868C81.1364 8.44868 80.5879 8.39721 80.1175 8.39721C78.8898 8.39721 78.2367 8.81043 78.2367 9.94678V10.4633H81.1364V13.64H78.2367V23.4802H74.2923V13.64H72.307V10.4633H74.2923V9.97261ZM88.0847 10.4633H91.0887V13.64H88.0847V18.7022C88.0847 20.0969 88.8162 20.4585 89.9655 20.4585C90.4356 20.4585 91.0887 20.381 91.0887 20.381V23.5061C91.0887 23.5061 90.1746 23.7126 89.208 23.7126C86.0473 23.7126 84.1403 22.2922 84.1403 19.1414V13.64H82.155V10.4633H84.1403V6.66669H88.0847V10.4633ZM99.8219 10.0759C103.166 10.0759 104.916 11.5738 104.916 15.8611V23.4802H100.971V16.0419C100.971 14.3116 100.214 13.5368 98.5681 13.5368C97.0791 13.5368 96.191 14.3116 96.191 16.0419V23.4802H92.2465V5.42695H96.217V11.7288C96.8963 10.7731 97.9673 10.0759 99.8219 10.0759ZM114.973 18.418C114.973 19.8386 113.615 20.8976 111.525 20.8976C110.506 20.8976 109.905 20.4327 109.905 19.5544C109.905 18.883 110.323 18.3148 111.655 18.1342L113.928 17.8241C114.32 17.7723 114.738 17.695 114.973 17.6175V18.418ZM112.779 10.0759C108.886 10.0759 107.006 11.5481 106.849 14.3116H110.689C110.741 13.5884 111.159 13.046 112.779 13.046C114.215 13.046 114.895 13.511 114.895 14.2082C114.895 14.8282 114.503 15.0606 113.536 15.1638L111.029 15.4221C107.632 15.7836 106.091 17.1784 106.091 19.7096C106.091 22.0598 107.554 23.8676 110.663 23.8676C112.779 23.8676 114.033 23.1961 115.13 21.853V23.4802H118.735V14.9314C118.735 11.3414 116.619 10.0759 112.779 10.0759ZM127.855 10.0759C131.278 10.0759 133.028 11.5738 133.028 15.8611V23.4802H129.083V16.0419C129.083 14.3116 128.326 13.5368 126.68 13.5368C125.191 13.5368 124.303 14.3116 124.303 16.0419V23.4802H120.358V10.4633H124.068V11.9614C124.616 10.954 125.74 10.0759 127.855 10.0759ZM141.349 15.3188C144.692 15.7579 146.364 16.791 146.364 19.5029C146.364 22.2406 144.405 23.8676 140.252 23.8676C135.732 23.8676 134.139 22.0857 134.061 19.4769H137.953C138.057 20.4327 138.736 20.8976 140.252 20.8976C141.793 20.8976 142.42 20.5359 142.42 19.8128C142.42 19.1414 141.897 18.8315 140.539 18.6506L139.154 18.4697C136.255 18.0824 134.583 16.9718 134.583 14.3891C134.583 11.9096 136.438 10.0759 140.33 10.0759C143.935 10.0759 145.868 11.4964 146.051 14.3116H142.211C142.08 13.5627 141.662 13.0977 140.33 13.0977C139.024 13.0977 138.528 13.5368 138.528 14.1051C138.528 14.6731 138.841 14.9831 139.964 15.1381L141.349 15.3188ZM156.239 18.4183C156.239 19.8386 154.88 20.8976 152.79 20.8976C151.772 20.8976 151.171 20.4327 151.171 19.5544C151.171 18.883 151.589 18.3148 152.921 18.1342L155.194 17.8241C155.585 17.7726 156.003 17.695 156.239 17.6175V18.4183ZM154.044 10.0759C150.152 10.0759 148.271 11.5481 148.114 14.3116H151.954C152.007 13.5884 152.425 13.0462 154.044 13.0462C155.481 13.0462 156.16 13.511 156.16 14.2084C156.16 14.8282 155.768 15.0606 154.802 15.1638L152.294 15.4221C148.898 15.7838 147.357 17.1784 147.357 19.7096C147.357 22.0598 148.82 23.8676 151.928 23.8676C154.044 23.8676 155.298 23.1961 156.395 21.853V23.4802H160V14.9314C160 11.3416 157.884 10.0759 154.044 10.0759Z" fill="white"/>
</svg>
