<svg width="77" height="12" viewBox="0 0 77 12" fill="none" xmlns="http://www.w3.org/2000/svg">
<path fill-rule="evenodd" clip-rule="evenodd" d="M26.799 6.97436C26.1957 6.9011 23.3517 6.97436 22.4755 6.85714C20.5795 6.59341 19.1575 6.13919 18.4968 6.28571C17.8361 6.43223 14.8915 7.85348 13.6993 8.46886C13.685 8.46886 13.0386 8.61538 12.9955 8.63004C12.6364 8.54212 7.78152 6.9011 5.21042 7.75092C3.94642 8.17582 0.125685 9.18681 0.125685 9.18681C-0.262134 9.30403 0.355503 9.34798 0.527867 9.31868C0.714595 9.28938 1.33223 9.18681 2.07914 9.04029C3.57296 8.7326 4.40606 8.68864 5.19606 8.63004C6.68988 8.54212 8.93061 8.77656 10.7117 9.68498C10.8553 9.75824 10.9128 9.8315 10.9272 9.93407C10.9415 10.1978 10.525 10.6081 10.3526 10.7253C10.3526 10.7253 10.8697 10.7546 11.2001 10.652C11.3293 10.6081 11.4586 10.6081 11.6453 10.5934C11.8895 10.5788 12.2199 10.5494 12.7513 10.4615C13.7855 10.2711 14.2452 10.0073 14.7479 9.72894L14.7766 9.71429C15.0926 9.53846 17.9223 8.3663 17.9223 8.3663C19.6172 7.663 20.3354 8.337 22.3606 8.11722C24.3859 7.89744 25.9946 7.2967 27.2299 7.19414C27.4741 7.15018 26.9426 6.98901 26.799 6.97436ZM22.8059 8.43956C22.8203 8.65934 22.8346 8.86447 22.8346 9.08425C22.8346 9.94872 22.4468 11.5165 22.4468 11.5165C22.4324 11.5751 22.4037 11.6777 22.3894 11.7216C22.375 11.7656 22.4181 11.8095 22.4755 11.8095H23.5097C23.5815 11.8095 23.639 11.7949 23.639 11.7656C23.639 11.7363 23.6677 11.663 23.6821 11.6044C23.6821 11.6044 24.0412 9.99267 24.0412 9.0989C24.0412 8.82051 24.0268 8.52747 23.9981 8.24908C23.6103 8.32234 23.2081 8.38095 22.8059 8.43956ZM21.2403 4.21978L21.1541 4.20513C21.6712 4.86447 22.0734 5.61172 22.3606 6.41758C22.4181 6.43223 22.4755 6.43223 22.5186 6.44689C22.7628 6.47619 23.1794 6.50549 23.6534 6.50549C23.4235 5.69963 23.0788 4.95238 22.6479 4.24908C22.0877 4.30769 21.6424 4.26374 21.2403 4.21978ZM7.81024 11.5165C7.81024 11.5165 7.43679 10.0073 7.42242 9.1282C7.00588 9.0696 6.6037 9.04029 6.21588 9.02564V9.08425C6.21588 9.97802 6.57497 11.5897 6.57497 11.5897C6.58933 11.6484 6.6037 11.7216 6.61806 11.7509C6.63242 11.7802 6.68988 11.7949 6.74733 11.7949H7.76715C7.83897 11.7949 7.8677 11.7509 7.85333 11.707C7.85333 11.6777 7.82461 11.5897 7.81024 11.5165ZM7.66661 7.12088C7.88206 6.24176 8.24115 5.4359 8.72952 4.7033C8.32734 4.7326 7.85333 4.79121 7.20697 4.90842C6.86224 5.59707 6.58933 6.34432 6.41697 7.12088C6.80479 7.10623 7.22133 7.10623 7.66661 7.12088ZM10.2233 3.01831C11.5592 1.90476 13.2684 1.23077 15.1213 1.23077C16.529 1.23077 17.8648 1.62637 18.9995 2.30037C19.3155 2.1685 19.5741 2.06593 19.7177 2.03663C19.9906 1.97802 20.3497 2.00733 20.8094 2.09524C19.2581 0.791209 17.2759 0 15.1213 0C12.2486 0 9.69188 1.39194 8.06879 3.54579C8.51406 3.42857 8.90188 3.31136 9.16043 3.22344C9.46206 3.12088 9.82116 3.04762 10.2233 3.01831ZM5.56951 4.83516C5.71315 4.82051 6.21588 4.7326 6.79042 4.61538C7.96824 4.3663 8.62897 4.337 9.26097 4.29304C10.4388 4.21978 12.2199 4.41026 13.6275 5.1282C13.7424 5.18681 13.7855 5.24542 13.7999 5.31868C13.8143 5.52381 13.4839 5.86081 13.3546 5.93407C13.3546 5.93407 13.7712 5.96337 14.0297 5.87546C14.1303 5.84615 14.2308 5.8315 14.3888 5.8315C14.5899 5.81685 14.8484 5.8022 15.265 5.72894C16.0837 5.58242 16.4572 5.36264 16.845 5.14286L16.8737 5.1282C17.1323 4.98168 19.3586 4.05861 19.3586 4.05861C20.7088 3.50183 21.269 4.04396 22.8777 3.86813C24.4865 3.69231 25.7505 3.20879 26.7415 3.13553C26.9283 3.12088 26.5117 3.00366 26.3968 2.98901C25.9228 2.9304 23.6677 2.98901 22.9783 2.88645C21.4701 2.68132 20.3497 2.32967 19.8183 2.43223C19.3012 2.54945 16.9599 3.67766 16.0263 4.16117L15.4661 4.29304C15.1788 4.21978 11.3437 2.9304 9.30406 3.6044C8.29861 3.94139 5.26788 4.74725 5.26788 4.74725C4.93751 4.82051 5.42588 4.84982 5.56951 4.83516ZM34.9001 3.663C34.8857 3.54579 34.7708 3.45788 34.6559 3.45788H32.4439C32.329 3.45788 32.1997 3.54579 32.1423 3.64835L28.3503 11.5751C28.2928 11.6777 28.3503 11.7656 28.4652 11.7656H30.6772C30.7921 11.7656 30.9214 11.6777 30.9645 11.5751L31.2086 10.9744C31.2517 10.8718 31.381 10.7839 31.4959 10.7839H33.6936C33.8085 10.7839 33.909 10.8718 33.9234 10.989L33.9808 11.5458C33.9952 11.663 34.0957 11.7509 34.2107 11.7509H36.2647C36.3796 11.7509 36.4514 11.663 36.437 11.5458L34.9001 3.663ZM32.1567 9.11355C32.0417 9.11355 31.9843 9.02564 32.0274 8.92308L33.1334 6.22711C33.1765 6.12454 33.2339 6.12454 33.2483 6.24176L33.6361 9.11355H32.1567ZM38.4767 3.45788C38.3617 3.45788 38.2612 3.54579 38.2468 3.663L37.069 11.5751C37.0547 11.6923 37.1265 11.7802 37.2414 11.7802H43.4321C43.547 11.7802 43.6476 11.6923 43.6619 11.5751L43.8774 9.99267C43.8918 9.87546 43.8199 9.78755 43.705 9.78755H40.0998C39.9848 9.78755 39.913 9.69963 39.9274 9.58242L40.0567 8.64469C40.071 8.52747 40.1716 8.43956 40.2865 8.43956H43.1879C43.3029 8.43956 43.4034 8.35165 43.4178 8.23443L43.6476 6.78388C43.6619 6.66667 43.5901 6.57875 43.4752 6.57875H40.545C40.4301 6.57875 40.3583 6.49084 40.3727 6.37363L40.4876 5.64103C40.5019 5.52381 40.6168 5.4359 40.7318 5.4359H44.1072C44.2221 5.4359 44.3227 5.34799 44.337 5.23077L44.5956 3.47253H38.4767V3.45788ZM59.4045 9.78755H55.7992C55.6843 9.78755 55.6125 9.69963 55.6269 9.58242L55.7561 8.64469C55.7705 8.52747 55.8711 8.43956 55.986 8.43956H58.9018C59.0167 8.43956 59.1172 8.35165 59.1316 8.23443L59.3614 6.78388C59.3758 6.66667 59.304 6.57875 59.1891 6.57875H56.2732C56.1583 6.57875 56.0865 6.49084 56.1009 6.37363L56.2158 5.64103C56.2301 5.52381 56.3451 5.4359 56.46 5.4359H59.8211C59.936 5.4359 60.0365 5.34799 60.0509 5.23077L60.3094 3.47253H54.1761C54.0612 3.47253 53.9607 3.56044 53.9463 3.67766L52.7541 11.5751C52.7398 11.6923 52.8116 11.7802 52.9265 11.7802H59.1172C59.2322 11.7802 59.3327 11.6923 59.3471 11.5751L59.5769 9.99267C59.5912 9.87546 59.5194 9.78755 59.4045 9.78755ZM66.1698 3.663C66.1411 3.54579 66.0405 3.45788 65.9256 3.45788H63.728C63.6131 3.45788 63.4838 3.54579 63.4407 3.64835L59.62 11.5897C59.5769 11.6923 59.62 11.7802 59.7349 11.7802H61.9469C62.0618 11.7802 62.1911 11.6923 62.2342 11.5897L62.4927 10.989C62.5358 10.8864 62.6651 10.7985 62.78 10.7985H64.9776C65.0925 10.7985 65.1931 10.8864 65.2074 11.0037L65.2793 11.5604C65.2936 11.6777 65.3942 11.7656 65.5091 11.7656H67.5631C67.678 11.7656 67.7498 11.6777 67.7211 11.5604L66.1698 3.663ZM63.4263 9.11355C63.3114 9.11355 63.254 9.02564 63.2971 8.92308L64.4031 6.22711C64.4462 6.12454 64.4893 6.12454 64.518 6.24176L64.9058 9.11355H63.4263ZM74.8167 3.45788C74.7018 3.45788 74.6013 3.54579 74.5869 3.663L74.0267 7.47253C74.0124 7.58974 73.9836 7.76557 73.9693 7.88278L73.9405 8.48352C73.9405 8.60073 73.9118 8.60073 73.8975 8.48352L73.7682 7.91209C73.7394 7.79487 73.6676 7.6337 73.6245 7.51648L71.9009 3.64835C71.8578 3.54579 71.7285 3.45788 71.6136 3.45788H69.6314C69.5165 3.45788 69.416 3.54579 69.4016 3.663L68.2238 11.5751C68.2094 11.6923 68.2813 11.7802 68.3962 11.7802H70.4214C70.5364 11.7802 70.6369 11.6923 70.6513 11.5751L71.2114 7.70696C71.2258 7.58974 71.2545 7.41392 71.2545 7.2967C71.2689 7.19414 71.2689 6.98901 71.2689 6.98901C71.2689 6.87179 71.2689 6.72527 71.2689 6.66667C71.2689 6.60806 71.2833 6.63736 71.2976 6.75458L71.3838 7.2674C71.4125 7.38461 71.47 7.56044 71.5131 7.663L73.2798 11.5897C73.3229 11.6923 73.4522 11.7802 73.5671 11.7802H75.5636C75.6785 11.7802 75.7791 11.6923 75.7934 11.5751L77 3.47253H74.8167V3.45788ZM52.8116 7.32601C52.826 7.20879 52.7398 7.12088 52.6249 7.12088H50.5852C50.4703 7.12088 50.3841 7.12088 50.3841 7.12088C50.3841 7.12088 50.298 7.12088 50.183 7.12088H49.7665C49.6516 7.12088 49.551 7.20879 49.5367 7.32601L49.3069 8.77656C49.2925 8.89377 49.3643 8.98168 49.4792 8.98168H49.7521C49.867 8.98168 49.9101 9.0696 49.8527 9.15751C49.8527 9.15751 49.7521 9.34798 49.6229 9.47985C49.2781 9.84615 48.8472 10.0366 48.3158 10.0366C47.7987 10.0366 47.4252 9.84615 47.181 9.47985C46.9369 9.0989 46.8794 8.49817 47.0087 7.6337C47.138 6.76923 47.3821 6.15385 47.7269 5.77289C48.086 5.40659 48.5025 5.21612 49.0052 5.21612C49.5223 5.21612 49.9101 5.40659 50.1543 5.77289L50.183 5.8315C50.2118 5.90476 50.341 5.94872 50.4416 5.94872H52.6105C52.7254 5.94872 52.7972 5.86081 52.7685 5.74359C52.7685 5.74359 52.5243 4.79121 52.194 4.3663C51.5907 3.6044 50.6283 3.22344 49.3069 3.22344C48.0141 3.22344 46.9512 3.6044 46.1181 4.38095C45.285 5.15751 44.7679 6.22711 44.5525 7.61905C44.4089 8.60073 44.4663 9.4359 44.7248 10.0952C44.9978 10.7546 45.3999 11.2381 45.9314 11.5458C46.4772 11.8535 47.1954 12 48.086 12C48.9621 12 49.7234 11.8242 50.3698 11.4725C51.0161 11.1209 51.5332 10.6227 51.9498 9.99267C52.352 9.36264 52.6392 8.54212 52.7829 7.56044C52.7972 7.39927 52.8116 7.32601 52.8116 7.32601Z" fill="#34363E"/>
</svg>
