<svg width="56" height="14" viewBox="0 0 56 14" fill="none" xmlns="http://www.w3.org/2000/svg">
<path d="M5.57422 6.2605H5.86035C6.29688 6.2605 6.49902 6.2605 6.58887 6.1543C6.64355 6.08984 6.65723 5.98633 6.65723 5.82007C6.65723 5.34814 6.33887 5.03345 5.9248 5.03345C5.47852 5.03345 5.0957 5.41113 5.0957 5.91455C5.0957 6.08398 5.13281 6.17114 5.22168 6.21558C5.29785 6.25366 5.41211 6.2605 5.57422 6.2605Z" fill="#34363E"/>
<path d="M12.709 9.18628C13.1553 9.18628 13.1875 8.80884 13.1875 7.95947C13.1875 7.64478 13.1553 7.61328 12.8369 7.67627C12.4541 7.67627 12.1992 7.95947 12.1992 8.46265C12.1992 8.93457 12.3906 9.18628 12.709 9.18628Z" fill="#34363E"/>
<path d="M43.7676 6.2605H44.0537C44.4453 6.2605 44.6484 6.2605 44.751 6.18384C44.832 6.12329 44.8506 6.01465 44.8506 5.82007C44.8506 5.34814 44.5322 5.03345 44.1182 5.03345C43.6719 5.03345 43.2891 5.41113 43.2891 5.91455C43.2891 6.05884 43.3164 6.14355 43.3789 6.19287C43.4531 6.25122 43.5781 6.2605 43.7676 6.2605Z" fill="#34363E"/>
<path fill-rule="evenodd" clip-rule="evenodd" d="M56 0H0V14H56V0ZM9.10938 6.51221C9.10938 7.23584 8.91895 7.48755 8.40918 7.48755V7.45605H5.51074C5.34375 7.45605 5.23047 7.46973 5.17285 7.52368C5.14258 7.55176 5.12793 7.59082 5.12793 7.64478C5.12793 8.21118 5.8291 8.90332 6.7207 8.90332C7.20801 8.90332 7.58789 8.69116 7.88281 8.52637C8.06934 8.42212 8.22168 8.33691 8.3457 8.33691C8.63184 8.33691 8.88672 8.62012 8.88672 8.99756C8.88672 9.31226 8.63184 9.72119 8.09082 10.0671C7.70312 10.3347 7.26855 10.521 6.80273 10.6262C6.50098 10.6941 6.18555 10.728 5.86035 10.728C3.75781 10.728 2.29297 9.18628 2.29297 7.26733C2.29297 6.5437 2.51562 5.85156 2.96191 5.25366C3.63086 4.31006 4.74609 3.74365 5.9248 3.74365C7.83594 3.74365 9.10938 4.9707 9.10938 6.51221ZM12.168 6.5437C12.4541 6.5437 12.7734 6.60669 13.1875 6.66943C13.2061 6.54053 13.2139 6.42261 13.2041 6.30249C13.1973 6.21753 13.1816 6.13159 13.1553 6.04028C13.1553 5.25366 12.9961 4.87622 12.582 4.87622C12.1992 4.87622 12.0088 5.19092 11.7217 5.53687C11.3398 5.97729 11.0215 6.19751 10.6074 6.19751C10.1611 6.19751 9.81055 5.85156 9.81055 5.37964C9.81055 4.53027 11.0527 3.74365 12.9961 3.74365C15.0352 3.74365 16.0859 4.49878 16.0859 5.97729C16.0859 6.51221 16.0537 7.01562 16.0537 7.42456V7.61328C16.0537 8.01929 16.0537 8.28198 16.0869 8.45679C16.1289 8.6748 16.2236 8.75635 16.4365 8.80884C16.6914 8.87183 16.8184 9.02905 16.8184 9.24927C16.8184 9.84692 15.9268 10.665 14.6846 10.665C14.334 10.665 14.0791 10.6021 13.8564 10.4133C13.6699 10.2522 13.5518 10.0911 13.4521 10.0164C13.415 9.98877 13.3809 9.9729 13.3467 9.9729C13.251 9.9729 13.1553 10.0671 13.0283 10.1616C12.582 10.4763 12.2314 10.6335 11.5947 10.6335C10.2246 10.6335 9.36426 9.81567 9.36426 8.65161C9.36426 7.45605 10.5752 6.5437 12.168 6.5437ZM21.2461 6.35498C22.457 6.95264 23.0303 7.55029 23.0303 8.52563C23.0303 9.75269 21.9785 10.6965 20.3223 10.6965C19.8125 10.6965 19.4443 10.5986 19.1992 10.5334C19.0762 10.5007 18.9844 10.4763 18.9209 10.4763C18.8252 10.4763 18.7217 10.5156 18.6182 10.5549C18.5146 10.5942 18.4111 10.6335 18.3154 10.6335C17.8379 10.6335 17.0732 9.75269 17.0732 8.84033C17.0732 8.58691 17.1133 8.39722 17.2021 8.27148C17.29 8.14722 17.4248 8.08521 17.6152 8.08521C17.9619 8.08521 18.1514 8.2832 18.373 8.51392L18.5068 8.65161C18.8887 9.06055 19.208 9.28076 19.4941 9.28076C19.626 9.28076 19.7246 9.22583 19.7832 9.15479C19.8232 9.10571 19.8447 9.04907 19.8447 8.99756C19.8447 8.67334 19.6045 8.56641 19.2188 8.39478C19.1182 8.3501 19.0078 8.30103 18.8887 8.24243C17.8057 7.70776 17.2324 6.95264 17.2324 6.04028C17.2324 4.87622 18.3799 3.83813 19.8447 3.83813C20.1211 3.83813 20.3652 3.89062 20.5713 3.93481C20.7227 3.96729 20.8525 3.99536 20.96 3.99536C21.0967 3.99536 21.2334 3.94092 21.3604 3.89062C21.4697 3.84717 21.5723 3.80664 21.6602 3.80664C22.0225 3.80664 22.4971 4.2522 22.7412 4.79199C22.8408 5.01147 22.9023 5.24658 22.9023 5.47388C22.9023 5.91455 22.6162 6.19751 22.1699 6.19751C21.915 6.19751 21.6924 6.07178 21.4697 5.88306C21.1191 5.56836 20.9277 5.22241 20.5137 5.22241C20.3223 5.22241 20.1318 5.37964 20.1318 5.56836C20.1318 5.88306 20.5459 6.00879 21.2461 6.35498ZM26.0596 9.78955C25.9053 9.42773 25.709 9.0083 25.4834 8.52563L24.4316 6.51221L24.3965 6.42798C24.2568 6.09229 24.1504 5.83716 23.8262 5.66284L23.7295 5.61108C23.4785 5.47949 23.2529 5.36108 23.2529 4.9707C23.2529 4.31006 24.1133 3.93237 25.8018 3.93237C27.2031 3.93237 27.8721 4.0896 27.8721 4.75049C27.8721 5.22241 27.458 5.25366 27.458 5.47388C27.458 5.59985 27.5537 5.85156 27.7129 6.2605C27.8721 6.63794 28.0312 6.8269 28.2861 6.8269C28.5088 6.8269 28.668 6.63794 28.8281 6.2605C29.0186 5.85156 29.082 5.56836 29.082 5.50537C29.082 5.33301 28.9297 5.21729 28.792 5.08569C28.6777 4.97729 28.5732 4.85815 28.5732 4.6875C28.5732 4.21558 29.1465 3.93237 30.1973 3.93237C31.1846 3.93237 31.6309 4.18408 31.6309 4.6875C31.6309 5.15942 31.376 5.28516 30.9941 5.41113C30.4844 5.59985 30.3887 5.85156 30.1338 6.5437C29.5283 8.14819 29.21 9.78418 28.4775 11.1055C27.7441 12.3953 26.8525 13.0559 25.6104 13.0559C24.3047 13.0559 23.5078 12.301 23.5078 11.2942C23.5078 10.7595 23.8037 10.3281 24.2148 10.1392C24.3604 10.0723 24.5205 10.0359 24.6865 10.0359C24.9512 10.0359 25.1934 10.1135 25.3867 10.262C25.5186 10.3638 25.6279 10.4988 25.7061 10.665C25.7939 10.8394 25.832 11.0088 25.8643 11.1499C25.9131 11.3652 25.9463 11.5144 26.1201 11.5144C26.3115 11.5144 26.4385 11.3572 26.4385 11.074C26.4385 10.7686 26.2979 10.3474 26.0596 9.78955ZM34.9121 9.09204C35.4219 9.09204 35.7715 8.58862 35.7715 7.67627H35.8359V4.15259C35.8359 3.46045 35.8037 3.33472 35.3574 3.146C35.1426 3.03955 34.9707 2.97632 34.8818 2.81079C34.8398 2.7312 34.8164 2.62793 34.8164 2.48511C34.8164 1.69873 35.6445 1.44702 37.3965 1.44702C39.1484 1.44702 39.9453 1.63574 39.9453 2.35938C39.9453 2.78809 39.7871 2.87915 39.5205 3.03369L39.4355 3.08301C39.0322 3.29736 39.0215 3.51172 38.9922 4.10254L38.9893 4.15259C38.9297 5.48486 38.957 6.58521 38.917 7.43115C38.8926 7.9436 38.8428 8.36255 38.7344 8.68286C38.2568 10.0986 37.0781 10.8223 35.2305 10.8223C33.0645 10.8223 31.6943 9.75269 31.6943 8.24243C31.6943 7.29883 32.2998 6.66943 33.1602 6.66943C34.0518 6.66943 34.6572 7.29883 34.6572 8.08521C34.6572 8.15356 34.6484 8.22192 34.6357 8.29126C34.6074 8.44507 34.5615 8.60376 34.5615 8.77734C34.5615 8.96606 34.7207 9.09204 34.9121 9.09204ZM47.3027 6.51221C47.3027 7.23584 47.1123 7.48755 46.6025 7.48755V7.45605H43.7041C43.4492 7.45605 43.3213 7.48755 43.3213 7.64478C43.3213 8.21118 44.0225 8.90332 44.9141 8.90332C45.4023 8.90332 45.7822 8.69092 46.0762 8.52612C46.2627 8.42188 46.415 8.33691 46.5391 8.33691C46.8252 8.33691 47.0801 8.62012 47.0801 8.99756C47.0801 9.31226 46.8252 9.72119 46.2842 10.0671C45.6465 10.5078 44.8818 10.728 44.0537 10.728C41.9521 10.728 40.4863 9.18628 40.4863 7.26733C40.4863 6.9502 40.5293 6.63916 40.6152 6.3396C40.7246 5.95532 40.9043 5.5896 41.1553 5.25366C41.8242 4.31006 42.9395 3.74365 44.1182 3.74365C46.0293 3.74365 47.3027 4.9707 47.3027 6.51221ZM48.5459 8.3999V5.34814C47.5898 5.31665 47.5264 5.34814 47.4941 4.78174C47.4941 4.31006 47.6855 4.27856 48.2588 3.86938L48.2734 3.85986C49.6025 2.95312 50.4268 2.39087 51.0303 2.39087C51.4922 2.39087 51.6035 2.53394 51.6289 2.98535C51.6348 3.09375 51.6357 3.21997 51.6357 3.36621V3.93237H53.0371C53.4189 3.93237 53.4834 3.93237 53.4834 4.27856V4.84473C53.4834 5.10181 53.4639 5.22827 53.375 5.29004C53.3008 5.34155 53.1768 5.34814 52.9736 5.34814L51.9854 5.37964C51.667 5.37964 51.5713 5.37964 51.5713 5.69409V7.99072C51.5713 8.26978 51.6396 8.47168 51.7773 8.59619C51.8877 8.69604 52.042 8.74585 52.2402 8.74585C52.5596 8.74585 52.7822 8.49414 53.0684 8.49414C53.3232 8.49414 53.5146 8.77734 53.5146 9.21777C53.5146 9.57617 53.1865 9.98999 52.6426 10.2937C52.1836 10.55 51.5713 10.728 50.8711 10.728C49.3418 10.728 48.5459 9.90991 48.5459 8.3999Z" fill="#34363E"/>
</svg>
