<svg width="77" height="12" viewBox="0 0 77 12" fill="none" xmlns="http://www.w3.org/2000/svg">
<path d="M38.5742 0V1.04541H40.501V0H38.5742Z" fill="#34363E"/>
<path d="M38.5742 1.46362V5.18555H40.501V1.46362H38.5742Z" fill="#34363E"/>
<path fill-rule="evenodd" clip-rule="evenodd" d="M30.8682 4.05688H29.0732C29.0293 4.18237 28.9414 4.26587 28.7666 4.18237L28.6475 4.21875L28.5615 4.24048C28.4912 4.25586 28.415 4.26587 28.3291 4.26587C28.0664 4.26587 27.8477 4.22412 27.6719 4.09863C27.541 3.97314 27.4531 3.80591 27.4531 3.55493H31.0439V3.47144C31.0439 2.7605 30.8242 2.2168 30.3428 1.84033C29.8174 1.42212 29.1611 1.25488 28.3291 1.25488C27.4971 1.25488 26.8398 1.46387 26.3145 1.79858C25.833 2.1748 25.6143 2.67676 25.6143 3.30396C25.6143 3.9314 25.833 4.39136 26.3145 4.72583L26.4043 4.79272L26.5186 4.8667L26.6406 4.93506L26.708 4.96924L26.8115 5.01611L26.9375 5.06592C27.0195 5.0957 27.1045 5.12207 27.1924 5.14526C27.3193 5.17847 27.4531 5.20483 27.5928 5.22461C27.8076 5.25488 28.0391 5.26953 28.2852 5.26953C28.9854 5.26953 29.5986 5.18604 30.0361 4.97681C30.4307 4.76782 30.7373 4.4751 30.8682 4.05688ZM29.2051 2.88574H27.4971C27.4971 2.67676 27.585 2.50952 27.7598 2.38403C27.8906 2.25854 28.1104 2.2168 28.3291 2.2168C28.5918 2.2168 28.8105 2.25854 28.9414 2.38403C29.1172 2.46777 29.1611 2.67676 29.2051 2.88574Z" fill="#34363E"/>
<path fill-rule="evenodd" clip-rule="evenodd" d="M6.3418 2.57031C6.45312 2.27759 6.64258 2.03149 6.91797 1.84009C7.18164 1.63916 7.53906 1.4834 7.96289 1.39111C8.13281 1.35425 8.31348 1.32764 8.50195 1.31201C8.62695 1.30176 8.75586 1.29639 8.88867 1.29639C9.7207 1.29639 10.377 1.46362 10.9023 1.84009C11.3408 2.17456 11.6035 2.67651 11.6035 3.30371C11.6035 3.88916 11.3408 4.39111 10.9023 4.72559C10.748 4.84595 10.5762 4.94507 10.3848 5.02393C9.97852 5.19189 9.48438 5.26929 8.88867 5.26929C8.58789 5.26929 8.31055 5.24731 8.05566 5.20166C7.78906 5.15405 7.54785 5.08057 7.33105 4.97876C7.18164 4.9082 7.04395 4.82397 6.91797 4.72559C6.48047 4.43286 6.21777 3.93115 6.21777 3.30371C6.21777 3.15674 6.22949 3.0166 6.25391 2.88379L6.27734 2.77783L6.30078 2.69263C6.3125 2.65088 6.32617 2.61011 6.3418 2.57031ZM8.18945 3.74487C8.2168 3.84961 8.25879 3.93677 8.31934 4.01465C8.45117 4.18188 8.62598 4.22388 8.88867 4.22388C9.19531 4.22388 9.37012 4.18188 9.50195 4.01465C9.53223 3.95581 9.56348 3.89185 9.58984 3.81909C9.63965 3.68506 9.67676 3.52075 9.67676 3.30371C9.67676 2.96924 9.63281 2.71826 9.50195 2.55103C9.41406 2.42554 9.19531 2.3418 8.93262 2.3418C8.66992 2.3418 8.49414 2.38379 8.36328 2.55103C8.18848 2.71826 8.14453 2.96924 8.14453 3.30371C8.14453 3.37964 8.14746 3.44922 8.15234 3.51318C8.15625 3.56616 8.16211 3.61523 8.1709 3.66138C8.17578 3.69043 8.18262 3.71826 8.18945 3.74487Z" fill="#34363E"/>
<path d="M0 1.46436V5.06079H1.92676V3.13721C1.92676 2.88623 1.9707 2.71899 2.10156 2.59351C2.16406 2.53394 2.23633 2.49316 2.31836 2.4668C2.40918 2.43774 2.51172 2.42627 2.62695 2.42627C2.68066 2.42627 2.73047 2.42798 2.77734 2.43188C2.82617 2.43604 2.87109 2.44238 2.91211 2.45142L2.9707 2.46753C3.05078 2.4939 3.11133 2.53442 3.15234 2.59351C3.18555 2.62524 3.21289 2.67505 3.2334 2.74072C3.26758 2.8479 3.28418 2.99731 3.28418 3.17896V5.10254H5.16699V3.17896C5.16699 2.76074 5.12305 2.42627 5.0791 2.25879C5.0332 2.14941 4.9873 2.06299 4.93555 1.98145L4.87109 1.88721L4.77246 1.75708C4.72656 1.71289 4.66992 1.6687 4.60547 1.62793C4.55664 1.59692 4.50293 1.56812 4.44727 1.54297C4.36914 1.50781 4.28613 1.48022 4.20312 1.46436C3.98438 1.38062 3.72168 1.33887 3.41504 1.33887C3.32129 1.33887 3.23145 1.34473 3.14453 1.35522L3.00977 1.37476C2.82227 1.40698 2.65137 1.45654 2.49609 1.5061C2.40918 1.54761 2.32227 1.59351 2.2373 1.6438L2.17188 1.68457L2.0498 1.76489C1.94434 1.83838 1.84375 1.91943 1.75098 2.00806V1.46436H0Z" fill="#34363E"/>
<path fill-rule="evenodd" clip-rule="evenodd" d="M68.4795 7.48584C67.6914 7.86206 67.3408 7.98755 66.1592 8.44751C64.9766 8.90771 63.0938 9.53491 61.6494 9.99487C60.0293 10.4131 57.9277 10.7058 56.6143 10.7476C55.2568 10.7476 54.7744 10.3713 54.7744 9.45117C54.7744 9.05737 54.8389 8.7019 54.9434 8.39136C55.083 7.97632 55.2939 7.64136 55.5195 7.4021L56.9199 5.93848L56.1318 5.98022C54.5557 7.15112 52.7607 8.94946 52.7607 10.4548C52.7607 11.9604 55.1689 12.3369 58.0586 11.7095C60.9482 11.0823 64.3203 9.82764 66.5088 8.90771C67.915 8.34351 68.1475 8.21094 68.3428 8.09937C68.4512 8.03735 68.5479 7.98169 68.8301 7.86206C68.873 7.82031 69.0049 7.86206 69.0488 7.82031C69.0928 7.77856 69.1357 7.73657 69.2236 7.73657C69.3779 7.73657 69.5176 7.78003 69.6592 7.82422C69.7588 7.85522 69.8594 7.88672 69.9678 7.90381C70.0996 7.9458 70.1875 7.98755 70.3184 7.9458C70.376 7.9458 70.4141 7.91016 70.4336 7.87378L70.4404 7.85986L70.4463 7.84448L70.4482 7.83301L70.4502 7.82031C70.4502 7.73657 70.3184 7.69482 70.2744 7.65308C70.2451 7.62476 70.2158 7.59668 70.2129 7.5686C70.2119 7.55493 70.2168 7.54126 70.2305 7.52759C70.5811 7.36035 70.9756 7.31836 71.3691 7.15112C71.4717 7.10913 71.5791 7.05786 71.6895 7.00513C71.9102 6.90015 72.1436 6.78882 72.376 6.73291C72.4297 6.70728 72.5 6.729 72.5664 6.74951C72.6084 6.76245 72.6484 6.7749 72.6826 6.7749C73.1641 6.7749 73.6025 6.7749 74.04 6.81665C74.3574 6.87012 74.667 6.93896 74.9717 7.00659C75.3818 7.09766 75.7842 7.18677 76.1855 7.23486C76.3174 7.27661 76.4482 7.27661 76.5361 7.23486C76.7109 7.19287 77.1055 7.06763 76.9736 6.94214C76.9082 6.8855 76.8369 6.83643 76.7607 6.79297L76.708 6.76416L76.6436 6.73145L76.542 6.6853L76.4521 6.64819L76.3525 6.61084L76.1963 6.55566L76.1172 6.52856C75.8477 6.43677 75.5771 6.34448 75.3535 6.18921C75.2754 6.13916 75.291 6.04395 75.3066 5.94873C75.3164 5.88501 75.3271 5.82129 75.3096 5.771C75.3096 5.64575 75.2227 5.64575 75.1348 5.60376C75.0469 5.60376 74.96 5.60376 74.8721 5.64575C74.8428 5.65967 74.8135 5.67847 74.7842 5.69702C74.7256 5.73413 74.668 5.771 74.6094 5.771C74.4775 5.771 74.3906 5.6875 74.4346 5.64575C74.6445 5.44458 74.9023 5.28882 75.1611 5.13306C75.332 5.02954 75.5029 4.92603 75.6602 4.80933C75.9668 4.55835 76.2734 4.26562 76.4922 3.93115C76.5801 3.84741 76.5801 3.72192 76.5361 3.63818C76.5361 3.55103 76.4727 3.52441 76.4189 3.5022C76.3955 3.49243 76.374 3.48364 76.3604 3.47095C75.791 3.26196 74.7842 3.30371 73.6895 3.93115C73.252 4.22388 72.8145 4.6001 72.2891 4.76733C72.1963 4.81152 72.1162 4.75098 72.0352 4.69019C71.998 4.66235 71.9609 4.63452 71.9229 4.61621C71.8857 4.59863 71.8477 4.59033 71.8066 4.6001C71.7266 4.61914 71.6377 4.69043 71.5479 4.76221C71.4414 4.84814 71.333 4.93481 71.2383 4.93481C70.9062 4.93481 70.5791 4.90747 70.2559 4.86792C70.3252 4.82422 70.3896 4.77686 70.4492 4.72559C70.8145 4.47241 71.0283 4.12354 71.1113 3.71484C71.1377 3.5835 71.1504 3.44604 71.1504 3.30371C71.1504 2.67651 70.9316 2.17456 70.4492 1.84009C69.9678 1.46362 69.3115 1.29639 68.4795 1.29639C68.2051 1.29639 67.9521 1.31689 67.7197 1.35522C67.6562 1.36572 67.5938 1.37769 67.5332 1.39087C67.1074 1.48315 66.7549 1.63892 66.4648 1.84009C66.3906 1.89648 66.3223 1.95752 66.2588 2.02319C66.1748 2.11011 66.1006 2.20483 66.0371 2.30713C65.9609 2.42847 65.8994 2.5603 65.8545 2.7019C65.7959 2.88647 65.7646 3.08765 65.7646 3.30371C65.7646 3.5918 65.8203 3.85352 65.9229 4.08057C66.043 4.3479 66.2285 4.56738 66.4648 4.72559C66.6201 4.83691 66.7861 4.92993 66.9658 5.00562C67.1123 5.06714 67.2666 5.11743 67.4297 5.15698C67.7236 5.22827 68.0469 5.2644 68.4023 5.2688C68.8662 5.38208 69.3301 5.46558 69.793 5.60376C69.8945 5.63623 69.9961 5.6687 70.0928 5.70605C70.168 5.73486 70.2393 5.76636 70.3057 5.80322C70.375 5.8418 70.4385 5.88599 70.4932 5.93848C70.5371 5.98022 70.4932 6.02197 70.4502 6.06396C70.3379 6.15332 70.2178 6.23511 70.0928 6.3125L69.9473 6.39941L69.8359 6.46313L69.5742 6.60742L69.5332 6.62402L69.498 6.63354L69.4717 6.63745C69.4561 6.63916 69.4404 6.6394 69.4248 6.63818L69.3838 6.63208C69.3594 6.62695 69.335 6.6189 69.3115 6.60742C69.0488 6.52393 68.7861 6.3147 68.4795 6.2312C68.3477 6.18921 68.2607 6.18921 68.1729 6.18921C68.1211 6.21411 68.0693 6.22412 68.0264 6.24536C67.9971 6.26025 67.9717 6.28052 67.9541 6.3147C67.9102 6.39844 67.8662 6.52393 67.9102 6.56567C67.9531 6.6687 68.0596 6.7312 68.1572 6.78809C68.2578 6.84644 68.3477 6.89917 68.3477 6.98389C68.3477 7.04468 68.3076 7.06128 68.249 7.05786C68.1992 7.05469 68.1367 7.03662 68.0762 7.01904C68.0137 7.00122 67.9531 6.98389 67.9102 6.98389C67.8291 6.98389 67.7637 6.98389 67.7051 6.9939C67.6699 7 67.6367 7.00977 67.6035 7.02563C67.5596 7.06763 67.5166 7.15112 67.5596 7.19287C67.6641 7.29224 67.7676 7.31299 67.8936 7.33813L67.998 7.36035C68.1729 7.4021 68.6104 7.44385 68.4795 7.48584ZM67.8662 4.01465C67.998 4.18188 68.1729 4.22388 68.4795 4.22388L68.5781 4.22144C68.6338 4.21875 68.6855 4.21313 68.7324 4.20361C68.8633 4.177 68.9648 4.12134 69.0488 4.01465C69.1172 3.92773 69.1611 3.82959 69.1885 3.70825L69.2061 3.61475C69.2178 3.52417 69.2236 3.42163 69.2236 3.30371C69.2236 2.96924 69.1797 2.71826 69.0488 2.55103C68.917 2.38379 68.7422 2.3418 68.4795 2.3418C68.1729 2.3418 67.998 2.38379 67.8662 2.55103C67.7354 2.71826 67.6914 2.96924 67.6914 3.30371L67.6943 3.42822L67.6973 3.48193C67.7021 3.56836 67.7119 3.64526 67.7285 3.71436C67.7373 3.75122 67.7471 3.78589 67.7588 3.8186C67.7676 3.84399 67.7773 3.86816 67.7891 3.8916C67.8105 3.93555 67.8359 3.97632 67.8662 4.01465Z" fill="#34363E"/>
<path d="M12.7412 1.46362V5.18555H14.7549V3.63818C14.7549 3.34546 14.8428 3.13623 15.0176 3.01074C15.1934 2.8855 15.4561 2.84351 15.8496 2.84351H16.2002V1.37988H16.0254C15.6309 1.37988 15.2803 1.42163 15.0615 1.54712C14.7988 1.67261 14.624 1.83984 14.4922 2.13257V1.46362H12.7412Z" fill="#34363E"/>
<path d="M16.6826 1.42188H18.6094L19.3096 3.72192L20.0537 1.42188H21.6299L22.418 3.72192L23.0752 1.42188H24.9141L23.4258 5.18555H21.543L20.8418 3.01099L20.1855 5.18555H18.3027L16.6826 1.42188Z" fill="#34363E"/>
<path fill-rule="evenodd" clip-rule="evenodd" d="M32.1826 5.56226H34.0654L34.0889 5.61426C34.1152 5.67725 34.1367 5.72949 34.2402 5.72949C34.2949 5.75537 34.3496 5.76514 34.4346 5.76904C34.4873 5.77124 34.5518 5.77124 34.6348 5.77124C34.7197 5.77124 34.791 5.76807 34.8525 5.76074C35.0137 5.7417 35.1084 5.69482 35.2041 5.604C35.292 5.52026 35.3789 5.31128 35.3789 4.97681V4.85132C35.2041 4.93481 35.0283 5.01855 34.8096 5.10205C34.7002 5.12842 34.5557 5.15454 34.3877 5.17041C34.2881 5.17993 34.1797 5.18579 34.0654 5.18579C33.4092 5.18579 32.9268 5.01855 32.5332 4.68408C32.1387 4.34937 31.9639 3.8894 31.9639 3.30396C31.9639 2.96045 32.0244 2.64575 32.1533 2.37671C32.2148 2.24854 32.292 2.13086 32.3867 2.02515C32.4316 1.97461 32.4805 1.92676 32.5332 1.88208C32.8838 1.54736 33.3652 1.33838 34.0215 1.33838C34.3721 1.33838 34.6787 1.38013 34.9414 1.50562C35.0312 1.53418 35.1104 1.56738 35.1846 1.60718C35.3281 1.68433 35.4531 1.78589 35.5977 1.92383V1.42212H37.3057V4.85132C37.3057 4.95166 37.3008 5.04639 37.291 5.13574C37.2617 5.40649 37.1895 5.62939 37.0762 5.81616C37.0391 5.87866 36.9971 5.93726 36.9502 5.99194C36.9209 6.02563 36.8906 6.05811 36.8594 6.08936C36.8076 6.13989 36.752 6.18701 36.6924 6.2312C36.2549 6.52393 35.5977 6.64941 34.6348 6.64941C34.5273 6.64941 34.4219 6.64722 34.3193 6.64258C34.2432 6.63916 34.168 6.63428 34.0947 6.62793C33.667 6.59131 33.2959 6.5061 33.0146 6.35669C32.5332 6.18945 32.2705 5.93848 32.1826 5.56226ZM33.8027 3.30396C33.8027 3.59668 33.8467 3.80566 33.9775 3.97314C34.1094 4.14038 34.2842 4.18213 34.5469 4.18213C34.6514 4.18213 34.749 4.17554 34.834 4.15698C34.9629 4.12891 35.0635 4.07373 35.1162 3.97314C35.291 3.84766 35.291 3.63843 35.291 3.30396C35.291 3.01123 35.248 2.84399 35.1162 2.67651C34.9854 2.50928 34.8096 2.46753 34.5469 2.46753C34.2842 2.46753 34.1094 2.50928 33.9775 2.67651C33.8906 2.802 33.8027 3.01123 33.8027 3.30396Z" fill="#34363E"/>
<path fill-rule="evenodd" clip-rule="evenodd" d="M45.2734 5.18555L45.1416 4.85083C44.9229 5.01831 44.6602 5.14355 44.3535 5.22729L44.2246 5.24707C44.1436 5.25879 44.0586 5.27026 43.9688 5.28003L43.7998 5.29541C43.6748 5.30493 43.5391 5.31104 43.3906 5.31104C42.8652 5.31104 42.4268 5.22729 42.1641 5.01831C41.8584 4.80908 41.7266 4.51636 41.7266 4.13989C41.7266 3.89746 41.7988 3.68945 41.9209 3.53882C41.9883 3.45581 42.0703 3.39014 42.1641 3.34546C42.4707 3.17822 42.9961 3.05273 43.7842 2.92725C43.8721 2.92725 44.0029 2.92725 44.2227 2.8855C44.791 2.84351 45.0977 2.71802 45.0977 2.50903C45.0977 2.42529 45.0537 2.3418 44.9229 2.2998C44.8828 2.28076 44.8145 2.27026 44.7314 2.26465L44.6455 2.2605C44.5674 2.25806 44.4824 2.25806 44.3975 2.25806L44.3125 2.25854C44.2686 2.25903 44.2266 2.26074 44.1875 2.26538C44.1064 2.27441 44.0332 2.29492 43.96 2.3418C43.8721 2.38354 43.7842 2.46729 43.7842 2.59277H41.9014C41.9014 2.17456 42.1211 1.88184 42.5586 1.67261C42.7988 1.55786 43.1055 1.48096 43.4639 1.43481C43.7578 1.39697 44.0859 1.37988 44.4414 1.37988C44.5557 1.37988 44.667 1.38354 44.7754 1.38965C45.04 1.4043 45.2881 1.43384 45.5361 1.46362C45.8857 1.50537 46.1484 1.58887 46.3242 1.67261C46.543 1.7981 46.7178 1.92358 46.8057 2.09082C46.8496 2.25806 46.9365 2.42529 46.9365 2.71802V4.80908C46.9365 4.85083 46.9365 4.93457 46.9805 4.97632C47.0244 5.01831 47.0684 5.06006 47.1562 5.10181V5.18555H45.2734ZM45.1416 3.5127C44.9668 3.55444 44.7041 3.63818 44.3975 3.67993C44.1787 3.72192 44.0029 3.77417 43.8828 3.83691C43.7627 3.89966 43.6973 3.9729 43.6973 4.0564C43.6973 4.18188 43.7402 4.22363 43.8281 4.30737C43.916 4.34912 44.0469 4.39087 44.2227 4.39087C44.5283 4.39087 44.791 4.34912 44.9229 4.22363C44.9512 4.20361 44.9756 4.18262 44.9971 4.1604C45.0303 4.12671 45.0557 4.09033 45.0752 4.05054C45.1016 3.99902 45.1182 3.94189 45.1279 3.87769L45.1357 3.8186L45.1406 3.75757L45.1416 3.67993V3.5127Z" fill="#34363E"/>
<path d="M48.3818 1.46387V5.0603H50.3086V3.13672C50.3086 2.88574 50.3525 2.71851 50.4834 2.59302C50.5713 2.46753 50.79 2.42578 51.0088 2.42578C51.1201 2.42578 51.2158 2.43311 51.2949 2.45117C51.3486 2.46338 51.3955 2.48047 51.4355 2.50342C51.4756 2.52686 51.5088 2.5564 51.5342 2.59302C51.6221 2.67651 51.666 2.88574 51.666 3.17847V5.10205H53.5488V3.17847C53.5488 2.96777 53.5371 2.77856 53.5205 2.62109C53.5039 2.46582 53.4824 2.34155 53.4609 2.2583C53.4355 2.19824 53.4102 2.14502 53.3838 2.0957C53.3193 1.97363 53.248 1.87573 53.1543 1.75659C53.0234 1.6311 52.8037 1.50562 52.585 1.46387C52.3662 1.38013 52.1035 1.33838 51.7969 1.33838C51.4463 1.33838 51.1406 1.42212 50.8779 1.50562C50.6152 1.6311 50.3525 1.79834 50.1328 2.00757V1.46387H48.3818Z" fill="#34363E"/>
<path d="M56.3076 5.18579V3.68018H58.1904V5.18579H56.3076Z" fill="#34363E"/>
<path d="M59.5479 1.46387V5.0603H61.4307V3.13672C61.4307 2.88574 61.5186 2.71851 61.6055 2.59302C61.7373 2.46753 61.9121 2.42578 62.1748 2.42578C62.3936 2.42578 62.5693 2.46753 62.6562 2.59302C62.7441 2.67651 62.7881 2.88574 62.7881 3.17847V5.10205H64.6709V3.17847C64.6709 2.92456 64.6709 2.70166 64.6611 2.52808C64.6553 2.41577 64.6445 2.32422 64.627 2.2583C64.583 2.04932 64.4951 1.92383 64.3203 1.75659C64.2471 1.68652 64.1465 1.61646 64.0332 1.56079C64.0059 1.54712 63.9766 1.53442 63.9473 1.52271L63.9111 1.50879C63.8584 1.4895 63.8047 1.47412 63.751 1.46387C63.665 1.43091 63.5723 1.4043 63.4717 1.38428C63.4131 1.3728 63.3525 1.36328 63.2891 1.35596C63.1865 1.34424 63.0781 1.33838 62.9629 1.33838C62.5693 1.33838 62.3066 1.42212 62 1.50562C61.7373 1.6311 61.5186 1.79834 61.2988 2.00757V1.46387H59.5479Z" fill="#34363E"/>
</svg>
