<svg width="26" height="12" viewBox="0 0 26 12" fill="none" xmlns="http://www.w3.org/2000/svg">
<path d="M25.0566 2.16162C24.8555 2.38647 24.5547 2.52954 24.2119 2.52954C23.917 2.52954 23.6455 2.41553 23.4443 2.2312C23.2383 2.04126 23.1084 1.77686 23.1084 1.48511C23.1084 1.15991 23.2705 0.868652 23.5186 0.676758C23.71 0.529297 23.9521 0.440674 24.2119 0.440674C24.833 0.440674 25.3164 0.909668 25.3164 1.48511C25.3164 1.55518 25.3096 1.62354 25.2959 1.6897C25.2588 1.86743 25.1758 2.02881 25.0566 2.16162Z" fill="#34363E"/>
<path d="M25.1338 3.29663H23.3164V11.5669H25.1338V3.29663Z" fill="#34363E"/>
<path d="M14.8057 11.5671V6.68604C14.8057 5.23657 14.1152 4.70361 13.0801 4.70361C11.8613 4.70361 11.3555 5.51367 11.3555 7.17627V11.5671H9.53809V6.77124C9.53809 4.63965 10.7344 3.12622 13.1494 3.12622C14.2998 3.12622 15.1738 3.59521 15.7021 4.14941C16.2314 3.59521 17.1055 3.12622 18.2324 3.12622C20.6709 3.12622 21.8672 4.63965 21.8672 6.77124V11.5671H20.0498V7.17627C20.0498 5.51367 19.5439 4.70361 18.3242 4.70361C17.29 4.70361 16.5996 5.23657 16.5996 6.68604V11.5671H14.8057Z" fill="#34363E"/>
<path fill-rule="evenodd" clip-rule="evenodd" d="M2.47656 0.568848H0.682617V6.40942C0.682617 6.96973 0.689453 7.62329 0.764648 8.24341C0.823242 8.73218 0.924805 9.2002 1.09668 9.58545C1.71777 11.0349 2.89062 11.7383 4.43164 11.7383C7.03125 11.7383 8.3418 10.2673 8.3418 7.47485C8.3418 4.44824 6.63965 3.12671 4.57031 3.12671C3.81543 3.12671 3.20117 3.40845 2.81934 3.64722C2.66504 3.74341 2.54883 3.83276 2.47656 3.89404V0.568848ZM2.5459 7.38989C2.5459 5.62061 3.46582 4.68286 4.59277 4.68286C5.69727 4.68286 6.57129 5.55664 6.57129 7.51782C6.57129 9.43604 5.71973 10.2673 4.54688 10.2673C3.41992 10.2673 2.5459 9.35083 2.5459 7.38989Z" fill="#34363E"/>
</svg>
