<svg width="102" height="16" viewBox="0 0 102 16" fill="none" xmlns="http://www.w3.org/2000/svg">
<path d="M0 15.5975L3.5988 0H9.92573L10.216 8.70293L14.5113 0H20.8382L17.2975 15.5975H12.6539L14.5693 7.23361L10.274 15.5975H6.96542L6.79129 7.23361L4.70166 15.5975H0Z" fill="#3B3D46"/>
<path d="M21.4186 2.54306H25.6559L26.2364 0H21.941L21.4186 2.54306Z" fill="#3B3D46"/>
<path d="M18.4004 15.5976H22.6958L25.3658 4.069H21.0124L18.4004 15.5976Z" fill="#3B3D46"/>
<path fill-rule="evenodd" clip-rule="evenodd" d="M39.0645 4.0688H42.8955L42.5472 5.48161C43.0696 4.85998 43.7081 4.46439 44.5207 4.18182C45.1592 3.95577 45.7977 3.84275 46.5523 3.84275L45.8583 6.4661C47.2449 4.69757 49.4898 3.43027 52.4147 3.56055C56.4778 3.73009 57.987 6.72526 57.5226 9.66391C57.4646 10.1725 57.4065 10.2856 57.2324 10.2856L53.2273 11.6419H61.2956C61.2956 11.6419 60.599 13.3937 63.153 13.3937C64.8944 13.3937 65.5909 11.4723 63.2111 11.0202C62.1082 10.8507 57.929 10.1725 58.3933 7.00782C58.7996 4.40824 61.5278 3.50404 64.5461 3.56055C69.9119 3.60984 69.7153 6.32386 69.6542 7.16731C69.6453 7.29103 69.6392 7.3745 69.6541 7.40341H65.5329C65.5329 7.40341 65.9972 5.93408 64.1398 5.93408C62.4565 5.93408 62.0502 7.40341 63.9657 7.799C64.2526 7.86033 64.5447 7.91591 64.8367 7.97149C66.9663 8.37678 69.0946 8.78182 69.2478 11.4158C69.3058 12.2635 68.7834 16.1629 62.5726 15.9933C56.8841 15.8803 56.4778 13.2807 56.652 12.0374C55.6071 14.1849 52.9951 16.0498 49.5704 15.9368C44.3247 15.7654 43.2216 11.1035 45.1472 7.54959C44.2344 7.54363 42.1337 7.87909 41.3863 11.4719L40.3995 15.5974H36.3364L39.0645 4.0688ZM52.0664 6.27316C49.2222 5.70803 47.0745 12.433 49.8026 12.9981C52.821 13.6198 54.8526 6.83828 52.0664 6.27316Z" fill="#3B3D46"/>
<path d="M29.487 15.8799C35.4657 16.0494 36.8007 11.4154 36.8007 11.3023V11.2458H32.2732C32.2594 11.2659 32.2383 11.3051 32.2095 11.3585C31.9958 11.7551 31.3602 12.9345 30.1835 12.8847C27.2813 12.8282 29.1968 6.44227 31.8088 6.38576C33.2599 6.38576 33.0858 8.08113 33.0278 8.25067H37.4972C37.4972 8.24549 37.4975 8.23655 37.4979 8.22408C37.5099 7.82902 37.6295 3.89229 32.6214 3.67315C23.5664 3.22105 21.4768 15.7103 29.487 15.8799Z" fill="#3B3D46"/>
<path fill-rule="evenodd" clip-rule="evenodd" d="M77.8967 3.61688C68.9577 3.22129 66.4037 15.6541 75.0525 15.9931C81.1214 16.2264 84.1418 10.47 82.7156 6.72499H84.9201L82.9466 15.5975H87.1839L89.1574 6.72499H91.5373L90.2022 12.5458C89.854 14.0716 90.4344 14.8063 90.9568 15.1454C92.1177 15.9365 95.5424 15.541 95.5424 15.541L96.1809 12.8849C96.1809 12.8849 94.4976 13.0544 94.3235 12.6023C94.2326 12.337 94.2839 12.1409 94.3383 11.9328C94.3535 11.875 94.3689 11.816 94.3815 11.7546L95.4844 6.66848H97.5159L98.0964 4.01239H96.0648L96.7033 1.24328H92.7562L92.1177 4.01239H89.6218L89.6798 3.6168C89.912 2.76912 90.1442 2.31702 91.3051 2.31702L91.8275 0.16954C91.8275 0.16954 88.4609 -0.226049 87.1839 0.791177C86.1971 1.58235 85.9069 2.59958 85.5006 4.06891H83.3529L82.7149 6.72307C82.0673 5.02463 80.5047 3.74031 77.8967 3.61688ZM77.6065 6.32948C74.7042 5.76436 72.5565 12.4894 75.3427 13.0545C78.3611 13.6761 80.3926 6.8381 77.6065 6.32948Z" fill="#3B3D46"/>
<path fill-rule="evenodd" clip-rule="evenodd" d="M101.057 6.32917L100.767 5.70753C100.825 5.70753 101.173 5.70753 101.173 5.25543C101.173 4.85984 100.767 4.74682 100.767 4.74682H100.012L99.7798 6.32917H100.128L100.244 5.70753H100.476L100.709 6.32917H101.057ZM100.418 4.97287H100.709C100.709 4.97287 100.941 4.97287 100.999 5.25543C100.941 5.53799 100.65 5.48148 100.65 5.48148H100.36L100.418 4.97287Z" fill="#3B3D46"/>
<path fill-rule="evenodd" clip-rule="evenodd" d="M100.476 4.01216C102.508 4.01216 102.508 7.00732 100.476 7.00732C98.4447 7.00732 98.4447 4.01216 100.476 4.01216ZM100.476 4.29472C98.735 4.29472 98.735 6.72476 100.476 6.72476C102.218 6.72476 102.218 4.29472 100.476 4.29472Z" fill="#3B3D46"/>
</svg>
