<svg width="86" height="24" viewBox="0 0 86 24" fill="none" xmlns="http://www.w3.org/2000/svg">
<path fill-rule="evenodd" clip-rule="evenodd" d="M16.0332 5.57303C16.3769 1.59551 13.7993 0 10.9854 0V0.022472H3.57487C3.01639 0.022472 2.71567 0.337079 2.58679 1.19101L0.0306816 18.3596C-0.076718 19.1011 0.0951227 19.4382 0.589161 19.4382H3.68227C4.15483 19.4382 4.45555 19.1236 4.56295 18.4719L5.20734 14.1798C5.33622 13.3258 5.5725 12.9213 6.04506 12.9213H9.37445C13.1979 12.8989 15.6036 10.2921 16.0332 5.57303ZM8.47229 9.19101H5.93766L6.7539 3.77528L9.13817 3.75281C10.4484 3.75281 11.2647 4.65169 11.2002 5.93258C11.0928 7.97753 10.0403 9.1236 8.47229 9.19101Z" fill="#3B3D46"/>
<path fill-rule="evenodd" clip-rule="evenodd" d="M24.9904 18.0225C25.0333 17.6854 24.7326 17.8202 24.4534 18.0899C23.3364 19.1461 22.3698 19.8202 20.1574 19.8202C17.1502 19.8202 14.8518 17.191 15.0881 13.8427C15.4103 9.52809 18.2671 6.1573 22.5202 6.08989C24.346 6.04494 25.6562 6.60674 26.1718 7.88764C26.3221 8.24719 26.4725 8.17978 26.5369 7.82023L26.6443 7.1236C26.7088 6.67416 26.8376 6.51685 27.1169 6.51685H30.1455C30.5537 6.51685 30.6825 6.78652 30.5966 7.34831L28.8997 18.4944C28.7923 19.236 28.5775 19.4382 28.1049 19.4382H25.3555C24.9904 19.4382 24.84 19.2135 24.883 18.809L24.9904 18.0225ZM19.2982 12.9888C19.0404 14.8539 20.3077 16.382 22.1335 16.382C23.9593 16.382 25.6777 14.8539 25.9355 12.9888C26.1932 11.1236 24.9259 9.59551 23.1001 9.59551C21.2743 9.59551 19.5559 11.1236 19.2982 12.9888Z" fill="#3B3D46"/>
<path d="M33.1957 6.49438H35.9881C36.5251 6.49438 36.8258 6.69663 36.9117 7.14607L38.8879 13.9101L43.3342 7.16854C43.6349 6.7191 43.8282 6.51685 44.3438 6.51685H47.308C47.845 6.51685 47.9954 7.03371 47.6732 7.52809L37.0191 23.5281C36.7828 23.8652 36.568 24 36.0955 24H32.9594C32.5513 24 32.3365 23.618 32.6157 23.191L36.031 18.1348L32.5728 7.50562C32.3795 6.94382 32.6157 6.49438 33.1957 6.49438Z" fill="#3B3D46"/>
<path fill-rule="evenodd" clip-rule="evenodd" d="M63.8476 5.57303C64.1913 1.59551 61.6137 0 58.7998 0V0.022472H51.3893C50.8308 0.022472 50.5301 0.337079 50.4012 1.19101L47.8451 18.3596C47.7377 19.1011 47.9095 19.4382 48.4035 19.4382H51.4967C51.9692 19.4382 52.2699 19.1236 52.3773 18.4719L53.0217 14.1798C53.1506 13.3258 53.3869 12.9213 53.8594 12.9213H57.1888C61.0123 12.8989 63.418 10.2921 63.8476 5.57303ZM56.2867 9.19101H53.752L54.5683 3.77528L56.9526 3.75281C58.2628 3.75281 59.0791 4.65169 59.0146 5.93258C58.9072 7.97753 57.8547 9.1236 56.2867 9.19101Z" fill="#3B3D46"/>
<path fill-rule="evenodd" clip-rule="evenodd" d="M72.8047 18.0225C72.8477 17.6854 72.547 17.8202 72.2677 18.0899C71.1723 19.1461 70.1842 19.8202 67.9932 19.8202C64.9861 19.8202 62.6877 17.191 62.924 13.8427C63.2247 9.52809 66.103 6.1573 70.3346 6.08989C72.1603 6.04494 73.4706 6.60674 73.9861 7.88764C74.1365 8.24719 74.2869 8.17978 74.3513 7.82023L74.4587 7.1236C74.5231 6.67416 74.652 6.51685 74.9313 6.51685H77.9599C78.368 6.51685 78.4969 6.78652 78.411 7.34831L76.7141 18.4944C76.6067 19.236 76.3919 19.4382 75.9193 19.4382H73.1699C72.8047 19.4382 72.6544 19.2135 72.6973 18.809L72.8047 18.0225ZM67.134 12.9888C66.8763 14.8539 68.1436 16.382 69.9694 16.382C71.7952 16.382 73.5136 14.8539 73.7713 12.9888C74.0291 11.1236 72.7618 9.59551 70.936 9.59551C69.1102 9.59551 67.3918 11.1236 67.134 12.9888Z" fill="#3B3D46"/>
<path d="M79.485 19.4607H82.664C82.9218 19.4607 83.1581 19.2584 83.201 19.0112L85.9934 0.494382C86.0364 0.247191 85.8645 0.0449436 85.6068 0.0449436H82.4277C82.17 0.0449436 81.9337 0.247191 81.8908 0.494382L79.0984 19.0112C79.0554 19.2584 79.2272 19.4607 79.485 19.4607Z" fill="#3B3D46"/>
</svg>
