<?xml version="1.0" encoding="utf-8"?>
<!-- Generator: Adobe Illustrator 19.2.1, SVG Export Plug-In . SVG Version: 6.00 Build 0)  -->
<svg version="1.1" id="Dribbble" xmlns="http://www.w3.org/2000/svg" xmlns:xlink="http://www.w3.org/1999/xlink" x="0px" y="0px"
	 viewBox="0 0 50 50" style="enable-background:new 0 0 50 50;" xml:space="preserve">
<style type="text/css">
	.st0{fill:#798095;}
</style>
<g>
	<path class="st0" d="M25,2c12.7,0,23,10.3,23,23S37.7,48,25,48S2,37.7,2,25S12.3,2,25,2 M25,0C11.2,0,0,11.2,0,25s11.2,25,25,25
		s25-11.2,25-25S38.8,0,25,0L25,0z"/>
</g>
<path class="st0" d="M38.7,17.1c-1.4-2.4-3.3-4.3-5.7-5.7c-2.4-1.4-5.1-2.1-7.9-2.1c-2.9,0-5.5,0.7-7.9,2.1
	c-2.4,1.4-4.3,3.3-5.7,5.7c-1.4,2.4-2.1,5.1-2.1,7.9c0,2.9,0.7,5.5,2.1,7.9c1.4,2.4,3.3,4.3,5.7,5.7c2.4,1.4,5.1,2.1,7.9,2.1
	s5.5-0.7,7.9-2.1c2.4-1.4,4.3-3.3,5.7-5.7c1.4-2.4,2.1-5.1,2.1-7.9C40.8,22.1,40.1,19.5,38.7,17.1z M25,11.5c3.4,0,6.4,1.1,8.9,3.4
	l-0.3,0.4c-0.1,0.1-0.4,0.4-0.8,0.8c-0.4,0.4-0.9,0.8-1.3,1.2c-0.5,0.4-1.1,0.8-2,1.3c-0.8,0.5-1.7,0.9-2.7,1.2
	c-1.6-2.9-3.3-5.5-5.1-7.8C22.9,11.7,24,11.5,25,11.5z M14.4,16.6c1.3-1.7,2.9-2.9,4.8-3.8c1.7,2.3,3.4,4.8,5,7.8
	c-4.2,1.1-8.3,1.6-12.4,1.6C12.3,20.2,13.1,18.3,14.4,16.6z M12.4,29.9c-0.6-1.5-0.9-3.2-0.9-4.9c0-0.2,0-0.3,0-0.4
	c5,0,9.6-0.6,13.8-1.9c0.4,0.8,0.8,1.6,1.1,2.3c-0.1,0-0.1,0.1-0.3,0.1c-0.1,0-0.2,0.1-0.3,0.1l-0.8,0.3c-0.5,0.2-1.2,0.5-2,1
	c-0.8,0.5-1.7,1-2.7,1.7c-0.9,0.6-1.9,1.5-2.9,2.6c-1,1.1-1.9,2.2-2.5,3.4C13.9,32.8,13,31.4,12.4,29.9z M25,38.5
	c-3.2,0-6.1-1-8.6-3.1l0.3,0.2c0.5-1.1,1.2-2.1,2.1-3c0.9-1,1.8-1.8,2.7-2.4c0.9-0.6,1.8-1.2,2.8-1.7c1-0.5,1.7-0.9,2.1-1
	c0.4-0.1,0.7-0.3,0.9-0.3l0,0h0c1.3,3.5,2.3,6.9,2.9,10.2C28.6,38.1,26.8,38.5,25,38.5z M36.3,32.3c-1,1.6-2.3,2.9-3.8,3.9
	c-0.6-3.1-1.4-6.4-2.6-9.6c2.7-0.4,5.5-0.2,8.4,0.6C38,29,37.4,30.7,36.3,32.3z M38.3,24.8c-0.1,0-0.3-0.1-0.5-0.1
	c-0.2,0-0.5-0.1-0.7-0.1c-0.3,0-0.6-0.1-1-0.1c-0.4,0-0.7-0.1-1.2-0.1c-0.4,0-0.8-0.1-1.3-0.1c-0.5,0-0.9,0-1.4,0c-0.5,0-1,0-1.5,0
	c-0.5,0-1,0.1-1.5,0.1c0-0.1-0.1-0.2-0.2-0.3c-0.1-0.2-0.1-0.3-0.1-0.4c-0.3-0.6-0.6-1.2-0.9-2c0.9-0.4,1.8-0.8,2.7-1.3
	c0.9-0.5,1.5-0.9,2.1-1.3c0.5-0.4,1-0.8,1.5-1.2c0.5-0.4,0.8-0.7,0.9-0.9c0.1-0.2,0.3-0.3,0.4-0.5l0,0c2,2.4,3,5.2,3.1,8.4
	L38.3,24.8z"/>
</svg>
