<?xml version="1.0" encoding="utf-8"?>
<!-- Generator: Adobe Illustrator 19.2.1, SVG Export Plug-In . SVG Version: 6.00 Build 0)  -->
<svg version="1.1" id="Layer_1" xmlns="http://www.w3.org/2000/svg" xmlns:xlink="http://www.w3.org/1999/xlink" x="0px" y="0px"
	 viewBox="0 0 104 70" style="enable-background:new 0 0 104 70;" xml:space="preserve">
<polygon points="16,10 16,6 0,6 0,70 16,70 16,66 4,66 4,10 "/>
<circle cx="29" cy="9" r="3"/>
<circle cx="37" cy="9" r="3"/>
<circle cx="45" cy="9" r="3"/>
<rect x="4" y="16" width="12" height="4"/>
<circle cx="7" cy="13" r="1"/>
<circle cx="11" cy="13" r="1"/>
<circle cx="15" cy="13" r="1"/>
<polygon points="88,10 88,6 104,6 104,70 88,70 88,66 100,66 100,10 "/>
<rect x="88" y="16" transform="matrix(-1 -4.486867e-11 4.486867e-11 -1 188 36)" width="12" height="4"/>
<g>
	<polygon points="24,2 22,2 82,2 	"/>
	<path d="M84,0H20l0,70h64V0L84,0z M24,14V4h56v10H24L24,14z M24,66V18h56v48H24L24,66z"/>
</g>
</svg>
