<svg width="26" height="26" viewBox="0 0 26 26" fill="none" xmlns="http://www.w3.org/2000/svg">
<path d="M16.3572 11.6519L15.3262 12.0559C15.157 12.1221 15.0713 12.3194 15.1346 12.4963C15.198 12.6733 15.3866 12.763 15.5556 12.6968L16.5866 12.2928C16.7474 12.2297 16.9219 12.236 17.0782 12.3105C17.2345 12.3848 17.3537 12.5185 17.4139 12.6867C17.4631 12.8241 17.5877 12.909 17.7202 12.909C17.7583 12.909 17.797 12.902 17.8349 12.8872C18.004 12.8209 18.0897 12.6237 18.0265 12.4467C17.905 12.1073 17.6644 11.8377 17.3492 11.6875C17.0338 11.5374 16.6816 11.5248 16.3572 11.6519Z" fill="#34363E"/>
<path d="M9.47271 12.2926L10.5037 12.6966C10.6729 12.7628 10.8613 12.6732 10.9247 12.4961C10.988 12.3191 10.9023 12.1219 10.7331 12.0557L9.70208 11.6517C9.03244 11.3893 8.28369 11.7458 8.03281 12.4465C7.96949 12.6235 8.05526 12.8207 8.22441 12.887C8.26219 12.9018 8.30094 12.9088 8.33908 12.9088C8.47153 12.9088 8.59617 12.824 8.64539 12.6865C8.76966 12.3392 9.14073 12.1625 9.47271 12.2926Z" fill="#34363E"/>
<path d="M10.4865 15.2067C10.841 15.2067 11.1284 14.906 11.1284 14.535C11.1284 14.4885 11.1239 14.4431 11.1153 14.3992H11.1779C11.3585 14.3992 11.5049 14.246 11.5049 14.057C11.5049 13.8681 11.3585 13.7148 11.1779 13.7148H9.11463C8.93403 13.7148 8.7876 13.8681 8.7876 14.057C8.7876 14.246 8.93403 14.3992 9.11463 14.3992H9.85774C9.84915 14.4431 9.84462 14.4885 9.84462 14.535C9.84458 14.906 10.132 15.2067 10.4865 15.2067Z" fill="#34363E"/>
<path d="M11.4354 17.0701L11.5137 16.9215C11.5551 16.8427 11.6233 16.7856 11.7057 16.7607C11.7882 16.7356 11.875 16.7457 11.9502 16.7891L12.2058 16.9363C12.364 17.0275 12.5629 16.9672 12.65 16.8016C12.7371 16.6361 12.6795 16.428 12.5212 16.3368L12.2656 16.1896C12.0374 16.058 11.7739 16.0274 11.5236 16.1033C11.2734 16.1793 11.0663 16.3526 10.9407 16.5914L10.8625 16.74C10.8211 16.8187 10.7528 16.8758 10.6704 16.9008C10.588 16.9259 10.5011 16.9158 10.426 16.8724C10.2678 16.7813 10.0689 16.8415 9.98178 17.0071C9.89466 17.1727 9.9523 17.3808 10.1105 17.4719C10.2567 17.5561 10.4172 17.599 10.5796 17.599C10.6708 17.599 10.7625 17.5854 10.8525 17.5582C11.1028 17.4822 11.3098 17.3089 11.4354 17.0701Z" fill="#34363E"/>
<path d="M15.5743 16.8723C15.419 16.9617 15.2231 16.9023 15.1377 16.7399L15.0595 16.5912C14.8001 16.0982 14.2057 15.9179 13.7345 16.1894L13.4789 16.3367C13.3207 16.4278 13.2631 16.6359 13.3502 16.8015C13.4373 16.967 13.6362 17.0274 13.7944 16.9361L14.05 16.7889C14.2052 16.6994 14.4011 16.7589 14.4866 16.9213L14.5648 17.0699C14.7423 17.4073 15.0766 17.5982 15.4209 17.5982C15.5799 17.5982 15.7409 17.5575 15.8897 17.4718C16.0479 17.3806 16.1056 17.1725 16.0185 17.007C15.9314 16.8414 15.7326 16.7811 15.5743 16.8723Z" fill="#34363E"/>
<path d="M14.6618 17.7315C14.0966 17.3675 13.3942 17.3675 12.8289 17.7315C12.4751 17.9593 12.0355 17.9593 11.6816 17.7314C11.5277 17.6324 11.3263 17.6826 11.2317 17.8435C11.137 18.0045 11.1849 18.2152 11.3388 18.3143C11.6214 18.4963 11.9383 18.5874 12.2553 18.5874C12.5722 18.5874 12.8891 18.4964 13.1717 18.3144C13.5256 18.0865 13.9652 18.0866 14.3191 18.3144C14.473 18.4134 14.6743 18.3632 14.769 18.2023C14.8637 18.0413 14.8157 17.8305 14.6618 17.7315Z" fill="#34363E"/>
<path d="M16.8858 13.7148H14.8226C14.642 13.7148 14.4956 13.8681 14.4956 14.057C14.4956 14.246 14.642 14.3992 14.8226 14.3992H15.7664C15.7578 14.4431 15.7533 14.4885 15.7533 14.535C15.7533 14.906 16.0407 15.2067 16.3952 15.2067C16.7498 15.2067 17.0372 14.906 17.0372 14.535C17.0372 14.4781 17.0297 14.4232 17.0169 14.3705C17.1322 14.3175 17.2129 14.1973 17.2129 14.0571C17.2129 13.8681 17.0664 13.7148 16.8858 13.7148Z" fill="#34363E"/>
<path d="M20.5596 12.5266V11.9102C20.5596 7.54849 17.1684 4 13 4C8.83159 4 5.44035 7.54849 5.44035 11.9102V12.5266C5.16573 12.8695 5 13.3109 5 13.7922C5 14.7708 5.68444 15.5849 6.57868 15.739C6.89468 17.187 7.99985 18.8525 9.87736 20.7045C10.753 21.5682 11.8764 22 13.0002 22C14.1237 22 15.2476 21.5681 16.1231 20.7045C18.0006 18.8524 19.1058 17.1869 19.4218 15.7389C20.3158 15.5846 21 14.7706 21 13.7922C21 13.3109 20.8342 12.8695 20.5596 12.5266ZM6.48327 14.8983C6.48327 14.9356 6.48454 14.9733 6.48572 15.011C6.0024 14.8368 5.65407 14.3564 5.65407 13.7922C5.65407 13.1478 6.10832 12.6124 6.69932 12.518C6.55648 13.3003 6.48327 14.0975 6.48327 14.8983ZM15.6744 20.2065C14.1749 21.6857 11.8256 21.6857 10.326 20.2065C8.23998 18.1488 7.13734 16.3133 7.13734 14.8971C7.13734 12.8297 7.65136 10.7857 8.6238 8.98612L8.67416 8.89287C8.84839 8.57043 9.16381 8.36318 9.51787 8.3385C9.54244 8.33679 9.56684 8.33594 9.59109 8.33594C9.916 8.33594 10.2108 8.48851 10.4088 8.76236L10.4189 8.77643C11.0238 9.62637 11.9887 10.1338 12.9999 10.1338C14.0115 10.1338 14.9762 9.62655 15.5807 8.77686L15.5912 8.7621C15.8035 8.46841 16.1283 8.31391 16.4817 8.33872C16.8358 8.36336 17.1512 8.57056 17.3256 8.893L17.3755 8.98539C18.3487 10.7855 18.863 12.8301 18.863 14.8982C18.8631 16.3132 17.7604 18.1488 15.6744 20.2065ZM17.9449 8.64845C17.9449 8.64845 17.9449 8.64841 17.9449 8.64845L17.8949 8.55601C17.6118 8.03236 17.0997 7.69585 16.5252 7.65586C15.9563 7.61672 15.4122 7.87551 15.0693 8.34975L15.0561 8.36823C14.5673 9.05533 13.8178 9.44946 13 9.44946C12.1824 9.44946 11.4328 9.0552 10.9433 8.36729L10.93 8.34881C10.5874 7.87508 10.0431 7.61603 9.47437 7.65564C8.89981 7.69572 8.38784 8.03232 8.10483 8.55606L8.05447 8.64931C7.51572 9.64631 7.11032 10.7144 6.84628 11.8198C6.57827 11.8257 6.32396 11.8901 6.09442 12.0017V11.9102C6.09442 7.92589 9.19227 4.6844 13 4.6844C16.8078 4.6844 19.9056 7.92589 19.9056 11.9102V12.0016C19.6761 11.8901 19.4218 11.8257 19.1539 11.8198C18.8897 10.7141 18.484 9.64575 17.9449 8.64845ZM19.5147 15.0109C19.5159 14.9732 19.5171 14.9356 19.5171 14.8983C19.5171 14.0977 19.4439 13.3005 19.3009 12.518C19.8918 12.6125 20.3459 13.1479 20.3459 13.7922C20.3459 14.3562 19.9978 14.8364 19.5147 15.0109Z" fill="#34363E"/>
</svg>
