<svg width="26" height="26" viewBox="0 0 26 26" fill="none" xmlns="http://www.w3.org/2000/svg">
<path d="M19 15.6953V14.9922C18.4117 14.9922 18.1323 14.8207 17.8088 14.6222C17.4469 14.4002 17.0367 14.1484 16.25 14.1484C15.4632 14.1484 15.053 14.4002 14.691 14.6222C14.3676 14.8207 14.0882 14.9922 13.4999 14.9922C12.9117 14.9922 12.6323 14.8207 12.3089 14.6222C12.079 14.4812 11.8295 14.3283 11.4766 14.2354V12.9058L12.6393 11.8516H7.61066L8.77345 12.9058V18.2969H7V19H19V18.2969H18.3516V15.6275C18.5365 15.6696 18.7491 15.6953 19 15.6953ZM12.8516 17.5H12.1484V16.5H12.8516V17.5ZM14.2682 17.5H13.5651V16.5H14.2682V17.5ZM15.6849 17.5H14.9818V16.5H15.6849V17.5ZM17.1016 17.5H16.3984V16.5H17.1016V17.5Z" fill="#34363E"/>
<path d="M11.4766 9.28178V7.79688H10.4766V7H9.77343V7.79688H8.77345V9.28178H7V9.98491H7.52343V11.1484H12.7266V9.98491H13.25V9.28178H11.4766Z" fill="#34363E"/>
<path d="M16.9355 11.4069L16.7771 11.7242H16.0162L16.4107 10.9018L15.7768 10.5977L15.2363 11.7242H14.25V12.4273H17.2119L17.5646 11.721L16.9355 11.4069Z" fill="#34363E"/>
</svg>
