<svg width="26" height="26" viewBox="0 0 26 26" fill="none" xmlns="http://www.w3.org/2000/svg">
<path d="M16.8341 19.2799L16.494 17.7903L17.3506 14.5697C17.8802 12.5788 17.0063 10.5376 15.3439 9.52358L15.7715 7.91595C15.9495 7.24665 15.556 6.55683 14.8943 6.3782C14.2326 6.19958 13.5494 6.59879 13.3714 7.2681L12.9438 8.87576C11.0009 8.91661 9.23095 10.2441 8.70141 12.235L7.84479 15.4556L6.81097 16.5743C6.61188 16.7897 6.54074 17.0873 6.62062 17.3704C6.70054 17.6534 6.91619 17.8678 7.19753 17.9437L9.92481 18.6799C9.74705 19.5354 10.2609 20.3937 11.1058 20.6218C11.9506 20.8498 12.8217 20.3654 13.0924 19.5349L15.8197 20.2711C16.101 20.3471 16.3941 20.2701 16.6039 20.0652C16.8135 19.8603 16.8996 19.5667 16.8341 19.2799ZM14.0064 7.43949C14.0902 7.1243 14.4119 6.93634 14.7235 7.02044C15.035 7.10454 15.2203 7.42935 15.1365 7.74454L14.7446 9.21809C14.5661 9.14362 14.3809 9.07991 14.1894 9.02823C13.9979 8.97653 13.8059 8.93846 13.6145 8.91304L14.0064 7.43949ZM9.33641 12.4064C9.88373 10.3486 11.9842 9.12125 14.0187 9.67042C16.0531 10.2196 17.263 12.3405 16.7157 14.3983L15.9297 17.3532L8.55046 15.3613L9.33641 12.4064ZM11.2766 19.9796C10.7821 19.8461 10.4767 19.3524 10.5615 18.8518L12.4558 19.3631C12.2807 19.8394 11.7711 20.113 11.2766 19.9796ZM16.1473 19.5877C16.1272 19.6074 16.0716 19.6508 15.9905 19.6289L7.36835 17.3015C7.28727 17.2796 7.26065 17.214 7.253 17.1868C7.2453 17.1596 7.23366 17.0897 7.29107 17.0276L8.26582 15.9728L15.8728 18.0262L16.1934 19.4306C16.2122 19.5133 16.1674 19.568 16.1473 19.5877Z" fill="#34363E"/>
<path fill-rule="evenodd" clip-rule="evenodd" d="M9.95207 8.34936C10.082 8.59304 9.98973 8.89589 9.74605 9.02579C9.01504 9.41548 8.46712 9.92067 8.14686 10.4736C8.00847 10.7126 7.70256 10.7941 7.4636 10.6557C7.22464 10.5173 7.14313 10.2114 7.28152 9.97243C7.7149 9.22417 8.41835 8.60035 9.27564 8.14335C9.51932 8.01345 9.82217 8.10568 9.95207 8.34936Z" fill="#34363E"/>
<path d="M13 10.4214C11.3769 10.4214 10.0564 11.7571 10.0564 13.3988C10.0564 13.5823 10.2036 13.7312 10.3851 13.7312C10.5666 13.7312 10.7138 13.5823 10.7138 13.3988C10.7138 12.1237 11.7394 11.0863 13 11.0863C13.1816 11.0863 13.3287 10.9374 13.3287 10.7538C13.3287 10.5702 13.1816 10.4214 13 10.4214Z" fill="#34363E"/>
</svg>
