<svg width="26" height="26" viewBox="0 0 26 26" fill="none" xmlns="http://www.w3.org/2000/svg">
<path d="M9.24621 16.1817C9.64094 16.1817 9.96093 15.8464 9.96093 15.4327C9.96093 15.019 9.64094 14.6836 9.24621 14.6836C8.85148 14.6836 8.53149 15.019 8.53149 15.4327C8.53149 15.8464 8.85148 16.1817 9.24621 16.1817Z" fill="#34363E"/>
<path d="M16.7535 16.1817C17.1483 16.1817 17.4683 15.8464 17.4683 15.4327C17.4683 15.019 17.1483 14.6836 16.7535 14.6836C16.3588 14.6836 16.0388 15.019 16.0388 15.4327C16.0388 15.8464 16.3588 16.1817 16.7535 16.1817Z" fill="#34363E"/>
<path d="M22 15.1147C22 14.0297 21.2496 13.1255 20.2642 12.9407V12.6133C20.2642 8.41531 17.0055 5 13 5C8.99452 5 5.73583 8.41531 5.73583 12.6133V12.9407C4.75044 13.1256 4 14.0297 4 15.1147C4 16.2091 4.76336 17.1197 5.76126 17.2935C5.90172 18.9709 6.63397 20.2099 7.94439 20.981C9.10976 21.6667 10.7634 22 13 22C15.2366 22 16.8903 21.6667 18.0557 20.981C19.366 20.2099 20.0983 18.971 20.2387 17.2935C21.2366 17.1197 22 16.2091 22 15.1147ZM4.74411 15.1147C4.74411 14.4618 5.16416 13.9102 5.73578 13.74V16.4895C5.16416 16.3193 4.74411 15.7677 4.74411 15.1147ZM19.5201 16.6798C19.5201 18.3924 18.9219 19.5769 17.6914 20.3009C16.6402 20.9195 15.1056 21.2201 13 21.2201C10.8944 21.2201 9.35983 20.9195 8.30868 20.3009C7.07811 19.5769 6.47994 18.3924 6.47994 16.6798V12.6133C6.47994 9.52751 8.44183 6.91337 11.1268 6.06775C13.1723 6.09485 14.2617 7.64241 14.2617 8.76299C14.2617 9.62124 13.5955 10.3195 12.7766 10.3195C12.1625 10.3195 11.6629 9.79589 11.6629 9.1523C11.6629 8.68042 12.0291 8.29648 12.4794 8.29648C12.6849 8.29648 12.8515 8.12189 12.8515 7.90654C12.8515 7.6912 12.6849 7.51661 12.4794 7.51661C11.6189 7.51661 10.9187 8.25037 10.9187 9.1523C10.9187 10.2259 11.7521 11.0994 12.7766 11.0994C14.0058 11.0994 15.0058 10.0513 15.0058 8.76299C15.0058 7.95363 14.6178 7.08285 13.9679 6.4336C13.708 6.17391 13.4122 5.95559 13.0894 5.78109C16.6435 5.83149 19.5201 8.87671 19.5201 12.6133V16.6798ZM20.2642 16.4896V13.74C20.8358 13.9102 21.2559 14.4619 21.2559 15.1148C21.2559 15.7677 20.8358 16.3193 20.2642 16.4896Z" fill="#34363E"/>
<path d="M14.4387 16.5063C13.6454 17.3379 12.3543 17.3379 11.5609 16.5063C11.4156 16.354 11.1801 16.354 11.0347 16.5063C10.8895 16.6586 10.8895 16.9055 11.0347 17.0578C11.5765 17.6256 12.2882 17.9095 12.9999 17.9095C13.7115 17.9095 14.4232 17.6256 14.965 17.0578C15.1102 16.9055 15.1102 16.6586 14.965 16.5063C14.8196 16.354 14.5841 16.354 14.4387 16.5063Z" fill="#34363E"/>
</svg>
