<svg width="26" height="26" viewBox="0 0 26 26" fill="none" xmlns="http://www.w3.org/2000/svg">
<path fill-rule="evenodd" clip-rule="evenodd" d="M6.86366 6.95459C6.23606 6.95459 5.72729 7.46335 5.72729 8.09093V21.9998C5.72729 22.276 5.50344 22.4998 5.22729 22.4998C4.95115 22.4998 4.72729 22.276 4.72729 21.9998V8.09093C4.72729 6.91106 5.68378 5.95459 6.86366 5.95459H10.9546C11.2307 5.95459 11.4546 6.17845 11.4546 6.45459V21.9998C11.4546 22.276 11.2307 22.4998 10.9546 22.4998C10.6784 22.4998 10.4546 22.276 10.4546 21.9998V6.95459H6.86366Z" fill="#34363E"/>
<path fill-rule="evenodd" clip-rule="evenodd" d="M6.36377 8.5C6.36377 8.22386 6.58763 8 6.86377 8H9.31832C9.59446 8 9.81832 8.22386 9.81832 8.5C9.81832 8.77614 9.59446 9 9.31832 9H6.86377C6.58763 9 6.36377 8.77614 6.36377 8.5Z" fill="#34363E"/>
<path fill-rule="evenodd" clip-rule="evenodd" d="M6.36377 10.1362C6.36377 9.86009 6.58763 9.63623 6.86377 9.63623H9.31832C9.59446 9.63623 9.81832 9.86009 9.81832 10.1362C9.81832 10.4124 9.59446 10.6362 9.31832 10.6362H6.86377C6.58763 10.6362 6.36377 10.4124 6.36377 10.1362Z" fill="#34363E"/>
<path fill-rule="evenodd" clip-rule="evenodd" d="M6.36377 11.7725C6.36377 11.4963 6.58763 11.2725 6.86377 11.2725H9.31832C9.59446 11.2725 9.81832 11.4963 9.81832 11.7725C9.81832 12.0486 9.59446 12.2725 9.31832 12.2725H6.86377C6.58763 12.2725 6.36377 12.0486 6.36377 11.7725Z" fill="#34363E"/>
<path fill-rule="evenodd" clip-rule="evenodd" d="M6.36377 13.4087C6.36377 13.1325 6.58763 12.9087 6.86377 12.9087H9.31832C9.59446 12.9087 9.81832 13.1325 9.81832 13.4087C9.81832 13.6848 9.59446 13.9087 9.31832 13.9087H6.86377C6.58763 13.9087 6.36377 13.6848 6.36377 13.4087Z" fill="#34363E"/>
<path fill-rule="evenodd" clip-rule="evenodd" d="M6.36377 15.0449C6.36377 14.7688 6.58763 14.5449 6.86377 14.5449H9.31832C9.59446 14.5449 9.81832 14.7688 9.81832 15.0449C9.81832 15.3211 9.59446 15.5449 9.31832 15.5449H6.86377C6.58763 15.5449 6.36377 15.3211 6.36377 15.0449Z" fill="#34363E"/>
<path fill-rule="evenodd" clip-rule="evenodd" d="M6.36377 16.6816C6.36377 16.4055 6.58763 16.1816 6.86377 16.1816H9.31832C9.59446 16.1816 9.81832 16.4055 9.81832 16.6816C9.81832 16.9578 9.59446 17.1816 9.31832 17.1816H6.86377C6.58763 17.1816 6.36377 16.9578 6.36377 16.6816Z" fill="#34363E"/>
<path fill-rule="evenodd" clip-rule="evenodd" d="M6.36377 18.3184C6.36377 18.0422 6.58763 17.8184 6.86377 17.8184H9.31832C9.59446 17.8184 9.81832 18.0422 9.81832 18.3184C9.81832 18.5945 9.59446 18.8184 9.31832 18.8184H6.86377C6.58763 18.8184 6.36377 18.5945 6.36377 18.3184Z" fill="#34363E"/>
<path fill-rule="evenodd" clip-rule="evenodd" d="M6.36377 19.9541C6.36377 19.678 6.58763 19.4541 6.86377 19.4541H9.31832C9.59446 19.4541 9.81832 19.678 9.81832 19.9541C9.81832 20.2302 9.59446 20.4541 9.31832 20.4541H6.86377C6.58763 20.4541 6.36377 20.2302 6.36377 19.9541Z" fill="#34363E"/>
<path fill-rule="evenodd" clip-rule="evenodd" d="M6.36377 4.81836C6.36377 4.54222 6.58763 4.31836 6.86377 4.31836H9.31832C9.59446 4.31836 9.81832 4.54222 9.81832 4.81836V6.4547C9.81832 6.73084 9.59446 6.9547 9.31832 6.9547C9.04217 6.9547 8.81832 6.73084 8.81832 6.4547V5.31836H7.36377V6.4547C7.36377 6.73084 7.1398 6.95459 6.86366 6.95459C6.58752 6.95459 6.36377 6.73084 6.36377 6.4547V4.81836Z" fill="#34363E"/>
<path fill-rule="evenodd" clip-rule="evenodd" d="M8.09082 3.5C8.36696 3.5 8.59082 3.72386 8.59082 4V4.81817C8.59082 5.09431 8.36696 5.31817 8.09082 5.31817C7.81468 5.31817 7.59082 5.09431 7.59082 4.81817V4C7.59082 3.72386 7.81468 3.5 8.09082 3.5Z" fill="#34363E"/>
<path fill-rule="evenodd" clip-rule="evenodd" d="M14.5454 6.45459C14.5454 6.17845 14.7693 5.95459 15.0454 5.95459H19.1363C20.3162 5.95459 21.2727 6.91106 21.2727 8.09093V21.9998C21.2727 22.276 21.0488 22.4998 20.7727 22.4998C20.4965 22.4998 20.2727 22.276 20.2727 21.9998V8.09093C20.2727 7.46335 19.7639 6.95459 19.1363 6.95459H15.5454V21.9998C15.5454 22.276 15.3216 22.4998 15.0454 22.4998C14.7693 22.4998 14.5454 22.276 14.5454 21.9998V6.45459Z" fill="#34363E"/>
<path fill-rule="evenodd" clip-rule="evenodd" d="M16.1819 8.5C16.1819 8.22386 16.4057 8 16.6819 8H19.1364C19.4126 8 19.6364 8.22386 19.6364 8.5C19.6364 8.77614 19.4126 9 19.1364 9H16.6819C16.4057 9 16.1819 8.77614 16.1819 8.5Z" fill="#34363E"/>
<path fill-rule="evenodd" clip-rule="evenodd" d="M16.1819 10.1362C16.1819 9.86009 16.4057 9.63623 16.6819 9.63623H19.1364C19.4126 9.63623 19.6364 9.86009 19.6364 10.1362C19.6364 10.4124 19.4126 10.6362 19.1364 10.6362H16.6819C16.4057 10.6362 16.1819 10.4124 16.1819 10.1362Z" fill="#34363E"/>
<path fill-rule="evenodd" clip-rule="evenodd" d="M16.1819 11.7725C16.1819 11.4963 16.4057 11.2725 16.6819 11.2725H19.1364C19.4126 11.2725 19.6364 11.4963 19.6364 11.7725C19.6364 12.0486 19.4126 12.2725 19.1364 12.2725H16.6819C16.4057 12.2725 16.1819 12.0486 16.1819 11.7725Z" fill="#34363E"/>
<path fill-rule="evenodd" clip-rule="evenodd" d="M16.1819 13.4087C16.1819 13.1325 16.4057 12.9087 16.6819 12.9087H19.1364C19.4126 12.9087 19.6364 13.1325 19.6364 13.4087C19.6364 13.6848 19.4126 13.9087 19.1364 13.9087H16.6819C16.4057 13.9087 16.1819 13.6848 16.1819 13.4087Z" fill="#34363E"/>
<path fill-rule="evenodd" clip-rule="evenodd" d="M16.1819 15.0449C16.1819 14.7688 16.4057 14.5449 16.6819 14.5449H19.1364C19.4126 14.5449 19.6364 14.7688 19.6364 15.0449C19.6364 15.3211 19.4126 15.5449 19.1364 15.5449H16.6819C16.4057 15.5449 16.1819 15.3211 16.1819 15.0449Z" fill="#34363E"/>
<path fill-rule="evenodd" clip-rule="evenodd" d="M16.1819 16.6816C16.1819 16.4055 16.4057 16.1816 16.6819 16.1816H19.1364C19.4126 16.1816 19.6364 16.4055 19.6364 16.6816C19.6364 16.9578 19.4126 17.1816 19.1364 17.1816H16.6819C16.4057 17.1816 16.1819 16.9578 16.1819 16.6816Z" fill="#34363E"/>
<path fill-rule="evenodd" clip-rule="evenodd" d="M16.1819 18.3184C16.1819 18.0422 16.4057 17.8184 16.6819 17.8184H19.1364C19.4126 17.8184 19.6364 18.0422 19.6364 18.3184C19.6364 18.5945 19.4126 18.8184 19.1364 18.8184H16.6819C16.4057 18.8184 16.1819 18.5945 16.1819 18.3184Z" fill="#34363E"/>
<path fill-rule="evenodd" clip-rule="evenodd" d="M16.1819 19.9541C16.1819 19.678 16.4057 19.4541 16.6819 19.4541H19.1364C19.4126 19.4541 19.6364 19.678 19.6364 19.9541C19.6364 20.2302 19.4126 20.4541 19.1364 20.4541H16.6819C16.4057 20.4541 16.1819 20.2302 16.1819 19.9541Z" fill="#34363E"/>
<path fill-rule="evenodd" clip-rule="evenodd" d="M16.1819 4.81836C16.1819 4.54222 16.4057 4.31836 16.6819 4.31836H19.1364C19.4126 4.31836 19.6364 4.54222 19.6364 4.81836V6.4547C19.6364 6.73084 19.4125 6.95459 19.1363 6.95459C18.8602 6.95459 18.6364 6.73084 18.6364 6.4547V5.31836H17.1819V6.4547C17.1819 6.73084 16.958 6.9547 16.6819 6.9547C16.4057 6.9547 16.1819 6.73084 16.1819 6.4547V4.81836Z" fill="#34363E"/>
<path fill-rule="evenodd" clip-rule="evenodd" d="M17.9092 3.5C18.1853 3.5 18.4092 3.72386 18.4092 4V4.81817C18.4092 5.09431 18.1853 5.31817 17.9092 5.31817C17.633 5.31817 17.4092 5.09431 17.4092 4.81817V4C17.4092 3.72386 17.633 3.5 17.9092 3.5Z" fill="#34363E"/>
<path fill-rule="evenodd" clip-rule="evenodd" d="M10.4546 8.5C10.4546 8.22386 10.6784 8 10.9546 8H15.0455C15.3216 8 15.5455 8.22386 15.5455 8.5C15.5455 8.77614 15.3216 9 15.0455 9H10.9546C10.6784 9 10.4546 8.77614 10.4546 8.5Z" fill="#34363E"/>
<path fill-rule="evenodd" clip-rule="evenodd" d="M10.4546 10.1362C10.4546 9.86009 10.6784 9.63623 10.9546 9.63623H15.0455C15.3216 9.63623 15.5455 9.86009 15.5455 10.1362C15.5455 10.4124 15.3216 10.6362 15.0455 10.6362H10.9546C10.6784 10.6362 10.4546 10.4124 10.4546 10.1362Z" fill="#34363E"/>
<path fill-rule="evenodd" clip-rule="evenodd" d="M13 11.8638C12.1465 11.8638 11.4546 12.5557 11.4546 13.4092C11.4546 13.6853 11.2307 13.9092 10.9546 13.9092C10.6784 13.9092 10.4546 13.6853 10.4546 13.4092C10.4546 12.0034 11.5942 10.8638 13 10.8638C14.4059 10.8638 15.5455 12.0034 15.5455 13.4092C15.5455 13.6853 15.3216 13.9092 15.0455 13.9092C14.7694 13.9092 14.5455 13.6853 14.5455 13.4092C14.5455 12.5557 13.8536 11.8638 13 11.8638Z" fill="#34363E"/>
<path fill-rule="evenodd" clip-rule="evenodd" d="M3.5 22C3.5 21.7239 3.72386 21.5 4 21.5H22C22.2761 21.5 22.5 21.7239 22.5 22C22.5 22.2761 22.2761 22.5 22 22.5H4C3.72386 22.5 3.5 22.2761 3.5 22Z" fill="#34363E"/>
</svg>
