<svg width="26" height="26" viewBox="0 0 26 26" fill="none" xmlns="http://www.w3.org/2000/svg">
<path d="M19.524 12.7422H18.9504C18.817 12.4433 18.6502 12.1583 18.4547 11.8948L19.5466 11.4128C19.7164 11.3379 19.826 11.1697 19.826 10.984C19.826 9.92869 18.9705 9.07018 17.919 9.07018H16.7866C16.0714 9.07018 15.4188 9.48031 15.0948 10.1016H14.2861C14.3542 9.80269 14.3904 9.49171 14.3904 9.17246C14.3904 6.87176 12.5204 5 10.222 5C7.92346 5 6.05354 6.87176 6.05354 9.17246C6.05354 10.294 6.498 11.3134 7.21975 12.0639C7.01081 12.3735 6.83984 12.7107 6.713 13.0688C6.32969 12.9853 6.01445 12.6823 5.92632 12.2876C5.86995 12.0349 5.61923 11.8756 5.36673 11.9322C5.11408 11.9886 4.95496 12.2391 5.01136 12.4918C5.10724 12.9214 5.34851 13.3115 5.69073 13.5901C5.9257 13.7813 6.2021 13.9143 6.49497 13.9807C6.47047 14.1699 6.45772 14.3627 6.45772 14.5585V14.9837C6.45772 16.6203 7.35925 18.1262 8.77848 18.9013V20.5312C8.77848 20.7901 8.98836 21 9.24723 21H11.152C11.4109 21 11.6207 20.7901 11.6207 20.5312V19.4406H14.2509V20.5312C14.2509 20.7901 14.4608 21 14.7196 21H16.6244C16.8833 21 17.0932 20.7901 17.0932 20.5312V18.8574C17.9882 18.3447 18.6799 17.5337 19.0456 16.5698H19.5241C20.3379 16.5698 21 15.9056 21 15.0892V14.2227C20.9999 13.4064 20.3378 12.7422 19.524 12.7422ZM6.991 9.17243C6.991 7.38864 8.44042 5.93751 10.222 5.93751C12.0035 5.93751 13.4528 7.3887 13.4528 9.17243C13.4528 10.9562 12.0035 12.4074 10.2219 12.4074C8.44039 12.4074 6.991 10.9562 6.991 9.17243ZM20.0624 15.0892C20.0624 15.3887 19.8209 15.6323 19.524 15.6323H18.7083C18.4996 15.6323 18.3161 15.7702 18.2581 15.9705C17.9816 16.924 17.3114 17.7198 16.4193 18.1538C16.2579 18.2322 16.1556 18.3959 16.1556 18.5753V20.0625H15.1883V18.9719C15.1883 18.713 14.9784 18.5031 14.7196 18.5031H11.1519C10.8931 18.5031 10.6832 18.713 10.6832 18.9719V20.0625H9.71591V18.6125C9.71591 18.4293 9.60926 18.2629 9.44285 18.1865C8.19893 17.615 7.39518 16.3578 7.39518 14.9837V14.5585C7.39518 13.8624 7.59728 13.2129 7.94552 12.666C8.60042 13.095 9.38254 13.3449 10.222 13.3449C11.8505 13.3449 13.2636 12.4051 13.9492 11.0391H15.4084C15.6159 11.0391 15.7986 10.9027 15.8577 10.7038C15.9795 10.2939 16.3614 10.0077 16.7865 10.0077H17.919C18.3545 10.0077 18.724 10.2985 18.8459 10.6974L17.4973 11.2927C17.3555 11.3553 17.2539 11.4839 17.2257 11.6362C17.1975 11.7886 17.2464 11.945 17.3564 12.0542C17.7277 12.4228 18.0168 12.8774 18.1924 13.3687C18.2591 13.5552 18.4357 13.6797 18.6338 13.6797H19.524C19.8209 13.6797 20.0624 13.9233 20.0624 14.2228V15.0892Z" fill="#34363E"/>
<path d="M10.5848 8.67281H9.85894C9.61119 8.67281 9.40966 8.47081 9.40966 8.22253C9.40966 7.97428 9.61119 7.77228 9.85894 7.77228H10.9337C10.9891 7.77228 11.0341 7.81762 11.0341 7.87337C11.0341 8.13225 11.244 8.34212 11.5029 8.34212C11.7618 8.34212 11.9716 8.13225 11.9716 7.87337C11.9716 7.30068 11.506 6.83477 10.9337 6.83477H10.6907V6.59961C10.6907 6.34074 10.4808 6.13086 10.2219 6.13086C9.96306 6.13086 9.75319 6.34074 9.75319 6.59961V6.83924C9.03779 6.89355 8.4722 7.49299 8.4722 8.22259C8.4722 8.98778 9.09429 9.61035 9.85897 9.61035H10.5849C10.8326 9.61035 11.0341 9.81235 11.0341 10.0606C11.0341 10.3089 10.8326 10.5109 10.5849 10.5109H9.51016C9.45475 10.5109 9.40966 10.4655 9.40966 10.4098C9.40966 10.1509 9.19982 9.94098 8.94091 9.94098C8.68204 9.94098 8.47217 10.1509 8.47217 10.4097C8.47217 10.9824 8.93779 11.4483 9.51016 11.4483H9.75316V11.7453C9.75316 12.0042 9.96303 12.2141 10.2219 12.2141C10.4808 12.2141 10.6906 12.0042 10.6906 11.7453V11.4439C11.406 11.3895 11.9716 10.7901 11.9716 10.0606C11.9716 9.29535 11.3495 8.67281 10.5848 8.67281Z" fill="#34363E"/>
<path d="M16.4646 13.356C16.7226 13.356 16.9317 13.1469 16.9317 12.8889C16.9317 12.631 16.7226 12.4219 16.4646 12.4219C16.2067 12.4219 15.9976 12.631 15.9976 12.8889C15.9976 13.1469 16.2067 13.356 16.4646 13.356Z" fill="#34363E"/>
</svg>
