<svg width="26" height="26" viewBox="0 0 26 26" fill="none" xmlns="http://www.w3.org/2000/svg">
<path d="M10.707 9.29297C10.3167 8.90234 9.68335 8.90234 9.29297 9.29297C8.90234 9.68359 8.90234 10.3164 9.29297 10.707L11.5859 13L9.29297 15.293C8.90234 15.6836 8.90234 16.3164 9.29297 16.707C9.68335 17.0977 10.3167 17.0977 10.707 16.707L13 14.4141L15.293 16.707C15.6833 17.0977 16.3167 17.0977 16.707 16.707C17.0977 16.3164 17.0977 15.6836 16.707 15.293L14.4141 13L16.707 10.707C17.0977 10.3164 17.0977 9.68359 16.707 9.29297C16.3167 8.90234 15.6833 8.90234 15.293 9.29297L13 11.5859L10.707 9.29297Z" fill="#34363E"/>
</svg>
