<svg width="26" height="26" viewBox="0 0 26 26" fill="none" xmlns="http://www.w3.org/2000/svg">
<path d="M9.25544 13.4564H10.9914V19.7742C10.9914 19.8989 11.1058 20 11.2469 20H14.1903C14.3314 20 14.4457 19.8989 14.4457 19.7742V13.4862H16.4414C16.5712 13.4862 16.6803 13.4001 16.6952 13.2861L16.9983 10.9602C17.0066 10.8963 16.9837 10.8322 16.9352 10.7842C16.8867 10.7361 16.8174 10.7086 16.7446 10.7086H14.4458V9.25062C14.4458 8.81111 14.7135 8.58824 15.2416 8.58824C15.3168 8.58824 16.7446 8.58824 16.7446 8.58824C16.8857 8.58824 17 8.48712 17 8.36243V6.22748C17 6.10274 16.8857 6.00167 16.7446 6.00167H14.6732C14.6586 6.00104 14.6262 6 14.5784 6C14.219 6 12.9697 6.06237 11.9829 6.86488C10.8896 7.7542 11.0415 8.81901 11.0779 9.00363V10.7086H9.25544C9.11433 10.7086 9 10.8096 9 10.9344V13.2305C9 13.3553 9.11433 13.4564 9.25544 13.4564Z" fill="#34363E"/>
</svg>
