<svg width="24" height="16" viewBox="0 0 24 16" fill="none" xmlns="http://www.w3.org/2000/svg">
<path d="M23.2726 0.727295L10.5453 10.1818L10.1816 10.5455L18.1816 15.6364L23.2726 0.727295Z" fill="#23242A"/>
<path d="M9.81845 10.5455L8.72754 14.9091V15.2727L13.0912 12.3637L9.81845 10.5455Z" fill="white"/>
<path d="M23.9937 0.464658C23.9953 0.455055 23.9981 0.445453 23.9989 0.43585C24.0017 0.406242 23.9985 0.376234 23.9949 0.346226C23.9941 0.338624 23.9953 0.331422 23.9941 0.32382C23.9869 0.28421 23.9738 0.2454 23.9542 0.20819C23.951 0.201788 23.9466 0.195786 23.943 0.189385C23.9422 0.188584 23.9422 0.187384 23.9418 0.186184C23.9414 0.185383 23.9402 0.184983 23.9398 0.183783C23.937 0.179382 23.9346 0.174581 23.9318 0.17058C23.907 0.13417 23.8771 0.104162 23.8435 0.0785549C23.8359 0.0729534 23.8271 0.0697526 23.8191 0.0645512C23.7896 0.044946 23.7584 0.0289416 23.7248 0.0181387C23.71 0.0133375 23.6952 0.010937 23.6801 0.00813623C23.6509 0.00213463 23.6217 -0.000666297 23.5914 0.000133917C23.5754 0.000534023 23.5602 0.00133417 23.5442 0.00373481C23.5338 0.00533523 23.5238 0.00373501 23.5134 0.00613565L0.318827 4.80582C0.153796 4.84022 0.0275257 4.97426 0.00394993 5.14151C-0.0196259 5.30875 0.0638884 5.47279 0.212936 5.55161L6.85892 9.06175L8.02452 15.5383C8.02372 15.5431 8.02492 15.5483 8.02452 15.5531C8.02053 15.5851 8.02013 15.6163 8.02412 15.6479C8.02612 15.6639 8.02812 15.6791 8.03211 15.6947C8.0413 15.7327 8.05609 15.7683 8.07607 15.8019C8.08007 15.8083 8.08007 15.816 8.08446 15.8224C8.08566 15.8244 8.08766 15.826 8.08926 15.8276C8.09445 15.8352 8.10164 15.8412 8.10764 15.8488C8.12642 15.872 8.146 15.8932 8.16837 15.9112C8.17197 15.914 8.17437 15.9184 8.17836 15.9212C8.18436 15.9256 8.19115 15.9268 8.19715 15.9308C8.22152 15.9468 8.24669 15.96 8.27347 15.9704C8.28426 15.9744 8.29425 15.9792 8.30543 15.9824C8.3414 15.9928 8.37856 16 8.41612 16C8.41652 16 8.41692 16 8.41732 16C8.41892 16 8.42052 15.9992 8.42211 15.9992C8.42891 15.9996 8.4357 16 8.44249 16C8.55318 16 8.65308 15.9504 8.727 15.874L13.1541 12.9188L17.7893 15.9356C17.8548 15.978 17.9308 16 18.0071 16C18.049 16 18.0918 15.9932 18.133 15.9796C18.248 15.9412 18.3399 15.8524 18.3819 15.7379L23.9746 0.538278C23.9798 0.524674 23.9841 0.51067 23.9877 0.496266C23.9893 0.490265 23.9897 0.484263 23.9909 0.478662C23.9921 0.47426 23.9929 0.469459 23.9937 0.464658ZM19.3657 3.01854L9.77832 10.0768C9.76274 10.0884 9.75035 10.1028 9.73677 10.1164C9.73157 10.1212 9.72638 10.1252 9.72198 10.1304C9.71359 10.1396 9.706 10.1488 9.69841 10.1588C9.69121 10.1684 9.68562 10.1784 9.67922 10.1885C9.66444 10.2125 9.65205 10.2373 9.64246 10.2637C9.64046 10.2689 9.63727 10.2729 9.63567 10.2781C9.63527 10.2797 9.63367 10.2805 9.63327 10.2821L8.5344 13.8578L7.66369 9.02014L19.3657 3.01854ZM9.15376 14.6276L10.243 11.0251L11.9389 12.129L12.424 12.4447L10.7761 13.5445L9.15376 14.6276ZM20.7962 1.3857L7.22095 8.34796L1.57074 5.36396L20.7962 1.3857ZM17.8053 14.9917L11.6496 10.9859L10.7174 10.3789L22.7666 1.50774L17.8053 14.9917Z" fill="white"/>
</svg>
