<svg width="26" height="26" viewBox="0 0 26 26" fill="none" xmlns="http://www.w3.org/2000/svg">
<path d="M7.00209 12.8956C7.01373 12.7655 7.07431 12.6517 7.16403 12.591L7.17604 12.5837C7.2037 12.5687 7.85766 12.217 8.2584 12.1442C8.33439 12.1304 8.41434 12.1497 8.48761 12.1972L9.83345 12.814C10.096 12.6393 11.0915 11.9777 12.2641 11.2038L9.49206 9.31447C9.41056 9.25892 9.3631 9.16366 9.36526 9.05968C9.36737 8.95577 9.4186 8.86396 9.50233 8.81409L10.4367 8.25663C10.5264 8.20316 10.6689 8.18203 10.7675 8.20925L15.0259 9.393C15.9022 8.82409 16.6254 8.36278 16.927 8.19035C17.1483 8.0638 17.4175 8 17.7268 8C18.2372 8 18.8618 8.18979 18.9772 8.46988C18.9817 8.48061 19.2864 9.64995 17.5266 10.9586L10.964 15.2846C10.9574 15.2886 10.8009 15.39 10.6487 15.4245C10.3911 15.4831 10.1121 15.5 9.82516 15.5H9.74199C9.7022 15.5 9.6631 15.5 9.62467 15.5H9.59874V15.4882C9.4131 15.4882 9.27671 15.3843 9.2548 15.3647L7.10834 13.2483L7.10327 13.2403C7.02684 13.1549 6.99058 13.0261 7.00209 12.8956Z" fill="#34363E"/>
<rect x="7" y="17" width="12" height="1" fill="#34363E"/>
</svg>
