<svg width="26" height="26" viewBox="0 0 26 26" fill="none" xmlns="http://www.w3.org/2000/svg">
<path d="M18.9979 12.8956C18.9863 12.7655 18.9257 12.6517 18.836 12.591L18.824 12.5837C18.7963 12.5687 18.1423 12.217 17.7416 12.1442C17.6656 12.1304 17.5857 12.1497 17.5124 12.1972L16.1665 12.814C15.904 12.6393 14.9085 11.9777 13.7359 11.2038L16.5079 9.31447C16.5894 9.25892 16.6369 9.16366 16.6347 9.05968C16.6326 8.95577 16.5814 8.86396 16.4977 8.81409L15.5633 8.25663C15.4736 8.20316 15.3311 8.18203 15.2325 8.20925L10.9741 9.393C10.0978 8.82409 9.37456 8.36278 9.07302 8.19035C8.85167 8.0638 8.58255 8 8.27321 8C7.76275 8 7.13825 8.18979 7.02284 8.46988C7.01832 8.48061 6.71362 9.64995 8.47339 10.9586L15.036 15.2846C15.0426 15.2886 15.1991 15.39 15.3513 15.4245C15.6089 15.4831 15.8879 15.5 16.1748 15.5H16.258C16.2978 15.5 16.3369 15.5 16.3753 15.5H16.4013V15.4882C16.5869 15.4882 16.7233 15.3843 16.7452 15.3647L18.8917 13.2483L18.8967 13.2403C18.9732 13.1549 19.0094 13.0261 18.9979 12.8956Z" fill="#34363E"/>
<rect x="7" y="17" width="12" height="1" fill="#34363E"/>
</svg>
