<svg width="26" height="26" viewBox="0 0 26 26" fill="none" xmlns="http://www.w3.org/2000/svg">
<circle cx="13" cy="13" r="7" fill="#23242A"/>
<path d="M19 12.9873C19 13 19 13.0127 19 13.0253C19 13.2278 18.9873 13.4177 18.962 13.6076C18.9494 13.6835 18.9494 13.7722 18.9367 13.8481C18.9114 14.0127 18.8861 14.1772 18.8481 14.3418C18.8481 14.3544 18.8481 14.3544 18.8481 14.3671C18.8101 14.5316 18.7595 14.6962 18.7089 14.8608C18.6835 14.9241 18.6709 14.9873 18.6456 15.0506C18.557 15.3038 18.443 15.5443 18.3165 15.7848C18.2278 15.962 18.1266 16.1266 18.0127 16.2911C17.8228 16.5823 17.6076 16.8481 17.3797 17.1013C17.1646 17.3291 16.9367 17.5443 16.6835 17.7342C15.6709 18.519 14.3924 19 13 19C12.8861 19 12.7848 19 12.6709 18.9873C12.2405 18.962 11.8101 18.8987 11.4051 18.7848C11.2532 18.7468 11.1139 18.6962 10.9747 18.6456C10.3797 18.4304 9.82278 18.1266 9.32911 17.7342L9.31646 17.7215C9.07595 17.5316 8.8481 17.3291 8.63291 17.1013C8.39241 16.8481 8.18987 16.5823 8 16.2911C7.89873 16.1266 7.79747 15.962 7.6962 15.7848C7.56962 15.5443 7.46835 15.3038 7.36709 15.0506C7.34177 14.9873 7.31646 14.9241 7.3038 14.8608C7.25316 14.6962 7.20253 14.5316 7.16456 14.3671C7.16456 14.3544 7.16456 14.3544 7.1519 14.3418C7.11392 14.1772 7.08861 14.0127 7.06329 13.8481C7.05063 13.7722 7.03797 13.6835 7.03797 13.6076C7.01266 13.4177 7 13.2278 7 13.0253C7 13.0127 7 13 7 12.9873C7 12.7468 7.01266 12.5063 7.05063 12.2658C7.06329 12.1392 7.08861 12.0127 7.11392 11.8861C7.16456 11.6203 7.22785 11.3671 7.3038 11.1139C7.31646 11.0759 7.32911 11.0506 7.34177 11.0127C7.50633 10.5316 7.73418 10.0759 8 9.67089C8.02532 9.64557 8.03797 9.60759 8.06329 9.58228C8.20253 9.36709 8.36709 9.16456 8.5443 8.97468C8.77215 8.72152 9.03797 8.48101 9.3038 8.26582C9.32911 8.25316 9.35443 8.22785 9.37975 8.21519C9.56962 8.07595 9.77215 7.93671 9.98734 7.81013C10.2278 7.67089 10.4937 7.53165 10.7595 7.43038C10.8354 7.40506 10.8987 7.36709 10.9747 7.34177C11.1139 7.29114 11.2658 7.24051 11.4051 7.20253C11.8101 7.08861 12.2405 7.02532 12.6709 7C12.7342 7 12.7975 7 12.8734 7C12.9114 7 12.962 7 13 7C14.3165 7 15.5443 7.43038 16.5316 8.1519C16.6203 8.21519 16.7215 8.29114 16.8101 8.36709C17.2405 8.72152 17.6203 9.12658 17.9367 9.59494C17.962 9.62025 17.9747 9.65823 18 9.68354C18.2785 10.1013 18.5063 10.5443 18.6709 11.0253C18.6835 11.0633 18.6962 11.0886 18.7089 11.1266C18.7848 11.3797 18.8608 11.6329 18.8987 11.8987C18.9114 11.9747 18.9241 12.0506 18.9367 12.1392C18.9494 12.1899 18.9494 12.2405 18.962 12.2911C18.9747 12.3544 18.9747 12.4177 18.9873 12.4684C18.9873 12.6203 19 12.8101 19 12.9873Z" fill="#2B3187"/>
<path d="M9.37988 8.20243C9.56975 8.06319 9.77228 7.92395 9.98747 7.79736V13.6075H8.54443V8.97458C8.77228 8.72141 9.0381 8.48091 9.30393 8.26572C9.32924 8.2404 9.35456 8.22774 9.37988 8.20243Z" fill="#F9F9F9"/>
<path d="M12.7215 9.58203V11.0124H7.3291C7.50632 10.5314 7.73416 10.0757 7.99999 9.67064C8.0253 9.64532 8.03796 9.60735 8.06328 9.58203H12.7215Z" fill="#F9F9F9"/>
<path d="M17.9366 9.5822H12.7214V8.13916H16.5316C16.6202 8.20245 16.7214 8.2784 16.81 8.35435C17.2404 8.70878 17.6202 9.11384 17.9366 9.5822Z" fill="#F9F9F9"/>
<path d="M18.9493 12.2659C18.9619 12.3292 18.9619 12.3924 18.9746 12.4431H12.7214V11.0127H18.6708C18.6835 11.0507 18.6961 11.076 18.7088 11.114C18.7847 11.3671 18.8607 11.6203 18.8987 11.8861C18.9113 11.9621 18.924 12.038 18.9366 12.1266C18.9366 12.1646 18.9493 12.2152 18.9493 12.2659Z" fill="#F9F9F9"/>
<path d="M18.9622 13.6074C18.9495 13.6834 18.9495 13.772 18.9369 13.8479C18.9115 14.0125 18.8862 14.177 18.8482 14.3416C18.8482 14.3543 18.8482 14.3543 18.8482 14.3669C18.8103 14.5315 18.7596 14.696 18.709 14.8606C18.6837 14.9239 18.671 14.9872 18.6457 15.0505H7.3799C7.35458 14.9872 7.32926 14.9239 7.3166 14.8606C7.26597 14.696 7.21534 14.5315 7.17736 14.3669C7.17736 14.3543 7.17736 14.3543 7.16471 14.3416C7.12673 14.177 7.10141 14.0125 7.0761 13.8479C7.06344 13.772 7.05078 13.6834 7.05078 13.6074H18.9622Z" fill="#F9F9F9"/>
<path d="M18.0127 16.291C17.8228 16.5822 17.6076 16.848 17.3797 17.1011C17.1646 17.329 16.9367 17.5442 16.6835 17.7341H9.32911L9.31646 17.7214C9.07595 17.5315 8.8481 17.329 8.63291 17.1011C8.39241 16.848 8.18987 16.5822 8 16.291H18.0127Z" fill="#F9F9F9"/>
</svg>
