<svg width="19" height="18" viewBox="0 0 19 18" fill="none" xmlns="http://www.w3.org/2000/svg">
<path d="M10.5283 11.0263L8.4359 9.08022L8.46061 9.05696C9.89399 7.55281 10.9155 5.82385 11.5169 3.99407H13.9306V2.43955H8.16405V0.888885H6.51647V2.43955H0.75V3.98244H9.95164C9.39559 5.4788 8.52649 6.89765 7.34024 8.1382C6.57412 7.33573 5.9398 6.46349 5.4373 5.54084H3.78976C4.39111 6.80461 5.21492 7.99864 6.24462 9.07633L2.05568 12.9723L3.22135 14.0694L7.34028 10.1928L9.90226 12.6041L10.5283 11.0263Z" fill="#383A40"/>
<path d="M14.8525 6.97223H13.009L8.86133 17.1111H10.7048L11.7417 14.5764H16.1198L17.1568 17.1111H19.0002L14.8525 6.97223ZM12.433 12.8866L13.9308 9.22389L15.4286 12.8866H12.433Z" fill="#383A40"/>
</svg>
