<svg width="26" height="26" viewBox="0 0 26 26" fill="none" xmlns="http://www.w3.org/2000/svg">
<path fill-rule="evenodd" clip-rule="evenodd" d="M15.4443 5.875C15.4443 6.90845 14.5715 7.74994 13.4997 7.74994C12.428 7.74994 11.5554 6.90845 11.5554 5.875C11.5554 4.84149 12.428 4 13.4997 4C14.5715 4 15.4443 4.84149 15.4443 5.875ZM16.4753 10.3215L16.9909 14.6774C17.0346 15.0419 16.9179 15.4034 16.6714 15.6697C16.459 15.8984 16.1782 16.0319 15.8725 16.0484L15.4433 21.6523C15.4284 21.8488 15.259 22.0003 15.0552 22.0003H11.9441C11.7409 22.0003 11.5715 21.8488 11.5566 21.6523L11.1274 16.0484C10.8218 16.0319 10.541 15.8984 10.3286 15.6697C10.082 15.4034 9.96531 15.0419 10.009 14.6774L10.5246 10.3215C10.6467 9.28351 11.4992 8.50049 12.5071 8.50049H14.4929C15.5 8.50049 16.3532 9.28351 16.4753 10.3215Z" fill="#34363E"/>
</svg>
