<svg width="26" height="26" viewBox="0 0 26 26" fill="none" xmlns="http://www.w3.org/2000/svg">
<path fill-rule="evenodd" clip-rule="evenodd" d="M16.7924 14.6774L16.2966 10.3215C16.1792 9.28348 15.3589 8.50049 14.3906 8.50049H12.4815C11.5124 8.50049 10.6928 9.28348 10.5754 10.3215L10.0797 14.6774C10.0378 15.0419 10.1499 15.4034 10.387 15.6696C10.5911 15.8984 10.8611 16.0319 11.155 16.0484L11.5677 21.6523C11.5819 21.8488 11.7449 22.0003 11.9401 22.0003H14.9312C15.1271 22.0003 15.2901 21.8488 15.3043 21.6523L15.7171 16.0484C16.011 16.0319 16.2809 15.8984 16.4851 15.6696C16.7221 15.4034 16.8343 15.0419 16.7924 14.6774Z" fill="#34363E"/>
<path fill-rule="evenodd" clip-rule="evenodd" d="M13.4358 7.74995C14.4663 7.74995 15.3053 6.90846 15.3053 5.87498C15.3053 4.84149 14.4663 4 13.4358 4C12.4054 4 11.5664 4.84149 11.5664 5.87498C11.5664 6.90846 12.4054 7.74995 13.4358 7.74995Z" fill="#34363E"/>
<path fill-rule="evenodd" clip-rule="evenodd" d="M8.26567 8.49995C9.2961 8.49995 10.1351 7.65846 10.1351 6.62498C10.1351 5.59149 9.2961 4.75 8.26567 4.75C7.23524 4.75 6.39624 5.59149 6.39624 6.62498C6.39624 7.65846 7.23524 8.49995 8.26567 8.49995Z" fill="#8F969D"/>
<path fill-rule="evenodd" clip-rule="evenodd" d="M9.82873 16.1687C9.45036 15.7434 9.27089 15.1689 9.33595 14.5922L9.83172 10.2362C9.84967 10.0787 9.88482 9.92724 9.92594 9.77874C9.95286 9.68274 9.9394 9.5785 9.8893 9.49225C9.83995 9.40525 9.75695 9.3415 9.66048 9.316C9.48775 9.271 9.33819 9.25 9.18864 9.25H7.34239C6.40169 9.25 5.60456 9.95574 5.48791 10.8925L5.00859 14.7354C4.96896 15.0557 5.06766 15.3774 5.28078 15.6197C5.47744 15.8424 5.75337 15.9782 6.04799 15.9969L6.3972 20.9019C6.41141 21.0976 6.57368 21.2499 6.77034 21.2499H9.76143C9.95735 21.2499 10.1204 21.0976 10.1338 20.9019L10.4217 16.8617C10.4322 16.7222 10.3641 16.5894 10.246 16.5159C10.0852 16.4162 9.94539 16.2992 9.82873 16.1687Z" fill="#8F969D"/>
<path fill-rule="evenodd" clip-rule="evenodd" d="M18.7344 8.49995C19.7649 8.49995 20.6039 7.65846 20.6039 6.62498C20.6039 5.59149 19.7649 4.75 18.7344 4.75C17.704 4.75 16.865 5.59149 16.865 6.62498C16.865 7.65846 17.704 8.49995 18.7344 8.49995Z" fill="#8F969D"/>
<path fill-rule="evenodd" clip-rule="evenodd" d="M21.9914 14.7354L21.5121 10.8925C21.3962 9.95574 20.5983 9.25 19.6576 9.25H17.8114C17.6035 9.25 17.3941 9.28675 17.1885 9.36025C17.0053 9.4255 16.9021 9.62125 16.9522 9.81024C16.9896 9.94899 17.0232 10.09 17.0404 10.2362L17.5362 14.5922C17.6013 15.1689 17.4218 15.7434 17.0434 16.1687C16.9604 16.2617 16.8602 16.3487 16.7279 16.4439C16.6217 16.5197 16.5626 16.6457 16.5723 16.7762L16.8662 20.9019C16.8804 21.0976 17.0427 21.2499 17.2393 21.2499H20.2304C20.4264 21.2499 20.5894 21.0976 20.6028 20.9019L20.952 15.9977C21.2467 15.9782 21.5233 15.8432 21.7192 15.6197C21.9324 15.3774 22.0311 15.0557 21.9914 14.7354Z" fill="#8F969D"/>
</svg>
