<svg width="26" height="26" viewBox="0 0 26 26" fill="none" xmlns="http://www.w3.org/2000/svg">
<path fill-rule="evenodd" clip-rule="evenodd" d="M7.00878 14.6774L7.51292 10.3215C7.6323 9.28348 8.46644 8.50049 9.45114 8.50049H11.3924C12.3779 8.50049 13.2112 9.28348 13.3306 10.3215L13.8347 14.6774C13.8773 15.0419 13.7633 15.4034 13.5222 15.6696C13.3146 15.8984 13.0401 16.0319 12.7413 16.0484L12.3216 21.6523C12.3071 21.8488 12.1414 22.0003 11.9429 22.0003H8.90138C8.70216 22.0003 8.53639 21.8488 8.52195 21.6523L8.10221 16.0484C7.80338 16.0319 7.52888 15.8984 7.3213 15.6696C7.08026 15.4034 6.9662 15.0419 7.00878 14.6774Z" fill="#34363E"/>
<path fill-rule="evenodd" clip-rule="evenodd" d="M10.4218 7.74995C9.37399 7.74995 8.52083 6.90846 8.52083 5.87498C8.52083 4.84149 9.37399 4 10.4218 4C11.4696 4 12.3228 4.84149 12.3228 5.87498C12.3228 6.90846 11.4696 7.74995 10.4218 7.74995Z" fill="#34363E"/>
<path fill-rule="evenodd" clip-rule="evenodd" d="M15.6794 8.49995C14.6316 8.49995 13.7784 7.65846 13.7784 6.62498C13.7784 5.59149 14.6316 4.75 15.6794 4.75C16.7272 4.75 17.5803 5.59149 17.5803 6.62498C17.5803 7.65846 16.7272 8.49995 15.6794 8.49995Z" fill="#8F969D"/>
<path fill-rule="evenodd" clip-rule="evenodd" d="M14.0898 16.1687C14.4746 15.7434 14.6571 15.1689 14.5909 14.5922L14.0868 10.2362C14.0685 10.0787 14.0328 9.92724 13.991 9.77874C13.9636 9.68274 13.9773 9.5785 14.0282 9.49225C14.0784 9.40525 14.1628 9.3415 14.2609 9.316C14.4366 9.271 14.5886 9.25 14.7407 9.25H16.6181C17.5747 9.25 18.3852 9.95574 18.5039 10.8925L18.9913 14.7354C19.0316 15.0557 18.9312 15.3774 18.7145 15.6197C18.5145 15.8424 18.2339 15.9782 17.9343 15.9969L17.5792 20.9019C17.5648 21.0976 17.3998 21.2499 17.1998 21.2499H14.1583C13.959 21.2499 13.7933 21.0976 13.7796 20.9019L13.4868 16.8617C13.4762 16.7222 13.5454 16.5894 13.6655 16.5159C13.829 16.4162 13.9712 16.2992 14.0898 16.1687Z" fill="#8F969D"/>
</svg>
