<svg width="18" height="22" viewBox="0 0 18 22" fill="none" xmlns="http://www.w3.org/2000/svg">
<path d="M5.83543 10.4021C5.69126 10.2405 5.61917 10.0323 5.61917 9.77756V9.22645C5.61917 8.95213 5.69126 8.73658 5.83543 8.57983C5.9796 8.41817 6.17348 8.33734 6.41708 8.33734C6.67063 8.33734 6.867 8.42062 7.0062 8.58717C7.1454 8.74883 7.215 8.95703 7.215 9.21176V9.65264C7.215 10.3091 6.954 10.6373 6.432 10.6373C6.17846 10.6373 5.9796 10.5589 5.83543 10.4021Z" fill="white"/>
<path d="M11.0107 16.4055C10.8516 16.2291 10.772 16.0258 10.772 15.7956V15.1931C10.782 14.9383 10.859 14.7375 11.0032 14.5905C11.1474 14.4387 11.3388 14.3627 11.5774 14.3627C11.826 14.3627 12.0224 14.4436 12.1665 14.6052C12.3107 14.762 12.3828 14.9702 12.3828 15.2298L12.3753 15.9866C12.3356 16.4373 12.0746 16.6627 11.5923 16.6627C11.3636 16.6627 11.1698 16.5769 11.0107 16.4055Z" fill="white"/>
<path fill-rule="evenodd" clip-rule="evenodd" d="M14.2272 0.320312H3.77068C2.03644 0.320312 0.629883 1.72621 0.629883 3.4611V18.0757C0.629883 19.8106 2.03644 21.2165 3.77068 21.2165H14.2272C15.9614 21.2165 17.368 19.8106 17.368 18.0757V3.4611C17.368 1.72621 15.9614 0.320312 14.2272 0.320312ZM8.99893 4.99996C8.04121 4.99996 7.26469 4.22344 7.26469 3.26506C7.26469 2.30735 8.04121 1.53083 8.99893 1.53083C9.95664 1.53083 10.7332 2.30735 10.7332 3.26506C10.7332 4.22344 9.95664 4.99996 8.99893 4.99996ZM4.6572 7.60989C4.21972 8.01648 4.00098 8.55043 4.00098 9.21176V9.73347C4.00098 10.4291 4.2222 10.9777 4.66466 11.3794C5.11209 11.7762 5.7012 11.9746 6.432 11.9746C7.16777 11.9746 7.75191 11.7738 8.18442 11.3721C8.61693 10.9704 8.83319 10.4389 8.83319 9.77756V9.2485C8.83319 8.55778 8.61693 8.01158 8.18442 7.60989C7.75191 7.2033 7.1628 7 6.41708 7C5.68131 7 5.09469 7.2033 4.6572 7.60989ZM9.81753 13.6279C9.38005 14.0296 9.1613 14.5636 9.1613 15.2298V15.7589C9.1613 16.4545 9.38253 17.0031 9.82499 17.4048C10.2724 17.8016 10.8615 18 11.5923 18C12.3331 18 12.9197 17.7992 13.3522 17.3975C13.7847 16.9958 14.001 16.4618 14.001 15.7956V15.2812C14.001 14.5709 13.7822 14.0174 13.3448 13.6206C12.9073 13.2238 12.3182 13.0254 11.5774 13.0254C10.8466 13.0254 10.26 13.2262 9.81753 13.6279ZM5.73849 16.4716L6.90925 17.0521L12.2113 8.69005L11.0405 8.10955L5.73849 16.4716Z" fill="white"/>
</svg>
