<svg width="26" height="26" viewBox="0 0 26 26" fill="none" xmlns="http://www.w3.org/2000/svg">
<path d="M17.4437 7.43464C16.3928 6.50952 14.9384 6 13.3484 6C10.9198 6 9.42602 6.91288 8.6006 7.67865C7.58334 8.62237 7 9.87545 7 11.1166C7 12.6751 7.71088 13.8712 8.90133 14.3162C8.98125 14.3462 9.06167 14.3613 9.14051 14.3613C9.39165 14.3613 9.59064 14.2107 9.65958 13.9689C9.69976 13.8303 9.79288 13.4882 9.83336 13.3397C9.92003 13.0464 9.85001 12.9053 9.66101 12.7011C9.3167 12.3275 9.15636 11.8858 9.15636 11.3109C9.15636 9.60326 10.5431 7.78838 13.1132 7.78838C15.1524 7.78838 16.4192 8.85117 16.4192 10.562C16.4192 11.6416 16.1656 12.6414 15.705 13.3773C15.3849 13.8887 14.8221 14.4983 13.958 14.4983C13.5843 14.4983 13.2487 14.3575 13.0369 14.1122C12.8368 13.8802 12.7709 13.5806 12.8513 13.2683C12.9422 12.9155 13.0662 12.5474 13.1861 12.1916C13.4049 11.5417 13.6117 10.9279 13.6117 10.4382C13.6117 9.60064 13.0502 9.03784 12.2145 9.03784C11.1524 9.03784 10.3203 10.027 10.3203 11.2897C10.3203 11.909 10.4998 12.3722 10.5811 12.5501C10.4473 13.0699 9.6521 16.1603 9.50126 16.743C9.41405 17.0832 8.88868 19.7701 9.75826 19.9844C10.7353 20.2251 11.6086 17.6082 11.6975 17.3125C11.7696 17.072 12.0216 16.1627 12.1761 15.6037C12.6478 16.0203 13.4072 16.3019 14.1461 16.3019C15.5392 16.3019 16.792 15.7271 17.6738 14.6834C18.529 13.6712 19 12.2603 19 10.7108C19 9.49954 18.4327 8.30539 17.4437 7.43464Z" fill="#34363E"/>
</svg>
