<svg width="26" height="26" viewBox="0 0 26 26" fill="none" xmlns="http://www.w3.org/2000/svg">
<path fill-rule="evenodd" clip-rule="evenodd" d="M13 22C17.9705 22 22 17.9707 22 13C22 8.0293 17.9705 4 13 4C8.02954 4 4 8.0293 4 13C4 17.9707 8.02954 22 13 22ZM13 9.2998C13.5522 9.2998 14 9.74756 14 10.2998V12H15.7C16.2522 12 16.7 12.4478 16.7 13C16.7 13.5522 16.2522 14 15.7 14H14V15.7002C14 16.2524 13.5522 16.7002 13 16.7002C12.4478 16.7002 12 16.2524 12 15.7002V14H10.3C9.7478 14 9.30005 13.5522 9.30005 13C9.30005 12.4478 9.7478 12 10.3 12H12V10.2998C12 10.0728 12.0754 9.86377 12.2029 9.6958C12.3855 9.45508 12.6746 9.2998 13 9.2998Z" fill="#34363E"/>
</svg>
