<svg width="32" height="32" viewBox="0 0 32 32" fill="none" xmlns="http://www.w3.org/2000/svg">
<path d="M5 7.5L8.5 16H26.5L27 15L6.5 5H5.5L5 6V7.5Z" fill="#7083F0"/>
<path d="M27.748 14.8746C27.5014 14.3521 27.0902 13.9303 26.5811 13.6773L7.6105 4.2587C6.36081 3.6375 4.85698 4.1734 4.25153 5.45561C3.94308 6.10891 3.91715 6.86534 4.18018 7.53925L7.47894 15.9991L4.18018 24.4598C3.66636 25.787 4.29848 27.2903 5.59202 27.8174C5.88451 27.9366 6.1962 27.9985 6.51093 28C6.89171 28 7.26758 27.9118 7.6105 27.742L26.581 18.3208C27.8308 17.6998 28.3533 16.1568 27.748 14.8746ZM6.88051 26.1916C6.46388 26.3985 5.96264 26.2198 5.76096 25.7923C5.65817 25.5745 5.64963 25.3224 5.73733 25.0978L8.94893 16.859H25.6784L6.88051 26.1916ZM8.94898 15.1391L5.73738 6.90031C5.60371 6.5719 5.6867 6.19265 5.94437 5.95442C6.19379 5.70507 6.5704 5.64657 6.88051 5.80911L25.6784 15.1391H8.94898Z" fill="#2E48E8"/>
</svg>
