<svg width="24" height="24" viewBox="0 0 24 24" fill="none" xmlns="http://www.w3.org/2000/svg">
<path opacity="0.6" d="M1 3.5L4.5 12H22.5L23 11L2.5 1H1.5L1 2V3.5Z" fill="#EB2C5A"/>
<path d="M23.748 10.8746C23.5014 10.3521 23.0902 9.9303 22.5811 9.67731L3.6105 0.258699C2.36081 -0.362504 0.856979 0.173396 0.251529 1.45561C-0.0569169 2.10891 -0.0828458 2.86534 0.180176 3.53925L3.47894 11.9991L0.180176 20.4598C-0.333639 21.787 0.298476 23.2903 1.59202 23.8174C1.88451 23.9366 2.1962 23.9985 2.51093 24C2.89171 24 3.26758 23.9118 3.6105 23.742L22.581 14.3208C23.8308 13.6998 24.3533 12.1568 23.748 10.8746ZM2.88051 22.1916C2.46388 22.3985 1.96264 22.2198 1.76096 21.7923C1.65817 21.5745 1.64963 21.3224 1.73733 21.0978L4.94893 12.859H21.6784L2.88051 22.1916ZM4.94898 11.1391L1.73738 2.90031C1.60371 2.5719 1.6867 2.19265 1.94437 1.95442C2.19379 1.70507 2.5704 1.64657 2.88051 1.80911L21.6784 11.1391H4.94898Z" fill="#EB2C5A"/>
</svg>
