<svg width="26" height="26" viewBox="0 0 26 26" fill="none" xmlns="http://www.w3.org/2000/svg">
<path d="M14.2595 14.8341L14.7939 14.2935C14.9465 14.1391 14.9465 13.9074 14.7939 13.753L12.2748 11.2047C12.1221 11.0503 11.8931 11.0503 11.7404 11.2047L11.2061 11.7452C11.0534 11.8997 11.0534 12.1313 11.2061 12.2858L13.7252 14.8341C13.8778 14.9885 14.1068 14.9885 14.2595 14.8341Z" fill="#34363E"/>
<path d="M10.0611 12.4402C9.75573 12.1313 9.56489 11.7066 9.56489 11.2433C9.56489 10.3166 10.3283 9.54441 11.2443 9.54441C11.7023 9.54441 12.1222 9.73747 12.4275 10.0463L13.3817 11.0116C13.5344 11.1661 13.7634 11.1661 13.9161 11.0116L14.4504 10.4711C14.6031 10.3166 14.6031 10.085 14.4504 9.93052L13.4962 8.96526C12.8855 8.34749 12.084 8 11.2061 8C9.45039 8 8 9.46719 8 11.2433C8 12.0927 8.34351 12.9421 8.9542 13.5599L9.90841 14.5252C10.0611 14.6796 10.2901 14.6796 10.4428 14.5252L10.9771 13.9846C11.1298 13.8302 11.1298 13.5985 10.9771 13.4441L10.0611 12.4402Z" fill="#34363E"/>
<path d="M17.0076 12.4786L16.0534 11.5133C15.9007 11.3589 15.6717 11.3589 15.5191 11.5133L14.9847 12.0538C14.832 12.2083 14.832 12.4399 14.9847 12.5944L15.9389 13.5596C16.2442 13.8685 16.4351 14.2932 16.4351 14.7566C16.4351 15.6832 15.6717 16.4554 14.7557 16.4554C14.2977 16.4554 13.8778 16.2624 13.5725 15.9535L12.6183 14.9882C12.4656 14.8338 12.2366 14.8338 12.0839 14.9882L11.5496 15.5288C11.3969 15.6832 11.3969 15.9149 11.5496 16.0693L12.5038 17.0346C13.1145 17.6523 13.916 17.9998 14.7939 17.9998C16.5496 17.9998 18 16.5326 18 14.7566C17.9618 13.9071 17.6183 13.0963 17.0076 12.4786Z" fill="#34363E"/>
</svg>
