<svg width="26" height="26" viewBox="0 0 26 26" fill="none" xmlns="http://www.w3.org/2000/svg">
<path fill-rule="evenodd" clip-rule="evenodd" d="M13 8C10.2386 8 8 10.2386 8 13C8 15.7614 10.2386 18 13 18C15.7614 18 18 15.7614 18 13C18 12.4477 18.4477 12 19 12C19.5523 12 20 12.4477 20 13C20 16.866 16.866 20 13 20C9.13401 20 6 16.866 6 13C6 9.13401 9.13401 6 13 6C14.3958 6 15.6991 6.40959 16.7924 7.11545C17.2564 7.41501 17.3897 8.03398 17.0901 8.49797C16.7906 8.96196 16.1716 9.09526 15.7076 8.79571C14.9278 8.29228 13.9996 8 13 8Z" fill="#34363E"/>
<path d="M19.25 10.125C19.25 10.7463 18.7463 11.25 18.125 11.25C17.5037 11.25 17 10.7463 17 10.125C17 9.50368 17.5037 9 18.125 9C18.7463 9 19.25 9.50368 19.25 10.125Z" fill="#34363E"/>
</svg>
