<svg width="32" height="32" viewBox="0 0 32 32" fill="none" xmlns="http://www.w3.org/2000/svg">
<path fill-rule="evenodd" clip-rule="evenodd" d="M16.0008 10.8041C13.1312 10.8041 10.8049 13.1304 10.8049 15.9999C10.8049 18.8694 13.1312 21.1957 16.0008 21.1957C18.8704 21.1957 21.1967 18.8694 21.1967 15.9999C21.1967 13.1304 18.8704 10.8041 16.0008 10.8041ZM9.0271 15.9999C9.0271 12.1485 12.1493 9.02637 16.0008 9.02637C19.8522 9.02637 22.9745 12.1485 22.9745 15.9999C22.9745 19.8513 19.8522 22.9734 16.0008 22.9734C12.1493 22.9734 9.0271 19.8513 9.0271 15.9999Z" fill="#34363E"/>
<path fill-rule="evenodd" clip-rule="evenodd" d="M24.106 16.0002C24.106 15.5093 24.5039 15.1113 24.9948 15.1113H26.5822C27.0731 15.1113 27.4711 15.5093 27.4711 16.0002C27.4711 16.4911 27.0731 16.8891 26.5822 16.8891H24.9948C24.5039 16.8891 24.106 16.4911 24.106 16.0002Z" fill="#34363E"/>
<path fill-rule="evenodd" clip-rule="evenodd" d="M24.106 16.0002C24.106 15.5093 24.5039 15.1113 24.9948 15.1113H27.1113C27.6022 15.1113 28.0002 15.5093 28.0002 16.0002C28.0002 16.4911 27.6022 16.8891 27.1113 16.8891H24.9948C24.5039 16.8891 24.106 16.4911 24.106 16.0002Z" fill="#34363E"/>
<path fill-rule="evenodd" clip-rule="evenodd" d="M4 16.0002C4 15.5093 4.39797 15.1113 4.88889 15.1113H6.47623C6.96715 15.1113 7.36512 15.5093 7.36512 16.0002C7.36512 16.4911 6.96715 16.8891 6.47623 16.8891H4.88889C4.39797 16.8891 4 16.4911 4 16.0002Z" fill="#34363E"/>
<path fill-rule="evenodd" clip-rule="evenodd" d="M4 16.0002C4 15.5093 4.39797 15.1113 4.88889 15.1113H7.00535C7.49627 15.1113 7.89424 15.5093 7.89424 16.0002C7.89424 16.4911 7.49627 16.8891 7.00535 16.8891H4.88889C4.39797 16.8891 4 16.4911 4 16.0002Z" fill="#34363E"/>
<path fill-rule="evenodd" clip-rule="evenodd" d="M16.0002 24.106C16.4911 24.106 16.8891 24.5039 16.8891 24.9948V26.5821C16.8891 27.0731 16.4911 27.471 16.0002 27.471C15.5093 27.471 15.1113 27.0731 15.1113 26.5821V24.9948C15.1113 24.5039 15.5093 24.106 16.0002 24.106Z" fill="#34363E"/>
<path fill-rule="evenodd" clip-rule="evenodd" d="M16.0002 24.106C16.4911 24.106 16.8891 24.5039 16.8891 24.9948V27.1112C16.8891 27.6022 16.4911 28.0001 16.0002 28.0001C15.5093 28.0001 15.1113 27.6022 15.1113 27.1112V24.9948C15.1113 24.5039 15.5093 24.106 16.0002 24.106Z" fill="#34363E"/>
<path fill-rule="evenodd" clip-rule="evenodd" d="M16.0002 4C16.4911 4 16.8891 4.39797 16.8891 4.88889V6.47619C16.8891 6.96711 16.4911 7.36508 16.0002 7.36508C15.5093 7.36508 15.1113 6.96711 15.1113 6.47619V4.88889C15.1113 4.39797 15.5093 4 16.0002 4Z" fill="#34363E"/>
<path fill-rule="evenodd" clip-rule="evenodd" d="M16.0002 4C16.4911 4 16.8891 4.39797 16.8891 4.88889V7.00529C16.8891 7.49621 16.4911 7.89418 16.0002 7.89418C15.5093 7.89418 15.1113 7.49621 15.1113 7.00529V4.88889C15.1113 4.39797 15.5093 4 16.0002 4Z" fill="#34363E"/>
<path fill-rule="evenodd" clip-rule="evenodd" d="M21.6151 21.6148C21.9622 21.2677 22.525 21.2677 22.8722 21.6148L24.2479 22.9905C24.595 23.3376 24.595 23.9004 24.2479 24.2476C23.9007 24.5947 23.3379 24.5947 22.9908 24.2476L21.6151 22.8719C21.268 22.5248 21.2679 21.962 21.6151 21.6148Z" fill="#34363E"/>
<path fill-rule="evenodd" clip-rule="evenodd" d="M21.6151 21.6148C21.9622 21.2677 22.525 21.2677 22.8722 21.6148L24.5653 23.308C24.9125 23.6551 24.9125 24.2179 24.5653 24.565C24.2182 24.9122 23.6554 24.9122 23.3083 24.565L21.6151 22.8719C21.268 22.5248 21.2679 21.962 21.6151 21.6148Z" fill="#34363E"/>
<path fill-rule="evenodd" clip-rule="evenodd" d="M7.43466 7.43516C7.78179 7.08802 8.3446 7.08802 8.69174 7.43515L10.0674 8.81081C10.4146 9.15794 10.4146 9.72075 10.0675 10.0679C9.72032 10.415 9.15751 10.415 8.81037 10.0679L7.43467 8.69224C7.08754 8.34511 7.08753 7.7823 7.43466 7.43516Z" fill="#34363E"/>
<path fill-rule="evenodd" clip-rule="evenodd" d="M7.43466 7.43516C7.78179 7.08802 8.3446 7.08802 8.69174 7.43515L10.3849 9.12827C10.732 9.4754 10.732 10.0382 10.3849 10.3853C10.0378 10.7325 9.47497 10.7325 9.12784 10.3854L7.43467 8.69224C7.08754 8.34511 7.08753 7.7823 7.43466 7.43516Z" fill="#34363E"/>
<path fill-rule="evenodd" clip-rule="evenodd" d="M10.3851 21.6148C10.7322 21.962 10.7322 22.5248 10.3851 22.8719L9.00937 24.2476C8.66223 24.5947 8.09942 24.5947 7.75229 24.2476C7.40516 23.9004 7.40516 23.3376 7.7523 22.9905L9.12799 21.6148C9.47513 21.2677 10.0379 21.2677 10.3851 21.6148Z" fill="#34363E"/>
<path fill-rule="evenodd" clip-rule="evenodd" d="M10.3849 21.6148C10.732 21.962 10.732 22.5248 10.3849 22.8719L8.69174 24.565C8.3446 24.9122 7.78179 24.9122 7.43466 24.565C7.08753 24.2179 7.08754 23.6551 7.43467 23.308L9.12784 21.6148C9.47497 21.2677 10.0378 21.2677 10.3849 21.6148Z" fill="#34363E"/>
<path fill-rule="evenodd" clip-rule="evenodd" d="M24.5665 7.43516C24.9136 7.7823 24.9136 8.34511 24.5665 8.69224L23.1908 10.0679C22.8436 10.415 22.2808 10.415 21.9337 10.0679C21.5866 9.72075 21.5866 9.15794 21.9337 8.81081L23.3094 7.43515C23.6565 7.08802 24.2193 7.08802 24.5665 7.43516Z" fill="#34363E"/>
<path fill-rule="evenodd" clip-rule="evenodd" d="M24.5653 7.43516C24.9125 7.7823 24.9125 8.34511 24.5653 8.69224L22.8722 10.3854C22.525 10.7325 21.9622 10.7325 21.6151 10.3853C21.2679 10.0382 21.268 9.4754 21.6151 9.12827L23.3083 7.43515C23.6554 7.08802 24.2182 7.08802 24.5653 7.43516Z" fill="#34363E"/>
</svg>
