<svg width="101" height="16" viewBox="0 0 101 16" fill="none" xmlns="http://www.w3.org/2000/svg">
<path d="M71.6662 3.33649C72.5647 3.33649 73.2931 2.58959 73.2931 1.66825C73.2931 0.7469 72.5647 0 71.6662 0C70.7678 0 70.0394 0.7469 70.0394 1.66825C70.0394 2.58959 70.7678 3.33649 71.6662 3.33649Z" fill="white"/>
<path d="M80.2276 8.02769L82.8345 5.31427C82.9717 5.14544 83.1402 5.00876 83.3284 4.91229C83.5401 4.80777 83.7714 4.75551 84.0026 4.76355H86.5938C86.8016 4.76355 86.927 4.83591 86.9662 4.98464C87.0015 5.13338 86.9544 5.29015 86.8408 5.38663L83.2774 9.12913C83.1285 9.28591 83.1089 9.53514 83.2382 9.71202L87.1975 15.2715C87.3621 15.4886 87.3896 15.6534 87.2759 15.77C87.1504 15.8906 86.9858 15.9549 86.8133 15.9468H84.72C84.5044 15.9549 84.2967 15.8986 84.1124 15.786C83.9713 15.6976 83.8419 15.5891 83.7282 15.4645L81.1253 11.7863C81.0587 11.6938 80.9293 11.6697 80.8392 11.738C80.8353 11.7421 80.8304 11.7461 80.8254 11.7501C80.8206 11.7541 80.8156 11.7582 80.8117 11.7622L80.0944 12.5139C80.016 12.5983 79.9689 12.7108 79.9689 12.8274V15.4604C79.9768 15.5891 79.9376 15.7177 79.8552 15.8182C79.7808 15.9066 79.6396 15.9428 79.428 15.9428H77.3739C77.0877 15.9428 76.9466 15.782 76.9466 15.4604V4.31735C76.9466 3.56161 76.5546 3.13952 75.7314 3.13952C75.1193 3.13952 75.1069 2.95682 75.0822 2.59471C75.0805 2.56949 75.0788 2.5434 75.0767 2.51644V0.864274C75.0767 0.462287 75.2962 0.265313 75.7314 0.265313C79.6828 0.265313 79.965 2.21897 79.965 4.35352V7.92317C79.965 8.00759 80.0316 8.07593 80.114 8.07995C80.161 8.07995 80.2002 8.05985 80.2276 8.02769Z" fill="white"/>
<path d="M0 2.37575C0 1.9215 0.239123 1.69237 0.713448 1.69237H2.49315C2.88907 1.69237 3.21052 2.022 3.21052 2.42801V4.22891C3.21052 4.45 3.383 4.62688 3.5986 4.62688H6.27599C6.766 4.62688 6.9424 4.98465 6.9424 5.33437V6.64887C6.9424 7.01468 6.66016 7.35637 6.27599 7.35637H3.54372C3.35948 7.35637 3.21052 7.50913 3.21052 7.69806V11.6737C3.21052 12.1601 3.30852 12.4938 3.50844 12.6747C3.70836 12.8515 3.96709 12.948 4.23365 12.936C4.45709 12.936 4.66485 12.8314 4.80597 12.6546C4.96278 12.4696 5.06078 12.1722 5.09214 11.7662C5.10782 11.4888 5.16662 11.3119 5.26854 11.2275C5.37046 11.1471 5.55862 11.1069 5.82911 11.1069H7.63625C7.92241 11.1069 8.09881 11.1632 8.16937 11.2838C8.23993 11.4004 8.26737 11.5772 8.25561 11.8184C8.25561 13.5832 6.94632 15.9348 4.00237 15.9348C3.19484 15.9348 2.48531 15.7539 1.87378 15.3961C1.26225 15.0383 0.791849 14.4474 0.454725 13.6193C0.207762 13.0365 0.0705608 12.4094 0.0509606 11.7782C0.0156802 11.115 0 10.4637 0 9.82859V2.37575Z" fill="white"/>
<path fill-rule="evenodd" clip-rule="evenodd" d="M25.3941 4.62688C24.7512 4.51432 24.1005 4.45804 23.4458 4.46608C22.458 4.46608 21.6308 4.57864 20.9527 4.79169C20.3255 4.98866 19.7571 5.33839 19.2945 5.81676C18.8711 6.29512 18.5693 6.86996 18.4086 7.49304C18.2361 8.13622 18.1381 9.01256 18.1067 10.114V10.1622C18.0754 11.115 18.1577 11.927 18.3615 12.6103C18.5379 13.2455 18.8398 13.8364 19.2475 14.3469C19.6355 14.8374 20.1608 15.2072 20.8272 15.4604C21.4936 15.7137 22.3404 15.8423 23.3713 15.8423C23.6575 15.8423 23.9515 15.8343 24.2573 15.8182C24.563 15.8021 24.8688 15.7619 25.1667 15.7016C25.4646 15.6413 25.7547 15.5449 26.0291 15.4162C26.3035 15.2876 26.5505 15.1067 26.7583 14.8776C26.7622 14.8977 26.77 14.9137 26.7818 14.9258C26.9974 15.3037 27.3345 15.5931 27.7383 15.7338C28.5654 16.0795 29.6748 16.0795 30.0393 15.786C30.1687 15.6855 30.2314 15.5087 30.2314 15.2474L30.2314 13.7548C30.2318 13.4499 30.2323 13.0164 29.6042 13.0164C29.1024 13.0164 28.8202 12.8757 28.8202 12.3491V10.1663C28.8947 7.76238 28.2479 6.10619 26.8719 5.20172C26.4211 4.91229 25.9194 4.71531 25.3941 4.62688ZM21.4309 8.00759C21.7288 7.47295 22.407 7.20361 23.4693 7.20361C24.0221 7.20361 24.4611 7.27195 24.7904 7.40461C25.104 7.52118 25.3627 7.74228 25.5313 8.03573C25.6802 8.30908 25.7782 8.61057 25.8135 8.9201C25.8684 9.34219 25.8959 9.76829 25.8919 10.1944C25.8959 10.6084 25.8684 11.0185 25.8135 11.4245C25.7743 11.726 25.6763 12.0194 25.5313 12.2847C25.3588 12.5822 25.0922 12.8073 24.7786 12.9279C24.4415 13.0686 23.9907 13.1369 23.4223 13.1369C22.8539 13.1369 22.4109 13.0606 22.0895 12.9078C21.7837 12.7711 21.5328 12.5259 21.3839 12.2204C21.2232 11.9551 21.1291 11.6536 21.1056 11.3441C21.0664 10.9381 21.0468 10.5321 21.0507 10.1261C21.0468 9.70398 21.0664 9.28591 21.1173 8.87186C21.1487 8.55831 21.2545 8.26486 21.4309 8.00759Z" fill="white"/>
<path d="M39.3416 4.71531H41.0154C41.2702 4.71531 41.4466 4.76757 41.5485 4.8761C41.6465 4.98464 41.6348 5.16152 41.5133 5.41075L37.2169 15.4524C37.0562 15.7941 36.8406 15.9388 36.2682 15.9388H34.3239C34.0416 15.9388 33.7908 15.7941 33.6496 15.4524C33.6496 15.4524 31.133 8.58645 30.8586 8.04778C30.6508 7.5453 30.3372 7.35637 29.9609 7.35637C29.5101 7.35637 29.2827 7.24783 29.2827 6.68505V5.38663C29.2827 5.22583 29.3258 5.07308 29.4082 4.9364C29.4905 4.78767 29.6747 4.71531 29.9609 4.71531H31.768C32.6569 4.71531 32.9526 5.31171 33.0715 5.55154L33.0734 5.55546C33.0812 5.56752 33.0852 5.57958 33.0891 5.59164L35.2098 11.3602C35.2686 11.525 35.4489 11.6054 35.6058 11.5451C35.6842 11.5169 35.7469 11.4526 35.7822 11.3762L38.3929 5.27005C38.5732 4.90022 38.8868 4.71531 39.3416 4.71531Z" fill="white"/>
<path d="M72.6345 4.49824C73.0383 4.49824 73.2421 4.68315 73.2421 5.05298V11.9189C73.2343 12.2124 73.297 12.5018 73.4225 12.7631C73.5401 13.0003 73.7674 13.1209 74.0967 13.1209H75.1747C75.6412 13.1209 75.8725 13.3138 75.8725 13.6997V15.179C75.8725 15.6896 75.6334 15.9428 75.1982 15.9428H73.5322C72.3915 15.9428 71.5369 15.6373 70.9646 15.0182C70.3962 14.4032 70.11 13.3621 70.11 11.8988V5.05298C70.1061 4.91229 70.1453 4.77561 70.2237 4.65903C70.2982 4.5505 70.4393 4.49824 70.651 4.49824H72.6345Z" fill="white"/>
<path d="M90.5099 4.49824C90.9136 4.49824 91.1175 4.68315 91.1175 5.05298L91.1096 11.9189C91.1018 12.2124 91.1645 12.5018 91.29 12.7631C91.4115 13.0003 91.6389 13.1209 91.9681 13.1209H93.0501C93.5166 13.1209 93.7478 13.3138 93.7478 13.6997V15.179C93.7478 15.7579 93.4381 15.9428 93.0736 15.9428H91.4076C90.2668 15.9428 89.4123 15.6373 88.8399 15.0182C88.2715 14.4032 87.9854 13.3621 87.9854 11.8988V5.05298C87.9814 4.91229 88.0207 4.77561 88.0991 4.65903C88.1735 4.5505 88.3147 4.49824 88.5263 4.49824H90.5099Z" fill="white"/>
<path fill-rule="evenodd" clip-rule="evenodd" d="M52.1484 9.79643V9.63564C52.117 8.9603 52.0112 8.293 51.8309 7.64178C51.6584 6.99458 51.3409 6.39964 50.9057 5.90519C50.4549 5.44291 49.8865 4.98866 49.2123 4.75551C48.2009 4.40578 47.7148 4.35352 46.7505 4.35352C44.8532 4.35352 43.4773 4.98464 42.6266 5.91725C41.776 6.84986 41.3565 8.28496 41.3722 10.2185C41.3604 11.0667 41.4545 11.9109 41.6544 12.7309C41.8191 13.4023 42.1405 14.0173 42.5952 14.5278C43.0461 15.0303 43.6184 15.4042 44.2573 15.6051C44.9277 15.8303 45.7391 15.9388 46.6878 15.9388C47.2444 15.9428 47.7971 15.9066 48.3499 15.8343C48.836 15.774 49.3142 15.6413 49.7611 15.4403C50.1805 15.2474 50.5608 14.978 50.8822 14.6404C51.2272 14.2625 51.5016 13.8243 51.6858 13.342C51.6976 13.3219 51.7642 13.1369 51.8191 12.9239C51.8505 12.8033 51.8583 12.6787 51.8426 12.5541C51.827 12.4335 51.776 12.3209 51.6937 12.2285C51.5878 12.128 51.5094 12.0918 51.2977 12.0918H49.373C49.1496 12.0918 49.0163 12.1601 48.9104 12.3129C47.9931 13.7962 44.3593 13.9007 44.3593 11.115C44.3593 11.0305 44.422 10.9582 44.5082 10.9582H51.188C51.6113 10.9582 51.8818 10.8577 52.0034 10.6567C52.1131 10.4557 52.1641 10.1663 52.1484 9.79643ZM44.4886 8.8799C44.4181 8.8799 44.3906 8.84774 44.3906 8.77538C44.4455 7.47696 45.4922 6.60063 46.7701 6.60063C48.0519 6.60063 49.0947 7.47696 49.1496 8.77538C49.1535 8.83166 49.1104 8.8799 49.0594 8.8799H44.4886Z" fill="white"/>
<path d="M55.794 15.9388C56.186 15.9388 56.3585 15.7579 56.3585 15.3881L56.3624 4.86405C56.3624 4.08017 57.0131 3.53749 57.6834 3.53749C58.3734 3.53749 58.9535 4.07615 58.9535 4.90023V15.38C58.9535 15.7056 59.0907 15.9187 59.3769 15.9187H61.431C61.8426 15.9187 61.9798 15.5609 61.972 15.4323V12.6224C61.972 12.546 62.0033 12.4696 62.0582 12.4134L62.7442 11.6938C62.756 11.6818 62.7677 11.6697 62.7795 11.6617C62.9128 11.5652 63.097 11.5933 63.195 11.73L65.794 15.4323C65.9077 15.5609 66.0371 15.6695 66.1782 15.7579C66.3585 15.8705 66.5702 15.9267 66.7858 15.9187H68.883C69.0555 15.9267 69.2201 15.8624 69.3456 15.7418C69.4592 15.6252 69.4318 15.4604 69.2672 15.2434L65.1903 9.50298C65.0884 9.36229 65.1041 9.16933 65.2217 9.04472L68.8516 5.23388C68.9653 5.13338 69.0124 4.9766 68.9771 4.82787C68.9379 4.67913 68.8164 4.60678 68.6047 4.60678H66.0096C65.5549 4.59472 65.1237 4.79973 64.8375 5.16152L62.2621 7.84277C62.2346 7.87091 62.1954 7.89101 62.1523 7.89101C62.0582 7.89503 61.9798 7.81865 61.9759 7.72218V5.33437C61.9759 5.18564 61.972 5.04092 61.9641 4.89621V4.88415C61.9641 3.48121 61.3879 2.11043 60.3099 1.24616C58.2754 -0.381887 55.3667 0.152756 53.9986 2.32751C53.8183 2.59684 53.6732 2.89431 53.5713 3.20384C53.5674 3.21188 53.5645 3.22193 53.5615 3.23198C53.5586 3.24203 53.5556 3.25208 53.5517 3.26012C53.5439 3.2762 53.536 3.29228 53.5321 3.31238C53.3831 3.77064 53.3047 4.24901 53.3047 4.73139C53.293 4.90827 53.2891 5.09318 53.2891 5.28613V15.3841C53.2891 15.6976 53.4694 15.9388 53.7869 15.9388H55.794Z" fill="white"/>
<path d="M91.1803 1.66825C91.1803 2.58959 90.4519 3.33649 89.5534 3.33649C88.655 3.33649 87.9266 2.58959 87.9266 1.66825C87.9266 0.7469 88.655 0 89.5534 0C90.4519 0 91.1803 0.7469 91.1803 1.66825Z" fill="white"/>
<path d="M96.3547 5.00474C96.3312 5.00474 96.3077 4.99671 96.292 4.97661C96.2763 4.96053 96.2685 4.94043 96.2685 4.91631V4.58668C96.2646 4.54246 96.292 4.50628 96.3312 4.49824H98.0678C98.1109 4.49422 98.1462 4.52236 98.154 4.56256V4.91631C98.154 4.94043 98.1462 4.96053 98.1305 4.97661C98.1148 4.99269 98.0952 5.00072 98.0756 5.00072H97.5543C97.5268 5.00072 97.5033 5.02484 97.5033 5.05298V7.21166C97.5033 7.23577 97.4915 7.25587 97.4759 7.27195C97.4602 7.28803 97.4367 7.29607 97.4131 7.29607H97.0055C96.9819 7.29607 96.9623 7.28803 96.9466 7.27195C96.931 7.25587 96.9192 7.23577 96.9192 7.21166V5.05298C96.9192 5.02484 96.8957 5.00072 96.8682 5.00072H96.3547V5.00474Z" fill="white"/>
<path d="M13.8025 7.97543C14.1318 7.6056 14.7119 7.42068 15.5351 7.42068L16.9973 7.4247C17.3109 7.4247 17.4677 7.25587 17.4677 6.9182V5.32633C17.4677 4.96052 17.358 4.77159 16.9973 4.77159H15.3783C14.7394 4.76355 14.1043 4.84796 13.4889 5.02484C12.9832 5.16553 12.5089 5.39869 12.0855 5.71224C12.0659 5.72832 12.0345 5.7243 12.0189 5.7042C11.6386 5.24995 11.1996 4.9565 10.7096 4.83189C10.1098 4.69119 9.49044 4.63089 8.87499 4.65501C8.47123 4.65501 8.26739 4.86404 8.26739 5.27809V5.5233C8.26739 5.66802 8.26347 5.83283 8.25563 6.01775C8.24779 6.20266 8.24387 6.37552 8.24387 6.53631V6.7976C8.25955 7.01066 8.30267 7.15537 8.36931 7.22371C8.43595 7.29205 8.55355 7.32823 8.71819 7.32823H9.21212C9.41596 7.32823 9.61588 7.40058 9.77268 7.53726C9.9334 7.67394 10.0275 7.87895 10.0196 8.092V15.4524C10.0196 15.7659 10.2431 15.9348 10.5606 15.9348H12.5834C12.8695 15.9348 13.0577 15.77 13.0577 15.4524V10.5843C13.0538 10.0778 13.1008 9.57132 13.2027 9.07285C13.285 8.65076 13.4928 8.26486 13.8025 7.97543Z" fill="white"/>
<path d="M98.3383 4.58668C98.3344 4.54246 98.3618 4.50628 98.401 4.49824H98.9106C98.9694 4.50226 99.0164 4.53844 99.04 4.59472L99.6319 5.75646C99.6515 5.79666 99.7064 5.79666 99.726 5.75646L100.31 4.5907C100.326 4.55854 100.353 4.5304 100.385 4.51432C100.412 4.50226 100.439 4.49824 100.471 4.50226H100.926C100.976 4.50226 101 4.5304 101 4.5907V7.21969C100.999 7.30411 100.926 7.30411 100.926 7.30411H100.514C100.514 7.30411 100.439 7.30411 100.436 7.21969V5.47909L99.9102 6.50416C99.8867 6.55239 99.8218 6.57651 99.7809 6.57651H99.5613C99.5339 6.57651 99.4594 6.54837 99.4359 6.50014L98.9184 5.47909V7.22371C98.9184 7.27999 98.8871 7.30813 98.8283 7.30813H98.4284C98.3853 7.31215 98.35 7.28401 98.3422 7.23979V7.22371L98.3383 4.58668Z" fill="white"/>
</svg>
