<svg width="34" height="7" viewBox="0 0 34 7" fill="none" xmlns="http://www.w3.org/2000/svg">
<path d="M0.999999 5C0.447715 5 -6.82887e-07 5.44772 -6.1196e-07 6C-6.00637e-07 6.55229 0.447715 7 0.999999 7L0.999999 5ZM33 7C33.5523 7 34 6.55229 34 6C34 5.44772 33.5523 5 33 5L33 7ZM22.1146 6L22.1146 7L22.1146 6ZM11.8394 6L11.8394 5L11.8394 6ZM15.2517 2.05946L14.3835 1.56332L15.2517 2.05946ZM18.7304 2.06957L19.6016 1.57849L18.7304 2.06957ZM0.999999 7L11.8394 7L11.8394 5L0.999999 5L0.999999 7ZM14.4441 5.48842L16.12 2.5556L14.3835 1.56332L12.7076 4.49614L14.4441 5.48842ZM17.8593 2.56065L19.5013 5.47325L21.2435 4.49109L19.6016 1.57849L17.8593 2.56065ZM22.1146 7L33 7L33 5L22.1146 5L22.1146 7ZM19.5013 5.47325C20.033 6.4165 21.0318 7 22.1146 7L22.1146 5C21.7537 5 21.4208 4.8055 21.2435 4.49109L19.5013 5.47325ZM11.8394 7C12.9159 7 13.91 6.42314 14.4441 5.48842L12.7076 4.49614C12.5296 4.80772 12.1982 5 11.8394 5L11.8394 7ZM16.12 2.5556C16.5052 1.88153 17.4781 1.88436 17.8593 2.56065L19.6016 1.57849C18.4578 -0.450393 15.539 -0.458873 14.3835 1.56332L16.12 2.5556Z" fill="#EB2C5A"/>
</svg>
