<svg width="2" height="142" viewBox="0 0 2 142" fill="none" xmlns="http://www.w3.org/2000/svg">
<path fill-rule="evenodd" clip-rule="evenodd" d="M1 142C1.55228 142 2 141.552 2 141L2 136C2 135.448 1.55229 135 1 135C0.447716 135 2.8641e-07 135.448 2.62268e-07 136L4.37114e-08 141C1.95703e-08 141.552 0.447715 142 1 142ZM1 127C1.55229 127 2 126.552 2 126L2 116C2 115.448 1.55229 115 1 115C0.447716 115 1.16064e-06 115.448 1.1365e-06 116L6.99382e-07 126C6.75241e-07 126.552 0.447716 127 1 127ZM1 107C1.55229 107 2 106.552 2 106L2 96C2 95.4477 1.55229 95 1 95C0.447717 95 2.03487e-06 95.4477 2.01072e-06 96L1.57361e-06 106C1.54947e-06 106.552 0.447717 107 1 107ZM1 87C1.55229 87 2 86.5523 2 86L2 76C2 75.4477 1.55229 75 1 75C0.447718 75 2.90909e-06 75.4477 2.88495e-06 76L2.44784e-06 86C2.4237e-06 86.5523 0.447718 87 1 87ZM1 67C1.55229 67 2 66.5523 2 66L2 56C2 55.4477 1.55229 55 1 55C0.447719 55 3.78332e-06 55.4477 3.75918e-06 56L3.32207e-06 66C3.29792e-06 66.5523 0.447719 67 1 67ZM1 47C1.55229 47 2 46.5523 2 46L2 36C2 35.4477 1.55229 35 1 35C0.44772 35 4.65755e-06 35.4477 4.63341e-06 36L4.19629e-06 46C4.17215e-06 46.5523 0.447719 47 1 47ZM1.00001 27C1.55229 27 2.00001 26.5523 2.00001 26L2.00001 16C2.00001 15.4477 1.55229 15 1.00001 15C0.447721 15 5.53178e-06 15.4477 5.50764e-06 16L5.07052e-06 26C5.04638e-06 26.5523 0.44772 27 1.00001 27ZM1.00001 7C1.55229 7 2.00001 6.55228 2.00001 6L2.00001 1C2.00001 0.447708 1.55229 -1.95703e-08 1.00001 -4.37114e-08C0.447721 -6.78525e-08 6.18745e-06 0.447708 6.16331e-06 1L5.94475e-06 6C5.92061e-06 6.55228 0.447721 7 1.00001 7Z" fill="#e8e8e8"/>
</svg>
