<svg width="276" height="2" viewBox="0 0 276 2" fill="none" xmlns="http://www.w3.org/2000/svg">
<path fill-rule="evenodd" clip-rule="evenodd" d="M0.200195 1C0.200195 0.447715 0.647911 -4.82823e-08 1.2002 0L11.3335 8.85884e-07C11.8858 9.34166e-07 12.3335 0.447716 12.3335 1C12.3335 1.55229 11.8858 2 11.3335 2L1.2002 2C0.647911 2 0.200195 1.55228 0.200195 1ZM20.4669 1C20.4669 0.447717 20.9146 1.72349e-06 21.4669 1.77177e-06L31.6002 2.65765e-06C32.1525 2.70593e-06 32.6002 0.447718 32.6002 1C32.6002 1.55229 32.1525 2 31.6002 2L21.4669 2C20.9146 2 20.4669 1.55229 20.4669 1ZM40.7335 1C40.7335 0.447719 41.1812 3.49525e-06 41.7335 3.54354e-06L51.8669 4.42942e-06C52.4191 4.4777e-06 52.8669 0.44772 52.8669 1C52.8669 1.55229 52.4191 2 51.8669 2L41.7335 2C41.1812 2 40.7335 1.55229 40.7335 1ZM61.0002 1.00001C61.0002 0.447721 61.4479 5.26702e-06 62.0002 5.3153e-06L72.1335 6.20119e-06C72.6858 6.24947e-06 73.1335 0.447722 73.1335 1.00001C73.1335 1.55229 72.6858 2.00001 72.1335 2.00001L62.0002 2.00001C61.4479 2.00001 61.0002 1.55229 61.0002 1.00001ZM81.2669 1.00001C81.2669 0.447722 81.7146 7.03879e-06 82.2669 7.08707e-06L92.4002 7.97296e-06C92.9525 8.02124e-06 93.4002 0.447723 93.4002 1.00001C93.4002 1.55229 92.9525 2.00001 92.4002 2.00001L82.2669 2.00001C81.7146 2.00001 81.2669 1.55229 81.2669 1.00001ZM101.534 1.00001C101.534 0.447724 101.981 8.81056e-06 102.534 8.85884e-06L112.667 9.74472e-06C113.219 9.79301e-06 113.667 0.447725 113.667 1.00001C113.667 1.55229 113.219 2.00001 112.667 2.00001L102.534 2.00001C101.981 2.00001 101.534 1.55229 101.534 1.00001ZM121.8 1.00001C121.8 0.447726 122.248 1.05823e-05 122.8 1.06306e-05L132.934 1.15165e-05C133.486 1.15648e-05 133.934 0.447727 133.934 1.00001C133.934 1.5523 133.486 2.00001 132.934 2.00001L122.8 2.00001C122.248 2.00001 121.8 1.5523 121.8 1.00001ZM142.067 1.00001C142.067 0.447728 142.515 1.23541e-05 143.067 1.24024e-05L153.2 1.32883e-05C153.752 1.33365e-05 154.2 0.447729 154.2 1.00001C154.2 1.5523 153.752 2.00001 153.2 2.00001L143.067 2.00001C142.515 2.00001 142.067 1.5523 142.067 1.00001ZM162.334 1.00001C162.334 0.447729 162.781 1.41259e-05 163.334 1.41741e-05L173.467 1.506e-05C174.019 1.51083e-05 174.467 0.44773 174.467 1.00002C174.467 1.5523 174.019 2.00002 173.467 2.00002L163.334 2.00001C162.781 2.00001 162.334 1.5523 162.334 1.00001ZM182.6 1.00002C182.6 0.447731 183.048 1.58976e-05 183.6 1.59459e-05L193.733 1.68318e-05C194.286 1.68801e-05 194.733 0.447732 194.733 1.00002C194.733 1.5523 194.286 2.00002 193.733 2.00002L183.6 2.00002C183.048 2.00002 182.6 1.5523 182.6 1.00002ZM202.867 1.00002C202.867 0.447733 203.315 1.76694e-05 203.867 1.77177e-05L214 1.86036e-05C214.552 1.86518e-05 215 0.447734 215 1.00002C215 1.5523 214.552 2.00002 214 2.00002L203.867 2.00002C203.315 2.00002 202.867 1.5523 202.867 1.00002ZM223.133 1.00002C223.133 0.447735 223.581 1.94412e-05 224.133 1.94894e-05L234.267 2.03753e-05C234.819 2.04236e-05 235.267 0.447736 235.267 1.00002C235.267 1.55231 234.819 2.00002 234.267 2.00002L224.133 2.00002C223.581 2.00002 223.133 1.5523 223.133 1.00002ZM243.4 1.00002C243.4 0.447737 243.848 2.12129e-05 244.4 2.12612e-05L254.533 2.21471e-05C255.086 2.21954e-05 255.533 0.447738 255.533 1.00002C255.533 1.55231 255.086 2.00002 254.533 2.00002L244.4 2.00002C243.848 2.00002 243.4 1.55231 243.4 1.00002ZM263.667 1.00002C263.667 0.447738 264.115 2.29847e-05 264.667 2.3033e-05L274.8 2.39189e-05C275.352 2.39671e-05 275.8 0.447739 275.8 1.00002C275.8 1.55231 275.352 2.00002 274.8 2.00002L264.667 2.00002C264.115 2.00002 263.667 1.55231 263.667 1.00002Z" fill="#e8e8e8"/>
</svg>
