<?xml version="1.0" encoding="utf-8"?>
<!-- Generator: Adobe Illustrator 17.1.0, SVG Export Plug-In . SVG Version: 6.00 Build 0)  -->
<!DOCTYPE svg PUBLIC "-//W3C//DTD SVG 1.1//EN" "http://www.w3.org/Graphics/SVG/1.1/DTD/svg11.dtd">
<svg version="1.1" id="Слой_1" xmlns="http://www.w3.org/2000/svg" xmlns:xlink="http://www.w3.org/1999/xlink" x="0px" y="0px"
	 viewBox="0 0 183.4962311 40" enable-background="new 0 0 183.4962311 40" xml:space="preserve">
<path fill-rule="evenodd" clip-rule="evenodd" fill="#FFFFFF" d="M0,12.9233942
	c0.4641405,0.2033615,7.5315771,4.2691965,15.6296148,0.4079781c8.0980139-3.8612175,16.2318802-0.1944828,16.2318802-0.1944828
	l14.0485096,23.1931229c0,0-12.2949181-3.1304626-23.4314442-1.4341049
	c-11.1363029,1.6961746-14.3973484-0.368721-17.260561-2.942627C4.8091254,26.2418003,1.7587625,18.8760033,0,12.9233942
	L0,12.9233942z"/>
<path fill-rule="evenodd" clip-rule="evenodd" fill="#F6D83E" d="M2.2552781,14.9615173
	c0.5101235,0.1836996,6.8439946,3.0513973,14.249279-0.4357281c7.4050636-3.4870319,14.585825-0.2179565,14.585825-0.2179565
	l12.1174698,20.2685795c0,0-10.7712517-2.6153679-20.8689594-0.8717117
	C12.240963,35.4481239,9.4733887,33.413929,6.8552322,31.0893097C6.4813142,25.931366,3.8635881,20.3375111,2.2552781,14.9615173
	L2.2552781,14.9615173z"/>
<path fill-rule="evenodd" clip-rule="evenodd" d="M2.2552781,14.9564972
	c2.1458349,0.6973324,4.2344613,1.0829048,6.2533517,1.232069c0.37673,1.0068588,0.7663708,2.0192966,1.1672602,3.0268078
	c0.4017487,1.0105324,0.8149443,2.0201797,1.224247,3.0292244c-2.1579199-0.1839771-4.426806-0.7316818-6.8431349-1.9054146
	c-0.3151753-0.8962784-0.6379156-1.7945538-0.9418771-2.6910648C2.8128951,16.7560253,2.529665,15.8550062,2.2552781,14.9564972
	L2.2552781,14.9564972z M5.8263392,25.7413921c2.6864161,1.6456242,5.13942,2.353693,7.4411225,2.5699997
	c0.3521051,1.0112076,0.6966343,2.0165787,0.9951925,3.0249271c0.2953272,0.9990501,0.5444508,2.0029106,0.7780256,2.9987335
	c-2.6259422,0.0082016-5.3732033-0.740654-8.1865406-3.2500191c-0.0941157-0.8788471-0.2035708-1.7698021-0.3767066-2.6565971
	C6.302577,27.5329723,6.0679097,26.6400642,5.8263392,25.7413921L5.8263392,25.7413921z M19.6274452,27.6706772
	c-2.0437126,0.3637714-4.1610537,0.5932331-6.3599834,0.6407146c-0.3687239-1.0089741-0.7462902-2.0251541-1.1426477-3.033268
	c-0.3980646-1.0119038-0.8108311-2.0223427-1.2246771-3.0335255c2.068325-0.0582886,4.0667171-0.2966518,5.9791851-0.6972847
	c0.4669418,1.019968,0.9429703,2.0419807,1.4047165,3.0639477C18.7436466,25.6289043,19.1890087,26.6508713,19.6274452,27.6706772
	L19.6274452,27.6706772z M14.098815,15.4329443c1.6788931-0.6310015,3.2994871-1.3515749,4.9714651-1.8621397
	c0.536665,1.0891342,1.0832787,2.1792908,1.6339684,3.2651711c0.5507145,1.0858326,1.1098537,2.1717129,1.6629276,3.2586632
	c-1.8388634,0.4156017-3.6531029,0.9373207-5.487854,1.4526749c-0.4751568-1.0195961-0.94771-2.0387745-1.4129305-3.0570698
	C15.0020533,17.4732513,14.5491266,16.450634,14.098815,15.4329443L14.098815,15.4329443z M19.6274452,27.6706772
	c1.9981937-0.4222717,3.9926815-0.7925053,6.0279808-1.0502529c0.5241604,1.0891342,1.0487289,2.1724129,1.5480804,3.2587109
	c0.4958763,1.0789547,0.966465,2.1652527,1.437521,3.2433701c-2.2729893,0.0975227-4.5006332,0.3140831-6.7041054,0.6365814
	c-0.3356972-1.004467-0.6830502-2.021019-1.0688095-3.0332718C20.479948,29.707056,20.0613708,28.6926422,19.6274452,27.6706772
	L19.6274452,27.6706772z M32.0523376,26.5837498c-2.1952801-0.1169968-4.3244858-0.1019135-6.3969116,0.0366745
	c-0.5364571-1.0845776-1.0731335-2.1756649-1.6216736-3.2629852c-0.5489826-1.0884361-1.1098309-2.1758976-1.6665764-3.2628002
	c1.899931-0.2663918,3.8698292-0.3790665,5.913332-0.3400211c0.6346855,1.1390114,1.27174,2.2766724,1.9001617,3.414566
	C30.8093243,24.3070793,31.4299603,25.4447403,32.0523376,26.5837498L32.0523376,26.5837498z M24.500473,12.9298553
	c1.9916973,0.0543852,4.1537209,0.4356356,6.5894909,1.373004c0.6715794,1.1279469,1.3483677,2.25529,2.0229931,3.3817492
	c0.6726608,1.1231594,1.3472862,2.2518024,2.0188904,3.3756599c-2.448925-0.6884537-4.7134876-1.0998707-6.8513393-1.3056507
	c-0.6346741-1.1367779-1.2654781-2.2734165-1.8960609-3.4099636C25.7538643,15.2077827,25.1230717,14.0666809,24.500473,12.9298553
	L24.500473,12.9298553z M32.0523376,26.5837498c2.2604752,0.2359238,4.6234627,0.6320934,7.1175117,1.2317905
	c0.6756935,1.1281548,1.3483658,2.2535686,2.0229912,3.3800278c0.6726761,1.1232071,1.3432083,2.2518272,2.0150108,3.3756599
	c-2.5924873-0.5154915-5.094738-0.898716-7.5313454-1.1737328c-0.5895615-1.1324768-1.1771812-2.2703724-1.7814331-3.4013634
	C33.2873802,28.8582382,32.6706276,27.7203426,32.0523376,26.5837498L32.0523376,26.5837498z"/>
<path fill-rule="evenodd" clip-rule="evenodd" fill="#FFFFFF" d="M183.4962311,12.5680351
	c-0.4641418,0.2033148-7.531601,4.2692413-15.6296082,0.4080238c-8.0978088-3.8612175-16.2316589-0.1944828-16.2316589-0.1944828
	L137.5864563,35.974865c0,0,12.2946777-3.1304169,23.4312286-1.4342918
	c11.1364899,1.6964073,14.3973389-0.3684921,17.2605286-2.9426498
	C178.6870728,25.8866501,181.7374725,18.5206909,183.4962311,12.5680351L183.4962311,12.5680351z"/>
<path fill-rule="evenodd" clip-rule="evenodd" fill="#F6D83E" d="M181.2409515,14.60639
	c-0.5098877,0.1836996-6.8439941,3.0511646-14.2490845-0.4358673c-7.4050293-3.4870787-14.5857849-0.21805-14.5857849-0.21805
	l-12.1174774,20.268837c0,0,10.7710266-2.6156006,20.8687134-0.8719444
	c10.0979614,1.7434235,12.865509-0.2905884,15.4836884-2.61516C177.0148926,25.5760078,179.6328888,19.9821968,181.2409515,14.60639
	L181.2409515,14.60639z"/>
<path fill-rule="evenodd" clip-rule="evenodd" d="M181.2409515,14.6014166
	c-2.1456146,0.697053-4.2344513,1.0826263-6.2533569,1.2320213c-0.3767242,1.0068598-0.7663574,2.0192518-1.167038,3.026763
	c-0.4017792,1.0103912-0.8149261,2.0202255-1.224472,3.0292702c2.1581421-0.1839314,4.4268188-0.7318211,6.8431549-1.9053211
	c0.3151703-0.8964176,0.6381378-1.7948341,0.9418488-2.6914368
	C180.6833191,16.4009914,180.9667664,15.4998789,181.2409515,14.6014166L181.2409515,14.6014166z M177.6698914,25.3860569
	c-2.6864166,1.6456223-5.1394196,2.3537159-7.4409027,2.5702095c-0.3523254,1.011158-0.6968689,2.0162983-0.995224,3.0246696
	c-0.2953033,0.9991207-0.544632,2.0029583-0.7779999,2.9989872c2.6257324,0.0079956,5.3730011-0.740654,8.1863403-3.2500401
	c0.0941162-0.8790321,0.2035675-1.769989,0.3766937-2.6565971
	C177.1936646,27.1776352,177.4285431,26.2847271,177.6698914,25.3860569L177.6698914,25.3860569z M163.8690033,27.31534
	c2.0434875,0.3639584,4.1608124,0.593235,6.3599854,0.6409264c0.3684845-1.008976,0.7460632-2.0251312,1.1424408-3.0334797
	c0.398056-1.0116005,0.8110504-2.0221329,1.2246552-3.0333157c-2.0683289-0.058567-4.0667114-0.2966042-5.9789581-0.6972847
	c-0.4671478,1.0200138-0.9431763,2.041935-1.4049225,3.0637608C164.752594,25.2735691,164.3072205,26.2955341,163.8690033,27.31534
	L163.8690033,27.31534z M169.3976135,15.077631c-1.6790619-0.6307688-3.2996826-1.3516216-4.9716339-1.8619537
	c-0.536499,1.0891342-1.0830841,2.179244-1.6340027,3.2648926c-0.5507202,1.0859261-1.1098175,2.1719913-1.6626892,3.258709
	c1.8388367,0.4158344,3.6530762,0.9376011,5.4878387,1.4529076c0.4749298-1.0195961,0.9474945-2.0387745,1.4126892-3.0573006
	C168.4942017,17.118124,168.9470825,16.095274,169.3976135,15.077631L169.3976135,15.077631z M163.8690033,27.31534
	c-1.9983826-0.4222488-3.9928741-0.7924595-6.0282135-1.0500183c-0.5241394,1.0891094-1.0487366,2.1721554-1.5480347,3.2586632
	c-0.4958801,1.0787678-0.9664917,2.1650658-1.4373169,3.2433453c2.2727509,0.0975914,4.5006104,0.3139229,6.7038727,0.6364174
	c0.335907-1.0044632,0.6830292-2.0208073,1.0688171-3.033268C163.0164948,29.3519516,163.4348755,28.337307,163.8690033,27.31534
	L163.8690033,27.31534z M151.4438934,26.2284145c2.195282-0.1170444,4.324707-0.1017036,6.3968964,0.0369072
	c0.5364532-1.0847893,1.0733795-2.1755962,1.6217041-3.2630558c0.5491791-1.088623,1.1098022-2.1759911,1.6667938-3.2629871
	c-1.9001617-0.2661133-3.8700409-0.3788338-5.913559-0.3397408c-0.6346741,1.138731-1.271759,2.2766247-1.9001617,3.4145184
	C152.6869354,23.9517193,152.0664825,25.0894051,151.4438934,26.2284145L151.4438934,26.2284145z M158.9957581,12.574728
	c-1.9916992,0.0541992-4.1534882,0.4354496-6.5894775,1.3727713c-0.6716156,1.1279936-1.3483734,2.2555227-2.0227661,3.3819361
	c-0.6726685,1.123251-1.3475037,2.2518501-2.0191345,3.3756599c2.4489288-0.6885948,4.7137299-1.1000576,6.8513489-1.3055573
	c0.6348877-1.1368256,1.2654877-2.2736511,1.8960571-3.410244C157.742569,14.8524694,158.3731842,13.7115068,158.9957581,12.574728
	L158.9957581,12.574728z M151.4438934,26.2284145c-2.260437,0.2361546-4.6234741,0.6323261-7.1175079,1.2319984
	c-0.6757202,1.1281796-1.3483582,2.253336-2.0230103,3.3800049c-0.6726532,1.1230202-1.3431854,2.2515965-2.0147705,3.3754749
	c2.5922394-0.5154915,5.0944977-0.8986702,7.5311432-1.1735001c0.5897675-1.1325016,1.1771698-2.2703972,1.7813873-3.401598
	C150.2090607,28.5029011,150.8256378,27.3652401,151.4438934,26.2284145L151.4438934,26.2284145z"/>
<path fill="#FFFFFF" d="M40.5540543,21.6649609h5.2685242v0.0017204c0.0604401,0,0.1219597,0.0039043,0.1834908,0.0127354
	c0.6934052,0.098217,1.1733131,0.7234097,1.072052,1.3958721l-0.4110222,2.6570396l3.9436531-3.7159119l0.0008736,0.0010681
	c0.2279739-0.2150288,0.5394897-0.3477821,0.8822975-0.3477821h6.1078377
	c0.3687248-0.020546,0.7441177,0.1139755,1.012043,0.3996105c0.4714851,0.5022907,0.4336929,1.2805958-0.0842018,1.7377987
	l-7.4050522,6.5473537l5.3861465,6.6285591c0.1943207,0.2165184,0.3123894,0.4997826,0.3123894,0.8093338
	c0,0.680645-0.5688324,1.2324638-1.2704391,1.2324638h-6.3433685v-0.0038834
	c-0.3959274-0.0004425-0.7853699-0.1796074-1.032341-0.5161667l-2.883049-3.9259911l-0.5213509,3.3582077
	c-0.0738373,0.612011-0.6105003,1.0878334-1.2615967,1.0878334h-5.2682915v-0.0008621
	c-0.0623932,0-0.1252136-0.0043221-0.1886864-0.0135956c-0.6933784-0.101078-1.1711273-0.7283821-1.0668678-1.4008713
	l2.3034248-14.8439636C39.3585205,22.1470318,39.8982315,21.6649609,40.5540543,21.6649609L40.5540543,21.6649609z
	 M64.0051346,21.6608696c1.3274536-0.3102245,2.6387024-0.4216423,3.8847656-0.4216423
	c2.5259552,0,4.4783859,0.4710083,5.9491425,1.1722431c0.3059235,0.1459103,0.5826797,0.2959557,0.831131,0.4480934
	c0.2687607,0.1647816,0.5105667,0.3316536,0.7271042,0.4994087l0.0015106,0.0012093
	c0.7568817,0.5863781,1.4755249,1.3546886,2.0072403,2.3570404c0.5277863,0.9951687,0.8665237,2.2047386,0.8665237,3.6698952
	c0,1.4358006-0.2933731,2.6734715-0.7633362,3.7351551c0.1230392,0.0112038,0.2290421,0.0165939,0.3181992,0.0168266v-0.0047417
	h0.0075531c0.5478897,0,0.9036407-0.1461411,1.121254-0.3201714c0.0291672-0.0232887,0.0621948-0.0543861,0.096962-0.0904541
	c0.0205002-0.0211487,0.0427399-0.0483208,0.0651932-0.0783463l0.0008545,0.0006256l0.0049515-0.006691
	c0.0943604-0.1243439,0.1878128-0.4051895,0.2670441-0.7039814c0.0928497-0.3505707,0.1604156-0.7501812,0.1988297-1.0025139
	l1.2534027-8.1513996c0.0602417-0.6259804,0.6040192-1.1164646,1.2652588-1.1164646h14.2995605v0.0008373
	c0.0619354,0,0.1252213,0.0042763,0.1884842,0.0136185c0.6933823,0.1008205,1.1711349,0.7281494,1.0670776,1.4008465
	l-2.3051605,14.8567257c-0.074028,0.6122208-0.6107407,1.0878334-1.2615891,1.0878334h-5.2687073v-0.0017433
	c-0.0607071,0-0.1217651-0.0038834-0.1835175-0.0127144c-0.6934052-0.0982628-1.1733093-0.7234306-1.072052-1.3961296
	l1.5301208-9.9146233h-1.197464l-0.7510223,4.8283119l-0.0008774-0.0002098l-0.0008392,0.0058327
	c-0.184166,1.19207-0.4021912,2.6013298-1.561676,3.9909744c-1.0077438,1.2032738-2.2982407,1.8848-3.6522598,2.2624016
	c-1.2699738,0.3540115-2.5730209,0.4328461-3.7275314,0.4328461V39.215004c-0.4863892,0-0.8818893-0.010807-1.2283707-0.0403938
	c-0.3574753-0.0306549-0.7184372-0.0824585-1.1303635-0.162735l-0.0112-0.0015106
	c-0.6933823-0.101078-1.1711578-0.7283821-1.0668945-1.4008713l0.1777039-1.1262016
	c-0.1176529,0.1001472-0.235527,0.1968765-0.3534088,0.2888412c-0.2719955,0.2121925-0.5414047,0.4023781-0.8024063,0.5722961
	c-0.0217972,0.0161743-0.0440445,0.0319099-0.0669098,0.0468063l-0.0013275,0.0009079l-0.0017395-0.0021858l-0.0019073,0.0012779
	l-0.0013046,0.0009079c-1.2587738,0.8086586-2.5909882,1.3257065-3.932869,1.6397667
	c-1.3270111,0.3106651-2.6403961,0.4220848-3.8892899,0.4220848c-2.5305176,0-4.4842033-0.4734497-5.9543419-1.1752434
	c-0.291214-0.1390305-0.5668907-0.2895164-0.8261604-0.4486275c-0.2204208-0.1351242-0.4358559-0.2834511-0.6457024-0.4420967
	c-0.0282822-0.0183372-0.055687-0.0375557-0.0826797-0.0584984c-0.7570839-0.5865631-1.475544-1.3548508-2.007225-2.3573875
	c-0.527832-0.9951935-0.8667603-2.2048111-0.8667603-3.6697559c0-3.0078201,1.2855453-5.1485062,2.7923851-6.6161938
	c0.2901459-0.2828484,0.5865517-0.538641,0.8812294-0.7687759c0.2713432-0.2119617,0.5405464-0.4017506,0.8013115-0.5716438
	c0.0218239-0.0164089,0.0444984-0.0323524,0.0678177-0.0472736l0.001255-0.0008354l0.0017204,0.0021381l0.0017433-0.0013027
	l0.0015106-0.0008354C61.32481,22.49156,62.6591377,21.9753723,64.0051346,21.6608696L64.0051346,21.6608696z
	 M66.3284073,33.4154396V33.410675h0.0026245v0.0047646c0.8688965,0,1.6473465-0.2240944,2.2572174-0.5546303
	c0.1191406-0.0643311,0.2264633-0.1290817,0.3212204-0.1932068c0.071907-0.0487823,0.1435852-0.1023293,0.2148209-0.1599236
	c0.0179138-0.0168724,0.0362549-0.0330696,0.0552673-0.0492249c0.2402649-0.2027321,0.4716568-0.4622231,0.6549606-0.7869034
	c0.0384445-0.0682125,0.0753479-0.1387978,0.1092377-0.2111015c0.2195587-0.4669399,0.3628616-1.0625687,0.3630981-1.8153534
	h-0.0051575V29.642725c0-0.2687626-0.0226898-0.5932121-0.121788-0.9004154
	c-0.0878525-0.2722492-0.2426376-0.5498428-0.5094528-0.7860432l0.0017242-0.0016975
	c-0.1461411-0.125433-0.3464813-0.2568855-0.6094589-0.3728142c-0.0925903-0.0410194-0.1500244-0.0658646-0.1687775-0.0727921
	c-0.3756485-0.139843-0.8486328-0.234621-1.4315262-0.2348518v0.0047398h-0.0025558v-0.0047398
	c-0.869133,0-1.6475754,0.2240448-2.2574539,0.5545826c-0.0900345,0.0485973-0.1735611,0.0973816-0.2497711,0.146143
	c-0.0228653,0.0179405-0.0466461,0.0352097-0.0714417,0.0518513c-0.083992,0.0567551-0.1569748,0.1096287-0.2184677,0.1582489
	c-0.0166397,0.0157337-0.0339127,0.0308189-0.0515976,0.045948c-0.2372742,0.2003174-0.467804,0.4606895-0.6547546,0.7916222
	l-0.0021629-0.0010681c-0.0378113,0.0673294-0.0736046,0.1366348-0.1070709,0.2074509
	c-0.2195854,0.4671497-0.363121,1.0625687-0.3633308,1.8155422h0.0051842v0.0023689
	c0,0.2685776,0.0226593,0.5932579,0.1217346,0.9004383c0.0878754,0.2722015,0.2424545,0.549633,0.5094948,0.7857895
	l-0.0019531,0.0021858c0.1465836,0.1251984,0.3469238,0.2566757,0.6096497,0.3726044
	c0.0926132,0.0409966,0.1502304,0.0658188,0.1688232,0.0727196C65.2723465,33.3204269,65.7453537,33.4154396,66.3284073,33.4154396
	L66.3284073,33.4154396z M108.1544342,39.0248222H96.8650894v-0.0008621c-0.0624084,0-0.1249924-0.0043221-0.1886749-0.0135956
	c-0.6934052-0.101078-1.1709213-0.7283821-1.0668716-1.4008713l2.3036346-14.8439636
	c0.0677948-0.6183128,0.6077118-1.1005688,1.2633286-1.1005688h11.2895813v0.0008373
	c0.0619583,0,0.1254272,0.0042763,0.1884613,0.0136185c0.6934052,0.1008205,1.1711044,0.7281494,1.0670776,1.4008465
	l-0.4259186,2.6962929c0.3410645-0.476656,0.7452087-0.9397144,1.2211914-1.3820896
	c0.9630508-0.8943253,2.1137009-1.5972366,3.3862762-2.1090565c0.2597275-0.1043072,0.5092468-0.1967144,0.748024-0.2761059
	c1.528862-0.5099144,3.2213364-0.7651501,4.9662933-0.7652893v-0.0047874h0.0028152
	c1.491066,0,2.6622009,0.1925774,3.5779495,0.4574814c0.8917923,0.2577457,1.5471954,0.5891209,2.0249481,0.8825188
	c0.4574585,0.2398033,0.7342148,0.7391205,0.6523819,1.2667446l-0.6720428,4.3197212l-0.0019302-0.0002327
	c-0.0414429,0.2705059-0.1755219,0.5286942-0.4002609,0.7271042c-0.517868,0.4572029-1.3198547,0.4205284-1.7913284-0.0817852
	c-0.6064072-0.6457615-1.2682953-0.9911499-1.8546066-1.174408c-0.5889359-0.1839542-1.1284103-0.2085667-1.4543686-0.2085667
	c-0.7629242,0-1.7559967,0.1392612-2.5793457,0.5803127c-0.15242,0.0813446-0.2942352,0.1698933-0.4207382,0.2646713
	c-0.1245499,0.0930347-0.2450104,0.2000847-0.3596573,0.322031l-0.0004425-0.0001621l-0.0073471,0.0082035
	c-0.2980881,0.3145027-0.4861374,0.6810875-0.6007843,1.0532494c-0.1230164,0.4004478-0.1635971,0.8192806-0.1635971,1.1992054
	c0,0.2776413,0.0219879,0.6709538,0.1607819,1.0319138c0.1260834,0.3281212,0.3609619,0.6659584,0.7925339,0.9239349
	l-0.0002365,0.0004425l0.0151291,0.0090408c0.1610184,0.0997505,0.3717499,0.1900215,0.6230316,0.2647171l-0.0002518,0.0008354
	c0.0412521,0.0121117,0.0950089,0.0270081,0.1591034,0.0429993l-0.000412,0.0012779
	c0.3471298,0.0863419,0.7428131,0.1360092,1.1694031,0.1360092v-0.0047646h0.0034409
	c1.1674805,0,2.2166443-0.3689575,3.0410767-0.814518c0.1407776-0.0759964,0.297699-0.1696587,0.4639206-0.2752228
	c0.140564-0.0891762,0.2677155-0.175518,0.3819275-0.2582092c0.2646484-0.2037811,0.6124344-0.3058796,0.9733887-0.2547493
	c0.4991074,0.070816,0.8872604,0.4142761,1.0280151,0.8520966l6.1330719-10.140461
	c0.203598-0.4168549,0.6418304-0.705698,1.148941-0.705698h6.3971252v0.0013008
	c0.5528564,0,1.0621185,0.3527565,1.2207642,0.8941402l4.3646545,14.8385963
	c0.0427399,0.1235275,0.0662842,0.256073,0.0662842,0.3933601c0,0.680645-0.5688629,1.2324638-1.270462,1.2324638h-5.5370789
	v-0.0043259c-0.5716248,0.0004425-1.0906219-0.3767166-1.2306976-0.9393196l-0.4086761-1.6313515h-4.6668396l-1.1394196,1.9491539
	l-0.0015411-0.0008583c-0.2175751,0.3710938-0.6283875,0.6219597-1.1000824,0.6219597h-5.7028503V39.019825
	c-0.2180481,0.0002556-0.438446-0.0535011-0.6400909-0.1683617c-0.0574265-0.0325851-0.1113968-0.0690956-0.1614838-0.1085815
	c-0.6003418,0.2143784-1.1981125,0.3680725-1.7861633,0.4764442c-0.9842224,0.1813049-1.9183121,0.2346687-2.7835388,0.2346687
	c-0.7616425,0-1.6853638-0.0418816-2.6874847-0.221489c-1.0221786-0.182888-2.0959473-0.5093117-3.1084061-1.0785599
	l0.0001831-0.0006294c-1.755928-0.9757614-2.7297821-2.2511978-3.2660065-3.4831963
	c-0.0973816-0.2234192-0.1800537-0.4444885-0.2499847-0.66082c0.0222397,0.1260605,0.0247955,0.2580032,0.0040894,0.3913841
	l-0.5586929,3.5395584C109.3402557,38.5509529,108.8042145,39.0248222,108.1544342,39.0248222L108.1544342,39.0248222z
	 M108.9134521,33.0004883c0.451416,0.0680046,0.8099823,0.3585892,0.9755478,0.7393532
	c-0.1361923-0.484581-0.2115173-0.9420624-0.25103-1.3505058C109.4892044,32.6745071,109.2293015,32.8962517,108.9134521,33.0004883
	L108.9134521,33.0004883z M109.9298172,27.7041435c0.0878754,0.0887127,0.161499,0.1901836,0.2189331,0.3000927l0.0265121-0.0753727
	c0.0330505-0.0936623,0.0678253-0.1869526,0.1045227-0.2799644
	C110.168808,27.6823196,110.0513458,27.7015648,109.9298172,27.7041435L109.9298172,27.7041435z M136.0565338,30.708292
	l-0.1930084-0.7726116l-0.412323,0.7726116H136.0565338L136.0565338,30.708292z"/>
<path fill-rule="evenodd" clip-rule="evenodd" fill="#782834" d="M136.2961273,26.6126633l1.3708344,5.4897804h-4.300705
	L136.2961273,26.6126633L136.2961273,26.6126633z M124.653183,37.954258h5.7028503l1.5050964-2.5749741h6.3971405
	l0.6450195,2.5749741h5.5370789l-4.3812408-14.8951912h-6.3971252L124.653183,37.954258L124.653183,37.954258z
	 M125.1684875,33.0389061c-1.0483475,0.7659645-2.7146759,1.6169662-4.6768265,1.6169662
	c-1.0752563,0-2.0158768-0.255188-2.6341248-0.6383667c-1.4245758-0.8507957-1.5588837-2.2554989-1.5588837-3.0002899
	c0-0.9576359,0.2150497-2.1492863,1.1018677-3.0853062c1.1558151-1.2339745,3.0104218-1.5746231,4.3005295-1.5746231
	c0.8064957,0,2.6881104,0.127573,4.2469482,1.7872562l0.6720276-4.3197212
	c-0.8065186-0.5103798-2.2846451-1.1914425-4.9997177-1.1914425c-3.1984711,0-6.2088928,0.9360676-8.2247467,2.8087578
	c-2.0158844,1.8725529-2.5266571,4.1708164-2.5266571,6.2557697c0,1.3198509,0.2957687,3.9156036,3.2524338,5.5541153
	c1.7472839,0.9824333,3.7361984,1.1313858,5.1605682,1.1313858c1.6126251,0,3.4408493-0.1914406,5.2414932-1.1102371
	L125.1684875,33.0389061L125.1684875,33.0389061z M96.8650894,37.954258h11.2893448l0.5643234-3.5747223h-6.0206604
	l0.3490829-2.3835125h5.4567795l0.5107727-3.2770481h-5.4567566l0.3225021-2.0851631h6.0208435l0.5647659-3.5747452H99.1766891
	L96.8650894,37.954258L96.8650894,37.954258z M82.1087189,23.0590668l-1.2630997,8.2138023
	c-0.0807343,0.5316677-0.2959747,1.7233429-0.699234,2.2552452c-0.3492966,0.4682426-1.0748672,1.0003738-2.3114166,1.0003738
	c-0.3760452,0-0.8062897-0.0427399-1.2406464-0.1489525l-0.5645065,3.5747223
	c0.7570648,0.1524391,1.3483429,0.1949692,2.1814499,0.1949692c2.1233749,0,4.7577057-0.2800102,6.3973312-2.237812
	c0.9407654-1.127739,1.1290436-2.3619194,1.2900772-3.4046402l0.913826-5.872963h3.7629776l-1.7470932,11.320446h5.2684784
	l2.3112106-14.8951912H82.1087189L82.1087189,23.0590668z M66.3308258,34.8048286
	c-1.5053406,0-2.4994431-0.5105667-3.0642052-0.999958c-0.9138031-0.8086586-1.0480919-1.8727379-1.0480919-2.5961475
	c0-1.8938866,0.7525558-3.0641804,1.5588646-3.7451038c0.8335075-0.7020035,2.1501732-1.2552853,3.6824684-1.2552853
	c1.5051117,0,2.4998856,0.5107498,3.0641556,0.9999561c0.9138031,0.8088913,1.0483246,1.872715,1.0483246,2.5963326
	c0,1.8932838-0.7523193,3.0639496-1.5590744,3.744873C69.1797409,34.2517319,67.863121,34.8048286,66.3308258,34.8048286
	L66.3308258,34.8048286z M67.8899002,22.633379c-2.3386154,0-4.8650589,0.4043522-7.1231384,1.8514023
	c-1.8278351,1.1702232-3.9780045,3.3407059-3.9780045,6.9795494c0,2.5106411,1.1290512,4.0854969,2.3923683,5.0642567
	c1.3440437,1.0424881,3.4940033,1.8548203,6.7198524,1.8548203c2.3384018,0,4.8650513-0.4045143,7.1224823-1.8548203
	c1.8283005-1.1704559,3.978447-3.3406792,3.978447-6.9795723c0-2.5108738-1.1290436-4.0857048-2.3923721-5.0642338
	C73.2654724,23.4422703,71.115303,22.633379,67.8899002,22.633379L67.8899002,22.633379z M45.8225784,23.0590668h-5.2685242
	L38.2426491,37.954258h5.2682915l0.9943466-6.4050961l4.7039909,6.4050961h6.3433685l-6.1553459-7.5756207l8.278717-7.3195705
	h-6.1820946l-6.6391335,6.2557697L45.8225784,23.0590668L45.8225784,23.0590668z"/>
<path fill="#FFFFFF" d="M25.2901535,18.3316002h-6.0249481v-0.0039043c-0.3253193,0-0.6506405-0.1206703-0.8982525-0.3620071
	c-0.4930649-0.4812813-0.4909267-1.2592602,0.0051708-1.7376137l7.335537-7.0963602l-4.4870243-6.1419792
	c-0.1819916-0.2132623-0.2916546-0.4872308-0.2916546-0.7857885c0-0.680459,0.5688534-1.2322075,1.2704506-1.2322075h6.0746021
	V0.97583c0.4306736,0,0.8499241,0.2132622,1.086729,0.5975339l1.5741806,2.5594721l2.3660355-2.6617804
	c0.2316322-0.3026947,0.6025047-0.4993162,1.0208855-0.4993162h5.8056183v0.003858
	c0.3208008-0.0002324,0.6415901,0.1169968,0.8883514,0.3523382c0.4988747,0.4757495,0.5053596,1.2540078,0.0148888,1.7377524
	l-6.2308922,6.1329622l5.0087929,7.1375446c0.1707649,0.2098675,0.2724457,0.4749584,0.2724457,0.7629185
	c0,0.6806908-0.5690613,1.2324867-1.2706604,1.2324867h-6.0746002v-0.0032539
	c-0.436718-0.0006504-0.862009-0.2200489-1.0966663-0.6131058l-2.0521374-3.4428272l-3.3102703,3.6030064
	C26.043787,18.1534786,25.6884518,18.3316002,25.2901535,18.3316002L25.2901535,18.3316002z M47.2633553,0.9676025
	c1.3272171-0.3102249,2.6384583-0.4215972,3.8845062-0.4215972c2.5260048,0,4.4781799,0.4710548,5.949192,1.1721519
	c0.3056679,0.1459554,0.5826492,0.2960478,0.831131,0.4481853c0.2687416,0.1647809,0.5105438,0.3316069,0.7270699,0.4993627
	l0.0014992,0.0013015c0.7568779,0.5863316,1.475544,1.3544104,2.0070267,2.3569472
	c0.2722244,0.5131679,0.4941559,1.0837421,0.6452713,1.7164636l0.726429-4.6809387
	c0.0740471-0.6121759,0.6107368-1.0877395,1.2615852-1.0877395h7.9294434c0.6536865,0,1.6309586,0.0122714,2.7086105,0.2462649
	c1.1504211,0.2499834,2.3483505,0.7469755,3.2774658,1.727898c0.3192902,0.3367665,0.6126633,0.7480447,0.8447571,1.2341599
	c0.0370941,0.0781837,0.0792236,0.1746817,0.1254044,0.2903767c0.0982437,0.2438941,0.1811218,0.5055914,0.2441559,0.7840223
	c0.3387146-0.4664993,0.7091827-0.8860979,1.0945206-1.261538c0.2901459-0.2828002,0.5863113-0.538594,0.8811722-0.7687759
	c0.2718353-0.2121933,0.5412445-0.4021211,0.8022461-0.572015c0.0217972-0.0162225,0.0440445-0.03198,0.0669098-0.0468545
	l0.0013046-0.0008831l0.0015106,0.0021846l0.0021362-0.0013015l0.0013275-0.0008831
	c1.2576981-0.8061014,2.5920563-1.3222443,3.9380493-1.6367922c1.3271942-0.3102249,2.6386566-0.4215972,3.8847122-0.4215972
	c2.525795,0,4.4782104,0.4710548,5.9489899,1.1721519c0.3058777,0.1459554,0.582634,0.2960478,0.831131,0.4481853
	c0.2685547,0.1647809,0.5107269,0.3316069,0.7272644,0.4993627l0.0013046,0.0013015
	c0.7570801,0.5863316,1.4757309,1.3546426,2.0074615,2.3569472c0.2719955,0.5129356,0.4939041,1.0832772,0.6450195,1.71558
	l0.7264328-4.6800547c0.0738602-0.6121759,0.6105194-1.0877395,1.2616043-1.0877395h5.2682953v0.0017198
	c0.0608673,0,0.1217346,0.0038581,0.1837234,0.0126898c0.6933975,0.0982642,1.1730804,0.7234553,1.0718384,1.3959193
	l-1.5301361,9.9147863h1.9491348l1.5769882-10.2146454c0.0632858-0.6232389,0.6051102-1.1104696,1.2642136-1.1104696h5.2680588
	v0.0017198c0.0606613,0,0.1217804,0.0038581,0.1834869,0.0126898c0.693428,0.0982642,1.1733398,0.7234553,1.072052,1.3959193
	l-1.5292511,9.9100924h1.9495926l1.5756912-10.2099514c0.0632401-0.6232389,0.6051102-1.1104696,1.2641678-1.1104696h5.2681046
	v0.0008367c0.0623779,0,0.1249924,0.0043229,0.1884613,0.0135729c0.5513535,0.0803219,0.9667053,0.4937383,1.0612488,0.9978422
	c0.1073074-0.5753152,0.6260529-1.0122519,1.250145-1.0122519h5.0800629v0.0008367
	c0.0624084,0,0.1251984,0.0043229,0.1886749,0.0135729c0.6933746,0.1008673,1.1711578,0.7281966,1.0670776,1.4008465
	l-0.7819061,4.9984608l5.7207947-5.9627895c0.2329254-0.2752235,0.5860748-0.4509278,0.9819946-0.4509278h5.2683411v0.0008367
	c0.0621185,0,0.1249847,0.0043229,0.188446,0.0135729c0.6934052,0.1008673,1.1711273,0.7281966,1.0670929,1.4008465
	l-2.3038635,14.8438034c-0.0680084,0.6184978-0.6078949,1.1008015-1.2635651,1.1008015h-5.080246v-0.0008831
	c-0.0619507,0-0.1252136-0.004324-0.1884308-0.0136204c-0.6934052-0.1010056-1.1711731-0.7283363-1.0671082-1.4007988
	l0.7818909-4.9987402l-5.7174988,5.9595346c-0.2329559,0.2772694-0.5878754,0.4545078-0.9852753,0.4545078h-5.2683105v-0.0008831
	c-0.0619431,0-0.125412-0.004324-0.188446-0.0136204c-0.5516052-0.0802746-0.9662781-0.4941101-1.0606155-0.9982128
	c-0.1070709,0.5755463-0.6267014,1.0127163-1.250824,1.0127163h-24.835701v-0.0008831
	c-0.0621948,0-0.1254578-0.004324-0.1886978-0.0136204c-0.6934052-0.1010056-1.1711502-0.7283363-1.0668716-1.4007988
	l0.5500565-3.5453691c-0.4457703,0.7471151-0.9785767,1.3904343-1.5420151,1.939208
	c-0.2903824,0.2828007-0.5867538,0.538641-0.8814545,0.7687302c-0.2711334,0.2117748-0.5398941,0.401516-0.8008957,0.5714569
	c-0.0220261,0.0163612-0.044899,0.0325832-0.0682297,0.0476913l-0.0012589,0.0008831l-0.0017395-0.0021858l-0.0017242,0.0011158
	l-0.0015106,0.00107c-1.2588196,0.8086586-2.5909882,1.3256378-3.9328918,1.6398125
	c-1.3270111,0.3105984-2.6403961,0.4220161-3.8892441,0.4220161c-2.5305405,0-4.4840164-0.4734249-5.9541702-1.1752205
	c-0.2911911-0.1390285-0.5668793-0.2895393-0.8263702-0.4486027c-0.2687607-0.1647339-0.5107498-0.3320255-0.7268448-0.499548
	l-0.0015106-0.00107c-0.7570877-0.5865631-1.4755478-1.3549213-2.0072632-2.3574114
	c-0.4865799-0.9172421-0.8121414-2.0158587-0.8602524-3.3290386c-0.0820389,0.0822277-0.1651535,0.1614342-0.248497,0.2374802
	c-0.0250244,0.026309-0.0518036,0.0515957-0.0796432,0.0761843c-1.0696793,0.9476414-2.2982407,1.4893494-3.5028381,1.7926483
	c-1.1648788,0.2933989-2.2749481,0.3598223-3.1835938,0.3598223h-1.476593v-0.0029745
	c-0.043808-0.0002327-0.0876617-0.0021391-0.1307983-0.0064611l-0.5965118,3.8251467
	c-0.0681915,0.6182652-0.6078796,1.0999184-1.2632828,1.0999184h-5.2683144v-0.0008831
	c-0.0621948,0-0.1254082-0.004324-0.1886978-0.0136204c-0.6934013-0.1010056-1.1711044-0.7283363-1.0668449-1.4007988
	l0.5500526-3.5453691c-0.4457893,0.7471151-0.9785728,1.3904343-1.5420265,1.939208
	c-0.2901192,0.2828007-0.5865288,0.538641-0.8812294,0.7687302c-0.2711296,0.2117748-0.5398941,0.401516-0.8008919,0.5714569
	c-0.0219994,0.0163612-0.0448914,0.0325832-0.0684242,0.0476913l-0.0013008,0.0008831l-0.0015106-0.0021858l-0.0017204,0.0011158
	l-0.0015221,0.00107c-1.2590065,0.8086586-2.5911865,1.3256378-3.932869,1.6398125
	c-1.3272095,0.3105984-2.6406212,0.4220161-3.8894691,0.4220161c-2.5305481,0-4.4840126-0.4734249-5.9541435-1.1752205
	c-0.2912254-0.1390285-0.5669022-0.2895393-0.8261833-0.4486027c-0.2689705-0.1647339-0.5109825-0.3320255-0.7270775-0.499548
	l-0.0014992-0.00107c-0.7570877-0.5865631-1.4755325-1.3549213-2.0072479-2.3574114
	c-0.528019-0.9953794-0.8665276-2.2048101-0.8665276-3.6697092c0-3.0078435,1.2855568-5.1485071,2.7921638-6.6162419
	c0.2903633-0.2828002,0.5865402-0.538594,0.881424-0.7687759c0.2709351-0.2117283,0.5399208-0.4012845,0.8007088-0.570946
	c0.0222321-0.0164082,0.044693-0.0328166,0.0682144-0.0479236l0.0013008-0.0008831l0.0017204,0.0021846l0.0019417-0.0013015
	l0.0012894-0.0008831C44.5827827,1.7982932,45.9171257,1.2821504,47.2633553,0.9676025L47.2633553,0.9676025z
	 M49.5864029,12.7221718v-0.0047417h0.0026169c0.8749428,0,1.6525383-0.2223263,2.257206-0.5498896
	c0.1191597-0.0642853,0.2264633-0.129035,0.3212318-0.1931353c0.071022-0.0481558,0.1427002-0.1014709,0.2139359-0.1586914
	c0.0181274-0.0172453,0.0364876-0.0341644,0.0561371-0.0505266c0.237236-0.2001543,0.4677887-0.4604568,0.6547432-0.7915983
	l0.0026016,0.0013008c0.0377808-0.0671673,0.0731888-0.1369371,0.1066322-0.2076836
	c0.2195511-0.4669647,0.3629036-1.0625925,0.363121-1.8153324h-0.0049706V8.9495029
	c0-0.2687626-0.0226746-0.5934429-0.1217613-0.9004612c-0.0878639-0.2722483-0.2424316-0.5497961-0.509243-0.785974
	l0.0019188-0.0019522c-0.1463394-0.1252241-0.3467026-0.2564912-0.6098404-0.3726048
	c-0.092617-0.0409975-0.1500473-0.0658193-0.1688232-0.0727453c-0.3756256-0.1399589-0.8486099-0.2346439-1.4314919-0.2348766
	v0.0047412h-0.0025902V6.5808887c-0.8691101,0-1.6473694,0.2240462-2.2574272,0.5545378
	c-0.0900269,0.0486207-0.1729164,0.0976133-0.2489166,0.1461411c-0.0233116,0.0181751-0.047493,0.035234-0.072094,0.0518746
	c-0.0842018,0.0569878-0.1569595,0.1098385-0.2184792,0.1584592c-0.0166054,0.0155253-0.0341072,0.0308647-0.0518188,0.0457392
	c-0.2402649,0.2029428-0.4714699,0.4623623-0.6547508,0.7869043c-0.0386391,0.0681429-0.075325,0.1390295-0.1092339,0.2111235
	c-0.2195511,0.4668713-0.3628922,1.0625458-0.363102,1.8155184h0.0049629v0.0023241
	c0,0.2686224,0.0226593,0.5933037,0.1219597,0.9004612c0.0878754,0.2722015,0.2424278,0.5496569,0.5092621,0.7858343
	l-0.0017204,0.0019064c0.1465836,0.1254559,0.3466911,0.2571411,0.6094246,0.3728371
	c0.0926056,0.0409975,0.150032,0.0658655,0.1688118,0.0727911C48.5303307,12.627161,49.0033379,12.7221718,49.5864029,12.7221718
	L49.5864029,12.7221718z M69.1456451,6.7132249l-0.1509018,0.961307h0.0276337c0.2534256,0,0.5811462-0.0112491,0.8708496-0.0697241
	l0.0002365,0.0010228l0.004715-0.0010228c0.2193298-0.0440655,0.4239883-0.1109538,0.5431747-0.2134948l0.0001831,0.000186
	c0.0352097-0.0371394,0.0678177-0.0872011,0.096756-0.1437707l0.0019302,0.0010691l0.0064774-0.0125036l0.0086288-0.0211496
	c0.0338821-0.0787878,0.0505219-0.147954,0.0505219-0.2001076h-0.0049515V7.0130844
	c0-0.0488071-0.0138474-0.0943599-0.036087-0.130384L70.55233,6.8642936l-0.0200806-0.0211496
	c-0.0319595-0.0248218-0.102356-0.0485282-0.1949768-0.0701423c-0.2003403-0.0468082-0.4776993-0.0597768-0.7773514-0.0597768
	H69.1456451L69.1456451,6.7132249z M87.5393524,12.7221718v-0.0047417h0.0026016v0.0047417
	c0.869133,0,1.6473694-0.2240467,2.257431-0.5546312c0.1191559-0.0642853,0.2264633-0.129035,0.3209839-0.1931353
	c0.0712814-0.0481558,0.1431656-0.1014709,0.2141647-0.1586914c0.0181503-0.0172453,0.0364914-0.0341644,0.0561523-0.0505266
	c0.240036-0.2027102,0.4712677-0.4622231,0.6545258-0.7868576c0.0386505-0.0682364,0.075325-0.1387968,0.1092529-0.2111235
	c0.2197495-0.4669647,0.3630981-1.0625925,0.3630981-1.8153324h-0.0049744V8.9495029
	c0-0.2687626-0.0226593-0.5932112-0.1217346-0.9004612c-0.0878983-0.2722483-0.2424545-0.5497961-0.5092621-0.785974
	l0.0017166-0.0019522c-0.1461411-0.1252241-0.3467102-0.2564912-0.609642-0.3726048
	c-0.0928268-0.0409975-0.1502533-0.0658193-0.1688232-0.0727453c-0.3758392-0.1399589-0.8486099-0.2346439-1.4314804-0.2348766
	v0.0047412h-0.0026016V6.5808887c-0.8693161,0-1.6475525,0.2240462-2.2574539,0.5545378
	c-0.1193619,0.064332-0.2266464,0.1291285-0.3212128,0.1932745c-0.0718689,0.0485282-0.1433563,0.1020761-0.214798,0.1597142
	c-0.0176849,0.0168734-0.0362778,0.0332818-0.0552673,0.0492253c-0.2404785,0.2029428-0.4716873,0.4623623-0.6549683,0.7869043
	c-0.038414,0.0681429-0.0751343,0.1390295-0.1090012,0.2111235c-0.2195587,0.4668713-0.3629074,1.0625458-0.363121,1.8155184
	h0.0049515v0.0023241c0,0.2686224,0.0226822,0.5933037,0.1217651,0.9004612
	c0.0880814,0.2722015,0.242424,0.5496569,0.5094681,0.7858343l-0.0017166,0.0019064
	c0.1465836,0.1254559,0.3467102,0.2571411,0.6091995,0.3728371c0.0928497,0.0409975,0.1502533,0.0658655,0.169014,0.0727911
	C86.4832916,12.627161,86.9562759,12.7221718,87.5393524,12.7221718L87.5393524,12.7221718z M157.8297882,18.3316002H146.540451
	v-0.0008831c-0.0619659,0-0.1254578-0.004324-0.1884918-0.0136204c-0.6933746-0.1010056-1.1711273-0.7283363-1.0670929-1.4007988
	L147.590683,2.059479c0.0738068-0.6121759,0.6105194-1.0877395,1.2615967-1.0877395h11.2891388v0.0008367
	c0.0619659,0,0.1254425,0.0043229,0.1884613,0.0135729c0.6936188,0.1008673,1.1711426,0.7281966,1.0671082,1.4008465
	l-0.5587158,3.5367224c-0.0727539,0.603344-0.5951691,1.0736089-1.2333221,1.0871816
	c0.2633667,0.2659268,0.4013519,0.6430869,0.3404388,1.0359583l-0.5044861,3.237606
	c-0.0572205,0.4779348-0.3965607,0.8721075-0.8520966,1.0227575c0.6902008,0.1036091,1.1649017,0.7294512,1.0610657,1.4002419
	l-0.5589142,3.5395117C159.0154114,17.8577099,158.4795685,18.3316002,157.8297882,18.3316002L157.8297882,18.3316002z"/>
<path fill-rule="evenodd" clip-rule="evenodd" fill="#782834" d="M146.540451,17.2610588h11.2893372l0.5645447-3.5747452h-6.0208588
	l0.3490601-2.3835354h5.4567871l0.5107574-3.2770243h-5.4567871l0.3227692-2.0852094h6.0206146l0.564743-3.5746987h-11.2891388
	L146.540451,17.2610588L146.540451,17.2610588z M128.5858154,2.3658459l-2.3118286,14.8952131h5.2683105l8.5744629-8.937397
	l-1.3977966,8.937397h5.0800018l2.3118896-14.8952131h-5.2685242l-8.5740662,8.9369326l1.3976135-8.9369326H128.5858154
	L128.5858154,2.3658459z M98.9381638,17.2610588h24.8359375l2.3118591-14.8952131h-5.2681046l-1.7470703,11.3204679h-4.5157623
	l1.7470932-11.3204679h-5.2680588l-1.7475357,11.3204679h-4.5153275l1.7471008-11.3204679H101.25L98.9381638,17.2610588
	L98.9381638,17.2610588z M87.541954,14.1115828c-1.5055466,0-2.4998779-0.5106115-3.0643921-0.99998
	c-0.913826-0.8086576-1.0480881-1.8726912-1.0480881-2.5961466c0-1.8938875,0.7523193-3.0641341,1.5588379-3.7450113
	c0.8335266-0.7020731,2.150383-1.2553558,3.6824493-1.2553558c1.5048752,0,2.4996719,0.5107512,3.0642014,0.9998875
	c0.9138031,0.8089371,1.0482788,1.8727846,1.0482788,2.596426c0,1.8932829-0.752533,3.0639477-1.5588684,3.7448711
	C90.390686,13.558486,89.0740204,14.1115828,87.541954,14.1115828L87.541954,14.1115828z M89.1007919,1.9401116
	c-2.3383713,0-4.8650513,0.4043987-7.1231079,1.8514023c-1.8276291,1.1702929-3.9780045,3.3407054-3.9780045,6.9795032
	c0,2.5107584,1.1290588,4.0855894,2.3923645,5.064374c1.3440704,1.0424185,3.4942169,1.8547945,6.7198792,1.8547945
	c2.3383942,0,4.8650284-0.4045372,7.1224823-1.8547945c1.8280411-1.1705256,3.9786301-3.3407984,3.9786301-6.9795971
	c0-2.5108509-1.1292496-4.0856814-2.392601-5.06428C94.4761581,2.7490485,92.3260117,1.9401116,89.1007919,1.9401116
	L89.1007919,1.9401116z M60.9854393,17.2610588h5.2683144l1.2771378-8.192421h-0.013855l0.5377579-3.4259539h1.505127
	c0.7525558,0,1.4783096,0.0852489,1.9081573,0.5318542c0.2422028,0.2552357,0.4032593,0.6171961,0.4032593,1.0004449
	c0,0.4252696-0.1880417,0.9360666-0.5915375,1.2976551c-0.6178207,0.5321331-1.6395798,0.5959997-2.2574234,0.5959997H67.765976
	l0.4783707,3.277071h1.476593c1.6665878,0,4.0317841-0.2342262,5.8328247-1.8302526
	c0.8870697-0.7872763,1.7473526-2.0001469,1.7473526-3.8089247c0-1.2553558-0.457016-2.1705055-1.021553-2.7660408
	c-1.4513474-1.5321598-3.8435059-1.5746448-5.0530548-1.5746448h-7.9294434L60.9854393,17.2610588L60.9854393,17.2610588z
	 M49.5890198,14.1115828c-1.5053406,0-2.4998932-0.5106115-3.064415-0.99998
	c-0.9136009-0.8086576-1.0480881-1.8726912-1.0480881-2.5961466c0-1.8938875,0.7523346-3.0641341,1.5588531-3.7450113
	c0.8335152-0.7020731,2.1503677-1.2553558,3.682457-1.2553558c1.5048866,0,2.499649,0.5107512,3.0644112,0.9998875
	c0.9135933,0.8089371,1.0478592,1.8727846,1.0478592,2.596426c0,1.8932829-0.7523232,3.0639477-1.5588417,3.7448711
	C52.4379616,13.558486,51.1208763,14.1115828,49.5890198,14.1115828L49.5890198,14.1115828z M51.1478615,1.9401116
	c-2.3383904,0-4.8650322,0.4043987-7.1229134,1.8514023c-1.8278389,1.1702929-3.9782028,3.3407054-3.9782028,6.9795032
	c0,2.5107584,1.1292572,4.0855894,2.3925743,5.064374c1.3438492,1.0424185,3.4940033,1.8547945,6.7196655,1.8547945
	c2.3383789,0,4.8650208-0.4045372,7.1224594-1.8547945c1.8280678-1.1705256,3.978447-3.3407984,3.978447-6.9795971
	c0-2.5108509-1.1288414-4.0856814-2.39217-5.06428C56.523468,2.7490485,54.3730888,1.9401116,51.1478615,1.9401116
	L51.1478615,1.9401116z M19.2652054,17.2610588h6.0251694l4.5157623-4.91535l2.9296722,4.91535h6.0746002l-5.6443481-8.043211
	l6.961422-6.8520021h-5.8056183l-3.5749435,4.0213966l-2.472887-4.0213966h-6.0746021l5.1607895,7.0644274L19.2652054,17.2610588
	L19.2652054,17.2610588z"/>
</svg>
