<?xml version="1.0" encoding="utf-8"?>
<!-- Generator: Adobe Illustrator 17.1.0, SVG Export Plug-In . SVG Version: 6.00 Build 0)  -->
<!DOCTYPE svg PUBLIC "-//W3C//DTD SVG 1.1//EN" "http://www.w3.org/Graphics/SVG/1.1/DTD/svg11.dtd">
<svg version="1.1" id="Слой_1" xmlns="http://www.w3.org/2000/svg" xmlns:xlink="http://www.w3.org/1999/xlink" x="0px" y="0px"
	 viewBox="0 0 423.1774902 40" enable-background="new 0 0 423.1774902 40" xml:space="preserve">
<polygon display="none" fill-rule="evenodd" clip-rule="evenodd" fill="#F4C53D" points="-13.7415009,-10 436.2426758,-10 
	436.2426758,51.4012451 -13.7415009,51.4012451 -13.7415009,-10 "/>
<path fill-rule="evenodd" clip-rule="evenodd" fill="#FFFFFF" d="M0,7.6904297
	c0.6094513,0.2670898,9.8895264,5.605835,20.5228424,0.5357666C31.1561737,3.156189,41.8365479,7.9708252,41.8365479,7.9708252
	l18.4467316,30.4542847c0,0-16.1441345-4.1105347-30.7672424-1.8831177
	c-14.6228027,2.2272339-18.9048157-0.4840698-22.6644135-3.8638306C6.314743,25.1785278,2.3094025,15.5067139,0,7.6904297
	L0,7.6904297z"/>
<path fill-rule="evenodd" clip-rule="evenodd" fill="#F6D83E" d="M2.9613647,10.3665771
	c0.6698303,0.241333,8.9866943,4.0068359,18.7103577-0.5719604c9.7233887-4.5787964,19.1522827-0.2863159,19.1522827-0.2863159
	l15.9111481,26.6142578c0,0-14.1434631-3.4342651-27.4025116-1.1447144
	c-13.2593231,2.2892456-16.8933563-0.3817749-20.3312073-3.4341431C8.5104523,24.7709351,5.0731812,17.4257813,2.9613647,10.3665771
	L2.9613647,10.3665771z"/>
<path fill-rule="evenodd" clip-rule="evenodd" d="M2.9613647,10.3601074
	c2.8176422,0.9156494,5.5601501,1.421814,8.2111206,1.6176758c0.4949341,1.3221436,1.0063019,2.6516113,1.5326843,3.9744873
	c0.5275421,1.3269043,1.0700836,2.65271,1.6075439,3.9776611c-2.8335114-0.2415161-5.8127441-0.9606934-8.9855499-2.5018921
	c-0.4138641-1.1769409-0.8376312-2.3565063-1.2367706-3.5337524C3.6935577,12.7230835,3.32164,11.539917,2.9613647,10.3601074
	L2.9613647,10.3601074z M7.6504364,24.5214844c3.5274353,2.1607666,6.7484436,3.0905762,9.7707367,3.3746338
	c0.4623413,1.3276978,0.9147339,2.6478271,1.3067627,3.9718628c0.3877869,1.3118896,0.7149048,2.6300049,1.0216064,3.9376221
	C16.3017731,35.8164063,12.6941223,34.8330688,9,31.5380859c-0.1235809-1.1540527-0.2670135-2.3238525-0.4946289-3.4883423
	C8.2757416,26.8739014,7.9676361,25.7015381,7.6504364,24.5214844L7.6504364,24.5214844z M25.7723236,27.0548096
	c-2.6835632,0.4776001-5.4637756,0.7788696-8.3511505,0.8413086c-0.4841614-1.3250122-0.97995-2.6591797-1.5003815-3.9829712
	c-0.5227051-1.3286133-1.064682-2.6555176-1.608078-3.9832153c2.7158508-0.0765991,5.3398895-0.3895264,7.85112-0.9155884
	c0.6131134,1.3393555,1.2381592,2.6812744,1.8444824,4.0231323C24.6118317,24.3737183,25.1965942,25.7156372,25.7723236,27.0548096
	L25.7723236,27.0548096z M18.5127869,10.9857178c2.2045288-0.8286133,4.3324738-1.7747803,6.5279236-2.4451294
	c0.7046814,1.4300537,1.4224243,2.8615112,2.1455231,4.2874146c0.7231445,1.4257813,1.4573059,2.8515625,2.183548,4.2788696
	c-2.4145508,0.5456543-4.7967987,1.230835-7.2059479,1.9074707c-0.6239319-1.3388062-1.2444153-2.677063-1.8552856-4.0142212
	C19.698822,13.6647949,19.1041107,12.3220215,18.5127869,10.9857178L18.5127869,10.9857178z M25.7723236,27.0548096
	c2.6240387-0.5545044,5.2426758-1.0406494,7.9151764-1.3791504c0.6882477,1.4301147,1.3770752,2.8526001,2.0327301,4.2789307
	c0.651123,1.416748,1.2690735,2.8431396,1.8875885,4.2587891c-2.9846039,0.1281738-5.9096527,0.4124756-8.8029938,0.8359375
	c-0.4407806-1.3189697-0.8968811-2.6538086-1.4034271-3.9829102C26.8917236,29.7286987,26.3420715,28.3967285,25.7723236,27.0548096
	L25.7723236,27.0548096z M42.0871277,25.6275635c-2.8825531-0.1537476-5.67836-0.1337891-8.3996277,0.0480957
	c-0.7041168-1.4240723-1.4090881-2.8566895-2.1293793-4.2845459c-0.7208557-1.4291992-1.4572906-2.8569946-2.1883392-4.2842407
	c2.4950562-0.3497925,5.0813751-0.4977417,7.7646484-0.4464722c0.8333893,1.4956055,1.6698914,2.9894409,2.4950562,4.4835815
	C40.4549408,22.6381226,41.2698822,24.131958,42.0871277,25.6275635L42.0871277,25.6275635z M32.1709595,7.6989746
	c2.6152496,0.0714111,5.4541626,0.5720215,8.6524963,1.8028564c0.8818512,1.4810791,1.7705078,2.9613037,2.6563263,4.4404297
	c0.8832855,1.4749146,1.769104,2.9568481,2.6509552,4.4324951c-3.2156219-0.9039307-6.1891479-1.4442139-8.9963074-1.7143555
	c-0.833374-1.4926758-1.6616669-2.9851685-2.4896698-4.4776001C33.8167572,10.6901245,32.9887695,9.1916504,32.1709595,7.6989746
	L32.1709595,7.6989746z M42.0871277,25.6275635c2.9681549,0.3098145,6.0709534,0.8299561,9.3458405,1.6173706
	c0.8872223,1.4814453,1.7705078,2.9591675,2.6563416,4.4382935c0.8832703,1.4748535,1.7637024,2.9567871,2.6458435,4.4324951
	c-3.4040985-0.6768799-6.689743-1.1800537-9.8892212-1.5411987c-0.7741547-1.4870605-1.5457458-2.9812012-2.3391418-4.4662476
	C43.7088318,28.6141357,42.8989563,27.1199951,42.0871277,25.6275635L42.0871277,25.6275635z"/>
<path fill-rule="evenodd" clip-rule="evenodd" fill="#FFFFFF" d="M423.1774902,7.6607056
	c-0.6094971,0.2670288-9.8895874,5.6057739-20.5228271,0.5357666C392.0216064,3.1264038,381.3412476,7.94104,381.3412476,7.94104
	l-18.4467773,30.4545898c0,0,16.1438599-4.1105347,30.7669678-1.8833618
	c14.6231079,2.227478,18.9048462-0.4838257,22.6644287-3.8639526
	C416.8627319,25.1490479,420.868103,15.4769287,423.1774902,7.6607056L423.1774902,7.6607056z"/>
<path fill-rule="evenodd" clip-rule="evenodd" fill="#F6D83E" d="M420.2164307,10.3371582
	c-0.6698608,0.241272-8.9869995,4.0064697-18.7103882-0.5723267s-19.1522827-0.2862549-19.1522827-0.2862549l-15.9111328,26.614502
	c0,0,14.1431885-3.4345093,27.4022217-1.1449585c13.2593384,2.2893066,16.8933716-0.3815308,20.3312378-3.4338989
	C414.6669922,24.7410889,418.1045532,17.3959961,420.2164307,10.3371582L420.2164307,10.3371582z"/>
<path fill-rule="evenodd" clip-rule="evenodd" d="M420.2164307,10.3306274
	c-2.817688,0.9153442-5.5604248,1.4215698-8.2114868,1.6177368c-0.4945679,1.3220825-1.0062866,2.6514893-1.5324097,3.9744873
	c-0.5274658,1.3265991-1.0700073,2.6525879-1.6077271,3.9776001c2.8337402-0.2415161,5.8126831-0.9609985,8.9855347-2.5018921
	c0.4138184-1.177002,0.8378906-2.3567505,1.2367554-3.5339355C419.4839478,12.6936035,419.8561401,11.510437,420.2164307,10.3306274
	L420.2164307,10.3306274z M415.5270386,24.4916992c-3.5274048,2.1608276-6.7484131,3.0906372-9.7704468,3.374939
	c-0.4625854,1.3276978-0.9150391,2.647522-1.3067627,3.9716187c-0.3878174,1.3118896-0.71521,2.6300049-1.0216064,3.9378052
	c3.4478149,0.0105591,7.0551147-0.9725342,10.7492676-4.2674561c0.1235962-1.1542969,0.2672729-2.3242188,0.4946289-3.4883423
	C414.9017334,26.8441772,415.210083,25.6716919,415.5270386,24.4916992L415.5270386,24.4916992z M397.4054565,27.0250244
	c2.6832886,0.4779053,5.463501,0.7789307,8.3511353,0.8416138c0.4838867-1.3250122,0.9796753-2.6591797,1.5001221-3.9832764
	c0.522644-1.3283081,1.0649414-2.6552124,1.6080933-3.9829102c-2.7158813-0.0768433-5.3399658-0.3895264-7.8508911-0.9155884
	c-0.6134033,1.3393555-1.2384033,2.6812744-1.8447876,4.0228882
	C398.5656738,24.3439941,397.980896,25.6859131,397.4054565,27.0250244L397.4054565,27.0250244z M404.664978,10.9559937
	c-2.2047729-0.8283081-4.3327637-1.7747803-6.5281982-2.4448853c-0.7044067,1.4300537-1.4221802,2.8615723-2.1455688,4.2871094
	c-0.7231445,1.4258423-1.4572754,2.8519287-2.1832275,4.2788086c2.4145508,0.5460205,4.796814,1.2312012,7.2059326,1.9078369
	c0.6236572-1.3388062,1.2441406-2.677063,1.8550415-4.0144653C403.4786377,13.6353149,404.0733643,12.2922363,404.664978,10.9559937
	L404.664978,10.9559937z M397.4054565,27.0250244c-2.6240234-0.5544434-5.242981-1.0405884-7.9154663-1.3787842
	c-0.6882935,1.4300537-1.3770752,2.8521729-2.0327148,4.2789307c-0.651123,1.4164429-1.269104,2.8428345-1.8873291,4.258667
	c2.984314,0.1282349,5.909668,0.4122314,8.8026733,0.8357544c0.4411011-1.3189697,0.8969116-2.6536255,1.4034424-3.9829712
	C396.2860107,29.6992188,396.8353882,28.3668823,397.4054565,27.0250244L397.4054565,27.0250244z M381.090332,25.5977783
	c2.8825684-0.1536255,5.6786499-0.1334839,8.3996582,0.0484619c0.7044067-1.4243774,1.4093628-2.8567505,2.1293945-4.2845459
	c0.7211304-1.4295654,1.4572754-2.8573608,2.1885986-4.284668c-2.4950562-0.3494263-5.081665-0.4973755-7.7649536-0.446106
	c-0.833374,1.4952393-1.6698608,2.9893799-2.4950562,4.4835205
	C382.7225342,22.6082764,381.9078979,24.1022339,381.090332,25.5977783L381.090332,25.5977783z M391.0065308,7.6694946
	c-2.6152344,0.071167-5.4538574,0.5717163-8.6525269,1.8025513c-0.8818359,1.4810791-1.7705078,2.9616699-2.6560059,4.4407349
	c-0.8833008,1.4749146-1.7694092,2.9568481-2.6512451,4.4325562c3.2155762-0.9042358,6.1894531-1.444519,8.9962769-1.7144165
	c0.8336792-1.4926758,1.6616821-2.9854126,2.4896851-4.4778442C389.3610229,10.6603394,390.1890259,9.1622314,391.0065308,7.6694946
	L391.0065308,7.6694946z M381.090332,25.5977783c-2.9681396,0.3101196-6.0709229,0.8302612-9.3458252,1.6176758
	c-0.887207,1.4814453-1.7705078,2.9588623-2.656311,4.4382324c-0.8833008,1.4746094-1.7637329,2.9564819-2.6455688,4.432251
	c3.4038086-0.6768799,6.6894531-1.1800537,9.888916-1.5408936c0.7744141-1.4870605,1.5457153-2.9812012,2.3391113-4.4665527
	C379.4689331,28.5843506,380.2785034,27.0905151,381.090332,25.5977783L381.090332,25.5977783z"/>
<path fill="#FFFFFF" d="M366.6166382,21.2374878l-0.253418-1.0144653l-0.5414429,1.0144653H366.6166382L366.6166382,21.2374878z
	 M332.3103638,17.2927856c0.1153564,0.1165771,0.2120361,0.2497559,0.2874146,0.3939819l0.0348511-0.098877
	c0.043335-0.1229858,0.0890503-0.2454834,0.137207-0.3676147C332.6241455,17.2642212,332.4699707,17.2894287,332.3103638,17.2927856
	L332.3103638,17.2927856z M330.975769,24.2473755c0.5927124,0.0892944,1.0635986,0.4708252,1.2810059,0.9708252
	c-0.178894-0.6364136-0.277771-1.2370605-0.3296509-1.7733765C331.7317505,23.8193359,331.3905029,24.1104126,330.975769,24.2473755
	L330.975769,24.2473755z M329.979126,32.1577148h-14.8237915v-0.0012207c-0.0819092,0-0.1641235-0.0056152-0.2477417-0.0178223
	c-0.9104614-0.1326294-1.5375366-0.9564209-1.4008789-1.8393555l3.0248413-19.491272
	c0.0889893-0.8119507,0.7979736-1.4451294,1.6588745-1.4451294h14.8240356v0.0011597
	c0.0813599,0,0.1646729,0.0056152,0.2474365,0.0178223c0.9105225,0.1323853,1.5378418,0.9561157,1.4011841,1.8394165
	l-0.5592651,3.5404663c0.447876-0.6259155,0.9785156-1.2339478,1.6035156-1.8147583
	c1.2645874-1.1743774,2.7754517-2.0973511,4.4464722-2.7694092c0.3410034-0.1369629,0.6687012-0.2582397,0.9822388-0.3625488
	c2.0074463-0.6695557,4.2297974-1.0046387,6.5210571-1.0048828V8.803833h0.0037231
	c1.9578857,0,3.4956665,0.2529297,4.6981201,0.600708c1.1710205,0.338501,2.0316162,0.7736206,2.6588745,1.1588745
	c0.600708,0.3148804,0.9641113,0.97052,0.8566284,1.6633301l-0.8823853,5.6720581l-0.0025635-0.0001831
	c-0.0544434,0.3551025-0.2304688,0.6941528-0.5255737,0.9547119c-0.6799927,0.6003418-1.7330933,0.5521851-2.3521729-0.1075439
	c-0.7962646-0.8477783-1.6653442-1.3013306-2.4352417-1.5419312c-0.7732544-0.2415161-1.4816284-0.2738647-1.909729-0.2738647
	c-1.001709,0-2.3056641,0.1828613-3.3868408,0.7619629c-0.2000732,0.1068726-0.3862915,0.2230835-0.5524292,0.3474731
	c-0.1635742,0.1221924-0.3217163,0.2628174-0.472229,0.4229736l-0.0006104-0.0003052l-0.0096436,0.0108032
	c-0.3914185,0.4130249-0.6383057,0.8943481-0.7888794,1.3829346c-0.1615601,0.5258789-0.2148438,1.0758057-0.2148438,1.574707
	c0,0.364563,0.0288696,0.8810425,0.2111816,1.3549805c0.1655273,0.4307861,0.473938,0.8745117,1.0405884,1.2131958
	l-0.0002441,0.0006104l0.0198364,0.0119019c0.2114258,0.1309814,0.4880981,0.2493896,0.8180542,0.3475342l-0.0003052,0.0010986
	c0.0541382,0.0158691,0.1246948,0.0354614,0.2089233,0.0563965l-0.0005493,0.001709
	c0.4558105,0.1134033,0.9754028,0.1785278,1.5355225,0.1785278V24.590332h0.0045166
	c1.53302,0,2.9106445-0.484436,3.9931641-1.069519c0.1848145-0.0997314,0.3909302-0.2227783,0.6091919-0.3614502
	c0.1845093-0.1170654,0.3515015-0.2304077,0.5014648-0.3389893c0.3475342-0.2676392,0.8041992-0.4016724,1.2781372-0.3344727
	c0.6553345,0.0929565,1.164978,0.5439453,1.3498535,1.1187744l8.0532227-13.3151245
	c0.2672729-0.5473633,0.8427124-0.9266357,1.508606-0.9266357h8.3998413v0.001709
	c0.7260132,0,1.3947144,0.4631348,1.6030273,1.1741333l5.7310791,19.4841919
	c0.0561523,0.1621094,0.0870361,0.3361206,0.0870361,0.5164185c0,0.8937988-0.7469482,1.6183472-1.6681519,1.6183472h-7.2706299
	v-0.0057373c-0.7506104,0.0006104-1.4320679-0.4945679-1.6160278-1.2333374l-0.5365601-2.1420898h-6.1279297l-1.4961548,2.5593872
	l-0.0020142-0.0011597c-0.2857056,0.4873047-0.8251343,0.8167114-1.444519,0.8167114h-7.4882813v-0.0003052
	c-0.2862549,0.0003052-0.5756836-0.0703125-0.8405151-0.2210693c-0.0753174-0.0428467-0.1461792-0.0906982-0.2119751-0.1425781
	c-0.7883301,0.2814331-1.5732422,0.4832153-2.3453979,0.6256104c-1.2923584,0.2380981-2.5188599,0.3081055-3.6550293,0.3081055
	c-1,0-2.2129517-0.0550537-3.5288086-0.2908936c-1.3422241-0.2401123-2.7521362-0.6686401-4.081604-1.4161377l0.0003052-0.0008545
	c-2.3057251-1.281311-3.5844116-2.9559937-4.2885742-4.5736694c-0.1278076-0.293457-0.2363892-0.5837402-0.3282471-0.8677979
	c0.0291748,0.1655884,0.0325928,0.3388062,0.0054321,0.5140381l-0.7336426,4.647644
	C331.5361938,31.5354614,330.8323364,32.1577148,329.979126,32.1577148L329.979126,32.1577148z M275.0584106,24.7921753v-0.0062256
	h0.003418v0.0062256c1.1409912,0,2.1630859-0.2942505,2.9639282-0.7282104
	c0.1564331-0.0844727,0.2973633-0.1695557,0.421814-0.2537231c0.0943604-0.0640259,0.1884766-0.1343384,0.2820435-0.210022
	c0.0234985-0.0220947,0.0476074-0.043396,0.0725708-0.0646973c0.3154907-0.2661743,0.6193237-0.6068726,0.8599854-1.0332031
	c0.0504761-0.0895386,0.098938-0.182312,0.1434326-0.2772217c0.288269-0.6130981,0.4765015-1.3952026,0.4768066-2.383667h-0.0067749
	v-0.0031738c0-0.3529053-0.0297852-0.7789307-0.1599121-1.182251c-0.1153564-0.3574219-0.3186035-0.7220459-0.6689453-1.0321655
	l0.0022583-0.0021973c-0.1918945-0.1646729-0.4549561-0.3373413-0.8002319-0.489563
	c-0.1216431-0.053833-0.1970215-0.0864258-0.2216797-0.09552c-0.4932251-0.1836548-1.1143188-0.3081665-1.8796387-0.3084106
	v0.0062256h-0.003418v-0.0062256c-1.1412354,0-2.1633911,0.2942505-2.9641724,0.7281494
	c-0.1182251,0.0638428-0.2279663,0.1278687-0.3279419,0.1920166c-0.0300903,0.0234375-0.0612793,0.0462036-0.0938721,0.0679932
	c-0.1102905,0.0745239-0.2061157,0.144043-0.2868652,0.2077637c-0.0218506,0.020752-0.0444946,0.0405273-0.067749,0.0604248
	c-0.3115234,0.2630615-0.6142578,0.6049194-0.8597412,1.0394287l-0.0028076-0.0014648
	c-0.0496216,0.088501-0.0966797,0.1795044-0.140625,0.2724609c-0.2883301,0.6134644-0.4767456,1.3952637-0.4770508,2.3839722
	h0.0067749v0.0031128c0,0.3526001,0.0297241,0.7789307,0.1599121,1.182312
	c0.1153564,0.3574829,0.3182983,0.7216797,0.6689453,1.0317993l-0.0025635,0.0028076
	c0.1925049,0.1644897,0.4555664,0.3370361,0.8005371,0.4892578c0.121582,0.053894,0.1972656,0.0864258,0.2216797,0.09552
	C273.6717529,24.6674194,274.2927856,24.7921753,275.0584106,24.7921753L275.0584106,24.7921753z M272.0077515,9.3575439
	c1.743103-0.4073486,3.4648438-0.5537109,5.1010132-0.5537109c3.3167725,0,5.8804321,0.6185913,7.8116455,1.5393066
	c0.4017334,0.1915894,0.7651367,0.3885498,1.0913696,0.5884399c0.3529663,0.2163086,0.6704102,0.4353638,0.9547119,0.6557007
	l0.0020142,0.0016479c0.9937744,0.7698364,1.9375,1.7787476,2.6356201,3.0948486
	c0.6930542,1.3067627,1.1378784,2.8950806,1.1378784,4.8189087c0,1.885376-0.3852539,3.510437-1.0023804,4.904541
	c0.1616211,0.0147705,0.3007813,0.0218506,0.4178467,0.0220947v-0.0062256h0.0098877
	c0.7194214,0,1.1866455-0.1918945,1.47229-0.4203491c0.0383301-0.0307007,0.0817261-0.0714722,0.1273193-0.1187744
	c0.0269165-0.027832,0.0561523-0.0635376,0.0856323-0.1029053l0.0010986,0.0007935l0.0065308-0.0087891
	c0.1239014-0.163208,0.2466431-0.5320435,0.350647-0.9243164c0.1218872-0.4603882,0.2106323-0.9850464,0.2611084-1.3164063
	l1.645752-10.7033691c0.0791016-0.8220215,0.7931519-1.4660645,1.661377-1.4660645h18.7764282v0.0011597
	c0.0813599,0,0.1643677,0.0056152,0.2474976,0.0178223c0.9104614,0.1323853,1.5377197,0.9561157,1.401123,1.8394165
	l-3.0268555,19.5079956c-0.097168,0.8039551-0.8018799,1.4284058-1.6565552,1.4284058h-6.9182129v-0.0022583
	c-0.0796509,0-0.1598511-0.005188-0.2409668-0.0167847c-0.9104614-0.1289063-1.5406494-0.9498291-1.4076538-1.8331299
	l2.0092163-13.0187378h-1.5724487l-0.986145,6.3399658l-0.0011597-0.0001831l-0.0010986,0.0076294
	c-0.2417603,1.5653076-0.5280762,3.4157104-2.0505981,5.2404175c-1.3232422,1.5800171-3.0177612,2.4749146-4.7956543,2.9707031
	c-1.6676025,0.4648438-3.3786011,0.5683594-4.8945923,0.5683594v-0.0062256c-0.6386108,0-1.1578979-0.0142212-1.612854-0.0530396
	c-0.4694214-0.0402222-0.9434204-0.1082764-1.4842529-0.2137451l-0.0147095-0.0020142
	c-0.9105225-0.1326294-1.5378418-0.9564209-1.4009399-1.8393555l0.2333374-1.4788208
	c-0.15448,0.1315308-0.3092651,0.2584229-0.4640503,0.3792725c-0.3571777,0.2786255-0.7109375,0.5283813-1.0536499,0.7514648
	c-0.0286255,0.0211792-0.0578003,0.0419312-0.0878296,0.0615234l-0.00177,0.0010986l-0.0022583-0.0028076l-0.0025024,0.001709
	l-0.00177,0.0010986c-1.652832,1.0618896-3.4020996,1.7407837-5.1641235,2.1531982
	c-1.7424316,0.4078979-3.467041,0.5541992-5.1068726,0.5541992c-3.3228149,0-5.8881226-0.6216431-7.8185425-1.5432739
	c-0.3823853-0.1824951-0.7443848-0.3800659-1.0847778-0.5889893c-0.2894287-0.1774902-0.5723267-0.3721924-0.8479004-0.5805054
	c-0.0371094-0.0241089-0.0731201-0.0493774-0.1085815-0.0768433c-0.9940796-0.7701416-1.937439-1.7789917-2.6356201-3.095459
	c-0.6930542-1.3067627-1.1381226-2.8949585-1.1381226-4.8185425c0-3.9495239,1.6880493-6.760376,3.666626-8.6876831
	c0.3809814-0.3712769,0.7701416-0.7072754,1.1571045-1.0093994c0.3563232-0.2783203,0.7098389-0.5275269,1.0521851-0.7506104
	c0.0286255-0.0215454,0.0584717-0.0424805,0.0890503-0.0621338l0.0016479-0.0010376l0.0023193,0.0027466l0.0022583-0.001709
	l0.0020142-0.0010376C268.4882813,10.4483032,270.2404175,9.7705078,272.0077515,9.3575439L272.0077515,9.3575439z
	 M241.2147369,9.362915h6.9179688v0.0022583c0.0793762,0,0.1601257,0.005127,0.2409668,0.0167236
	c0.9104614,0.1289673,1.5405884,0.9498291,1.4076843,1.8328247l-0.5397339,3.4889526l5.1783447-4.8792725l0.0011292,0.0014038
	c0.2992859-0.2823486,0.708374-0.456665,1.1584778-0.456665h8.0200958c0.4841309-0.0269165,0.9770508,0.1495972,1.3288574,0.5246582
	c0.6191406,0.659668,0.569458,1.6815186-0.1105347,2.2818604l-9.7234039,8.59729l7.072403,8.7037354
	c0.255188,0.2843628,0.4102173,0.65625,0.4102173,1.0626831c0,0.8937988-0.7469482,1.6183472-1.6681519,1.6183472h-8.3293915
	v-0.005127c-0.5198364-0.0006104-1.0312195-0.2358398-1.3554993-0.6777344l-3.7856445-5.1550903l-0.6846008,4.4095459
	c-0.0969238,0.8036499-0.8016052,1.4284058-1.6565552,1.4284058h-6.9176636v-0.0012207
	c-0.0819092,0-0.1644287-0.0056152-0.2477722-0.0178223c-0.9104919-0.1326294-1.5377502-0.9564209-1.4008484-1.8393555
	l3.0245361-19.491272C239.6449127,9.9958496,240.3535919,9.362915,241.2147369,9.362915L241.2147369,9.362915z
	 M227.0625153,32.1577148h-14.8237915v-0.0012207c-0.0813904,0-0.1646729-0.0056152-0.247467-0.0178223
	c-0.9104919-0.1326294-1.5377808-0.9564209-1.4011536-1.8393555l3.0276489-19.5080566
	c0.0969849-0.8039551,0.8016663-1.4283447,1.6565552-1.4283447h14.8235168v0.0011597
	c0.0813599,0,0.1647034,0.0056152,0.2474976,0.0178223c0.9107666,0.1323853,1.5377808,0.9561157,1.401123,1.8394165
	l-0.7335815,4.6439819c-0.09552,0.7922974-0.7814941,1.4096069-1.6194458,1.4274902
	c0.3458557,0.3492432,0.5269775,0.8444824,0.447052,1.3604126l-0.6625061,4.2510986
	c-0.0750732,0.6275635-0.5207214,1.1452026-1.1188049,1.3430786c0.90625,0.1360474,1.5295715,0.9578247,1.3932495,1.838562
	l-0.7338867,4.647644C228.6193085,31.5354614,227.9157257,32.1577148,227.0625153,32.1577148L227.0625153,32.1577148z
	 M134.7658844,24.7921753v-0.0062256h0.0033722v0.0062256c1.1412354,0,2.1631317-0.2942505,2.9642029-0.7282104
	c0.1564789-0.0844727,0.297348-0.1695557,0.4215088-0.2537231c0.0935516-0.0632324,0.187912-0.1332397,0.281189-0.208374
	c0.023819-0.022644,0.0479126-0.0447388,0.0737-0.0663452c0.3152161-0.2661743,0.6188202-0.6068726,0.8594818-1.0332031
	c0.0507507-0.0895386,0.0989227-0.182312,0.1434174-0.2772217c0.2885742-0.6130981,0.4767914-1.3952026,0.4767914-2.383667
	h-0.0065155v-0.0031738c0-0.3529053-0.0297699-0.7789307-0.1598663-1.182251
	c-0.115387-0.3574219-0.3183441-0.7220459-0.6687012-1.0321655l0.0022888-0.0025024
	c-0.191925-0.1643677-0.4552612-0.336731-0.8005371-0.4892578c-0.1218872-0.053833-0.1972809-0.0864258-0.2216492-0.09552
	c-0.4935303-0.1836548-1.1142883-0.3081665-1.8796692-0.3084106v0.0062256h-0.0033875v-0.0062256
	c-1.14151,0-2.1634064,0.2942505-2.9642029,0.7281494c-0.1567383,0.0845947-0.2976379,0.1696167-0.4217834,0.2537842
	c-0.0943909,0.0637817-0.1882019,0.1340942-0.2820587,0.2097778c-0.0232391,0.0220947-0.0476074,0.0436401-0.0725555,0.0646362
	c-0.3157806,0.2664795-0.6193848,0.6071777-0.8600159,1.0332031c-0.0504761,0.0895996-0.0986786,0.1825562-0.143158,0.2772217
	c-0.2882996,0.6131592-0.4765015,1.3952637-0.4768066,2.3839722h0.0065308v0.0031128
	c0,0.3526001,0.0297546,0.7789307,0.1598663,1.182312c0.1156616,0.3574829,0.3183441,0.7216797,0.6689758,1.0317993
	l-0.002243,0.0025635c0.1924744,0.1647339,0.4552155,0.3375854,0.7999115,0.489502
	c0.1218872,0.053894,0.1972961,0.0864258,0.2219543,0.09552C133.3791504,24.6674194,134.0002289,24.7921753,134.7658844,24.7921753
	L134.7658844,24.7921753z M110.6135559,16.9019165l-0.1981354,1.2622681h0.0362701
	c0.3328094,0,0.7631073-0.0147705,1.1435089-0.0915527l0.0002747,0.0014038l0.0062256-0.0014038
	c0.2880249-0.0578613,0.5567322-0.145752,0.7131958-0.2803955l0.0003052,0.0003662
	c0.0462036-0.0488281,0.0889893-0.114624,0.1269836-0.1887817l0.0025482,0.0014038l0.0084991-0.0165405l0.0113373-0.02771
	c0.0445099-0.1034546,0.06633-0.1941528,0.06633-0.2627563h-0.0065002v-0.0026245
	c0-0.0639648-0.018158-0.1237793-0.0473633-0.1711426l-0.0164185-0.0241089l-0.0263672-0.027832
	c-0.0419617-0.0325317-0.1343689-0.0637207-0.2559814-0.092041c-0.2630463-0.0615234-0.6272888-0.0785522-1.020752-0.0785522
	H110.6135559L110.6135559,16.9019165z M84.9308167,24.7921753v-0.0062256h0.0034027
	c1.1488953,0,2.1699219-0.2920532,2.9638977-0.7219849c0.1564789-0.0844727,0.297348-0.1695557,0.421814-0.2537231
	c0.0932465-0.0632324,0.1873474-0.1332397,0.2809143-0.208374c0.0238037-0.022644,0.0478821-0.0447388,0.0736847-0.0663452
	c0.3115387-0.2626953,0.6142578-0.6046143,0.8597565-1.0394287l0.0033875,0.001709
	c0.0496063-0.0881348,0.0960999-0.1796875,0.1400299-0.2727051c0.2882843-0.6130981,0.4765015-1.3952026,0.4767914-2.383667
	h-0.0065155v-0.0031738c0-0.3529053-0.0297699-0.7791748-0.1598816-1.182251
	c-0.1153717-0.3574219-0.3183136-0.7220459-0.6686859-1.0321655l0.0025482-0.0025024
	c-0.1921844-0.1643677-0.4552307-0.336731-0.8007813-0.4892578c-0.1216125-0.053833-0.1970215-0.0864258-0.2216797-0.09552
	c-0.4932251-0.1836548-1.1143036-0.3081665-1.8796539-0.3084106v0.0062256h-0.0033875v-0.0062256
	c-1.1412201,0-2.1631317,0.2942505-2.9641876,0.7281494c-0.1182251,0.0638428-0.2270508,0.1282349-0.3268433,0.1920166
	c-0.0305939,0.0237427-0.0623627,0.0462036-0.0946655,0.0679932c-0.1105652,0.0748291-0.2060852,0.1442871-0.2868805,0.2080688
	c-0.0218201,0.0204468-0.0447845,0.0404663-0.0680084,0.0601196c-0.3155212,0.2664795-0.6191101,0.6071777-0.8597717,1.0332031
	c-0.0507355,0.0895996-0.0989075,0.1825562-0.1434326,0.2772217c-0.2882843,0.6131592-0.4765015,1.3952637-0.4767914,2.3839722
	h0.0065308v0.0031128c0,0.3526001,0.0297546,0.7789307,0.1601563,1.182312
	c0.1153717,0.3574829,0.3183441,0.7216797,0.6686859,1.0317993l-0.0022736,0.0025635
	c0.1924896,0.1647339,0.455246,0.3375854,0.8002319,0.489502c0.1215973,0.053894,0.1970062,0.0864258,0.2216797,0.09552
	C83.5440979,24.6674194,84.1651764,24.7921753,84.9308167,24.7921753L84.9308167,24.7921753z M81.8804626,9.3575439
	c1.7427368-0.4073486,3.4644928-0.5537109,5.100647-0.5537109c3.3168182,0,5.8802032,0.6185913,7.8117218,1.5393066
	c0.4013977,0.1915894,0.7650604,0.3885498,1.0913391,0.5884399c0.3529053,0.2163086,0.6704102,0.4353638,0.9547119,0.6557007
	l0.0019684,0.0016479c0.9938354,0.7698364,1.9374847,1.7785034,2.6353912,3.0948486
	c0.3574524,0.6737671,0.6488342,1.4230347,0.8472595,2.2538452l0.9538574-6.1463623
	c0.097229-0.8039551,0.8019409-1.4283447,1.6565857-1.4283447h10.411911c0.8583527,0,2.1415863,0.0161743,3.5566559,0.3234253
	c1.5105591,0.3282471,3.0835114,0.9807739,4.3035583,2.2688599c0.4192352,0.4421997,0.8044586,0.9821777,1.1091766,1.6205444
	c0.0487518,0.1026611,0.1040344,0.2293701,0.1647034,0.3812866c0.1289673,0.3203125,0.2378387,0.6638184,0.3206024,1.029541
	c0.4447479-0.6125488,0.9311676-1.1636353,1.4371643-1.6566162c0.3809662-0.3712769,0.7698822-0.7072754,1.1571045-1.0093994
	c0.3568726-0.2786255,0.7106323-0.5280762,1.0533447-0.7512207c0.0286255-0.0211792,0.0578308-0.0418701,0.0878906-0.0615234
	l0.0016785-0.0010376l0.0019836,0.0027466l0.0028381-0.001709l0.001709-0.0010376
	c1.6514587-1.0584717,3.4035492-1.7362671,5.1709595-2.149231c1.7427368-0.4073486,3.4647827-0.5537109,5.1009521-0.5537109
	c3.3165283,0,5.8801727,0.6185913,7.8114319,1.5393066c0.4016724,0.1915894,0.7650604,0.3885498,1.0913239,0.5884399
	c0.3526459,0.2163086,0.6706848,0.4353638,0.9550018,0.6557007l0.0016937,0.0016479
	c0.9941254,0.7698364,1.9377594,1.7787476,2.6359406,3.0948486c0.3571777,0.6735229,0.6485596,1.4224243,0.8470001,2.2527466
	l0.9538422-6.1452637c0.0969543-0.8039551,0.8016357-1.4283447,1.6565704-1.4283447h6.9176788v0.0022583
	c0.0799255,0,0.1598816,0.005127,0.2412262,0.0167236c0.9104919,0.1289673,1.5403137,0.9498291,1.4073944,1.8328247
	l-2.0091858,13.019043h2.5593872l2.0707092-13.4127808c0.0830536-0.8182983,0.7945557-1.4580688,1.6599731-1.4580688h6.9173889
	v0.0022583c0.0796509,0,0.1598511,0.005127,0.2409668,0.0167236c0.9104919,0.1289673,1.5405884,0.9498291,1.4076843,1.8328247
	L172.174118,24.227478h2.5599365l2.0690308-13.4064941c0.0830688-0.8182983,0.7945862-1.4580688,1.6600037-1.4580688h6.9173889
	v0.0011597c0.0819092,0,0.164093,0.0056152,0.2474365,0.0178223c0.723938,0.1054688,1.2693481,0.6483154,1.3935242,1.3101196
	c0.1408691-0.7553711,0.822052-1.3291016,1.6415405-1.3291016h6.6704712v0.0011597
	c0.0819397,0,0.1644287,0.0056152,0.2477722,0.0178223c0.9104919,0.1323853,1.5377808,0.9561157,1.4011536,1.8394165
	l-1.0267029,6.5633545l7.5118103-7.8295898c0.3058777-0.3614502,0.7695923-0.5921631,1.2894592-0.5921631h6.9176636v0.0011597
	c0.081665,0,0.1641235,0.0056152,0.247467,0.0178223c0.9104919,0.1323853,1.5378113,0.9561157,1.4011536,1.8394165
	l-3.0250854,19.4910278c-0.0892944,0.8121338-0.7982788,1.4453735-1.6591187,1.4453735h-6.6707764v-0.0012207
	c-0.0813599,0-0.1644287-0.0056152-0.247467-0.0178223c-0.9104919-0.1326294-1.5378418-0.9564209-1.4011841-1.8393555
	l1.0267334-6.5635986l-7.5075684,7.8253174c-0.3058472,0.3638916-0.7718811,0.5966797-1.2937317,0.5966797h-6.9176941v-0.0012207
	c-0.0813293,0-0.1647034-0.0056152-0.247467-0.0178223c-0.7242126-0.1054688-1.2687683-0.6488037-1.3926392-1.31073
	c-0.1405945,0.7556763-0.8229065,1.3297729-1.6424255,1.3297729h-32.611145v-0.0012207
	c-0.0816345,0-0.1647034-0.0056152-0.2477722-0.0178223c-0.9104767-0.1326294-1.5377808-0.9564209-1.4008789-1.8393555
	l0.7222748-4.6553345c-0.5853424,0.9810181-1.2849426,1.8258057-2.0247955,2.5463867
	c-0.3812561,0.3712769-0.7704468,0.7072144-1.1573792,1.0093994c-0.3560181,0.2780762-0.7089233,0.5272217-1.051651,0.7503052
	c-0.0289154,0.0215454-0.05896,0.0427856-0.0895691,0.0626831l-0.0016937,0.0010986l-0.0022583-0.0028076l-0.0022888,0.0014038
	l-0.0019836,0.0014038c-1.6528625,1.0618896-3.4021301,1.7407837-5.1641541,2.1531982
	c-1.7424622,0.4078979-3.4670563,0.5541992-5.1069031,0.5541992c-3.3227539,0-5.8878479-0.6216431-7.8182373-1.5432739
	c-0.3824005-0.1824951-0.7443542-0.3800659-1.0850983-0.5889893c-0.3529205-0.2162476-0.6706696-0.4359131-0.954422-0.6558838
	l-0.0019836-0.0014648c-0.9941101-0.7701416-1.9374695-1.7789917-2.6356659-3.095459
	c-0.6389313-1.2044678-1.066391-2.6470337-1.1295929-4.3713379c-0.1077271,0.1080933-0.2168579,0.2120972-0.3262634,0.3118896
	c-0.0328827,0.0346069-0.0680389,0.067688-0.1046143,0.0999756c-1.4045715,1.2445068-3.0177612,1.9556274-4.5994873,2.3539429
	c-1.5295715,0.3851929-2.9871521,0.4725952-4.1802368,0.4725952h-1.9389191v-0.0040283
	c-0.0575409-0.0002441-0.1150818-0.0028076-0.1717834-0.0085449l-0.7831879,5.0227051
	c-0.0895844,0.8119507-0.7982483,1.4443359-1.658844,1.4443359h-6.9176788v-0.0012207
	c-0.0816345,0-0.1647034-0.0056152-0.2477264-0.0178223c-0.9105072-0.1326294-1.5378265-0.9564209-1.4008942-1.8393555
	l0.7222595-4.6553345c-0.5853577,0.9810181-1.2849274,1.8258057-2.0247803,2.5463867
	c-0.3809814,0.3712769-0.7701874,0.7072144-1.1571198,1.0093994c-0.3560181,0.2780762-0.7089233,0.5272217-1.051651,0.7503052
	c-0.0289001,0.0215454-0.05896,0.0427856-0.089859,0.0626831l-0.0016937,0.0010986l-0.0019684-0.0028076l-0.0022888,0.0014038
	l-0.0019684,0.0014038c-1.653183,1.0618896-3.4024353,1.7407837-5.1641693,2.1531982
	c-1.7427216,0.4078979-3.4673309,0.5541992-5.1071777,0.5541992c-3.3227692,0-5.8878326-0.6216431-7.8182373-1.5432739
	c-0.3823853-0.1824951-0.7443848-0.3800659-1.0848236-0.5889893c-0.3531799-0.2162476-0.6709595-0.4359131-0.9547119-0.6558838
	l-0.0019836-0.0014648c-0.9941101-0.7701416-1.9374695-1.7789917-2.6356354-3.095459
	c-0.6933746-1.3070068-1.1378174-2.8949585-1.1378174-4.8185425c0-3.9495239,1.6880035-6.760376,3.6663055-8.6876831
	c0.3812561-0.3712769,0.7701721-0.7072754,1.1574097-1.0093994c0.3557281-0.2780762,0.7089233-0.5269775,1.0513763-0.7497559
	c0.0291748-0.0215454,0.0586548-0.0430908,0.0895538-0.0629883l0.0016937-0.0010376l0.0022736,0.0027466l0.0025482-0.001709
	l0.001709-0.0010376C78.360672,10.4483032,80.1127777,9.7705078,81.8804626,9.3575439L81.8804626,9.3575439z M53.0279999,32.1577148
	h-7.9112091v-0.005127c-0.4271851,0-0.8543549-0.1584473-1.1794739-0.4753418
	c-0.6474457-0.6318359-0.6446075-1.6535034,0.0067902-2.2816162l9.6321106-9.3180542l-5.8917847-8.0648193
	c-0.2389832-0.2800903-0.3829803-0.6398315-0.3829803-1.0317993c0-0.8934937,0.7469482-1.618042,1.6681824-1.618042h7.9764099
	v0.0053711c0.5655212,0,1.1160126,0.2800903,1.4269867,0.784668l2.0670166,3.3607178l3.106781-3.4951172
	c0.3041382-0.3974609,0.7911377-0.6556396,1.3404846-0.6556396h7.6232147v0.005127
	c0.4212341-0.0003662,0.842453,0.1535645,1.1664734,0.4625244c0.6550751,0.6248169,0.6635895,1.6466675,0.0195465,2.2819214
	l-8.1816406,8.0529785l6.5769501,9.3721924c0.2242126,0.2755127,0.3577271,0.6235962,0.3577271,1.001709
	c0,0.8937988-0.7471924,1.6183472-1.6684723,1.6183472h-7.9764099v-0.0042725
	c-0.5734558-0.0008545-1.1318817-0.2888184-1.4400024-0.8049927l-2.6946106-4.520752l-4.3466339,4.7310181
	C54.0175781,31.9238281,53.5509949,32.1577148,53.0279999,32.1577148L53.0279999,32.1577148z"/>
<path fill-rule="evenodd" clip-rule="evenodd" fill="#782834" d="M45.1167908,30.7520142h7.911499l5.9295197-6.4542236
	l3.8468933,6.4542236h7.9764099l-7.4114685-10.5613403l9.1408844-8.9971313h-7.6232147l-4.6941681,5.2802734l-3.2471008-5.2802734
	H48.969635l6.776535,9.276062L45.1167908,30.7520142L45.1167908,30.7520142z M86.9811096,10.6345215
	c-3.0704803,0-6.3881531,0.5309448-9.3529205,2.4310303c-2.4000854,1.5366211-5.2236786,4.3865967-5.2236786,9.1646729
	c0,3.2966919,1.4828033,5.364502,3.1416626,6.6497803c1.7645416,1.3688354,4.5878601,2.4355469,8.8233795,2.4355469
	c3.0704956,0,6.3881531-0.53125,9.352356-2.4355469c2.4003601-1.5369873,5.2239532-4.3865967,5.2239532-9.1646729
	c0-3.2970581-1.4822235-5.3648682-3.1410675-6.6497803C94.0396576,11.6966553,91.2160797,10.6345215,86.9811096,10.6345215
	L86.9811096,10.6345215z M84.9342194,26.6165161c-1.9766083,0-3.2825317-0.6703491-4.0237885-1.3129883
	c-1.1996155-1.0618286-1.3762207-2.4591064-1.3762207-3.4089355c0-2.4868774,0.9878693-4.0234985,2.0469055-4.9175415
	c1.0944519-0.921814,2.8235931-1.6483154,4.8353424-1.6483154c1.9760284,0,3.2822266,0.6705933,4.0237579,1.3129883
	c1.1996307,1.0621338,1.3759613,2.4590454,1.3759613,3.4091797c0,2.4859619-0.9878845,4.0232544-2.0469208,4.9172363
	C88.6750946,25.8903198,86.9456787,26.6165161,84.9342194,26.6165161L84.9342194,26.6165161z M99.8985901,30.7520142h6.9176788
	l1.6769562-10.7572021h-0.0181122l0.7060852-4.4985962h1.9763184c0.9881592,0,1.9411621,0.1119385,2.5055389,0.6984863
	c0.3180695,0.335022,0.5295105,0.8104248,0.5295105,1.3135376c0,0.5584717-0.2468719,1.229126-0.7766876,1.7039185
	c-0.8112793,0.6987305-2.1529083,0.7826538-2.9641876,0.7826538h-1.649765l0.6281586,4.3029785h1.9389191
	c2.188324,0,5.2939758-0.3075562,7.658905-2.4031982c1.1647644-1.0338745,2.2943726-2.6262817,2.2943726-5.0014648
	c0-1.6483765-0.6000977-2.8499146-1.3413544-3.632019c-1.9057312-2.0117188-5.046814-2.0675659-6.6350708-2.0675659h-10.411911
	L99.8985901,30.7520142L99.8985901,30.7520142z M136.8161774,10.6345215c-3.0705109,0-6.3881531,0.5309448-9.3532104,2.4310303
	c-2.3998108,1.5366211-5.2233887,4.3865967-5.2233887,9.1646729c0,3.2966919,1.4825134,5.364502,3.1413574,6.6497803
	c1.7648315,1.3688354,4.5881348,2.4355469,8.8236694,2.4355469c3.0704956,0,6.3881531-0.53125,9.3523407-2.4355469
	c2.4003906-1.5369873,5.2242584-4.3865967,5.2242584-9.1646729c0-3.2970581-1.4827881-5.3648682-3.1416473-6.6497803
	C143.8744354,11.6966553,141.0511322,10.6345215,136.8161774,10.6345215L136.8161774,10.6345215z M134.7692566,26.6165161
	c-1.9768524,0-3.2825165-0.6703491-4.0237579-1.3129883c-1.1999207-1.0618286-1.3762207-2.4591064-1.3762207-3.4089355
	c0-2.4868774,0.9878693-4.0234985,2.0469055-4.9175415c1.0944519-0.921814,2.8235626-1.6483154,4.8353271-1.6483154
	c1.9760132,0,3.2822266,0.6705933,4.0234985,1.3129883c1.1998901,1.0621338,1.3764954,2.4590454,1.3764954,3.4091797
	c0,2.4859619-0.9881592,4.0232544-2.0469055,4.9172363C138.5098572,25.8903198,136.7810211,26.6165161,134.7692566,26.6165161
	L134.7692566,26.6165161z M149.7333679,30.7520142h32.6114349l3.035675-19.5584717h-6.9173889l-2.2941284,14.864563h-5.9294739
	l2.2940674-14.864563h-6.9173889l-2.2946472,14.864563h-5.9289246l2.2940674-14.864563h-6.9176788L149.7333679,30.7520142
	L149.7333679,30.7520142z M188.6629791,11.1935425l-3.0356445,19.5584717h6.9176941l11.2589111-11.7354126l-1.8354492,11.7354126
	h6.6705322l3.0355835-19.5584717h-6.9179077l-11.2583923,11.7348633l1.835144-11.7348633H188.6629791L188.6629791,11.1935425z
	 M212.2387238,30.7520142h14.8237915l0.7412415-4.6939087h-7.9058228l0.458374-3.1296997h7.1651306l0.6706543-4.3030396h-7.1651306
	l0.4237976-2.7379761h7.9055481l0.7415161-4.6938477h-14.8235168L212.2387238,30.7520142L212.2387238,30.7520142z
	 M248.1327057,11.1935425h-6.9179688l-3.0350342,19.5584717h6.9176636l1.3056335-8.4104004l6.1766663,8.4104004h8.3293915
	l-8.0824432-9.9473267l10.8705292-9.611145h-8.117569l-8.7176208,8.2141724L248.1327057,11.1935425L248.1327057,11.1935425z
	 M277.1087646,10.6345215c-3.0708008,0-6.3881836,0.5309448-9.3532715,2.4310303
	c-2.4000244,1.5366211-5.2233276,4.3865967-5.2233276,9.1646729c0,3.2966919,1.4824829,5.364502,3.1413574,6.6497803
	c1.7647705,1.3688354,4.5878296,2.4355469,8.8236694,2.4355469c3.0704346,0,6.3881836-0.53125,9.352356-2.4355469
	c2.4006348-1.5369873,5.223938-4.3865967,5.223938-9.1646729c0-3.2970581-1.4825439-5.3648682-3.1413574-6.6497803
	C284.1672974,11.6966553,281.3439941,10.6345215,277.1087646,10.6345215L277.1087646,10.6345215z M275.0615845,26.6165161
	c-1.9766235,0-3.2819824-0.6703491-4.0235596-1.3129883c-1.1998291-1.0618286-1.3762207-2.4591064-1.3762207-3.4089355
	c0-2.4868774,0.9881592-4.0234985,2.046936-4.9175415c1.0944214-0.921814,2.8233032-1.6483154,4.8353271-1.6483154
	c1.9763184,0,3.2825317,0.6705933,4.0234985,1.3129883c1.1998901,1.0621338,1.3765259,2.4590454,1.3765259,3.4091797
	c0,2.4859619-0.987854,4.0232544-2.0472412,4.9172363C278.8024292,25.8903198,277.0736084,26.6165161,275.0615845,26.6165161
	L275.0615845,26.6165161z M295.7791138,11.1935425l-1.6585083,10.7851563
	c-0.1060181,0.6982422-0.3886719,2.2630005-0.9181519,2.9614258c-0.4586792,0.6148682-1.411377,1.3135986-3.0350952,1.3135986
	c-0.4937744,0-1.0587158-0.0562134-1.6290283-0.1956177l-0.741272,4.6939087
	c0.9940796,0.2001343,1.7705078,0.2559204,2.8643799,0.2559204c2.788147,0,6.2473145-0.3676758,8.4002075-2.9384155
	c1.2353516-1.480835,1.4825439-3.1013794,1.6940308-4.470459l1.1998901-7.7116699h4.94104l-2.2940674,14.864624h6.9179688
	l3.03479-19.5584717H295.7791138L295.7791138,11.1935425z M315.1553345,30.7520142h14.8237915l0.7409668-4.6939087h-7.9055176
	l0.458374-3.1296997h7.1651001l0.6707153-4.3030396h-7.1651611l0.4235229-2.7379761h7.9058228l0.7415161-4.6938477h-14.8237915
	L315.1553345,30.7520142L315.1553345,30.7520142z M352.3198242,24.2977905
	c-1.3765259,1.0057373-3.5645752,2.1231689-6.1409912,2.1231689c-1.4119263,0-2.6469727-0.335022-3.4588013-0.8381958
	c-1.8706055-1.1171265-2.046875-2.9616699-2.046875-3.9395752c0-1.2574463,0.2822876-2.8222046,1.4467773-4.0513306
	c1.5176392-1.6202393,3.9528809-2.0675659,5.6468506-2.0675659c1.059082,0,3.5297241,0.1675415,5.5766602,2.3468018
	l0.8823853-5.6721191c-1.059021-0.670105-2.9998779-1.5644531-6.5650024-1.5644531
	c-4.1998291,0-8.15271,1.229126-10.7997437,3.6881714c-2.6470337,2.4587402-3.317627,5.4765625-3.317627,8.2141724
	c0,1.7331543,0.3883057,5.1414795,4.2706299,7.2930298c2.2943726,1.2900391,4.9059448,1.4856567,6.7761841,1.4856567
	c2.1175537,0,4.5181885-0.2514648,6.8825684-1.4578857L352.3198242,24.2977905L352.3198242,24.2977905z M351.6431885,30.7520142
	h7.4882813l1.9763184-3.3812256h8.3999023l0.8469849,3.3812256h7.2706299l-5.7529907-19.5584717h-8.3998413L351.6431885,30.7520142
	L351.6431885,30.7520142z M366.9312744,15.8596191l1.8000488,7.2084961h-5.6472168L366.9312744,15.8596191L366.9312744,15.8596191z"
	/>
</svg>
